<?xml version="1.0" encoding="utf-8"?>
<!-- Generator: Adobe Illustrator 26.2.1, SVG Export Plug-In . SVG Version: 6.00 Build 0)  -->
<svg version="1.1" id="Layer_1" xmlns="http://www.w3.org/2000/svg" xmlns:xlink="http://www.w3.org/1999/xlink" x="0px" y="0px"
	 width="39.6px" height="36.4px" viewBox="0 0 39.6 36.4" style="enable-background:new 0 0 39.6 36.4;" xml:space="preserve">
<style type="text/css">
	.st0{fill:#292974;}
</style>
<g>
	<path class="st0" d="M39.12,24.37c-0.21,0.5-0.35,1.05-0.65,1.5c-0.64,0.94-1.6,1.33-2.73,1.33c-0.16,0-0.32,0-0.4,0
		c-0.29,0.77-0.48,1.52-0.85,2.17c-1.11,1.96-2.86,2.96-5.12,2.97c-6.39,0.02-12.78,0.02-19.17,0c-3-0.01-5.3-2-5.81-4.94
		c-0.01-0.05-0.02-0.1-0.03-0.18c-0.3-0.02-0.59-0.03-0.89-0.05c-1.52-0.12-2.66-1.15-2.95-2.66c-0.01-0.05-0.04-0.09-0.06-0.13
		c0-0.2,0-0.4,0-0.6c0.22-0.36,0.56-0.44,0.96-0.44c12.24,0.01,24.48,0.01,36.72,0c0.41,0,0.74,0.08,0.96,0.44
		C39.12,23.96,39.12,24.17,39.12,24.37z M1.89,24.63c0.25,0.61,0.65,1.01,1.22,1.17c0.3,0.08,0.62,0.1,0.93,0.1
		c9.18,0,18.37,0,27.55,0c0.16,0,0.33,0,0.49,0.02c0.38,0.05,0.61,0.31,0.59,0.65c-0.01,0.33-0.24,0.56-0.61,0.6
		c-0.16,0.02-0.33,0.01-0.49,0.01c-8.47,0-16.93,0-25.4,0c-0.16,0-0.31,0-0.52,0c0.11,0.37,0.16,0.68,0.28,0.96
		c0.82,1.92,2.31,2.89,4.39,2.89c6.3,0.01,12.6,0.01,18.91,0c2.66,0,4.52-1.73,4.73-4.37c0.05-0.58,0.25-0.77,0.84-0.78
		c0.44-0.01,0.88,0.01,1.32-0.02c0.73-0.05,1.39-0.6,1.53-1.25C25.75,24.63,13.85,24.63,1.89,24.63z"/>
	<path class="st0" d="M0.48,17.36c0.36-0.5,0.54-0.55,1.11-0.31c2.87,1.23,5.75,2.45,8.61,3.69c0.2,0.09,0.44,0.26,0.51,0.45
		c0.07,0.18-0.01,0.47-0.13,0.65c-0.17,0.26-0.47,0.25-0.75,0.13c-0.84-0.36-1.69-0.72-2.53-1.08c-2.05-0.88-4.11-1.75-6.16-2.64
		c-0.25-0.11-0.45-0.34-0.67-0.51C0.48,17.61,0.48,17.49,0.48,17.36z"/>
	<path class="st0" d="M13.03,18.88c0.8-1.41,2.54-1.73,3.74-0.87c0.63-0.16,1.18-0.34,1.73-0.42c0.32-0.04,0.67,0.07,0.99,0.17
		c0.2,0.07,0.31,0.04,0.46-0.1c1.37-1.3,3.49-0.84,4.18,0.91c0.08,0.21,0.19,0.31,0.41,0.29c0.07-0.01,0.16-0.01,0.22,0.02
		c0.54,0.28,0.94,0.09,1.42-0.25c1.11-0.79,2.6-0.49,3.41,0.61c0.13,0.18,0.26,0.26,0.49,0.26c0.6-0.02,1.13,0.18,1.61,0.53
		c0.14,0.1,0.36,0.15,0.53,0.13c0.86-0.1,1.62,0.09,2.26,0.7c0.33,0.31,0.37,0.68,0.12,0.96c-0.24,0.28-0.6,0.31-0.94,0.02
		c-0.52-0.45-1.06-0.52-1.67-0.24c-0.31,0.14-0.57,0.05-0.77-0.21c-0.43-0.55-0.95-0.74-1.63-0.53c-0.4,0.12-0.64-0.02-0.84-0.48
		c-0.19-0.43-0.46-0.74-0.93-0.85c-0.56-0.13-1.09,0.1-1.38,0.6c-0.05,0.09-0.09,0.18-0.15,0.26c-0.24,0.39-0.65,0.48-0.99,0.17
		c-0.43-0.39-0.89-0.51-1.46-0.36c-0.49,0.13-0.79-0.15-0.83-0.66c-0.04-0.72-0.39-1.18-1.01-1.32c-0.57-0.14-1.1,0.15-1.45,0.76
		c-0.31,0.55-0.66,0.62-1.16,0.22c-0.64-0.51-1.37-0.45-1.91,0.14c-0.39,0.43-0.79,0.44-1.17,0c-0.36-0.42-0.81-0.6-1.35-0.46
		c-0.54,0.14-0.83,0.51-0.94,1.06c-0.14,0.7-0.58,0.87-1.17,0.46c-0.42-0.29-0.85-0.33-1.32-0.15c-0.52,0.2-0.68,0.16-1.02-0.25
		c-0.25-0.31-0.57-0.47-0.96-0.52c-0.48-0.06-0.74-0.34-0.69-0.72c0.05-0.38,0.37-0.6,0.84-0.55c0.51,0.05,0.98,0.21,1.38,0.55
		c0.17,0.15,0.32,0.15,0.54,0.13C12.06,18.85,12.51,18.88,13.03,18.88z"/>
	<path class="st0" d="M21.09,6.66c-0.01,0.56-0.23,1.04-0.6,1.46c-0.08,0.09-0.17,0.18-0.26,0.27c-0.59,0.65-0.63,0.99,0.02,1.6
		c1.47,1.37,0.82,3.28-0.61,4.16c-0.41,0.25-0.78,0.22-1-0.09c-0.23-0.34-0.12-0.67,0.29-0.98c0.2-0.15,0.4-0.31,0.56-0.5
		c0.42-0.51,0.4-1.01-0.03-1.52c-0.24-0.29-0.52-0.56-0.69-0.88c-0.45-0.84-0.3-1.74,0.34-2.47c0.1-0.11,0.21-0.22,0.31-0.33
		c0.52-0.58,0.5-1.16-0.05-1.71c-0.16-0.16-0.35-0.28-0.53-0.42c-0.32-0.25-0.4-0.58-0.21-0.89c0.18-0.28,0.54-0.39,0.86-0.2
		C20.45,4.7,21.05,5.5,21.09,6.66z"/>
	<path class="st0" d="M15.94,8.66c-0.08,0.1-0.2,0.29-0.36,0.45c-0.23,0.24-0.53,0.43-0.72,0.7c-0.33,0.46-0.27,0.91,0.11,1.33
		c0.42,0.46,0.84,0.9,0.93,1.55c0.18,1.26-0.65,2.38-1.66,2.85c-0.32,0.15-0.59,0.04-0.78-0.25c-0.18-0.28-0.09-0.61,0.17-0.84
		c0.28-0.25,0.59-0.47,0.81-0.77c0.33-0.46,0.27-0.87-0.1-1.3c-0.07-0.09-0.14-0.18-0.23-0.25c-1.13-1.07-0.87-2.58,0-3.46
		c0.25-0.26,0.54-0.49,0.86-0.67C15.41,7.76,15.92,8.05,15.94,8.66z"/>
	<path class="st0" d="M25.61,7.79c0.23,0.2,0.46,0.33,0.56,0.52c0.14,0.24,0.06,0.52-0.17,0.71c-0.18,0.15-0.39,0.28-0.56,0.44
		c-0.58,0.54-0.63,1.2-0.09,1.77c0.58,0.61,0.99,1.26,0.86,2.14c-0.15,1-0.74,1.68-1.59,2.16c-0.32,0.18-0.69,0.05-0.85-0.23
		c-0.17-0.3-0.09-0.62,0.21-0.86c0.26-0.22,0.54-0.42,0.74-0.68c0.36-0.48,0.31-0.94-0.08-1.4c-0.25-0.3-0.54-0.58-0.71-0.91
		c-0.5-0.97-0.22-2.14,0.69-2.95C24.88,8.24,25.23,8.05,25.61,7.79z"/>
</g>
</svg>
