<?xml version="1.0" encoding="utf-8"?>
<!-- Generator: Adobe Illustrator 26.5.0, SVG Export Plug-In . SVG Version: 6.00 Build 0)  -->
<svg version="1.1" id="Layer_1" xmlns="http://www.w3.org/2000/svg" xmlns:xlink="http://www.w3.org/1999/xlink" x="0px" y="0px"
	 width="50px" height="50px" viewBox="0 0 50 50" style="enable-background:new 0 0 50 50;" xml:space="preserve">
<style type="text/css">
	.st0{fill:#0C62C1;}
</style>
<g>
	<path class="st0" d="M2.5,14c0-0.1,0.1-0.2,0.1-0.2c0.4-1.4,1.5-2.4,3-2.4c1.6,0,3.2,0,4.9,0c0.5,0,0.8,0.3,0.8,0.7
		c0,0.4-0.3,0.7-0.8,0.7c-1.5,0-3,0-4.6,0c-1.3,0-2,0.7-2,2c0,4.5,0,9.1,0,13.6c0,1.3,0.7,2,2,2c0.4,0,0.9,0,1.4,0
		c0-0.2,0-0.3,0-0.5c0-1.2,0-2.3,0-3.5c0-0.8,0.2-1,1-1c5.2,0,10.4,0,15.7,0c5.9,0,11.8,0,17.8,0c0.9,0,1,0.2,1,1c0,1.2,0,2.3,0,3.5
		c0,0.1,0,0.3,0,0.5c0.7,0,1.4,0,2-0.1c0.8-0.1,1.4-0.9,1.4-1.9c0-3,0-6,0-9c0-1.6,0-3.1,0-4.7c0-1.3-0.7-2.1-2.1-2.1
		c-10.1,0-20.3,0-30.4,0c-0.2,0-0.4,0-0.5,0c-0.4-0.1-0.6-0.3-0.6-0.7c0-0.4,0.2-0.6,0.6-0.6c0.1,0,0.3,0,0.4,0
		c10.1,0,20.3,0,30.4,0c1.7,0,2.9,0.8,3.3,2.2c0.1,0.4,0.1,0.8,0.1,1.2c0,4.5,0,9,0,13.5c0,2.1-1.3,3.4-3.4,3.4c-8.5,0-17,0-25.6,0
		c-1,0-2,0-3,0c-0.2,0-0.5,0-0.6-0.1c-0.2-0.2-0.3-0.5-0.2-0.7c0-0.2,0.3-0.4,0.5-0.5c0.2-0.1,0.4,0,0.6,0c8.4,0,16.8,0,25.1,0
		c0.2,0,0.4,0,0.6,0c0-0.4,0-0.8,0-1.2c-0.3,0-0.5,0-0.8,0c-1,0-2,0-3,0c-0.5,0-0.8-0.2-0.8-0.6c0-0.4,0.3-0.7,0.8-0.7
		c1.3,0,2.5,0,3.8,0c0-0.4,0-0.7,0-1.1c-10.9,0-21.8,0-32.8,0c0,0.4,0,0.7,0,1.1c0.2,0,0.4,0,0.6,0c8.4,0,16.7,0,25.1,0
		c0.2,0,0.4,0,0.6,0c0.3,0.1,0.5,0.3,0.5,0.7c0,0.3-0.2,0.5-0.5,0.6c-0.2,0-0.4,0-0.6,0c-8.4,0-16.8,0-25.1,0c-0.2,0-0.4,0-0.6,0
		c0,0.4,0,0.8,0,1.2c0.7,0,1.3,0,1.9,0c0.6,0,1.3,0,1.9,0c0.4,0,0.7,0.3,0.7,0.6c0,0.4-0.3,0.7-0.7,0.7c-2.3,0-4.7,0-7,0
		c-1.5,0-2.5-1-2.9-2.4c0-0.1-0.1-0.2-0.1-0.3C2.5,24,2.5,19,2.5,14z"/>
	<path class="st0" d="M30.9,15.4c2,0,4,0,6,0c0.6,0,0.9,0.2,0.9,0.7c0,0.4-0.3,0.7-0.9,0.7c-4,0-8.1,0-12.1,0
		c-0.5,0-0.8-0.2-0.8-0.6c0-0.4,0.3-0.7,0.8-0.7C26.8,15.4,28.9,15.4,30.9,15.4z"/>
	<path class="st0" d="M15.6,34.3c-0.2,1.7-0.9,3.1-2.4,4.1c-0.3,0.2-0.7,0.2-0.9-0.1c-0.2-0.3-0.2-0.7,0.2-1
		c0.8-0.6,1.4-1.4,1.7-2.4c0.1-0.3,0.1-0.5,0.1-0.8c0.1-0.5,0.3-0.7,0.7-0.7C15.4,33.5,15.6,33.8,15.6,34.3z"/>
	<path class="st0" d="M35.1,33.5c0.3,0,0.6,0.2,0.6,0.6c0.1,1.4,0.7,2.5,1.8,3.3c0.3,0.3,0.4,0.7,0.2,1c-0.2,0.3-0.6,0.3-1,0.1
		c-1.4-1-2.1-2.4-2.3-4.1C34.3,33.9,34.6,33.5,35.1,33.5z"/>
	<path class="st0" d="M31,36.1c0,0.6,0,1.2,0,1.8c0,0.5-0.2,0.7-0.6,0.7c-0.4,0-0.7-0.3-0.7-0.7c0-1.2,0-2.5,0-3.7
		c0-0.5,0.3-0.7,0.7-0.7c0.4,0,0.7,0.3,0.7,0.8C31,34.9,31,35.5,31,36.1z"/>
	<path class="st0" d="M20.3,36.1c0,0.6,0,1.1,0,1.7c0,0.6-0.2,0.8-0.7,0.8c-0.4,0-0.6-0.3-0.6-0.8c0-1.2,0-2.3,0-3.5
		c0-0.5,0.2-0.8,0.7-0.8c0.4,0,0.6,0.3,0.7,0.8C20.3,34.9,20.3,35.5,20.3,36.1z"/>
	<path class="st0" d="M24.5,36.1c0-0.6,0-1.2,0-1.8c0-0.5,0.3-0.7,0.6-0.7c0.4,0,0.7,0.3,0.7,0.7c0,1.2,0,2.5,0,3.7
		c0,0.5-0.3,0.7-0.7,0.7c-0.4,0-0.6-0.3-0.7-0.8C24.5,37.3,24.5,36.7,24.5,36.1z"/>
	<path class="st0" d="M41.1,15.4c0.3,0,0.6,0,0.9,0c0.4,0,0.7,0.3,0.7,0.6c0,0.4-0.2,0.7-0.6,0.7c-0.7,0-1.3,0-2,0
		c-0.4,0-0.7-0.3-0.6-0.7c0-0.4,0.3-0.6,0.7-0.6c0,0,0.1,0,0.1,0C40.5,15.4,40.8,15.4,41.1,15.4z"/>
</g>
</svg>
