<?xml version="1.0" encoding="utf-8"?>
<!-- Generator: Adobe Illustrator 26.2.1, SVG Export Plug-In . SVG Version: 6.00 Build 0)  -->
<svg version="1.1" id="Layer_1" xmlns="http://www.w3.org/2000/svg" xmlns:xlink="http://www.w3.org/1999/xlink" x="0px" y="0px"
	 width="39.6px" height="36.4px" viewBox="0 0 39.6 36.4" style="enable-background:new 0 0 39.6 36.4;" xml:space="preserve">
<style type="text/css">
	.st0{fill:#292974;}
</style>
<path class="st0" d="M35.19,21.98c-0.01,0.02-0.03,0.03-0.04,0.05c-0.26,1.35-1.85,2.02-2.98,1.32c-0.02-0.01-0.05-0.01-0.15-0.04
	c0.06,0.26,0.07,0.5,0.16,0.71c0.55,1.38,1.11,2.76,1.68,4.14c0.23,0.57,0.35,1.15,0.22,1.76c-0.35,1.65-2.23,2.38-3.6,1.41
	c-0.43-0.3-0.77-0.7-0.95-1.21c-0.22-0.61-0.47-1.21-0.7-1.82c-0.03-0.08-0.07-0.16-0.14-0.32c-0.13,0.65-0.23,1.21-0.35,1.77
	c-0.33,1.64-1.88,2.51-3.35,1.89c-1.03-0.43-1.58-1.53-1.36-2.73c0.13-0.73,0.28-1.45,0.42-2.18c0.02-0.1,0.03-0.2,0.05-0.33
	c-0.13-0.01-0.23-0.01-0.34-0.01c-0.74,0-1.48,0.01-2.22-0.01c-0.22,0-0.37,0.07-0.52,0.23c-1.79,1.89-3.59,3.77-5.39,5.66
	c-0.51,0.54-1.13,0.78-1.85,0.57c-0.31-0.09-0.62-0.28-0.87-0.51c-1.07-0.99-2.11-2-3.16-3c-0.88-0.84-0.91-1.86-0.1-2.76
	c0.03-0.04,0.06-0.07,0.13-0.15c-0.13-0.01-0.22-0.02-0.31-0.02c-0.65,0-1.3,0-1.95,0c-0.55,0-0.76-0.21-0.76-0.77
	c0-2.24,0-4.49,0-6.73c0-0.11,0-0.22,0-0.33c-0.27-0.05-0.53-0.07-0.78-0.14C5,18.17,4.36,17.31,4.42,16.38
	c0.06-0.92,0.85-1.73,1.84-1.85c0.45-0.05,0.9-0.03,1.35-0.05c0.13,0,0.25,0,0.4,0c0.06-2.2,1.08-3.74,3.09-4.65
	c-0.91-0.87-1.33-1.91-1.2-3.14c0.1-0.95,0.54-1.73,1.26-2.35c1.43-1.24,3.6-1.14,4.94,0.21c1.29,1.31,1.57,3.6-0.16,5.29
	c1.97,0.91,3,2.44,3.06,4.64c0.13,0,0.25,0,0.36,0c1.92,0,3.85,0,5.77,0c0.26,0,0.48-0.04,0.68-0.22c0.15-0.14,0.34-0.24,0.53-0.36
	c-1.62-1-2.35-2.44-2.16-4.35c-0.36-0.11-0.72-0.19-1.06-0.33c-0.3-0.12-0.61-0.27-0.86-0.47c-0.6-0.47-0.59-1.21,0.02-1.69
	c0.55-0.43,1.21-0.6,1.87-0.76c0.03-0.01,0.06-0.01,0.09-0.02c0.33-0.06,0.71-0.03,0.96-0.19c0.24-0.16,0.33-0.53,0.52-0.79
	c0.73-1.02,1.74-1.46,2.97-1.33c1.21,0.13,2.08,0.78,2.55,1.92c0.07,0.16,0.15,0.22,0.31,0.26c0.67,0.15,1.35,0.3,2,0.51
	c0.3,0.1,0.6,0.29,0.84,0.51c0.5,0.44,0.48,1.07-0.01,1.53c-0.42,0.39-0.96,0.56-1.5,0.72c-0.12,0.04-0.25,0.07-0.41,0.11
	c0.13,0.88,0.01,1.73-0.39,2.53c-0.4,0.79-0.99,1.4-1.77,1.84c0.03,0.03,0.04,0.06,0.06,0.08c1.16,0.71,1.72,1.76,1.67,3.11
	c-0.02,0.39,0.1,0.67,0.39,0.94c0.61,0.58,1.18,1.2,1.78,1.79c0.44,0.43,0.82,0.9,0.97,1.51C35.19,21.54,35.19,21.76,35.19,21.98z
	 M7.98,25.18c0.93,0,1.83,0,2.73,0c0.2,0,0.33-0.05,0.47-0.2c1.29-1.36,2.58-2.71,3.88-4.07c0.9-0.94,1.92-0.96,2.87-0.06
	c0.67,0.64,1.33,1.27,2,1.91c0.08,0.07,0.16,0.14,0.25,0.22c0.07-0.08,0.11-0.13,0.16-0.18c0.04-0.04,0.1-0.08,0.12-0.13
	c0.03-0.09,0.07-0.21,0.04-0.28c-0.38-0.87-0.25-1.63,0.4-2.32c0.45-0.48,0.87-0.98,1.36-1.53c-0.18,0-0.28,0-0.39,0
	c-0.94,0-1.88,0-2.82,0c-0.55,0-0.86-0.22-0.85-0.63c0.01-0.39,0.3-0.59,0.84-0.6c1.34,0,2.68,0,4.03,0c0.11,0,0.25,0,0.31-0.06
	c0.45-0.49,0.89-0.99,1.38-1.54c-0.16-0.01-0.26-0.02-0.35-0.02c-5.85,0-11.7,0-17.54,0c-0.15,0-0.3,0-0.45,0.03
	c-0.43,0.07-0.76,0.42-0.76,0.77c0,0.35,0.33,0.7,0.75,0.78c0.17,0.03,0.34,0.03,0.51,0.03c2.28,0,4.57,0,6.85,0
	c0.52,0,0.8,0.21,0.81,0.6c0.01,0.4-0.29,0.62-0.82,0.62c-0.07,0-0.14,0-0.21,0c-1.72,0-3.44,0-5.17,0c-0.12,0-0.23,0-0.37,0
	C7.98,20.77,7.98,22.95,7.98,25.18z M25.79,23.03c0,0.39,0.05,0.75-0.01,1.08c-0.2,1.15-0.45,2.29-0.67,3.44
	c-0.12,0.65-0.28,1.3-0.31,1.95c-0.04,0.9,0.91,1.42,1.7,1c0.36-0.19,0.54-0.52,0.63-0.91c0.09-0.42,0.16-0.84,0.25-1.27
	c0.17-0.88,0.34-1.77,0.51-2.65c0.06-0.3,0.23-0.49,0.55-0.51c0.31-0.03,0.51,0.13,0.63,0.41c0.02,0.06,0.04,0.11,0.06,0.17
	c0.51,1.33,1.02,2.67,1.54,4c0.24,0.61,0.9,0.95,1.48,0.77c0.58-0.18,0.88-0.78,0.71-1.46c-0.04-0.16-0.1-0.33-0.16-0.48
	c-0.51-1.25-1-2.5-1.53-3.75c-0.22-0.51-0.39-1.03-0.32-1.59c0.01-0.06-0.02-0.13-0.03-0.2C29.15,23.03,27.51,23.03,25.79,23.03z
	 M17.99,22.61c-2.17,2.27-4.3,4.51-6.45,6.77c0.73,0.7,1.44,1.38,2.15,2.05c0.41,0.39,0.7,0.38,1.1-0.04
	c0.7-0.73,1.4-1.46,2.09-2.19c1.11-1.16,2.21-2.32,3.32-3.48c0.31-0.33,0.35-0.65,0.07-0.93C19.53,24.07,18.77,23.36,17.99,22.61z
	 M17.73,14.48c0.18-2.11-1.81-3.89-3.62-3.68c0,0.12,0,0.23,0,0.35c0,0.52,0,1.04-0.01,1.56c-0.01,0.34-0.25,0.57-0.57,0.58
	c-0.33,0.01-0.6-0.21-0.63-0.55c-0.02-0.24-0.01-0.48-0.01-0.72c0-0.42,0-0.83,0-1.25c-2.23-0.1-3.85,1.99-3.61,3.71
	C12.09,14.48,14.9,14.48,17.73,14.48z M30.74,16.26c-0.16-0.62-0.61-1.11-1.21-1.37c-0.53-0.23-1.09-0.24-1.65-0.17
	c-1.37,0.16-2.05,0.92-2.05,2.3c0,1.48,0,2.96,0,4.45c0,0.11,0,0.21,0,0.32c1.59,0,3.14,0,4.73,0c-0.1-0.1-0.17-0.18-0.24-0.25
	c-0.73-0.74-1.47-1.48-2.19-2.23c-0.86-0.89-0.83-2.19,0.06-2.96C28.89,15.72,29.77,15.69,30.74,16.26z M11.09,7.1
	c0,1.33,1.08,2.43,2.41,2.44c1.33,0.01,2.43-1.09,2.44-2.42c0.01-1.32-1.09-2.43-2.42-2.44C12.19,4.68,11.09,5.77,11.09,7.1z
	 M29.52,12.93c-0.27-0.21-0.52-0.38-0.74-0.58c-0.11-0.1-0.22-0.24-0.26-0.39c-0.08-0.26,0.01-0.5,0.25-0.65
	c0.26-0.16,0.52-0.13,0.74,0.08c0.34,0.3,0.7,0.55,1.15,0.66c0.52-0.71,0.74-1.46,0.6-2.32c-1.98,0.25-3.92,0.23-5.88,0.02
	c-0.12,1.23,0.28,2.21,1.27,2.9C27.53,13.26,28.49,13.33,29.52,12.93z M33.06,22.42c0.43-0.01,0.69-0.14,0.83-0.44
	c0.17-0.35,0.08-0.67-0.18-0.94c-1.23-1.26-2.46-2.52-3.7-3.78c-0.21-0.21-0.47-0.26-0.75-0.17c-0.59,0.2-0.74,0.87-0.27,1.36
	c1.21,1.25,2.43,2.49,3.66,3.73C32.78,22.31,32.97,22.37,33.06,22.42z M10.67,28.53c2.15-2.26,4.29-4.5,6.43-6.74
	c-0.42-0.48-0.73-0.49-1.16-0.04c-1.79,1.87-3.58,3.75-5.36,5.63C10.16,27.81,10.18,28.11,10.67,28.53z M25.22,7.29
	c-0.7,0.19-1.36,0.36-2.08,0.55c1.67,1.12,8.62,1.13,10.3,0c-0.7-0.19-1.34-0.36-1.98-0.53c0.01,0.05,0.02,0.09,0.03,0.14
	c-0.21,0.13-0.4,0.35-0.62,0.38c-1.64,0.22-3.29,0.28-4.94,0.04C25.59,7.82,25.33,7.71,25.22,7.29z M24.61,17.78
	c-0.04,0-0.06,0-0.06,0c-0.98,1.1-1.96,2.2-2.92,3.31c-0.11,0.13-0.14,0.38-0.11,0.56c0.05,0.32,0.25,0.55,0.57,0.63
	c0.35,0.08,0.66-0.03,0.89-0.31c0.52-0.63,1.04-1.27,1.55-1.91c0.04-0.04,0.08-0.1,0.08-0.16C24.61,19.19,24.61,18.49,24.61,17.78z
	 M21.11,23.75c0.24,0.51,0.44,0.95,0.65,1.41c0.82,0,1.69,0,2.55,0c0.34-1.06,0.32-2.13,0.27-3.26c-0.27,0.33-0.49,0.61-0.72,0.88
	c-0.53,0.59-1.2,0.88-1.96,0.67c-0.42-0.12-0.6,0.04-0.8,0.31C21.09,23.79,21.08,23.8,21.11,23.75z M26.45,6.69
	c0.71,0.17,3.05,0.15,3.74-0.01c-0.05-0.8-0.86-1.49-1.77-1.52C27.42,5.12,26.58,5.77,26.45,6.69z"/>
</svg>
