<?xml version="1.0" encoding="utf-8"?>
<!-- Generator: Adobe Illustrator 26.2.1, SVG Export Plug-In . SVG Version: 6.00 Build 0)  -->
<svg version="1.1" id="Layer_1" xmlns="http://www.w3.org/2000/svg" xmlns:xlink="http://www.w3.org/1999/xlink" x="0px" y="0px"
	 width="25.2px" height="25.2px" viewBox="0 0 25.2 25.2" style="enable-background:new 0 0 25.2 25.2;" xml:space="preserve">
<style type="text/css">
	.st0{fill:#CECECE;}
</style>
<g>
	<path class="st0" d="M4.68,22.3c-0.15-0.1-0.19-0.25-0.19-0.42c0.01-0.29,0-0.58,0-0.89c-0.19,0-0.35,0-0.52,0
		c-0.61-0.01-1-0.4-1-1c0-1.91,0-3.81,0-5.72c0-0.06,0-0.13,0.02-0.19c0.05-0.14,0.15-0.2,0.29-0.19c0.14,0.01,0.23,0.1,0.25,0.24
		c0.01,0.06,0,0.13,0,0.19c0,1.86,0,3.73,0,5.59c0,0.39,0.11,0.51,0.51,0.51c2.49,0,4.99,0,7.48,0c0.38,0,0.5-0.11,0.5-0.5
		c0-3.23,0-6.47,0-9.7c0-0.37-0.12-0.49-0.49-0.49c-2.51,0-5.01,0-7.52,0c-0.35,0-0.48,0.13-0.48,0.48c0,0.88,0,1.77,0,2.65
		c0,0.06,0,0.11,0,0.17c-0.01,0.16-0.13,0.28-0.28,0.28c-0.15,0-0.27-0.11-0.29-0.27c-0.01-0.04,0-0.09,0-0.13c0-0.91,0-1.82,0-2.73
		c0-0.62,0.39-1.02,1.01-1.02c0.47,0,0.93,0,1.42,0c0-0.09,0-0.17,0-0.24c0-1.57,0-3.14,0-4.72c0-0.53,0.2-0.73,0.73-0.73
		c0.09,0,0.17,0,0.28,0C6.38,3.19,6.51,3.02,6.72,2.9c0.82,0,1.64,0,2.46,0c0.23,0.11,0.35,0.3,0.32,0.57c0.14,0,0.26,0,0.38,0
		c0.39,0,0.62,0.23,0.62,0.63c0,1.6,0,3.21,0,4.81c0,0.07,0,0.15,0,0.25c0.38,0,0.75,0,1.13,0c0.47,0.01,0.84,0.29,0.94,0.73
		c0.02,0.1,0.02,0.2,0.02,0.3c0,0.78,0,1.55,0,2.33c0,0.07,0,0.14,0,0.22c0.18,0,0.34,0,0.53,0c0-0.2,0-0.41,0-0.61
		c0-0.38,0.19-0.57,0.57-0.57c1.03,0,2.06,0,3.09,0c0.38,0,0.56,0.19,0.57,0.57c0,0.2,0,0.4,0,0.62c0.09,0,0.17,0,0.24,0
		c1.23,0,2.45,0,3.68,0c0.62,0,0.94,0.32,0.94,0.95c0,2.51-0.01,5.03,0.01,7.54c0,0.51-0.15,0.88-0.65,1.07c-4.22,0-8.44,0-12.66,0
		c-0.64-0.22-0.7-0.73-0.64-1.3c-1.09,0-2.14,0-3.22,0c0,0.31-0.01,0.61,0,0.91c0.01,0.17-0.04,0.31-0.2,0.39
		C4.8,22.3,4.74,22.3,4.68,22.3z M11.09,21.72c2.37,0,4.73,0,7.09,0c0-2.8,0-5.6,0-8.4c-0.08,0-0.15,0-0.22,0c-0.52,0-1.04,0-1.55,0
		c-0.19,0-0.31-0.12-0.31-0.29c0-0.17,0.12-0.28,0.31-0.28c0.12,0,0.24,0,0.36,0c0-0.22,0-0.42,0-0.62c-1.03,0-2.04,0-3.06,0
		c0,0.21,0,0.41,0,0.62c0.09,0,0.16,0,0.24,0c0.43,0,0.86,0,1.29,0c0.17,0,0.28,0.11,0.28,0.27c0,0.15-0.1,0.27-0.26,0.29
		c-0.06,0.01-0.11,0-0.17,0c-0.76,0-1.52,0-2.27,0c-0.07,0-0.13,0-0.22,0c0,0.09,0,0.16,0,0.23c0,2.14,0,4.28,0,6.42
		c0,0.63-0.38,1.01-1.01,1.02c-0.16,0-0.32,0-0.5,0C11.09,21.24,11.09,21.47,11.09,21.72z M5.99,9.14c1.32,0,2.63,0,3.94,0
		c0-1.71,0-3.4,0-5.09c-0.14,0-0.27,0-0.41,0C9.51,4.12,9.51,4.18,9.5,4.23C9.46,4.45,9.31,4.6,9.09,4.61
		c-0.75,0.01-1.5,0.01-2.25,0c-0.22,0-0.39-0.17-0.41-0.39C6.41,4.16,6.41,4.11,6.4,4.05c-0.14,0-0.27,0-0.41,0
		C5.99,5.75,5.99,7.44,5.99,9.14z M19.92,13.32c0,2.82,0,5.61,0,8.41c0.45,0,0.88,0,1.32,0c0.34,0,0.41-0.07,0.41-0.41
		c0-2.54,0-5.07,0-7.61c0-0.06,0-0.11-0.01-0.17c-0.03-0.13-0.1-0.22-0.24-0.22C20.91,13.32,20.42,13.32,19.92,13.32z M19.32,21.68
		c0-2.8,0-5.57,0-8.36c-0.19,0-0.36,0-0.55,0c0,2.79,0,5.57,0,8.36C18.96,21.68,19.14,21.68,19.32,21.68z M8.86,20.99
		c-0.01,0.03-0.01,0.06-0.01,0.08c0,0.13,0,0.25,0,0.38c0.01,0.18,0.1,0.27,0.29,0.28c0.27,0,0.54,0,0.81,0c0.19,0,0.37,0,0.55,0
		c0-0.26,0-0.5,0-0.74C9.94,20.99,9.4,20.99,8.86,20.99z M8.93,3.48c-0.65,0-1.29,0-1.93,0c0,0.19,0,0.36,0,0.54
		c0.65,0,1.29,0,1.93,0C8.93,3.84,8.93,3.66,8.93,3.48z"/>
	<path class="st0" d="M7.18,15.08c0,1.25,0,2.5,0,3.75c0,0.08,0.01,0.19-0.04,0.23c-0.07,0.07-0.19,0.16-0.27,0.15
		C6.78,19.2,6.69,19.09,6.62,19c-0.03-0.05-0.01-0.13-0.01-0.2c0-2.48,0-4.96,0-7.44c0-0.03,0-0.06,0-0.09
		c0-0.22,0.12-0.35,0.3-0.34c0.17,0.01,0.27,0.13,0.27,0.34C7.18,12.53,7.18,13.81,7.18,15.08z"/>
	<path class="st0" d="M10.75,15.06c0,1.24,0,2.47,0,3.71c0,0.07,0,0.14-0.01,0.21c-0.02,0.15-0.12,0.24-0.27,0.25
		c-0.15,0.01-0.25-0.08-0.28-0.23c-0.01-0.06-0.01-0.13-0.01-0.19c0-2.49,0-4.99,0-7.48c0-0.06,0-0.13,0.01-0.19
		c0.03-0.15,0.13-0.23,0.28-0.23c0.15,0,0.25,0.09,0.27,0.24c0.01,0.07,0.01,0.14,0.01,0.21C10.75,12.6,10.75,13.83,10.75,15.06z"/>
	<path class="st0" d="M4.83,15.06c0-1.24,0-2.48,0-3.71c0-0.06,0-0.11,0-0.17c0.02-0.16,0.11-0.26,0.27-0.26
		c0.16-0.01,0.26,0.09,0.29,0.24c0.01,0.06,0.01,0.13,0.01,0.19c0,2.48,0,4.96,0,7.44c0,0.3-0.1,0.44-0.3,0.44
		c-0.19-0.01-0.27-0.14-0.27-0.44C4.83,17.55,4.83,16.31,4.83,15.06z"/>
	<path class="st0" d="M8.97,15.06c0,1.24,0,2.49,0,3.73c0,0.06,0,0.13-0.01,0.19c-0.02,0.14-0.11,0.23-0.25,0.24
		c-0.14,0.02-0.25-0.05-0.29-0.19C8.4,18.97,8.4,18.89,8.4,18.81c0-2.49,0-4.99,0-7.48c0-0.07,0-0.15,0.02-0.22
		c0.04-0.14,0.15-0.2,0.29-0.19c0.14,0.01,0.23,0.1,0.25,0.24c0.01,0.06,0,0.13,0,0.19C8.97,12.59,8.97,13.82,8.97,15.06z"/>
	<path class="st0" d="M14.95,19.61c-0.34,0-0.68,0-1.02,0c-0.39,0-0.65-0.26-0.66-0.65c-0.01-0.27-0.01-0.54,0-0.81
		c0.01-0.37,0.26-0.63,0.63-0.64c0.7-0.01,1.4-0.01,2.1,0c0.39,0,0.64,0.27,0.65,0.67c0,0.25,0,0.49,0,0.74
		c0,0.44-0.26,0.7-0.69,0.7C15.62,19.61,15.29,19.61,14.95,19.61z M13.84,18.09c0,0.29-0.01,0.57,0.01,0.84
		c0,0.04,0.09,0.1,0.13,0.1c0.65,0.01,1.3,0,1.95,0.01c0.12,0,0.15-0.05,0.15-0.16c0-0.2-0.01-0.4,0-0.61
		c0.01-0.16-0.04-0.21-0.2-0.21c-0.61,0.01-1.23,0-1.84,0C13.98,18.07,13.92,18.08,13.84,18.09z"/>
</g>
</svg>
