<?xml version="1.0" encoding="utf-8"?>
<!-- Generator: Adobe Illustrator 26.0.1, SVG Export Plug-In . SVG Version: 6.00 Build 0)  -->
<svg version="1.1" id="Layer_1" xmlns="http://www.w3.org/2000/svg" xmlns:xlink="http://www.w3.org/1999/xlink" x="0px" y="0px"
	 width="26.47px" height="27.33px" viewBox="0 0 26.47 27.33" style="enable-background:new 0 0 26.47 27.33;" xml:space="preserve"
	>
<style type="text/css">
	.st0{fill:#3A3A3A;}
</style>
<g>
	<path class="st0" d="M2.57,17.48c0-0.01,0-0.03,0-0.04c0.06-0.05,0.12-0.1,0.17-0.15C6.27,13.76,9.8,10.23,13.33,6.7
		c0.06-0.06,0.12-0.11,0.21-0.2c0.13,0.15,0.25,0.29,0.36,0.42c0.16-0.16,0.3-0.31,0.48-0.49c-0.14-0.11-0.29-0.23-0.44-0.35
		c0.95-0.95,1.87-1.87,2.79-2.79c0.1-0.1,0.19-0.2,0.28-0.3c0.01,0,0.03,0,0.04,0c0.52,0.48,1.03,0.97,1.55,1.45
		c-0.11,0.12-0.16,0.18-0.2,0.23c-0.51,0.61-0.62,1.3-0.29,2.03c0.43,0.97,1.15,1.68,2.12,2.12c0.66,0.3,1.31,0.24,1.91-0.2
		c0.1-0.07,0.19-0.15,0.25-0.2c0.51,0.51,1.02,1,1.51,1.49c-1,1-2.01,2.01-3.03,3.03c-0.04-0.02-0.08-0.05-0.12-0.07
		c-0.15,0.15-0.29,0.29-0.43,0.43c0.02,0.01,0.04,0.02,0.05,0.03c-0.02,0.07-0.03,0.15-0.08,0.2c-0.41,0.42-0.82,0.83-1.24,1.24
		c-0.05,0.04-0.11,0.09-0.17,0.09c-0.31,0.01-0.53,0.17-0.74,0.38c-0.5,0.53-1.01,1.05-1.52,1.58c-0.05,0.05-0.11,0.1-0.16,0.15
		c-0.58-0.6-1.14-1.18-1.7-1.76c-0.46-0.48-1.01-0.48-1.48-0.01c-0.43,0.43-0.86,0.85-1.28,1.28c-0.48,0.49-0.47,1.03,0.03,1.51
		c0.54,0.51,1.07,1.02,1.6,1.52c0.05,0.05,0.1,0.11,0.16,0.17c-0.6,0.57-1.19,1.13-1.77,1.68c-0.2,0.19-0.35,0.41-0.37,0.7
		c-0.01,0.08-0.06,0.17-0.12,0.22c-0.64,0.64-1.28,1.28-1.92,1.92c-0.04,0.04-0.09,0.08-0.11,0.1c-0.51-0.51-1.01-1.01-1.51-1.52
		c0-0.01,0.02-0.03,0.04-0.05c0.62-0.7,0.71-1.44,0.3-2.27c-0.37-0.75-0.94-1.32-1.64-1.76c-0.48-0.3-0.99-0.46-1.57-0.34
		c-0.4,0.08-0.73,0.3-1.05,0.6c-0.1-0.12-0.19-0.23-0.29-0.34C3.38,18.26,2.97,17.87,2.57,17.48z M14.86,7.84
		c0.3,0.3,0.6,0.6,0.88,0.88c0.13-0.13,0.28-0.27,0.4-0.39c-0.29-0.29-0.59-0.59-0.88-0.88C15.13,7.57,14.99,7.71,14.86,7.84z
		 M19.8,11.97c-0.3-0.3-0.6-0.6-0.9-0.9c-0.13,0.13-0.27,0.27-0.4,0.4c0.3,0.3,0.6,0.6,0.91,0.9C19.53,12.24,19.67,12.1,19.8,11.97z
		 M17.09,9.25c-0.13,0.13-0.27,0.28-0.39,0.4c0.3,0.3,0.59,0.6,0.88,0.88c0.13-0.12,0.27-0.26,0.41-0.39
		C17.69,9.85,17.4,9.56,17.09,9.25z"/>
	<path class="st0" d="M14.62,19.62c-0.69-0.66-1.37-1.31-2.05-1.96c-0.08-0.07-0.16-0.14-0.23-0.22c-0.14-0.16-0.15-0.33-0.01-0.48
		c0.47-0.48,0.95-0.96,1.43-1.43c0.17-0.16,0.35-0.14,0.53,0.05c0.38,0.39,0.76,0.8,1.14,1.19c0.33,0.34,0.67,0.67,1.02,1.02
		c0.34-0.35,0.68-0.68,1.01-1.02c0.38-0.39,0.75-0.79,1.13-1.18c0.23-0.24,0.39-0.24,0.62,0c0.43,0.43,0.87,0.86,1.3,1.3
		c0.22,0.23,0.22,0.4-0.01,0.62c-0.73,0.7-1.45,1.4-2.21,2.13c0.35,0.35,0.69,0.68,1.03,1.01c0.39,0.38,0.79,0.75,1.18,1.12
		c0.24,0.23,0.25,0.4,0.01,0.64c-0.43,0.43-0.86,0.86-1.28,1.28c-0.24,0.24-0.4,0.24-0.64-0.01c-0.65-0.67-1.31-1.35-1.96-2.02
		c-0.05-0.05-0.1-0.09-0.18-0.17c-0.33,0.33-0.66,0.66-0.98,1c-0.37,0.39-0.74,0.78-1.11,1.16c-0.26,0.28-0.42,0.28-0.68,0.02
		c-0.41-0.41-0.83-0.83-1.24-1.24c-0.26-0.26-0.26-0.42,0.01-0.68c0.67-0.65,1.34-1.29,2.01-1.94
		C14.49,19.76,14.54,19.71,14.62,19.62z"/>
</g>
</svg>
