<?xml version="1.0" encoding="utf-8"?>
<!-- Generator: Adobe Illustrator 26.0.1, SVG Export Plug-In . SVG Version: 6.00 Build 0)  -->
<svg version="1.1" id="Layer_1" xmlns="http://www.w3.org/2000/svg" xmlns:xlink="http://www.w3.org/1999/xlink" x="0px" y="0px"
	 width="16.19px" height="16.77px" viewBox="0 0 16.19 16.77" style="enable-background:new 0 0 16.19 16.77;" xml:space="preserve"
	>
<style type="text/css">
	.st0{fill:#FFFFFF;}
</style>
<g>
	<path class="st0" d="M15.51,5.72c0-1.45-0.36-2.67-1.22-3.53s-2.08-1.22-3.53-1.22v1.5c1.22,0,1.99,0.3,2.47,0.78
		c0.48,0.48,0.78,1.25,0.78,2.47H15.51z M15.51,11.05V5.72h-1.5v5.33H15.51z M10.76,15.8c1.45,0,2.67-0.36,3.53-1.22
		s1.22-2.08,1.22-3.53h-1.5c0,1.22-0.3,1.99-0.78,2.47c-0.48,0.48-1.25,0.78-2.47,0.78V15.8z M2.1,15.8h8.67v-1.5H2.1V15.8z
		 M0.68,14.39c0,0.78,0.64,1.42,1.42,1.42v-1.5c0.03,0,0.05,0.01,0.06,0.02c0.01,0.01,0.02,0.03,0.02,0.06H0.68z M0.68,5.72v8.67
		h1.5V5.72H0.68z M5.43,0.97c-1.45,0-2.67,0.36-3.53,1.22S0.68,4.27,0.68,5.72h1.5c0-1.22,0.3-1.99,0.78-2.47
		c0.48-0.48,1.25-0.78,2.47-0.78V0.97z M10.76,0.97H5.43v1.5h5.33V0.97z"/>
	<path class="st0" d="M4.76,7.47h6.67v-1.5H4.76V7.47z M11.43,7.47c0.41,0,0.75-0.34,0.75-0.75c0-0.41-0.34-0.75-0.75-0.75V7.47z
		 M4.76,5.97c-0.41,0-0.75,0.34-0.75,0.75c0,0.41,0.34,0.75,0.75,0.75V5.97z"/>
	<path class="st0" d="M4.76,10.8h4.67V9.3H4.76V10.8z M9.43,10.8c0.41,0,0.75-0.34,0.75-0.75c0-0.41-0.34-0.75-0.75-0.75V10.8z
		 M4.76,9.3c-0.41,0-0.75,0.34-0.75,0.75c0,0.41,0.34,0.75,0.75,0.75V9.3z"/>
</g>
</svg>
