<?xml version="1.0" encoding="utf-8"?>
<!-- Generator: Adobe Illustrator 26.0.1, SVG Export Plug-In . SVG Version: 6.00 Build 0)  -->
<svg version="1.1" id="Layer_1" xmlns="http://www.w3.org/2000/svg" xmlns:xlink="http://www.w3.org/1999/xlink" x="0px" y="0px"
	 width="14.19px" height="14.19px" viewBox="0 0 14.19 14.19" style="enable-background:new 0 0 14.19 14.19;" xml:space="preserve"
	>
<style type="text/css">
	.st0{fill:#FFFFFF;}
</style>
<g>
	<path class="st0" d="M12.83,12.36c-0.08,0.22-0.21,0.39-0.45,0.45c-0.19,0.05-0.35,0.01-0.51-0.11c-0.04-0.04-0.08-0.08-0.12-0.12
		c-1.52-1.52-3.04-3.04-4.56-4.56C7.17,8,7.15,7.95,7.12,7.92c-0.02,0-0.04,0-0.05,0C7.04,7.95,7.02,8,6.99,8.03
		c-1.53,1.53-3.05,3.05-4.58,4.58c-0.17,0.17-0.36,0.26-0.61,0.21c-0.43-0.11-0.59-0.61-0.32-0.95c0.04-0.04,0.08-0.08,0.12-0.12
		c1.52-1.52,3.03-3.03,4.55-4.54c0.04-0.04,0.08-0.05,0.12-0.08c0-0.02,0-0.04,0-0.05C6.23,7.04,6.18,7.02,6.15,6.98
		C4.62,5.46,3.1,3.94,1.57,2.41C1.49,2.32,1.42,2.2,1.38,2.08C1.29,1.8,1.45,1.51,1.72,1.4c0.04-0.01,0.06-0.03,0.1-0.04
		c0.08,0,0.16,0,0.25,0c0.18,0.06,0.31,0.19,0.45,0.32C4.01,3.18,5.5,4.67,7,6.17C7.03,6.2,7.07,6.23,7.11,6.27
		c0.04-0.05,0.06-0.09,0.1-0.12c1.5-1.5,3.01-3.01,4.51-4.51c0.12-0.12,0.25-0.23,0.42-0.28c0.08,0,0.15,0,0.22,0
		c0.24,0.08,0.4,0.23,0.47,0.47c0,0.08,0,0.16,0,0.25c-0.06,0.18-0.18,0.31-0.31,0.43c-1.5,1.5-3,3-4.49,4.49
		C8.01,7.03,7.96,7.05,7.92,7.07c0,0.02,0,0.04,0,0.05C7.96,7.15,8.01,7.17,8.04,7.2c1.5,1.5,3,3,4.51,4.5
		c0.12,0.12,0.24,0.25,0.3,0.42C12.83,12.2,12.83,12.28,12.83,12.36z"/>
</g>
</svg>
