<?xml version="1.0" encoding="utf-8"?>
<!-- Generator: Adobe Illustrator 26.0.2, SVG Export Plug-In . SVG Version: 6.00 Build 0)  -->
<svg version="1.1" id="Layer_1" xmlns="http://www.w3.org/2000/svg" xmlns:xlink="http://www.w3.org/1999/xlink" x="0px" y="0px"
	 width="56.4px" height="56.4px" viewBox="0 0 56.4 56.4" style="enable-background:new 0 0 56.4 56.4;" xml:space="preserve">
<style type="text/css">
	.st0{fill:#333333;}
</style>
<g>
	<path class="st0" d="M37.1,2.3c0.3,0.2,0.5,0.5,0.8,0.7c3.8,3.8,7.5,7.6,11.3,11.3c0.4,0.4,0.5,0.8,0.5,1.3c0,10.6,0,21.3,0,31.9
		c0,1-0.2,1.3-1.3,1.3c-1.3,0-2.5,0-3.8,0c0,0.2,0,0.4,0,0.6c0,1.2,0,2.4,0,3.6c0,0.7-0.3,1-1,1c-0.1,0-0.2,0-0.3,0
		c-11.8,0-23.5,0-35.3,0c-1.1,0-1.3-0.2-1.3-1.3c0-15.2,0-30.4,0-45.6C6.7,6,6.9,5.8,8,5.8c1.2,0,2.5,0,3.8,0c0-0.8,0-1.5,0-2.2
		c0-0.5,0.1-1,0.6-1.2C20.6,2.3,28.9,2.3,37.1,2.3z M36,4.1c-7.5,0-15,0-22.4,0c0,14.4,0,28.7,0,43c11.5,0,23,0,34.4,0
		c0-10.3,0-20.7,0-31c-0.2,0-0.4,0-0.6,0c-3.4,0-6.8,0-10.1,0c-1,0-1.2-0.3-1.2-1.2c0-3.4,0-6.8,0-10.2C36,4.5,36,4.3,36,4.1z
		 M8.4,7.5c0,14.9,0,29.9,0,44.8c11.5,0,23,0,34.4,0c0-1.2,0-2.2,0-3.4c-0.2,0-0.5,0-0.7,0c-9.7,0-19.3,0-29,0
		c-1.2,0-1.4-0.2-1.4-1.4c0-13.1,0-26.2,0-39.3c0-0.2,0-0.4,0-0.6C10.6,7.5,9.5,7.5,8.4,7.5z M46.6,14.4c-3-3-6-5.9-8.9-8.9
		c0,2.9,0,5.9,0,8.9C40.7,14.4,43.7,14.4,46.6,14.4z"/>
	<path class="st0" d="M33.4,41.1c-3.3,0-6.6,0-10,0c-0.2,0-0.4,0-0.6,0c-0.4-0.1-0.6-0.4-0.6-0.8c0-0.4,0.2-0.7,0.7-0.8
		c0.2,0,0.4,0,0.5,0c6.6,0,13.3,0,20,0c0.2,0,0.3,0,0.5,0c0.4,0.1,0.7,0.4,0.7,0.8c0,0.4-0.2,0.7-0.7,0.8c-0.2,0-0.4,0-0.6,0
		C40,41.1,36.7,41.1,33.4,41.1z"/>
	<path class="st0" d="M33.4,29.1c3.3,0,6.5,0,9.8,0c0.2,0,0.4,0,0.5,0c0.5,0.1,0.8,0.4,0.8,0.8c0,0.5-0.3,0.8-0.8,0.9
		c-0.2,0-0.3,0-0.5,0c-6.6,0-13.3,0-19.9,0c0,0-0.1,0-0.1,0c-0.7,0-1.1-0.3-1.1-0.9c0-0.5,0.4-0.9,1.1-0.9
		C26.7,29.1,30,29.1,33.4,29.1z"/>
	<path class="st0" d="M33.4,34.2c3.3,0,6.6,0,10,0c0.8,0,1.2,0.3,1.2,0.8c0,0.6-0.4,0.9-1.3,0.9c-6.6,0-13.2,0-19.9,0
		c-0.2,0-0.4,0-0.6,0c-0.4-0.1-0.7-0.5-0.7-0.9c0.1-0.5,0.3-0.7,0.8-0.8c0.2,0,0.4,0,0.6,0C26.8,34.2,30.1,34.2,33.4,34.2z"/>
	<path class="st0" d="M33.3,20.4c-3.3,0-6.6,0-9.9,0c-0.2,0-0.4,0-0.5,0c-0.4,0-0.8-0.4-0.8-0.8c0-0.4,0.2-0.7,0.6-0.9
		c0.2,0,0.4,0,0.5,0c6.7,0,13.3,0,20,0c0.2,0,0.4,0,0.5,0c0.4,0.1,0.7,0.5,0.6,0.9c-0.1,0.4-0.3,0.7-0.8,0.8c-0.2,0-0.4,0-0.5,0
		C40,20.4,36.7,20.4,33.3,20.4z"/>
	<path class="st0" d="M33.4,25.6c-3.3,0-6.6,0-10,0c-0.9,0-1.3-0.3-1.3-0.9c0-0.6,0.4-0.9,1.3-0.9c6.6,0,13.2,0,19.8,0
		c0.2,0,0.5,0,0.7,0.1c0.4,0.1,0.6,0.4,0.6,0.8c0,0.4-0.2,0.7-0.7,0.8c-0.2,0-0.4,0-0.7,0C40,25.6,36.7,25.6,33.4,25.6z"/>
	<path class="st0" d="M20.4,17c-0.8,0-1.6,0-2.4,0c-0.7,0-1-0.3-1-1c0-1.6,0-3.3,0-4.9c0-0.7,0.3-1,1-1c1.6,0,3.3,0,4.9,0
		c0.7,0,1,0.3,1,1c0,1.6,0,3.3,0,4.9c0,0.7-0.3,1-1,1C22,17,21.2,17,20.4,17z M18.7,15.2c1.1,0,2.3,0,3.4,0c0-1.1,0-2.2,0-3.4
		c-1.1,0-2.3,0-3.4,0C18.7,13,18.7,14.1,18.7,15.2z"/>
	<path class="st0" d="M18.7,20.4c-0.3,0-0.6,0-0.9,0c-0.5,0-0.7-0.3-0.8-0.8c-0.1-0.4,0.2-0.8,0.7-0.9c0.7-0.1,1.4-0.1,2.1,0
		c0.5,0,0.7,0.5,0.7,0.9c-0.1,0.5-0.3,0.7-0.8,0.8C19.3,20.4,19,20.4,18.7,20.4L18.7,20.4z"/>
	<path class="st0" d="M18.7,34.2c0.3,0,0.6,0,0.9,0c0.5,0,0.8,0.4,0.8,0.8c0,0.5-0.2,0.8-0.7,0.9c-0.7,0.1-1.4,0.1-2.1,0
		c-0.4,0-0.7-0.5-0.7-0.9c0-0.4,0.4-0.8,0.8-0.8C18.1,34.2,18.4,34.2,18.7,34.2L18.7,34.2z"/>
	<path class="st0" d="M18.7,41.1c-0.3,0-0.6,0-0.9,0c-0.5,0-0.9-0.4-0.9-0.9c0-0.5,0.4-0.8,0.9-0.8c0.6,0,1.1,0,1.7,0
		c0.5,0,0.8,0.4,0.9,0.8c0,0.5-0.3,0.8-0.9,0.9C19.3,41.2,19,41.1,18.7,41.1z"/>
	<path class="st0" d="M18.7,25.6c-0.3,0-0.6,0-1,0c-0.5,0-0.7-0.4-0.7-0.8c0-0.4,0.2-0.8,0.6-0.8c0.7-0.1,1.4-0.1,2.2,0
		c0.4,0,0.6,0.4,0.6,0.8c0,0.4-0.3,0.7-0.7,0.8C19.4,25.6,19,25.6,18.7,25.6z"/>
	<path class="st0" d="M18.7,29c0.3,0,0.7,0,1,0.1c0.4,0.1,0.7,0.4,0.7,0.8c0,0.4-0.2,0.8-0.7,0.8c-0.7,0-1.4,0-2.1,0
		c-0.5,0-0.7-0.4-0.6-0.8s0.3-0.7,0.7-0.8C18,29.1,18.4,29.1,18.7,29z"/>
</g>
</svg>
