<?xml version="1.0" encoding="utf-8"?>
<!-- Generator: Adobe Illustrator 26.2.1, SVG Export Plug-In . SVG Version: 6.00 Build 0)  -->
<svg version="1.1" id="Layer_1" xmlns="http://www.w3.org/2000/svg" xmlns:xlink="http://www.w3.org/1999/xlink" x="0px" y="0px"
	 width="25.2px" height="25.2px" viewBox="0 0 25.2 25.2" style="enable-background:new 0 0 25.2 25.2;" xml:space="preserve">
<style type="text/css">
	.st0{fill:#CECECE;}
</style>
<g>
	<path class="st0" d="M2.4,16.74c0.22-0.43,0.45-0.53,0.99-0.43c0.39,0.07,0.72,0.26,1.01,0.53c0.15,0.14,0.29,0.29,0.45,0.42
		c0.33,0.28,0.76,0.29,1.09,0.01c0.23-0.2,0.45-0.41,0.69-0.63c-0.76-1.72-0.82-3.47-0.11-5.22c0.53-1.3,1.39-2.33,2.57-3.09
		c2.35-1.5,5.43-1.33,7.6,0.4c2.08,1.66,3.29,4.78,1.9,7.91c0.23,0.21,0.45,0.43,0.68,0.63c0.33,0.28,0.76,0.27,1.09-0.01
		c0.22-0.19,0.41-0.39,0.64-0.57c0.29-0.24,0.63-0.37,1-0.39c0.46-0.03,0.6,0.04,0.81,0.44c0,0.09,0,0.19,0,0.28
		c-0.11,0.24-0.26,0.44-0.55,0.45c-0.32,0.01-0.56,0.15-0.76,0.37c-0.1,0.1-0.2,0.2-0.3,0.29c-0.83,0.73-1.94,0.73-2.76,0
		c-0.13-0.12-0.26-0.25-0.39-0.37c-0.41-0.39-0.85-0.38-1.27,0.01c-0.17,0.16-0.33,0.33-0.51,0.47c-0.74,0.59-1.76,0.59-2.5-0.01
		c-0.2-0.16-0.37-0.34-0.56-0.51c-0.37-0.33-0.81-0.33-1.18,0c-0.15,0.13-0.28,0.28-0.43,0.41c-0.82,0.73-1.93,0.73-2.75,0
		c-0.16-0.14-0.3-0.3-0.46-0.44c-0.35-0.31-0.78-0.3-1.13,0.01c-0.19,0.17-0.36,0.35-0.56,0.51c-0.75,0.61-1.78,0.61-2.53,0.01
		c-0.19-0.15-0.34-0.34-0.53-0.48c-0.15-0.11-0.34-0.23-0.52-0.25c-0.33-0.04-0.56-0.17-0.69-0.48C2.4,16.92,2.4,16.83,2.4,16.74z
		 M18,13.91c-0.04-0.34-0.05-0.68-0.12-1.01c-0.58-2.95-3.31-4.81-6.29-4.29c-3.39,0.6-5.36,4.4-3.89,7.52
		c0.05,0.11,0.11,0.16,0.24,0.16c0.44,0.01,0.82,0.18,1.16,0.47c0.18,0.15,0.34,0.32,0.51,0.47c0.36,0.32,0.81,0.33,1.17,0.01
		c0.15-0.13,0.29-0.28,0.43-0.41c0.82-0.74,1.94-0.74,2.76-0.01c0.13,0.12,0.26,0.25,0.39,0.37c0.42,0.39,0.86,0.39,1.27,0
		c0.09-0.09,0.18-0.18,0.27-0.26c0.39-0.37,0.83-0.63,1.39-0.65c0.07,0,0.16-0.09,0.19-0.15C17.81,15.42,17.98,14.68,18,13.91z"/>
	<path class="st0" d="M2.4,19.53C2.62,19.1,2.85,19,3.39,19.1c0.38,0.07,0.71,0.25,0.99,0.51c0.15,0.14,0.29,0.29,0.45,0.42
		c0.36,0.31,0.8,0.31,1.15-0.01c0.19-0.17,0.36-0.35,0.56-0.51c0.74-0.6,1.78-0.6,2.52-0.01c0.19,0.15,0.35,0.32,0.53,0.49
		c0.39,0.36,0.83,0.37,1.23,0.01c0.18-0.17,0.35-0.34,0.54-0.5c0.73-0.58,1.73-0.59,2.47-0.02c0.2,0.16,0.38,0.35,0.57,0.52
		c0.39,0.36,0.84,0.35,1.23-0.01c0.17-0.16,0.33-0.33,0.51-0.47c0.75-0.61,1.79-0.61,2.55,0.01c0.18,0.15,0.34,0.31,0.51,0.47
		c0.38,0.35,0.83,0.36,1.21,0.01c0.2-0.18,0.38-0.37,0.59-0.53c0.29-0.24,0.63-0.37,1-0.39c0.46-0.03,0.6,0.04,0.81,0.44
		c0,0.09,0,0.19,0,0.28c-0.12,0.31-0.35,0.44-0.69,0.48c-0.19,0.02-0.38,0.15-0.54,0.26c-0.19,0.14-0.35,0.33-0.53,0.48
		c-0.74,0.59-1.76,0.58-2.5-0.01c-0.19-0.15-0.36-0.33-0.54-0.5c-0.38-0.35-0.83-0.35-1.21,0.01c-0.14,0.13-0.27,0.26-0.4,0.38
		c-0.83,0.74-1.95,0.74-2.78,0c-0.15-0.13-0.28-0.28-0.43-0.41c-0.35-0.31-0.79-0.31-1.15,0c-0.2,0.18-0.38,0.37-0.59,0.54
		c-0.73,0.58-1.75,0.58-2.49-0.01c-0.2-0.16-0.37-0.34-0.56-0.51c-0.37-0.34-0.82-0.34-1.2,0.01c-0.14,0.13-0.27,0.26-0.4,0.38
		c-0.84,0.76-1.97,0.75-2.81-0.01c-0.09-0.08-0.19-0.17-0.27-0.26c-0.21-0.22-0.45-0.36-0.76-0.37c-0.29-0.01-0.44-0.21-0.55-0.45
		C2.4,19.71,2.4,19.62,2.4,19.53z"/>
	<path class="st0" d="M9.01,6.6c0,0.29-0.17,0.53-0.39,0.61C8.38,7.29,8.09,7.23,7.96,7.02C7.71,6.63,7.48,6.24,7.27,5.83
		C7.13,5.57,7.26,5.24,7.52,5.09C7.78,4.94,8.13,5,8.3,5.26c0.24,0.37,0.45,0.76,0.67,1.15C9,6.48,9,6.56,9.01,6.6z"/>
	<path class="st0" d="M17.38,5.02c0.45,0,0.74,0.45,0.54,0.85c-0.19,0.38-0.41,0.74-0.63,1.1c-0.17,0.27-0.52,0.35-0.79,0.2
		c-0.28-0.16-0.39-0.5-0.24-0.79c0.2-0.37,0.41-0.73,0.62-1.08C16.99,5.11,17.16,5.02,17.38,5.02z"/>
	<path class="st0" d="M5.95,9.7c0,0.43-0.43,0.74-0.81,0.55c-0.4-0.2-0.79-0.43-1.17-0.67C3.7,9.42,3.65,9.06,3.81,8.8
		c0.15-0.25,0.48-0.37,0.74-0.24c0.4,0.21,0.79,0.43,1.16,0.68C5.84,9.33,5.9,9.53,6,9.67C5.98,9.68,5.96,9.69,5.95,9.7z"/>
	<path class="st0" d="M19.89,10.3c-0.31,0-0.54-0.17-0.61-0.42c-0.08-0.25,0-0.52,0.23-0.66c0.36-0.23,0.74-0.44,1.12-0.64
		c0.27-0.14,0.61-0.03,0.76,0.22c0.16,0.27,0.1,0.62-0.16,0.79c-0.37,0.23-0.75,0.44-1.13,0.65C20.02,10.28,19.93,10.29,19.89,10.3z
		"/>
	<path class="st0" d="M12,4.91c0-0.19,0-0.39,0-0.58c0.01-0.34,0.26-0.6,0.59-0.6c0.34,0,0.6,0.25,0.6,0.61
		c0.01,0.39,0.01,0.78,0,1.18c-0.01,0.34-0.26,0.6-0.59,0.6c-0.34,0-0.6-0.26-0.6-0.61C12,5.31,12,5.11,12,4.91z"/>
	<path class="st0" d="M3.63,13.3c0.2,0,0.4-0.01,0.6,0c0.34,0.01,0.59,0.25,0.6,0.57c0.01,0.32-0.22,0.59-0.56,0.61
		c-0.42,0.02-0.85,0.02-1.27,0c-0.33-0.01-0.57-0.29-0.56-0.61c0.01-0.32,0.26-0.56,0.6-0.57C3.24,13.29,3.44,13.3,3.63,13.3z"/>
	<path class="st0" d="M21.56,13.3c0.2,0,0.4-0.01,0.6,0c0.34,0.01,0.59,0.25,0.6,0.57c0.01,0.32-0.22,0.59-0.56,0.61
		c-0.42,0.02-0.85,0.02-1.27,0c-0.33-0.01-0.57-0.29-0.56-0.61c0.01-0.32,0.26-0.56,0.6-0.57C21.17,13.29,21.37,13.3,21.56,13.3z"/>
</g>
</svg>
