<?xml version="1.0" encoding="utf-8"?>
<!-- Generator: Adobe Illustrator 26.0.2, SVG Export Plug-In . SVG Version: 6.00 Build 0)  -->
<svg version="1.1" id="Layer_1" xmlns="http://www.w3.org/2000/svg" xmlns:xlink="http://www.w3.org/1999/xlink" x="0px" y="0px"
	 width="56.4px" height="56.4px" viewBox="0 0 56.4 56.4" style="enable-background:new 0 0 56.4 56.4;" xml:space="preserve">
<style type="text/css">
	.st0{fill:#333333;}
</style>
<g>
	<path class="st0" d="M5.9,37c-0.1,0-0.1,0-0.2,0c-1.3,0.1-1.5-0.3-1.5-1.5c0-0.7,0-1.5,0-2.2c0-0.8,0.3-1.1,1.1-1.1
		c0.4,0,0.9,0,1.3,0c0-0.8,0-1.6,0-2.4c0.6,0,1.1,0,1.6,0c0,0.8,0,1.6,0,2.4c2.4,0,4.8,0,7.2,0c0-0.8,0-1.6,0-2.4c-1.3,0-2.6,0-4,0
		c0-0.5,0-1.1,0-1.6c0.2,0,0.3,0,0.5,0c2.1,0,4.3,0,6.5,0c2.6,0,4.1,1.4,4.3,4c0.5,0,1,0,1.6,0c0-0.2,0-0.3,0-0.5c0-2.8,0-5.5,0-8.3
		c0-0.9-0.2-1.2-1.1-1.5c-0.7-0.3-1.4-0.5-2.2-0.8c0.2,0.6,0.4,1.2,0.7,1.7c0.2,0.4,0.3,0.7,0,1.1c-0.3,0.4-0.7,0.3-1.1,0.2
		c-1.4-0.2-2.8-0.5-4.2-0.7c-0.7-0.1-1.5,0.2-2.2,0.3c-0.9,0.1-1.7,0.3-2.6,0.4c-0.8,0.1-1.2-0.4-0.9-1.2c0.1-0.3,0.2-0.6,0.4-0.9
		c0.1-0.3,0.2-0.6,0.4-1c-1,0.4-1.9,0.7-2.7,1.1c-0.4,0.2-0.6,0.7-0.6,1.1c0,1.4,0,2.9,0,4.3c0,0.2,0,0.4,0,0.6c-0.5,0-1,0-1.6,0
		c0-0.6,0-1.2,0-1.9c0-1,0-2,0-3.1c0-1.3,0.7-2.3,1.9-2.8c1.1-0.4,2.3-0.8,3.4-1.3c0.2-0.1,0.4-0.3,0.5-0.5c0.3-0.6,0.6-1.2,0.9-1.8
		c-0.2-0.1-0.3-0.2-0.5-0.3c-1-0.6-1.4-1.5-1.4-2.6c0-1.4,0-2.8,0-4.2c0-0.3-0.1-0.4-0.3-0.6C10.4,8.6,10,7.8,10,6.8
		c0-0.6,0-1.3,0-1.9c0-0.6,0.3-0.9,0.9-0.9c1.8,0,3.5,0,5.2,0C16.5,4,17,4,17.3,4.3c0.7,0.5,1.4,0.6,2.1,0.8
		c0.5,0.2,1.1,0.4,1.6,0.7c1.1,0.8,1.2,2,1,3.2c0,0.3-0.4,0.5-0.8,0.8c0,1.2,0,2.6,0,3.9c0,1.3-0.5,2.3-1.6,2.9
		c-0.1,0-0.2,0.1-0.3,0.2c0.3,0.6,0.6,1.3,1,1.9c0.1,0.1,0.3,0.3,0.5,0.3c1.1,0.4,2.2,0.8,3.3,1.2c1.4,0.5,2,1.5,2,2.9
		c0,2.8,0,5.5,0,8.3c0,0.2,0,0.4,0,0.6c0.4,0,0.7,0,1.1,0c1.7,0,3.4,0,5.1,0c0.8,0,1,0.3,1,1c0,0.9,0,1.8,0,2.7
		c0,0.9-0.2,1.1-1.1,1.1c-0.1,0-0.3,0-0.5,0c0,3,0,5.9,0,8.8c-0.6,0-1.1,0-1.6,0c0-2.9,0-5.8,0-8.8c-7.5,0-15,0-22.6,0
		c0,4.5,0,9.1,0,13.7c6.2,0,12.3,0,18.5,0c0,0.5,0,1,0,1.6c-0.2,0-0.4,0-0.5,0c-6.1,0-12.3,0-18.5,0c-0.9,0-1.2-0.2-1.2-1.2
		c0-4.5,0-9,0-13.5C5.9,37.5,5.9,37.3,5.9,37z M31.7,33.8c-8.6,0-17.2,0-25.8,0c0,0.5,0,1,0,1.5c8.6,0,17.2,0,25.8,0
		C31.7,34.8,31.7,34.3,31.7,33.8z M13.2,9.6c0,1.6,0,3,0,4.5c0,0.4,0.2,0.8,0.6,1c0.6,0.4,1.3,0.8,1.9,1.1c0.5,0.3,0.9,0.3,1.4,0
		c0.6-0.4,1.2-0.8,1.9-1.1c0.5-0.3,0.7-0.7,0.7-1.3c0-0.9,0-1.7,0-2.6c0-0.6,0-1.2,0-1.8C17.5,9.6,15.4,9.6,13.2,9.6z M11.6,5.5
		c0,0.4,0,0.7,0,1c0,0.9,0.5,1.4,1.4,1.4c1.2,0,2.3,0,3.5,0c0.3,0,0.5,0,0.8,0c0-0.4,0-0.8,0-1.2c0-0.7-0.5-1.2-1.2-1.2
		C14.5,5.5,13.1,5.5,11.6,5.5z M14.9,17.7c-0.3,0.5-0.5,1-0.7,1.3c0.8,0.8,1.5,1.5,2.2,2.2c0.7-0.7,1.4-1.4,2.2-2.2
		c-0.2-0.4-0.4-0.9-0.7-1.3C16.9,18.2,15.9,18.2,14.9,17.7z M21.2,32.2c0.1-1-0.5-2-1.5-2.2c-0.8-0.2-1.7-0.1-2.5-0.2
		c0,0.9,0,1.7,0,2.4C18.6,32.2,19.9,32.2,21.2,32.2z M20.4,7.9c-0.1-0.9-0.6-1.2-1.6-1.3c0,0.4,0,0.9,0,1.3
		C19.4,7.9,19.9,7.9,20.4,7.9z M13.4,20.8c-0.2,0.5-0.4,0.9-0.6,1.5c0.6-0.1,1.2-0.2,1.8-0.3C14.3,21.6,13.9,21.2,13.4,20.8z
		 M20,22.3c-0.2-0.6-0.4-1-0.6-1.4c-0.4,0.4-0.8,0.7-1.2,1.1C18.8,22.1,19.3,22.1,20,22.3z"/>
	<path class="st0" d="M48.5,21c0.3,0.2,0.6,0.3,0.8,0.5c0.6,0.5,0.9,1.1,1,1.9c0,0.8,0,1.5,0,2.3c-0.5,0-1,0-1.6,0
		c0-0.6,0-1.1,0-1.7c0-1-0.5-1.5-1.5-1.5c-1.6,0-3.2,0-4.8,0c-0.2,0-0.4,0.1-0.5,0.2c-0.6,1.5-1.4,2.9-1.3,4.5c0,1.1,0,2.2,0,3.3
		c0,0.2,0,0.5,0,0.8c1.3,0,2.7,0,4,0c0-1.9,0-3.7,0-5.6c0.5,0,1.1,0,1.6,0c0,0.1,0,0.3,0,0.4c0,1.9,0,3.8,0,5.7
		c0,0.8-0.3,1.1-1.1,1.1c-1,0-1.9,0-2.9,0c0,0.8,0,1.6,0,2.4c2.1,0,4.2,0,6.4,0c0-2.7,0-5.3,0-8c0.5,0,1.1,0,1.6,0
		c0.2,0.7,0,11.9-0.1,12.9c0.6,0,1.1,0,1.7,0c0.7,0,1,0.3,1,1c0,0.6,0,1.3-0.2,1.8c-0.4,1.7-1.9,2.8-3.6,2.8c-1.1,0-2.3,0-3.4,0
		c0,1.1,0,2.1,0,3.2c0.7,0,1.3,0,2,0c1.7,0,3,1.4,2.8,3.2c-0.5,0-1,0-1.6,0c0-0.1,0-0.2,0-0.3c0-0.8-0.5-1.2-1.3-1.2
		c-1.8,0-3.7,0-5.5,0c-0.8,0-1.2,0.5-1.3,1.6c-0.5,0-1,0-1.5,0c-0.3-1.5,1-3.1,2.7-3.2c0.7,0,1.4,0,2.1,0c0-1.1,0-2.1,0-3.2
		c-0.1,0-0.2,0-0.3,0c-1.3,0-2.6,0-3.9,0c-0.3,0-0.5,0.1-0.5,0.4c-0.2,0.6-0.3,1.2-0.5,1.7c-0.6,1.2-0.8,2.5-1.1,3.7
		c-0.1,0.4-0.4,0.7-0.8,0.7c-2.7,0-5.3,0-8,0c-0.6,0-0.9-0.3-0.9-1c0-2,1.8-3.8,3.9-3.9c1,0,1,0,1.2-1c0.5-2.4,1-4.7,1.5-7.1
		c0.2-0.9,0.6-1.7,1.1-2.3c-0.1-0.5-0.3-0.9-0.3-1.2c-0.1-1,0-2,0.6-2.8c0.8-1.1,1.9-1.7,3.4-1.7c0-0.2,0-0.3,0-0.5
		c0-1.2,0-2.4,0-3.6c0-1.1,0.2-2.2,0.6-3.2c0.2-0.4,0.3-0.8,0.5-1.1c0.3-0.7,0.6-1.4,0-2.1c-0.3-0.3-0.2-1-0.4-1.5
		c-0.1,0-0.4,0-0.6,0c-1-0.1-1.7-1-1.2-2c0.3-0.6,0.6-1.2,0.9-1.9c0.1-0.2,0.2-0.5,0.2-0.8c0-0.7,0.1-1.4-0.7-1.8
		c-0.6-0.4-0.9-1.1-0.9-1.9c0-0.9,0-1.9,0-2.8c0-0.6,0.3-0.9,0.9-0.9c2.2,0,4.4,0,6.7,0c2,0,3.7,1.7,3.7,3.7c0,2.9,0,5.9,0,8.8
		C48.7,20.1,48.5,20.5,48.5,21z M48.7,37c-0.1,0-0.2,0-0.2,0c-3.1,0-6.2,0-9.3,0c-1.7,0-2.9,1-3.3,2.7c-0.3,1.6-0.7,3.1-1,4.7
		c-0.2,1-0.4,2.1-0.7,3.1c0.9,0,1.8,0,2.7,0c0.1-0.2,0.1-0.4,0.2-0.6c0.6-1.9,1.2-3.8,1.8-5.7c0.3-0.8,0.4-1,1.3-1
		c2.4,0,4.7,0,7.1,0c0.8,0,1.3-0.4,1.4-1.1C48.7,38.4,48.7,37.8,48.7,37z M39.5,17.6c0.4,0,0.8,0,1.1,0c0.5,0,0.8,0.3,0.8,0.8
		c0,0.3,0,0.7,0,1c0,0.9,0.5,1.4,1.4,1.4c1,0,2,0,2.9,0c0.9,0,1.4-0.5,1.4-1.4c0-1.7,0-3.4,0-5.1c0-0.2,0-0.5,0-0.8
		c-2.2,0-4.3,0-6.5,0C41,15.2,40.2,16.3,39.5,17.6z M39.7,44.2C39.8,44.2,39.8,44.2,39.7,44.2c3.2,0,6.3,0.1,9.4,0
		c1.2,0,2.1-1.2,1.9-2.4c-0.9,0-1.8,0-2.8,0c-2.5,0-5,0-7.5,0c-0.2,0-0.4,0.1-0.5,0.2C40.1,42.8,39.9,43.5,39.7,44.2z M47.1,12
		c0-0.3,0-0.5,0-0.8c0-1.6-0.9-2.5-2.5-2.5c-1.7,0-3.4,0-5.1,0c-0.2,0-0.3,0-0.5,0c0,0.6,0,1.2,0,1.8c0,0.1,0,0.2,0,0.3
		c0,0.6,0.5,1.1,1.1,1.1C42.5,12,44.7,12,47.1,12z M29.6,50.7c2.1,0,4.3,0,6.4,0c0.1-0.5,0.2-1,0.4-1.6c-1.6,0-3.2,0-4.8,0
		C30.6,49.2,29.8,49.9,29.6,50.7z M36.6,35.4c1.3,0,2.7,0,4,0c0-0.8,0-1.6,0-2.4c-0.7,0-1.3,0-1.9,0C37.4,33.1,36.6,34.1,36.6,35.4z
		"/>
	<path class="st0" d="M18.8,45.9c-2.6,0-5.2,0-7.8,0c-0.9,0-1.1-0.2-1.1-1.1c0-1.5,0-2.9,0-4.3c0-0.7,0.3-1,1-1c5.3,0,10.5,0,15.7,0
		c0.7,0,1,0.3,1,1c0,1.5,0,3,0,4.4c0,0.7-0.3,1-1,1C24.1,45.9,21.5,45.9,18.8,45.9z M11.6,41.1c0,1.1,0,2.1,0,3.2
		c4.8,0,9.6,0,14.5,0c0-1.1,0-2.1,0-3.2C21.2,41.1,16.5,41.1,11.6,41.1z"/>
	<path class="st0" d="M27.6,17.6c-1.8,0-3.6,0-5.3,0c-0.4,0-0.7-0.1-0.9-0.5c-0.2-0.4,0-0.7,0.2-1c0.6-0.8,1.3-1.7,1.9-2.6
		c0.1-0.2,0.2-0.4,0.2-0.7c0-1.2,0-2.4,0-3.7c0-1.7,1.2-2.9,2.9-2.9c2.1,0,4.2,0,6.3,0c1.7,0,2.9,1.2,2.9,2.9c0,1.8,0,3.6,0,5.4
		c0,1.7-1.2,2.9-3,2.9C31.1,17.6,29.4,17.6,27.6,17.6z M23.7,16c0.1,0,0.2,0,0.3,0c3,0,5.9,0,8.9,0c0.8,0,1.3-0.5,1.3-1.3
		c0-1.8,0-3.6,0-5.3c0-0.9-0.5-1.4-1.4-1.4c-2,0-4,0-6,0c-1,0-1.4,0.5-1.4,1.4c0,1.3,0,2.7,0,4c0,0.3-0.1,0.6-0.3,0.8
		C24.6,14.8,24.2,15.4,23.7,16z"/>
	<path class="st0" d="M26.9,9.6c1.9,0,3.7,0,5.6,0c0,0.5,0,1,0,1.6c-1.9,0-3.7,0-5.6,0C26.9,10.6,26.9,10.2,26.9,9.6z"/>
	<path class="st0" d="M27,12.8c1.9,0,3.7,0,5.6,0c0,0.5,0,1,0,1.6c-1.9,0-3.7,0-5.6,0C27,13.9,27,13.4,27,12.8z"/>
</g>
</svg>
