<?xml version="1.0" encoding="utf-8"?>
<!-- Generator: Adobe Illustrator 26.5.0, SVG Export Plug-In . SVG Version: 6.00 Build 0)  -->
<svg version="1.1" id="Layer_1" xmlns="http://www.w3.org/2000/svg" xmlns:xlink="http://www.w3.org/1999/xlink" x="0px" y="0px"
	 width="50px" height="50px" viewBox="0 0 50 50" style="enable-background:new 0 0 50 50;" xml:space="preserve">
<style type="text/css">
	.st0{fill:#0C62C1;}
</style>
<path class="st0" d="M3.3,14.2c0.2-0.3,0.4-0.7,0.7-0.9c0.3-0.2,0.8-0.4,1.2-0.4c0.6-0.1,1.3,0,2,0c0-0.6,0-1.1,0-1.6
	c0-1.5,1-2.5,2.5-2.5c0.6,0,1.2,0,1.8,0c1.4,0,2.4,1,2.5,2.5c0,0.8,0,1.6,0,2.3c0,0.5-0.3,0.7-0.6,0.7c-0.4,0-0.6-0.3-0.6-0.7
	c0-0.7,0-1.5,0-2.2c0-0.8-0.5-1.3-1.3-1.3c-0.6,0-1.1,0-1.7,0c-0.8,0-1.3,0.5-1.3,1.3c0,6.6,0,13.1,0,19.7c0,0.8,0.5,1.3,1.3,1.3
	c0.5,0,1.1,0,1.6,0c0.9,0,1.4-0.4,1.4-1.4c0-4.7,0-9.5,0-14.2c0-0.2,0-0.3,0-0.5c0.1-0.3,0.3-0.5,0.7-0.5c0.4,0,0.6,0.2,0.6,0.6
	c0,0.6,0,1.2,0,1.8c1,0,2,0,3,0c0-0.5,0-0.9,0-1.4c0-1,0.4-1.8,1.3-2.3c0.9-0.5,1.8-0.4,2.6,0.2c0,0,0.1,0,0.1,0
	c1.3-1.2,2.1-1.4,3.6-0.6c1.2-1.7,3.4-1.6,4.4,0.1c0.6-0.3,1.2-0.5,1.9-0.4c1.1,0.2,1.9,1.2,1.9,2.3c0,0.6,0,1.3,0,1.9
	c1.1,0,2.2,0,3.3,0c0-0.2,0-0.3,0-0.5c0-2.1,0-4.2,0-6.3c0-1.6,1-2.6,2.6-2.6c0.6,0,1.1,0,1.7,0c1.4,0,2.5,1.1,2.5,2.5
	c0,0.5,0,1,0,1.6c0.6,0,1.2,0,1.8,0c1.3,0,2,0.7,2,2c0,4.2,0,8.3,0,12.5c0,1.3-0.7,2-2,2c-0.6,0-1.2,0-1.8,0c0,0.5,0,1,0,1.5
	c0,1.6-1,2.6-2.6,2.6c-0.6,0-1.1,0-1.7,0c-1.4,0-2.5-1-2.5-2.5c0-2.1,0-4.3,0-6.4c0-0.2,0-0.3,0-0.5c-0.7,0-1.4,0-2.2,0
	c0,0.3,0,0.7,0,1c0,0.7-0.2,1.3-0.7,1.9c-0.5,0.7-1.1,1.3-1.6,2c-0.2,0.2-0.3,0.5-0.3,0.8c0,0.3,0,0.7,0,1c0,0.4-0.3,0.7-0.7,0.7
	c-0.3,0-0.6-0.3-0.6-0.7c0-0.5,0-1,0-1.6c0-0.2,0.1-0.4,0.3-0.6c0.6-0.8,1.2-1.5,1.8-2.2c0.3-0.4,0.5-0.8,0.5-1.3c0-1.1,0-2.3,0-3.4
	c0-0.6-0.2-0.9-0.8-0.9c-1.7,0-3.4,0-5.2,0c-0.7,0-1.2,0.4-1.2,1.1c0,0.6,0.5,1.1,1.2,1.1c0.8,0,1.7,0,2.5,0c0.6,0,0.9,0.2,0.8,0.6
	c0,0.4-0.3,0.6-0.8,0.6c-3.6,0-7.3,0-10.9-0.1c-0.3,0-0.5,0-0.8,0c0,0.8-0.1,1.6,0.5,2.3c0.6,0.7,1.2,1.4,1.7,2.1
	c0.2,0.2,0.3,0.5,0.3,0.8c0,3.8,0,7.5,0,11.3c0,0.5-0.2,0.8-0.6,0.8c-0.4,0-0.6-0.3-0.6-0.8c0-3.6,0-7.2,0-10.8
	c0-0.2-0.1-0.5-0.3-0.7c-0.4-0.6-0.9-1.2-1.4-1.7c-0.6-0.7-0.9-1.5-0.9-2.4c0-0.2,0-0.4,0-0.7c-0.7,0-1.4,0-2.2,0c0,0.2,0,0.3,0,0.5
	c0,2-0.1,4.1,0,6.1c0.1,1.7-1.2,2.9-2.8,2.8c-0.5,0-1,0-1.6,0c-1.4,0-2.5-1.1-2.5-2.5c0-0.5,0-1,0-1.6c-0.5,0-1,0-1.5,0
	C4.5,29.4,3.7,29,3.3,28C3.3,23.4,3.3,18.8,3.3,14.2z M42.9,28.1c0.6,0,1.2,0,1.8,0c0.6,0,0.8-0.1,0.8-0.8c0-4.1,0-8.2,0-12.2
	c0-0.2,0-0.3,0-0.5c-0.1-0.2-0.2-0.5-0.4-0.5c-0.7,0-1.4,0-2.2,0c0,2.9,0,5.7,0,8.5c0,0.3,0,0.6,0,0.9c0,0.4-0.3,0.6-0.6,0.6
	c-0.3,0-0.6-0.2-0.6-0.6c0-0.1,0-0.3,0-0.4c0-4,0-7.9,0-11.9c0-0.9-0.5-1.3-1.3-1.3c-0.5,0-1.1,0-1.6,0c-0.9,0-1.3,0.4-1.3,1.3
	c0,1.3,0,2.5,0,3.8c0,5.3,0,10.5,0,15.8c0,0.9,0.4,1.4,1.3,1.4c0.5,0,1,0,1.5,0c0.9,0,1.4-0.4,1.4-1.4c0-1.5,0-2.9,0-4.4
	c0-0.6,0.2-0.9,0.6-0.9c0.4,0,0.6,0.3,0.6,0.8C42.9,27,42.9,27.5,42.9,28.1z M7.1,28.1c0-4.7,0-9.3,0-14c-0.6,0-1.2,0-1.8,0
	c-0.6,0-0.8,0.1-0.8,0.8c0,4.1,0,8.3,0,12.4c0,0.1,0,0.2,0,0.3c0,0.3,0.2,0.5,0.5,0.5C5.7,28.1,6.4,28.1,7.1,28.1z M13.9,22.8
	c3.5,0,6.9,0,10.4,0c-0.3-0.7-0.3-1.4,0-2c-0.5,0.1-1.1,0.2-1.6,0.2c-0.5-0.1-1-0.4-1.6-0.6c0,0,0,0,0,0c-1.3,1.1-3.1,0.8-3.9-0.8
	c-0.1-0.1-0.3-0.2-0.4-0.2c-0.2,0-0.4,0-0.6,0c-0.7,0-1.5,0-2.2,0C13.9,20.5,13.9,21.6,13.9,22.8z M27.9,16.9
	C27.9,16.9,27.9,16.9,27.9,16.9c0-0.6,0-1.1,0-1.7c0-0.5-0.3-0.9-0.8-1.1c-0.8-0.3-1.6,0.3-1.6,1.2c0,1.1,0,2.1,0,3.2
	c0,0.1,0,0.3,0.1,0.4c0.1,0.4,0.3,0.7,0.8,0.5c0.2-0.1,0.4,0,0.6,0c0.7,0,0.9-0.2,0.9-0.9C27.9,18,27.9,17.5,27.9,16.9z M24.2,17.3
	C24.2,17.3,24.2,17.3,24.2,17.3c0-0.5,0-0.9,0-1.4c0-0.6-0.5-1.1-1.1-1.2c-0.6,0-1.2,0.4-1.2,1c0,0.9,0,1.9,0,2.8
	c0,0.6,0.6,1.1,1.2,1c0.6,0,1.1-0.5,1.1-1.2C24.3,18.2,24.2,17.7,24.2,17.3z M31.5,17.4C31.5,17.4,31.5,17.4,31.5,17.4
	c0-0.4,0-0.9,0-1.3c0-0.6-0.5-1-1.1-1.1c-0.6,0-1.2,0.3-1.2,0.9c-0.1,1,0,2,0,3c0,0.4,0.3,0.6,0.7,0.6c0.3,0,0.5,0,0.8,0
	c0.6,0.1,0.8-0.3,0.8-0.8C31.6,18.2,31.5,17.8,31.5,17.4z M20.6,17.6c0-0.4,0-0.7,0-1.1c0-0.6-0.5-1.1-1.1-1.2
	c-0.6,0-1.2,0.4-1.2,1.1c0,0.8,0,1.5,0,2.3c0,0.6,0.6,1.1,1.2,1.1c0.6,0,1.1-0.5,1.1-1.2C20.6,18.2,20.6,17.9,20.6,17.6z M36.1,22.8
	c0-1.2,0-2.3,0-3.4c-1.5-0.1-3.2-0.1-3.4,0.2c1.5,0.6,1.3,2,1.3,3.2C34.6,22.8,35.3,22.8,36.1,22.8z"/>
<path class="st0" d="M28,29.7c0,1.2,0,2.3,0,3.5c0,0.6-0.5,0.9-1,0.6c-0.2-0.1-0.3-0.4-0.3-0.6c0-2.4,0-4.8,0-7.1
	c0-0.4,0.3-0.7,0.6-0.7c0.4,0,0.6,0.3,0.6,0.7C28,27.3,28,28.5,28,29.7z"/>
</svg>
