<?xml version="1.0" encoding="utf-8"?>
<!-- Generator: Adobe Illustrator 26.0.2, SVG Export Plug-In . SVG Version: 6.00 Build 0)  -->
<svg version="1.1" id="Layer_1" xmlns="http://www.w3.org/2000/svg" xmlns:xlink="http://www.w3.org/1999/xlink" x="0px" y="0px"
	 width="100px" height="100px" viewBox="0 0 100 100" style="enable-background:new 0 0 100 100;" xml:space="preserve">
<style type="text/css">
	.st0{fill:#020180;}
</style>
<g>
	<path class="st0" d="M68,10c1.1,0.4,1.8,1.3,2.5,2.1c2.2,2.6,4.5,5.2,6.7,7.7c0.9,1,1.1,2.1,0.6,3.3c-0.5,1.2-1.5,1.7-2.8,1.6
		c-0.5,0-1,0-1.6,0c-0.6,0-0.8,0.2-0.8,0.8c0,3.3,0,6.5,0,9.8c0,3.1,0,6.1,0,9.2c0,0.6,0.2,0.8,0.7,1c9.5,3,15,9.5,16.4,19.3
		c0,0.1,0.1,0.3,0.1,0.4c0,1.5,0,2.9,0,4.4c-0.4,2.5-0.9,4.9-1.9,7.1c-3.6,7.6-9.6,12.2-18,13.2c-10,1.3-19.1-3.9-23.4-13
		c-5.2-11-0.5-24.4,10.4-29.8c1.3-0.6,2.6-1.2,4-1.5c0.5-0.1,0.8-0.4,0.8-1c0-6.3,0-12.6,0-19c0-0.6-0.2-0.9-0.8-0.8
		c-0.5,0-1,0-1.6,0c-1.2,0-2.1-0.5-2.6-1.6c-0.5-1.1-0.4-2.1,0.4-3.1c1.6-1.9,3.2-3.7,4.8-5.6c0.9-1,1.7-1.9,2.6-3
		c0.6-0.7,1.2-1.2,2-1.5C67.2,10,67.6,10,68,10z M67.3,87.1c11,0,19.8-8.7,19.9-19.8c0.1-10.3-8-19.9-19.7-20
		c-11-0.1-20,8.6-20,19.8C47.4,78.9,57,87.2,67.3,87.1z M75,21.7c0-0.1,0-0.2-0.1-0.2c-2.4-2.7-4.7-5.5-7.1-8.2
		c-0.4-0.4-0.6-0.2-0.9,0.1c-2.3,2.6-4.6,5.2-6.8,7.8c-0.1,0.1-0.3,0.3-0.2,0.5c0.1,0.3,0.4,0.2,0.5,0.2c1,0,2.1-0.1,3.1,0.1
		c0.9,0.1,1.3,0.6,1.3,1.5c0,0.3,0,0.5,0,0.8c0,6.5,0,13,0,19.5c0,0.7,0.2,1,0.9,0.9c1.1-0.1,2.2,0,3.3,0c1,0,1,0,1-1
		c0-6.5,0-12.9,0-19.4c0-0.3,0-0.5,0-0.8c0-1,0.4-1.5,1.4-1.6c0.9-0.1,1.8,0,2.7-0.1C74.4,21.9,74.7,22,75,21.7z"/>
	<path class="st0" d="M35.2,10c2.5,0.4,5,1,7.3,2.1c7.5,3.8,12,9.9,12.8,18.3c1.1,11.5-6.2,21-16.1,23.9c-0.8,0.2-1,0.6-1,1.4
		c0,6.1,0,12.2,0,18.3c0,1.1,0,1.1,1.1,1.1c0.4,0,0.8,0,1.2,0c1.2,0,2.1,0.5,2.7,1.6c0.6,1.1,0.4,2.2-0.4,3.1
		c-1.2,1.5-2.5,2.9-3.8,4.4c-1.2,1.4-2.5,2.8-3.7,4.2c-1.7,2-3.4,2-5.1,0c-2.4-2.8-4.9-5.7-7.4-8.5c-0.9-1-1.1-2.1-0.6-3.3
		c0.5-1.2,1.5-1.7,2.8-1.6c0.6,0,1.1,0,1.7,0c0.4,0,0.6-0.2,0.6-0.6c0-0.5,0-0.9,0-1.4c0-5.9,0-11.7,0-17.6c0-0.7-0.2-1-0.9-1.2
		c-9.4-3.1-15-9.5-16.3-19.3c-1.5-11.7,7-23,18.7-24.8c0.4-0.1,0.9-0.2,1.3-0.2C31.9,10,33.5,10,35.2,10z M12.9,32.6
		c-0.2,10.2,8,19.9,19.8,19.9c11.1,0.1,19.9-8.7,19.9-19.9c0-11.7-9.6-19.9-19.8-19.9C21.7,12.9,12.9,21.6,12.9,32.6z M40.6,78
		c-1.4,0-2.6,0-3.8,0c-1.1,0-1.5-0.5-1.6-1.6c0-0.3,0-0.5,0-0.8c0-6.5,0-13,0-19.5c0-0.6-0.1-0.9-0.8-0.8c-1.1,0.1-2.2,0-3.3,0
		c-1.1,0-1.1,0-1.1,1.1c0,6.6,0,13.2,0,19.7c0,1.4-0.4,1.8-1.9,1.8c-0.8,0-1.7,0-2.5,0c-0.2,0-0.5-0.1-0.7,0.1
		c-0.1,0.3,0.2,0.4,0.3,0.6c2.2,2.6,4.5,5.2,6.7,7.8c0.4,0.5,0.7,0.5,1.2,0c1.6-1.8,3.2-3.7,4.8-5.5C38.9,80,39.7,79.1,40.6,78z"/>
	<path class="st0" d="M63.6,66.1c-1.1,0-2.3,0-3.4,0c-0.5,0-0.7,0.2-0.8,0.7c-0.1,1.7-0.1,1.7,1.6,1.7c2,0,4,0,6,0
		c0.9,0,1.5,0.4,1.6,1.2c0.2,0.9-0.5,1.7-1.6,1.7c-1.9,0-3.7,0-5.6,0c-0.4,0-0.8-0.2-1,0.2c-0.2,0.4,0.2,0.7,0.4,1
		c2.5,4.3,8.7,5.7,12.4,0.7c0.7-0.9,1.4-1.1,2.1-0.6c0.7,0.5,0.8,1.4,0.1,2.3c-4.3,5.9-12.3,5.6-16.6-0.2C58.3,74,57.8,73,57.5,72
		c-0.2-0.5-0.4-0.7-0.9-0.6c-0.7,0-1.5,0-2.2,0c-1.1,0-1.8-0.6-1.7-1.5c0-0.9,0.6-1.4,1.7-1.4c0.5,0,1,0,1.6,0
		c0.6,0.1,0.8-0.2,0.7-0.8c0-0.2,0-0.5,0-0.7c0-1,0-1-1-1c-0.6,0-1.2,0-1.7-0.1c-0.8-0.1-1.3-0.8-1.2-1.5c0.1-0.7,0.6-1.2,1.4-1.3
		c0.8,0,1.6,0,2.4,0c0.5,0,0.8-0.2,1-0.7c1.5-4,4.4-6.4,8.7-7.2c3.5-0.6,7.9,1.5,9.6,4.5c0.4,0.7,0.3,1.5-0.4,2
		c-0.6,0.4-1.5,0.3-2-0.4c-1.1-1.6-2.6-2.6-4.4-3.1c-3.3-0.8-7.3,1.2-8.5,4.4c-0.2,0.6,0.1,0.5,0.4,0.5c2.1,0,4.1,0,6.2,0
		c0.9,0,1.5,0.4,1.6,1.2c0.2,0.9-0.5,1.7-1.6,1.7C66,66.1,64.8,66.1,63.6,66.1C63.6,66.1,63.6,66.1,63.6,66.1z"/>
	<path class="st0" d="M31.3,37.7c0-0.9,0-1.9,0-2.8c0-0.7-0.2-1-0.9-1.2c-1.4-0.3-2.6-0.9-3.6-1.9c-3.1-2.9-2.7-7.4,0.8-9.7
		c0.9-0.6,1.9-1.1,3-1.3c0.5-0.1,0.7-0.3,0.7-0.9c0-0.6,0-1.2,0-1.9c0.1-0.9,0.7-1.5,1.5-1.5c0.8,0,1.4,0.6,1.4,1.6
		c0,0.6,0,1.1,0,1.7c0,0.6,0.2,0.8,0.8,0.9c1.9,0.4,3.5,1.3,4.7,2.9c0.7,1,1.1,2,1.2,3.2c0.1,0.9-0.5,1.7-1.3,1.7
		c-0.8,0.1-1.4-0.5-1.5-1.4c-0.2-1.8-1.5-3.1-3.3-3.6c-0.4-0.1-0.6,0-0.6,0.4c0,2.2,0,4.4,0,6.6c0,0.5,0.3,0.6,0.7,0.7
		c0.9,0.2,1.8,0.5,2.6,1c2.1,1.3,3.5,3.1,3.4,5.6c-0.1,2.7-1.7,4.5-4.1,5.7c-0.6,0.3-1.3,0.5-2,0.7c-0.4,0.1-0.6,0.3-0.5,0.7
		c0,0.7,0,1.4,0,2c0,0.9-0.6,1.5-1.4,1.5c-0.7,0-1.3-0.5-1.4-1.4c-0.1-0.5-0.1-1.1,0-1.6c0.1-0.8-0.2-1.1-1-1.3
		c-2-0.5-3.6-1.5-4.7-3.2c-0.6-0.9-0.9-1.9-0.9-3c0-0.9,0.5-1.5,1.3-1.5c0.7,0,1.4,0.5,1.4,1.3c0.2,1.9,1.4,3,3.1,3.6
		c0.5,0.2,0.7,0,0.7-0.5C31.3,39.9,31.3,38.8,31.3,37.7z M34.2,37.9c0,1,0,2.1,0,3.1c0,0.5,0.2,0.7,0.7,0.5c0.8-0.3,1.6-0.7,2.2-1.4
		c1.2-1.3,1.2-3.1,0-4.4c-0.6-0.6-1.3-1-2.1-1.3c-0.6-0.2-0.8-0.1-0.8,0.5C34.2,36,34.2,37,34.2,37.9z M31.3,27.3c0-0.6,0-1.3,0-1.9
		c0-0.6,0.3-1.4-0.2-1.6c-0.6-0.3-1.2,0.3-1.8,0.6c-2,1.2-2.4,3.4-1,5c0.6,0.7,1.4,1.2,2.3,1.5c0.5,0.2,0.7,0,0.7-0.5
		C31.3,29.3,31.3,28.3,31.3,27.3z"/>
</g>
</svg>
