<?xml version="1.0" encoding="utf-8"?>
<!-- Generator: Adobe Illustrator 26.0.1, SVG Export Plug-In . SVG Version: 6.00 Build 0)  -->
<svg version="1.1" id="Layer_1" xmlns="http://www.w3.org/2000/svg" xmlns:xlink="http://www.w3.org/1999/xlink" x="0px" y="0px"
	 width="26px" height="26px" viewBox="0 0 26 26" style="enable-background:new 0 0 26 26;" xml:space="preserve">
<style type="text/css">
	.st0{fill:#FBC02D;}
	.st1{fill:#E53935;}
	.st2{fill:#4CAF50;}
	.st3{fill:#1565C0;}
</style>
<g>
	<path class="st0" d="M24.86,10.63h-0.97v-0.05H13v4.84h6.84c-1,2.82-3.68,4.84-6.84,4.84c-4.01,0-7.26-3.25-7.26-7.26
		S8.99,5.74,13,5.74c1.85,0,3.53,0.7,4.82,1.84l3.42-3.42C19.08,2.14,16.19,0.9,13,0.9C6.32,0.9,0.9,6.32,0.9,13S6.32,25.1,13,25.1
		S25.1,19.68,25.1,13C25.1,12.19,25.01,11.4,24.86,10.63z"/>
	<path class="st1" d="M2.3,7.37l3.97,2.91C7.35,7.62,9.95,5.74,13,5.74c1.85,0,3.53,0.7,4.82,1.84l3.42-3.42
		C19.08,2.14,16.19,0.9,13,0.9C8.35,0.9,4.32,3.53,2.3,7.37z"/>
	<path class="st2" d="M13,25.1c3.12,0,5.96-1.2,8.11-3.14l-3.74-3.17c-1.21,0.92-2.72,1.47-4.37,1.47c-3.15,0-5.82-2.01-6.82-4.81
		l-3.94,3.04C4.23,22.41,8.3,25.1,13,25.1z"/>
	<path class="st3" d="M24.86,10.63l-0.01-0.05h-0.96H13v4.84h6.84c-0.48,1.35-1.35,2.52-2.47,3.37c0,0,0,0,0,0l3.74,3.17
		C20.85,22.2,25.1,19.05,25.1,13C25.1,12.19,25.01,11.4,24.86,10.63z"/>
</g>
</svg>
