<?xml version="1.0" encoding="utf-8"?>
<!-- Generator: Adobe Illustrator 26.3.1, SVG Export Plug-In . SVG Version: 6.00 Build 0)  -->
<svg version="1.1" id="Layer_1" xmlns="http://www.w3.org/2000/svg" xmlns:xlink="http://www.w3.org/1999/xlink" x="0px" y="0px"
	 width="50px" height="50px" viewBox="0 0 50 50" style="enable-background:new 0 0 50 50;" xml:space="preserve">
<g>
	<path d="M15.51,47.48c0-12.63,0-25.27,0-37.93c6.32,0,12.62,0,18.98,0c0,12.64,0,25.29,0,37.93c-0.97,0-1.93,0-2.9,0
		c-0.03-1.33,0.05-2.67-0.1-3.99c-0.36-3.18-3.21-5.6-6.47-5.61c-3.27-0.01-6.15,2.41-6.51,5.61c-0.15,1.32-0.07,2.66-0.1,3.99
		C17.44,47.48,16.48,47.48,15.51,47.48z M21.02,17.34c0-1.18,0-2.32,0-3.46c-0.88,0-1.73,0-2.59,0c0,1.17,0,2.31,0,3.46
		C19.3,17.34,20.15,17.34,21.02,17.34z M23.71,13.86c0,1.19,0,2.32,0,3.46c0.88,0,1.73,0,2.58,0c0-1.17,0-2.31,0-3.46
		C25.42,13.86,24.58,13.86,23.71,13.86z M28.98,13.86c0,1.18,0,2.31,0,3.46c0.88,0,1.73,0,2.59,0c0-1.17,0-2.3,0-3.46
		C30.7,13.86,29.86,13.86,28.98,13.86z M18.44,19.75c0,1.19,0,2.32,0,3.46c0.88,0,1.73,0,2.58,0c0-1.17,0-2.31,0-3.46
		C20.15,19.75,19.3,19.75,18.44,19.75z M23.71,19.75c0,1.17,0,2.32,0,3.47c0.87,0,1.72,0,2.58,0c0-1.17,0-2.31,0-3.47
		C25.42,19.75,24.57,19.75,23.71,19.75z M28.97,23.21c0.89,0,1.74,0,2.6,0c0-1.17,0-2.3,0-3.45c-0.88,0-1.73,0-2.6,0
		C28.97,20.92,28.97,22.04,28.97,23.21z M18.45,25.59c0,1.17,0,2.32,0,3.48c0.88,0,1.72,0,2.56,0c0-1.17,0-2.32,0-3.48
		C20.14,25.59,19.31,25.59,18.45,25.59z M26.31,25.61c-0.89,0-1.75,0-2.6,0c0,1.17,0,2.3,0,3.44c0.88,0,1.73,0,2.6,0
		C26.31,27.9,26.31,26.77,26.31,25.61z M28.98,25.6c0,1.19,0,2.32,0,3.46c0.88,0,1.73,0,2.58,0c0-1.17,0-2.31,0-3.46
		C30.69,25.6,29.85,25.6,28.98,25.6z M18.44,31.49c0,1.17,0,2.31,0,3.47c0.88,0,1.72,0,2.57,0c0-1.17,0-2.32,0-3.47
		C20.14,31.49,19.3,31.49,18.44,31.49z M26.29,34.96c0-1.18,0-2.32,0-3.46c-0.88,0-1.73,0-2.58,0c0,1.17,0,2.3,0,3.46
		C24.58,34.96,25.42,34.96,26.29,34.96z M31.57,34.96c0-1.18,0-2.32,0-3.46c-0.88,0-1.73,0-2.59,0c0,1.17,0,2.3,0,3.46
		C29.85,34.96,30.69,34.96,31.57,34.96z"/>
	<path d="M2.51,20.59c3.44,0,6.87,0,10.37,0c0,8.98,0,17.94,0,26.89c-3.45,0-6.9,0-10.37,0C2.51,38.52,2.51,29.55,2.51,20.59z
		 M6.4,24.65c0,1.18,0,2.33,0,3.47c0.87,0,1.72,0,2.58,0c0-1.17,0-2.31,0-3.47C8.12,24.65,7.27,24.65,6.4,24.65z M6.39,34.01
		c0.89,0,1.73,0,2.6,0c0-1.17,0-2.31,0-3.47c-0.88,0-1.73,0-2.6,0C6.39,31.71,6.39,32.84,6.39,34.01z M6.4,36.37
		c0,1.18,0,2.32,0,3.46c0.88,0,1.73,0,2.59,0c0-1.17,0-2.3,0-3.46C8.12,36.37,7.27,36.37,6.4,36.37z"/>
	<path d="M37.13,47.48c0-8.94,0-17.88,0-26.86c3.45,0,6.88,0,10.37,0c0,8.95,0,17.9,0,26.86C44.04,47.48,40.58,47.48,37.13,47.48z
		 M41.03,24.65c0,1.19,0,2.33,0,3.47c0.88,0,1.72,0,2.58,0c0-1.17,0-2.31,0-3.47C42.73,24.65,41.89,24.65,41.03,24.65z M43.6,34.01
		c0-1.18,0-2.32,0-3.46c-0.88,0-1.74,0-2.58,0c0,1.17,0,2.3,0,3.46C41.88,34.01,42.72,34.01,43.6,34.01z M41.02,36.37
		c0,1.19,0,2.32,0,3.46c0.88,0,1.73,0,2.58,0c0-1.17,0-2.3,0-3.46C42.73,36.37,41.89,36.37,41.02,36.37z"/>
	<path d="M2.51,12.68c3.44,0,6.87,0,10.34,0c0,1.75,0,3.49,0,5.27c-3.45,0-6.89,0-10.34,0C2.51,16.2,2.51,14.44,2.51,12.68z"/>
	<path d="M21.05,47.48c0-1.05-0.01-2.11,0.01-3.16c0.03-1.59,1.17-3.13,2.63-3.54c0,2.25,0,4.47,0,6.7
		C22.8,47.48,21.92,47.48,21.05,47.48z"/>
	<path d="M26.32,47.48c0-2.22,0-4.44,0-6.73c0.19,0.08,0.33,0.12,0.47,0.19c1.37,0.75,2.11,1.9,2.16,3.47
		c0.03,1.02,0.01,2.05,0.01,3.07C28.08,47.48,27.2,47.48,26.32,47.48z"/>
	<path d="M32.71,2.52c0,1.46,0,2.89,0,4.34c-5.14,0-10.26,0-15.41,0c0-1.43,0-2.87,0-4.34C22.42,2.52,27.55,2.52,32.71,2.52z"/>
	<path d="M37.14,17.92c0-1.75,0-3.46,0-5.2c3.44,0,6.87,0,10.33,0c0,1.73,0,3.46,0,5.2C44.02,17.92,40.58,17.92,37.14,17.92z"/>
</g>
</svg>
