<?xml version="1.0" encoding="utf-8"?>
<!-- Generator: Adobe Illustrator 26.0.2, SVG Export Plug-In . SVG Version: 6.00 Build 0)  -->
<svg version="1.1" id="Layer_1" xmlns="http://www.w3.org/2000/svg" xmlns:xlink="http://www.w3.org/1999/xlink" x="0px" y="0px"
	 width="100px" height="100px" viewBox="0 0 100 100" style="enable-background:new 0 0 100 100;" xml:space="preserve">
<style type="text/css">
	.st0{fill:#020180;}
</style>
<g>
	<path class="st0" d="M5.9,50.9c0-7.6,0-15.2,0-22.8c0-5.6,4.1-9.7,9.7-9.7c0.5,0,1,0,1.4,0c0.9,0,1.7,0,2.4-0.9
		c0.8-1,2.2-0.9,3.4-1c1.6,0,3.2,0,4.8,0.1c0.8,0,1.4,0.4,1.9,1c0.5,0.7,1.2,0.8,1.9,0.7c1.1,0,2.3,0,3.4,0c0.7,0,0.9-0.3,0.9-0.9
		c0-1.7,0-3.4,0-5.1c0-3.5,2.9-6.3,6.3-6.3c5.2,0,10.5,0,15.7,0c3.4,0,6.2,2.9,6.3,6.2c0,1.6,0.1,3.3,0,4.9c0,0.9,0.3,1.2,1.2,1.1
		c0.9-0.1,1.8,0,2.6,0c1,0,1.9,0,2.6-0.9c0.8-1,2.2-0.9,3.4-0.9c1.6-0.1,3.1,0,4.7,0.1c0.8,0.1,1.6,0.5,2.1,1.1
		c0.4,0.5,0.9,0.6,1.5,0.6c1.4,0,2.9-0.1,4.3,0.2c4.4,1,7.5,4.7,7.5,9.2c0,6.2,0,12.4,0,18.7c0,7.2,0.2,14.3,0.2,21.5
		c0,4.3-0.3,8.5-2,12.5c-2.8,6.7-7.8,11-14.6,13.3c-0.9,0.3-1.8,0.2-2.7,0c-5.1-1.6-9.1-4.8-12.1-9.1c-0.5-0.8-1.1-1.1-2-1.1
		c-9.6,0-19.1,0-28.7,0c-0.8,0-1.3,0.1-1.6,0.9c-0.3,0.6-0.9,0.9-1.6,0.9c-2.9,0-5.7,0-8.6,0c-0.8,0-1.5-0.3-1.8-1.1
		c-0.3-0.7-0.7-0.7-1.3-0.7c-1.7,0-3.4,0.1-5.1-0.6c-3.7-1.5-6.1-4.8-6.1-8.8C5.9,66.4,5.9,58.6,5.9,50.9z M30.7,50.9
		c0,9.2,0,18.4,0,27.7c0,0.7-0.1,1.3,1,1.3c9.2,0,18.4,0,27.6,0c0.7,0,1-0.1,0.7-0.9c-0.2-0.6-0.4-1.2-0.5-1.8
		c-0.9-3.4-0.7-6.8-0.8-10.3c0-3.4,0.1-6.7,0.1-10.1c0-1.6,0.3-2.1,1.9-2.5c2.5-0.7,5-1.5,7.5-2.1c0.9-0.2,1.2-0.6,1.2-1.6
		c0-9.1,0-18.2,0-27.2c0-1.4,0-1.4-1.5-1.4c-11.9,0-23.7,0-35.6,0c-1.4,0-1.5,0-1.5,1.4C30.7,32.6,30.7,41.7,30.7,50.9z M90.3,65.6
		c0-2.4,0-4.5,0-6.6c0-1-0.2-1.4-1.2-1.7c-4-1.1-7.9-2.2-11.8-3.3c-0.7-0.2-1.3-0.2-1.9,0c-4,1.2-7.9,2.3-11.9,3.4
		c-0.8,0.2-1.1,0.6-1.1,1.4c0,3.5,0,7,0,10.5c0.1,3.4,0.4,6.6,1.7,9.8c2.3,5.2,6,8.6,11.1,10.7c0.7,0.3,1.4,0.3,2.1,0
		c6.4-2.6,10.6-7.2,12.3-13.9C90.5,72.5,90.2,68.9,90.3,65.6z M18.2,51c0-8.8,0-17.6,0-26.5c0-2.8,0-2.8-2.8-2.6
		c-3.2,0.3-5.2,2.1-5.7,5.3c-0.3,1.7-0.1,3.5-0.1,5.3c0,13.5,0,27.1,0,40.6c0,2.1,0.5,3.9,2.2,5.3c1.4,1.2,3.1,1.4,4.8,1.4
		c1.6,0,1.6,0,1.6-1.6C18.2,69.2,18.2,60.1,18.2,51z M27,51c0-2.9,0-5.7,0-8.6c0-7,0-14,0-21c0-0.9-0.2-1.3-1.2-1.3
		c-0.8,0.1-1.6,0-2.4,0c-1.5,0-1.5,0-1.5,1.5c0,19.4,0,38.9,0,58.3c0,0.2,0,0.4,0,0.5c-0.1,0.7,0.2,1,0.9,1c0.9,0,1.8,0,2.7,0
		c1.4,0,1.4,0,1.4-1.5C27,70.4,27,60.7,27,51z M81.6,36.6c0,4.5,0,9.1,0,13.6c0,0.6,0,1.1,0.8,1.3c2.3,0.6,4.7,1.3,7,2
		c0.7,0.2,0.9,0,0.9-0.7c0-8.3,0-16.5,0-24.8c0-2.8-1.6-4.9-4-5.7C85.1,22,84,22,82.8,22c-1-0.1-1.2,0.3-1.2,1.3
		C81.6,27.7,81.6,32.2,81.6,36.6z M49.8,18.3c3.2,0,6.4,0,9.6,0c0.7,0,1.1-0.2,1-1c0-1.5,0-2.9,0-4.4c-0.1-2.1-1.2-3.2-3.2-3.2
		c-4.8,0-9.7,0-14.5,0c-2.1,0-3.2,1.2-3.2,3.2c0,1.4,0,2.9,0,4.3c0,0.9,0.3,1.1,1.2,1.1C43.7,18.3,46.7,18.3,49.8,18.3z M72.8,35.6
		c0,4.5,0,8.9,0,13.4c0,1.9,0,1.9,1.8,1.4c0.7-0.2,1.4-0.5,2.1-0.3c1.1,0.3,1.2-0.1,1.2-1.1c0-6.8,0-13.5,0-20.3c0-2.5,0-4.9,0-7.4
		c0-0.8-0.3-1.1-1.1-1.1c-0.9,0.1-1.8,0.1-2.6,0c-1.1-0.1-1.5,0.2-1.4,1.4C72.9,26.3,72.8,30.9,72.8,35.6z"/>
	<path class="st0" d="M85.1,67.7c0,0.5-0.3,1-0.7,1.4c-2.8,2.8-5.5,5.5-8.3,8.3c-1.3,1.2-2,1.2-3.3,0c-1.3-1.3-2.5-2.5-3.8-3.8
		c-0.9-0.9-1-2-0.3-2.8c0.8-0.8,1.9-0.8,2.9,0.2c0.7,0.7,1.4,1.3,2,2c0.6,0.7,1,0.7,1.6,0c2.1-2.2,4.3-4.4,6.5-6.5
		c0.6-0.6,1.4-0.9,2.2-0.5C84.8,66.2,85.1,66.8,85.1,67.7z"/>
</g>
</svg>
