<?xml version="1.0" encoding="utf-8"?>
<!-- Generator: Adobe Illustrator 26.2.1, SVG Export Plug-In . SVG Version: 6.00 Build 0)  -->
<svg version="1.1" id="Layer_1" xmlns="http://www.w3.org/2000/svg" xmlns:xlink="http://www.w3.org/1999/xlink" x="0px" y="0px"
	 width="25.2px" height="25.2px" viewBox="0 0 25.2 25.2" style="enable-background:new 0 0 25.2 25.2;" xml:space="preserve">
<style type="text/css">
	.st0{fill:#CECECE;}
</style>
<g>
	<path class="st0" d="M3.29,12.09c0.09-0.2,0.25-0.27,0.47-0.27c1.22,0.01,2.45,0,3.67,0.01c0.14,0,0.2-0.04,0.25-0.17
		C7.82,11.3,8,10.94,8.16,10.59c0.02-0.05,0.05-0.09,0.08-0.17c-0.29,0-0.55,0-0.82,0c-0.4,0-0.8,0-1.2,0
		c-0.29,0-0.47-0.14-0.46-0.37c0-0.23,0.18-0.36,0.47-0.36c0.78,0,1.56,0,2.35,0c0.12,0,0.2-0.04,0.27-0.13
		c1.04-1.27,2.35-2.11,3.95-2.5c0.05-0.01,0.09-0.03,0.15-0.05c0-0.28,0.01-0.55-0.01-0.82c0-0.05-0.09-0.12-0.14-0.14
		c-0.88-0.36-1.07-1.51-0.33-2.11c0.24-0.2,0.52-0.28,0.83-0.28c0.84,0,1.69,0,2.53,0c0.65,0,1.15,0.41,1.26,1.03
		c0.11,0.6-0.22,1.15-0.84,1.38c-0.02,0.01-0.04,0.02-0.07,0.03c0,0.3,0,0.6,0,0.89c0.42,0.15,0.85,0.26,1.25,0.44
		c2.52,1.13,3.99,3.08,4.42,5.81c0.02,0.15,0.04,0.3,0.07,0.45c0,0.34,0,0.68,0,1.02c-0.06,0.36-0.11,0.73-0.18,1.09
		c-0.18,0.84-0.51,1.62-0.96,2.34c-0.14,0.21-0.34,0.28-0.52,0.16c-0.19-0.11-0.23-0.33-0.09-0.55c0.55-0.87,0.89-1.8,0.98-2.82
		c0.2-2.11-0.42-3.95-1.93-5.44c-3.26-3.21-8.67-2.25-10.63,1.88c-1.84,3.9,0.44,8.47,4.7,9.31c1.69,0.34,3.29,0.05,4.77-0.85
		c0.3-0.18,0.5-0.17,0.63,0.04c0.12,0.2,0.04,0.4-0.24,0.57c-3.84,2.39-8.96,0.74-10.67-3.45C7.72,16.85,7.65,16.8,7.5,16.8
		c-0.75,0.01-1.49,0-2.24,0c-0.08,0-0.16,0-0.24-0.01c-0.17-0.03-0.29-0.18-0.28-0.35c0-0.16,0.11-0.31,0.27-0.34
		c0.08-0.02,0.16-0.02,0.23-0.02c0.66,0,1.32,0,1.98,0c0.07,0,0.13,0,0.21,0c-0.08-0.47-0.15-0.92-0.22-1.4c-0.05,0-0.11,0-0.18,0
		c-0.45,0-0.91,0-1.36,0c-0.25,0-0.42-0.14-0.42-0.35c-0.01-0.22,0.16-0.37,0.42-0.37c0.51,0,1.02,0,1.53,0
		c0.06-0.46,0.12-0.92,0.18-1.39c-0.06,0-0.14,0-0.21,0c-1.12,0-2.24,0-3.37,0c-0.22,0-0.4-0.05-0.52-0.25
		C3.29,12.24,3.29,12.17,3.29,12.09z M14.57,5.4c0.41,0,0.81,0,1.22,0c0.08,0,0.17,0,0.25-0.03c0.23-0.07,0.37-0.31,0.34-0.54
		c-0.04-0.27-0.24-0.45-0.55-0.45c-0.84,0-1.68,0-2.52,0c-0.33,0-0.56,0.22-0.56,0.52c0,0.3,0.22,0.5,0.57,0.5
		C13.73,5.41,14.15,5.4,14.57,5.4z M15.43,6.14c-0.59,0-1.16,0-1.74,0c0,0.25,0,0.49,0,0.73c0.58,0,1.15,0,1.74,0
		C15.43,6.64,15.43,6.4,15.43,6.14z"/>
	<path class="st0" d="M3.29,16.31c0.03-0.03,0.05-0.06,0.08-0.09c0.14-0.17,0.39-0.19,0.54-0.04c0.15,0.15,0.14,0.39-0.02,0.53
		c-0.16,0.14-0.41,0.11-0.54-0.07c-0.02-0.03-0.04-0.07-0.06-0.11C3.29,16.46,3.29,16.39,3.29,16.31z"/>
	<path class="st0" d="M14.56,8.55c3.12,0,5.64,2.53,5.64,5.65c0,3.11-2.54,5.65-5.65,5.64c-3.11-0.01-5.63-2.54-5.63-5.64
		C8.92,11.08,11.45,8.55,14.56,8.55z M14.56,9.28c-2.72,0.01-4.91,2.21-4.91,4.92c0,2.71,2.22,4.92,4.92,4.91
		c2.71-0.01,4.91-2.22,4.9-4.93C19.47,11.47,17.27,9.27,14.56,9.28z"/>
	<path class="st0" d="M19.15,19.12c0-0.2,0.16-0.35,0.36-0.35c0.2,0,0.36,0.16,0.36,0.36c0,0.2-0.17,0.37-0.38,0.36
		C19.29,19.49,19.14,19.33,19.15,19.12z"/>
	<path class="st0" d="M13.43,14.14c0.02-0.08,0.03-0.2,0.07-0.31c0.05-0.11,0.02-0.17-0.06-0.25c-0.22-0.21-0.44-0.43-0.66-0.65
		c-0.18-0.18-0.19-0.39-0.04-0.55c0.15-0.15,0.37-0.14,0.55,0.03c0.23,0.22,0.45,0.46,0.69,0.68c0.04,0.04,0.14,0.06,0.2,0.05
		c0.26-0.08,0.52-0.09,0.77,0c0.11,0.04,0.16,0.01,0.23-0.06c0.54-0.55,1.09-1.09,1.63-1.63c0.07-0.07,0.18-0.14,0.27-0.16
		c0.16-0.04,0.29,0.04,0.36,0.18c0.08,0.15,0.06,0.3-0.06,0.42c-0.18,0.19-0.38,0.38-0.56,0.57c-0.37,0.37-0.73,0.74-1.11,1.1
		c-0.09,0.09-0.11,0.16-0.07,0.29c0.14,0.46,0.03,0.87-0.33,1.19c-0.36,0.31-0.77,0.38-1.2,0.18
		C13.66,15.02,13.45,14.66,13.43,14.14z M14.56,13.8c-0.23,0-0.4,0.18-0.39,0.41c0.01,0.21,0.18,0.39,0.4,0.39
		c0.22,0,0.4-0.18,0.4-0.4C14.97,13.97,14.79,13.79,14.56,13.8z"/>
	<path class="st0" d="M14.93,10.48c0,0.06,0,0.12,0,0.18c-0.01,0.19-0.15,0.33-0.33,0.34c-0.19,0.01-0.36-0.12-0.38-0.31
		c-0.02-0.14-0.02-0.29,0-0.43c0.02-0.2,0.19-0.32,0.38-0.31c0.19,0.01,0.33,0.15,0.34,0.35C14.93,10.36,14.93,10.42,14.93,10.48z"
		/>
	<path class="st0" d="M18.29,13.84c0.05,0,0.11,0,0.16,0c0.21,0.01,0.36,0.16,0.36,0.35c0,0.18-0.14,0.35-0.33,0.37
		c-0.13,0.01-0.25,0.01-0.38,0c-0.22-0.02-0.36-0.17-0.35-0.38c0.01-0.2,0.15-0.33,0.37-0.34C18.18,13.83,18.24,13.84,18.29,13.84z"
		/>
	<path class="st0" d="M14.2,17.91c0-0.05,0-0.11,0-0.16c0.01-0.21,0.16-0.36,0.35-0.36c0.19-0.01,0.35,0.14,0.37,0.35
		c0.01,0.12,0.01,0.24,0,0.36c-0.01,0.21-0.17,0.36-0.36,0.36c-0.2,0-0.35-0.16-0.36-0.37C14.2,18.02,14.2,17.97,14.2,17.91z"/>
	<path class="st0" d="M10.86,13.82c0.07,0,0.13,0,0.2,0.01c0.18,0.02,0.3,0.15,0.31,0.33c0.01,0.18-0.09,0.35-0.27,0.37
		c-0.15,0.02-0.31,0.02-0.47,0.01c-0.19-0.02-0.32-0.18-0.32-0.36c0-0.19,0.15-0.33,0.35-0.35C10.72,13.83,10.79,13.83,10.86,13.82
		C10.86,13.83,10.86,13.83,10.86,13.82z"/>
</g>
</svg>
