<?xml version="1.0" encoding="utf-8"?>
<!-- Generator: Adobe Illustrator 26.0.1, SVG Export Plug-In . SVG Version: 6.00 Build 0)  -->
<svg version="1.1" id="Layer_1" xmlns="http://www.w3.org/2000/svg" xmlns:xlink="http://www.w3.org/1999/xlink" x="0px" y="0px"
	 width="18.19px" height="20.23px" viewBox="0 0 18.19 20.23" style="enable-background:new 0 0 18.19 20.23;" xml:space="preserve"
	>
<style type="text/css">
	.st0{fill:#505050;}
</style>
<g>
	<path class="st0" d="M15.14,2.71C13.6,1.17,11.5,0.3,9.32,0.3S5.05,1.17,3.51,2.71C1.96,4.26,1.1,6.35,1.1,8.53
		c0,3.21,2.04,6.08,3.93,8.07c0.96,1.01,1.91,1.83,2.63,2.4c0.36,0.29,0.66,0.51,0.87,0.66c0.11,0.08,0.19,0.14,0.25,0.18
		c0.03,0.02,0.05,0.04,0.07,0.05c0.01,0.01,0.01,0.01,0.02,0.01c0,0,0,0,0.01,0c0,0,0,0,0,0c0,0,0,0,0,0c0,0,0,0,0.31-0.46
		l-0.31,0.46c0.28,0.18,0.64,0.18,0.91,0l-0.31-0.46c0.31,0.46,0.31,0.46,0.31,0.46c0,0,0,0,0,0c0,0,0,0,0,0c0,0,0,0,0.01,0
		c0,0,0.01-0.01,0.02-0.01c0.02-0.01,0.04-0.03,0.07-0.05c0.06-0.04,0.14-0.1,0.25-0.18c0.21-0.15,0.51-0.38,0.87-0.66
		c0.72-0.57,1.67-1.39,2.63-2.4c1.88-1.99,3.93-4.86,3.93-8.07C17.55,6.35,16.68,4.26,15.14,2.71z M12.43,15.47
		c-0.89,0.94-1.79,1.71-2.46,2.25c-0.26,0.21-0.47,0.36-0.64,0.49c-0.18-0.13-0.39-0.29-0.64-0.49c-0.67-0.54-1.57-1.31-2.46-2.25
		c-1.82-1.92-3.48-4.39-3.48-6.94c0-1.75,0.69-3.42,1.93-4.65C5.9,2.64,7.58,1.95,9.32,1.95s3.42,0.69,4.65,1.93
		c1.23,1.23,1.93,2.91,1.93,4.65C15.9,11.08,14.25,13.55,12.43,15.47z"/>
	<path class="st0" d="M9.32,5.24c-1.82,0-3.29,1.47-3.29,3.29c0,1.82,1.47,3.29,3.29,3.29s3.29-1.47,3.29-3.29
		C12.61,6.71,11.14,5.24,9.32,5.24z M9.32,10.18c-0.91,0-1.65-0.74-1.65-1.65c0-0.91,0.74-1.65,1.65-1.65s1.65,0.74,1.65,1.65
		C10.97,9.44,10.23,10.18,9.32,10.18z"/>
</g>
</svg>
