<?xml version="1.0" encoding="utf-8"?>
<!-- Generator: Adobe Illustrator 26.0.1, SVG Export Plug-In . SVG Version: 6.00 Build 0)  -->
<svg version="1.1" id="Layer_1" xmlns="http://www.w3.org/2000/svg" xmlns:xlink="http://www.w3.org/1999/xlink" x="0px" y="0px"
	 width="191.8px" height="46.3px" viewBox="0 0 191.8 46.3" style="enable-background:new 0 0 191.8 46.3;" xml:space="preserve">
<style type="text/css">
	.st0{fill:#0278AE;}
</style>
<g>
	<path class="st0" d="M26,34.8c-3.5,0.9-7.1,1.5-10.9,1.8c1.7,1.6,3.5,2.9,5.5,3.8c9.2,4.1,20,0.2,24.7-8.7c0.1-0.2,0.2-0.3,0.2-0.5
		c0.3-0.8,0.8-1.1,1.6-0.7s0.7,1,0.3,1.7c-2.3,4.8-5.9,8.3-10.8,10.3c-8.4,3.6-17.7,1.5-24-5.2c-0.4-0.4-0.8-0.6-1.4-0.6
		c-2.7-0.1-5.3-0.4-7.8-1.6C0,33.3-1,30.4,0.6,26.8c1.3-2.9,3.7-5,6.1-7c0.4-0.3,0.7-0.7,0.8-1.2C9.6,10.2,14.7,4.7,23,2.5
		C29.5,0.8,35.4,2,40.8,5.7c0.7,0.5,1.4,0.7,2.2,0.7c2.6-0.1,5.1,0,7.7,0.6c2.3,0.6,4.5,1.6,5.7,3.9c0.4,0.7,0.5,1.3-0.3,1.8
		c-0.8,0.4-1.3-0.1-1.6-0.7c-1.1-2-3.1-2.6-5.2-3c-1.6-0.3-3.2-0.5-4.9-0.4c0,0.5,0.3,0.7,0.6,1c1,1.3,1.9,2.6,2.6,4.1
		c0.4,0.7,0.2,1.3-0.4,1.7c-0.7,0.4-1.2-0.1-1.5-0.6c-1.3-2.4-2.9-4.5-4.9-6.2c-6.1-5-14.2-5.9-21.1-2.2
		C9.4,11.5,6.2,24.5,12.8,33.9c0.3,0.4,0.6,0.8,1.2,0.7c3.7-0.2,7.3-0.9,10.8-1.8c0.1,0,0.2-0.1,0.4-0.3c-0.9-0.4-1.6-0.8-2.4-1.1
		c-0.7-0.3-1-0.8-0.7-1.5s0.9-0.8,1.5-0.5c1.7,0.8,3.4,1.6,5.1,2.4c0.7,0.3,0.9,0.8,0.6,1.5c-0.8,1.7-1.6,3.3-2.4,5
		c-0.3,0.7-0.9,1-1.6,0.7s-0.6-0.9-0.4-1.6c0.4-0.8,0.7-1.6,1.1-2.4c0-0.1,0.1-0.1,0.1-0.2C26.2,34.8,26.1,34.8,26,34.8z M10.6,34.6
		c-2.4-3.7-3.5-7.7-3.4-12.2c-2.1,2-4,3.8-4.8,6.4c-0.5,1.8,0,3.3,1.5,4.2C5.9,34.1,8.1,34.5,10.6,34.6z"/>
	<path class="st0" d="M71.3,23.3c0-5.2,0-10.5,0-15.7c0-1.4,0.1-1.4,1.4-1.5c0.8,0,1.5,0,2.3,0c0.9-0.1,1.2,0.3,1.2,1.2
		c0,1.1,0,2.3,0,3.4c0,8.1,0,16.1,0,24.2c0,0.9,0.3,1.1,1.1,1.1c4.8,0,9.5,0,14.3,0c1.2,0,1.3,0.1,1.4,1.3c0,0.7,0,1.4,0,2.1
		c0.1,1-0.4,1.3-1.4,1.3c-3.7,0-7.3,0-11,0c-2.6,0-5.2,0-7.8,0c-1.4,0-1.5-0.1-1.5-1.5C71.3,33.9,71.3,28.6,71.3,23.3z"/>
	<path class="st0" d="M130.4,32c0,2.5,0,4.9,0,7.4c0,1-0.4,1.4-1.3,1.3c-0.3,0-0.5,0-0.8,0c-2.3,0-2.6-0.3-2.6-2.6c0-4.5,0-9,0-13.5
		c0-0.8-0.2-1-1-1c-2.7,0-2.7,0-2.7-2.8c0-1.2,0.4-1.5,1.5-1.5c2.1,0,2.1,0,2.1-2.2c0-1.5-0.1-3,0.1-4.5c0.7-4,3.4-6.3,7.8-6.7
		c2.1-0.2,4,0.2,5.9,1.1c0.8,0.4,1.1,0.8,0.6,1.7c-0.3,0.6-0.6,1.2-0.8,1.8c-0.3,0.8-0.8,1-1.6,0.6c-1.4-0.7-2.9-1-4.5-0.5
		c-1.9,0.5-2.9,1.8-2.9,3.7c0,1.4,0,2.8,0,4.2c0,0.6,0.1,0.8,0.7,0.8c1.3,0,2.6,0,3.9,0c0.7,0,1.1,0.2,1,1c0,0.8,0,1.6,0,2.4
		s-0.3,1-1,1c-1.3,0-2.6,0-3.9,0c-0.6,0-0.8,0.2-0.7,0.8C130.4,26.9,130.4,29.4,130.4,32z"/>
	<path class="st0" d="M174.2,21.4c1.1-0.7,2.1-1.4,3.3-1.8c3.5-1.2,6.7-0.8,9.6,1.5c2,1.6,2.8,3.9,2.8,6.4c0,3.1,0,6.2,0,9.4
		c0,0.9,0.1,1.8,0.2,2.8c0.1,0.7-0.1,1.1-0.9,1c-0.8,0-1.5,0-2.3,0c-1.2-0.1-1.8-0.6-1.8-1.9c0-3.4-0.1-6.7,0-10.1
		c0.2-5-3.4-6.1-6.9-5.2c-1.5,0.4-2.7,1.2-3.9,2.2c-0.4,0.3-0.4,0.7-0.4,1.1c0,4.2,0,8.4,0,12.5c0,1-0.4,1.4-1.3,1.3
		c-0.7,0-1.4-0.1-2.2,0c-0.9,0.1-1.3-0.3-1.3-1.2c0-3.8,0-7.6,0-11.4c0-2.5,0-4.9,0-7.4c0-1,0.3-1.4,1.3-1.3c0.3,0,0.5,0,0.8,0
		C173.3,19.3,173.7,19.6,174.2,21.4z"/>
	<path class="st0" d="M113.3,38.4c-2.1,1.6-4.5,2.5-7.1,2.4c-4.3,0-8.6-3.1-8.5-8.4c0-4.1,0.2-8.2-0.2-12.3c-0.1-0.7,0.2-1,0.9-0.9
		c0.7,0,1.4,0,2.1,0c1.4,0,2,0.6,2,2c0,1.7,0,3.5,0,5.2c0,1.9,0,3.8,0,5.7c0,2.9,2.1,4.7,5,4.5c2.3-0.2,4.1-1.3,5.7-2.9
		c0.4-0.3,0.3-0.7,0.3-1.1c0-4,0-8,0-11.9c0-1.4,0.1-1.4,1.5-1.4c0.8,0,1.5,0,2.3,0c0.7,0,0.9,0.3,0.9,0.9c0,0.9,0,1.8,0,2.7
		c0,5.5,0,11,0,16.5c0,1.3,0,1.3-1.3,1.3c-0.2,0-0.4,0-0.6,0C114.1,40.7,113.9,40.6,113.3,38.4z"/>
	<path class="st0" d="M36.9,15.6c2.5,0.1,5.1,1.5,7.5,3.2c0.8,0.6,1.5,0.7,2.4,0.2c1.9-1,3.8-1.8,5.8-2.7c1.9-0.8,3.8-0.6,5.6,0.4
		c1.6,0.8,1.7,2.7,0.4,3.8c-0.8,0.7-1.7,1.1-2.7,1.5c-6.8,3.1-13.6,6.2-20.3,9.3c-0.7,0.3-1.2,0.3-1.8,0c-2.5-1.2-5.1-2.4-7.6-3.5
		c-0.6-0.3-1.2-0.6-1.1-1.4c0.2-0.8,0.8-0.9,1.5-0.9c2.5-0.1,4.9-0.1,7.4-0.2c1.4-0.1,2.4-1.1,3.5-1.8c0.4-0.2-0.1-0.5-0.3-0.7
		c-1.3-1.4-2.6-2.8-3.9-4.2c-1-1.1-0.8-1.7,0.4-2.4C34.4,15.8,35.3,15.6,36.9,15.6z M30.8,27.6c1.1,0.5,1.9,0.8,2.8,1.3
		c0.7,0.4,1.3,0.3,2,0c5.2-2.4,10.5-4.8,15.8-7.2c1.7-0.8,3.5-1.6,5.2-2.4c0.2-0.1,0.5-0.2,0.5-0.5s-0.3-0.3-0.5-0.4
		c-1.2-0.3-2.3-0.5-3.5,0.1c-2.3,1.1-4.6,2-6.8,3.1c-0.9,0.4-1.5,0.3-2.2-0.3c-1.7-1.4-3.6-2.5-5.7-3.2c-0.9-0.3-1.9-0.5-2.9-0.2
		c1.5,1.6,2.9,3.1,4.4,4.7c0.7,0.8,0.7,1.4-0.2,2c-2.5,1.7-5,3.4-8.3,2.9C31.2,27.5,31.1,27.6,30.8,27.6z"/>
	<path class="st0" d="M148.1,29.1c0,1.4,0,2.8,0,4.2c0.1,2.6,1.1,3.4,3.7,3c1.6-0.3,1.6-0.3,1.9,1.4c0.5,2.3,0.4,2.5-2,3
		c-1.4,0.3-2.9,0.3-4.3-0.1c-2-0.5-3.1-1.8-3.6-3.7c-0.3-1.2-0.4-2.4-0.4-3.6c0-2.8,0-5.7,0-8.5c0-0.8-0.3-1.1-1-1
		c-0.2,0-0.5,0-0.7,0c-0.6,0-1.3,0.2-1.5-0.6c-0.2-0.7-0.1-1.4,0.6-2c1.4-1.2,2.8-2.5,3.8-4c0.8-1.2,1.5-2.5,2-3.9
		c0.2-0.5,0.4-0.9,1-0.8c0.7,0.1,0.5,0.7,0.5,1.1c0,1.6,0,3.2,0,4.8c0,0.6,0.2,0.8,0.8,0.8c1.1,0,2.3,0,3.4,0c0.8,0,1.1,0.4,1.1,1.1
		c0,0.8,0,1.6,0,2.4c0,0.7-0.4,1.1-1.1,1.1c-1.2,0-2.3,0.1-3.5,0c-0.6,0-0.8,0.1-0.8,0.7C148.2,26,148.1,27.5,148.1,29.1L148.1,29.1
		z"/>
	<path class="st0" d="M163.6,30c0,3.2,0,6.3,0,9.5c0,0.9-0.3,1.2-1.2,1.2c-3.4,0-3.6-0.1-3.6-3.5c0-5.5,0-11,0-16.4
		c0-1.5,0-1.5,1.5-1.5c0.7,0,1.4,0,2.1,0c0.8,0,1.2,0.3,1.2,1.2C163.6,23.6,163.6,26.8,163.6,30z"/>
	<path class="st0" d="M161.2,6.2c1.4,0,2.6,1.3,2.5,2.7c0,1.4-1.3,2.5-2.6,2.5c-1.4,0-2.6-1.2-2.5-2.7
		C158.7,7.3,159.9,6.1,161.2,6.2z"/>
	<path class="st0" d="M26,34.8c0.1,0,0.2,0,0.2,0c0,0.1-0.1,0.1-0.1,0.2C26.1,34.9,26.1,34.9,26,34.8z"/>
</g>
</svg>
