<?xml version="1.0" encoding="utf-8"?>
<!-- Generator: Adobe Illustrator 26.5.0, SVG Export Plug-In . SVG Version: 6.00 Build 0)  -->
<svg version="1.1" id="Layer_1" xmlns="http://www.w3.org/2000/svg" xmlns:xlink="http://www.w3.org/1999/xlink" x="0px" y="0px"
	 width="50px" height="50px" viewBox="0 0 50 50" style="enable-background:new 0 0 50 50;" xml:space="preserve">
<style type="text/css">
	.st0{fill:#FFFFFF;}
</style>
<path class="st0" d="M14.9,45.8c-0.8-0.4-1.1-0.9-1-1.5c0.2-0.7,0.7-1,1.6-1c2.4,0,4.8,0,7.2,0c0.1,0,0.3,0,0.5,0c0-0.2,0-0.3,0-0.5
	c0-2.5,0-5,0-7.5c0-0.3-0.1-0.6-0.3-0.8c-4.2-6.1-8.5-12.3-12.7-18.4c-0.3-0.4-0.5-0.9-0.2-1.4c0.2-0.5,0.7-0.8,1.3-0.8
	c2.6,0,5.2,0,7.7,0c3.2,0,6.4,0,9.6,0c0.3,0,0.5-0.1,0.6-0.4c1.6-3.2,3.2-6.3,4.7-9.5c0.3-0.5,0.6-0.8,1.2-0.8
	c0.9,0,1.4,0.9,1.1,1.7c-0.2,0.5-0.5,0.9-0.7,1.4c-1.2,2.4-2.4,4.8-3.6,7.2c-0.1,0.1-0.1,0.2-0.2,0.4c0.2,0,0.3,0,0.5,0
	c1.8,0,3.5,0,5.3,0c0.6,0,1,0.2,1.3,0.7s0.1,1-0.2,1.5c-4.2,6.1-8.5,12.2-12.7,18.4c-0.2,0.3-0.3,0.5-0.3,0.9c0,2.5,0,5,0,7.4
	c0,0.2,0,0.3,0,0.5c0.2,0,0.3,0,0.5,0c2.5,0,5,0,7.5,0c0.5,0,0.9,0.2,1.2,0.6c0.2,0.4,0.2,0.9,0,1.2s-0.5,0.4-0.8,0.6
	C27.6,45.8,21.3,45.8,14.9,45.8z M18.3,23.5c2,3,4.1,5.9,6.1,8.9c2.1-3,4.1-5.9,6.1-8.9c-0.4-0.2-0.7-0.5-1-0.6
	c-0.6-0.3-1.2-0.4-1.8-0.2c-0.2,0.1-0.4,0.3-0.5,0.4c-0.6,1.1-1.1,2.2-1.6,3.2c-0.4,0.7-1.1,1-1.7,0.7s-0.9-1.1-0.5-1.8
	c0.2-0.5,0.5-1,0.7-1.5c-1-0.1-1.8-0.4-2.6-0.9c-0.3-0.2-0.7-0.2-1-0.3C19.7,22.4,19,23,18.3,23.5z M16.9,21.4
	c0.2-0.1,0.3-0.2,0.4-0.2c1.9-1.4,3.9-1.5,6-0.2c0.6,0.3,1.2,0.4,1.8,0.2c0.2-0.1,0.4-0.2,0.5-0.4c0.7-1.3,1.3-2.6,1.9-3.9
	c0.1-0.1,0.1-0.2,0.1-0.3c-4.7,0-9.4,0-14.2,0C14.7,18.2,15.8,19.8,16.9,21.4z M32,21.4c1.1-1.6,2.3-3.3,3.4-5c-1.3,0-2.4,0.1-3.6,0
	c-1-0.1-1.6,0.2-1.9,1.2c-0.3,0.8-0.8,1.6-1.2,2.4C30,20.1,31,20.7,32,21.4z"/>
</svg>
