<?xml version="1.0" encoding="utf-8"?>
<!-- Generator: Adobe Illustrator 26.0.1, SVG Export Plug-In . SVG Version: 6.00 Build 0)  -->
<svg version="1.1" id="Layer_1" xmlns="http://www.w3.org/2000/svg" xmlns:xlink="http://www.w3.org/1999/xlink" x="0px" y="0px"
	 width="63.3px" height="62.84px" viewBox="0 0 63.3 62.84" style="enable-background:new 0 0 63.3 62.84;" xml:space="preserve">
<style type="text/css">
	.st0{fill:#287EAD;}
	.st1{fill:#FFFFFF;}
</style>
<g>
	<circle class="st0" cx="31.65" cy="31.42" r="30"/>
	<path class="st1" d="M17.79,39.82c-0.39,1.38,0.55,2.77,1.98,2.92l0.16-1.49c-0.51-0.06-0.84-0.55-0.7-1.02L17.79,39.82z
		 M18.35,37.68l-0.57,2.14l1.45,0.38l0.57-2.14L18.35,37.68z M20.13,35.98c-0.43,0.09-0.82,0.33-1.11,0.61
		c-0.3,0.28-0.56,0.66-0.67,1.09l1.45,0.38c0.03-0.1,0.11-0.25,0.25-0.39c0.14-0.14,0.29-0.21,0.39-0.23L20.13,35.98z M25.11,34.93
		l-4.98,1.06l0.31,1.47l4.98-1.06L25.11,34.93z M25.64,34.56c-0.03,0.05-0.11,0.14-0.24,0.23c-0.13,0.09-0.24,0.13-0.28,0.14
		l0.31,1.47c0.3-0.06,0.6-0.21,0.83-0.38c0.23-0.16,0.48-0.38,0.64-0.64L25.64,34.56z M28.11,30.78l-2.47,3.78l1.26,0.82l2.47-3.78
		L28.11,30.78z M28.09,30.72c0.07,0.01,0.1,0.03,0.1,0.03c0,0,0,0-0.01-0.01c-0.01-0.01-0.01-0.02-0.02-0.03s-0.01-0.02-0.01-0.03
		c0-0.01,0-0.01,0-0.01c0,0.01-0.01,0.04-0.05,0.1l1.26,0.82c0.28-0.44,0.4-0.98,0.17-1.49c-0.22-0.51-0.7-0.8-1.22-0.88
		L28.09,30.72z M19.73,29.28l8.34,1.44l0.25-1.48l-8.34-1.44L19.73,29.28z M18.17,25.7c-0.46,0.71-0.61,1.53-0.29,2.26
		c0.32,0.73,1.02,1.18,1.85,1.32l0.26-1.48c-0.47-0.08-0.67-0.29-0.73-0.45c-0.07-0.15-0.09-0.44,0.17-0.84L18.17,25.7z
		 M19.29,23.99l-1.12,1.71l1.26,0.82l1.12-1.71L19.29,23.99z M23.01,22.39c-0.7-0.14-1.45,0-2.09,0.27
		c-0.64,0.28-1.24,0.73-1.63,1.32l1.26,0.82c0.19-0.3,0.54-0.58,0.97-0.77c0.43-0.19,0.87-0.24,1.2-0.18L23.01,22.39z M32.48,24.02
		l-9.48-1.63l-0.25,1.48l9.48,1.63L32.48,24.02z M32.52,24c0.01-0.01,0.01-0.02,0.01-0.02c0,0,0,0,0,0
		c-0.01,0.01-0.02,0.01-0.04,0.02c-0.02,0.01-0.03,0.01-0.04,0.01c0,0,0,0,0,0c0,0,0.01,0,0.03,0l-0.25,1.48
		c0.31,0.05,0.62-0.02,0.87-0.12c0.24-0.11,0.5-0.29,0.68-0.56L32.52,24z M35.11,20.02L32.52,24l1.26,0.82l2.6-3.98L35.11,20.02z
		 M40,17.71c-0.91-0.1-1.89,0.13-2.74,0.53c-0.85,0.4-1.65,1.02-2.15,1.78l1.26,0.82c0.31-0.48,0.87-0.93,1.53-1.25
		c0.67-0.31,1.37-0.46,1.94-0.4L40,17.71z M41.83,18.9c-0.39-0.66-1.06-1.1-1.82-1.19l-0.17,1.49c0.29,0.03,0.55,0.2,0.7,0.46
		L41.83,18.9z M41.69,24.3c0.5-0.77,0.74-1.74,0.76-2.68c0.02-0.94-0.17-1.92-0.62-2.72l-1.3,0.74c0.29,0.5,0.44,1.2,0.43,1.93
		c-0.02,0.73-0.21,1.42-0.52,1.9L41.69,24.3z M39.1,28.27l2.6-3.98l-1.26-0.82l-2.6,3.98L39.1,28.27z M39.1,28.32
		c0.01,0.01,0.01,0.02,0.01,0.02c0,0,0,0,0,0c0-0.01,0-0.02,0-0.04c0-0.02,0-0.04,0-0.04c0,0,0,0,0,0c0,0,0,0.01-0.01,0.02
		l-1.26-0.82c-0.18,0.27-0.24,0.58-0.24,0.85c0,0.26,0.06,0.57,0.24,0.84L39.1,28.32z M44.42,36.35l-5.33-8.03l-1.25,0.83l5.33,8.03
		L44.42,36.35z M44.44,40.4c0.39-0.59,0.56-1.33,0.56-2.03c0-0.7-0.18-1.44-0.58-2.03l-1.24,0.84c0.2,0.29,0.32,0.72,0.32,1.19
		c0,0.47-0.12,0.91-0.31,1.2L44.44,40.4z M43.32,42.11l1.12-1.71l-1.26-0.82l-1.12,1.71L43.32,42.11z M39.42,42.12
		c0.47,0.7,1.16,1.16,1.95,1.16c0.79,0,1.48-0.46,1.95-1.18l-1.26-0.82c-0.26,0.4-0.53,0.5-0.7,0.5c-0.17,0-0.44-0.09-0.7-0.49
		L39.42,42.12z M34.74,35.06l4.68,7.06l1.25-0.83l-4.68-7.06L34.74,35.06z M34.67,35.06c0.04-0.06,0.07-0.08,0.07-0.09
		c0,0,0,0-0.01,0c-0.01,0-0.02,0-0.03,0c-0.01,0-0.02,0-0.03,0c-0.01,0-0.01,0,0,0c0.01,0.01,0.04,0.03,0.09,0.09l1.24-0.85
		c-0.29-0.42-0.74-0.74-1.29-0.74c-0.56,0-1,0.33-1.29,0.76L34.67,35.06z M32.2,38.84l2.47-3.78l-1.26-0.82l-2.47,3.78L32.2,38.84z
		 M32.08,39.46c-0.01-0.05-0.02-0.16,0.01-0.31c0.03-0.15,0.08-0.26,0.11-0.31l-1.26-0.82c-0.17,0.26-0.27,0.57-0.33,0.85
		c-0.05,0.28-0.07,0.62,0.01,0.93L32.08,39.46z M33.13,44.47l-1.04-4.99l-1.47,0.31l1.04,4.99L33.13,44.47z M32.28,46.79
		c0.35-0.27,0.59-0.67,0.73-1.05c0.14-0.38,0.21-0.84,0.12-1.27l-1.47,0.31c0.02,0.09,0.01,0.26-0.06,0.45
		c-0.07,0.19-0.17,0.32-0.24,0.38L32.28,46.79z M30.55,48.16l1.73-1.38l-0.94-1.17l-1.73,1.38L30.55,48.16z M27.08,47.51
		c0.71,1.22,2.35,1.53,3.47,0.66l-0.92-1.18c-0.41,0.32-1,0.2-1.25-0.23L27.08,47.51z M25.62,42.73l1.39,4.62l1.44-0.43l-1.39-4.62
		L25.62,42.73z M24.73,42.15c0.36-0.05,0.78,0.23,0.88,0.57l1.44-0.42c-0.31-1.06-1.42-1.78-2.51-1.64L24.73,42.15z M19.94,42.74
		l4.79-0.58l-0.18-1.49l-4.79,0.58L19.94,42.74z M18.51,40.02l0.72,0.21l0-0.01L18.51,40.02z M19.08,37.88l0.73,0.19l0,0
		L19.08,37.88z M20.29,36.72l0.15,0.73l0,0L20.29,36.72z M25.27,35.66l-0.15-0.73l0,0L25.27,35.66z M28.21,29.98l-0.13,0.74l0.01,0
		L28.21,29.98z M19.86,28.54l-0.13,0.74l0,0L19.86,28.54z M22.86,23.12l-0.15,0.74c0.01,0,0.01,0,0.02,0L22.86,23.12z M32.35,24.76
		l-0.13,0.74l0,0L32.35,24.76z M39.92,18.45l0.09-0.75l-0.01,0L39.92,18.45z M41.18,19.27l0.65-0.37l0-0.01L41.18,19.27z
		 M38.47,28.73l-0.63,0.41l0,0L38.47,28.73z M43.8,36.77l-0.63,0.41l0,0.01L43.8,36.77z M40.04,41.71l-0.63,0.41l0,0L40.04,41.71z
		 M35.36,34.65l0.63-0.41l-0.01-0.01L35.36,34.65z M31.36,39.63l0.73-0.15c0-0.01,0-0.02-0.01-0.02L31.36,39.63z M32.39,44.62
		l-0.73,0.15l0,0L32.39,44.62z M31.82,46.19l-0.46-0.59l-0.01,0.01L31.82,46.19z M30.08,47.58l0.46,0.59l0.01-0.01L30.08,47.58z
		 M27.73,47.13l-0.72,0.22c0.02,0.06,0.04,0.11,0.07,0.16L27.73,47.13z M26.33,42.52l-0.72,0.21l0,0.01L26.33,42.52z M24.64,41.41
		l0.09,0.74l0.01,0L24.64,41.41z M19.85,41.99l-0.08,0.75c0.06,0.01,0.11,0.01,0.17,0L19.85,41.99z"/>
</g>
</svg>
