<?xml version="1.0" encoding="utf-8"?>
<!-- Generator: Adobe Illustrator 26.0.1, SVG Export Plug-In . SVG Version: 6.00 Build 0)  -->
<svg version="1.1" id="Layer_1" xmlns="http://www.w3.org/2000/svg" xmlns:xlink="http://www.w3.org/1999/xlink" x="0px" y="0px"
	 width="500px" height="500px" viewBox="0 0 500 500" style="enable-background:new 0 0 500 500;" xml:space="preserve">
<style type="text/css">
	.st0{display:none;}
	.st1{display:inline;fill:#EBEBEB;}
	.st2{fill:#E1E1E1;}
	.st3{fill:#F5F5F5;}
	.st4{fill:#FFFFFF;}
	.st5{fill:#ECECEC;}
	.st6{fill:#FAFAFA;}
	.st7{fill:#1A2E35;}
	.st8{opacity:0.3;}
	.st9{fill:#0A6C93;}
	.st10{fill:#0D78AE;}
	.st11{fill:#375A64;}
	.st12{fill:#FFC19D;}
	.st13{fill:#FF9C6A;}
	.st14{opacity:0.2;}
</style>
<g id="Background_Complete">
</g>
<g id="Background_Simple" class="st0">
	<path class="st1" d="M446.1,221.1c-15.2-29.1-47.1-49.6-79.9-48.3c-18.9,0.7-38.5,8-56,0.8c-21.7-9-28.9-35.3-41.1-55.4
		c-23.1-38.3-71.9-57.9-115.9-49.6c-43.9,8.3-81.2,42.3-97,84.1c-15.8,41.8-11.1,90.1,9.2,130s55.1,71.5,95.1,91.4
		c6.2,3.1,12.6,6,19.1,8.5c47.8,19.1,100.3,23,150.6,12.6l23.4-4.9c33.8-7,63.9-26.6,83.2-55.3c4-5.9,7.5-12.2,10.4-18.8
		C460.7,286.4,461.4,250.2,446.1,221.1z"/>
</g>
<g id="Floor">
</g>
<g id="Character_2">
</g>
<g>
	<g>
		<path class="st2" d="M371.2,16L342,30.7c-2.2,0.9-3.6,3.1-3.6,5.5v13.7c0,12.2,3.4,24.3,10.4,35c5.3,8,12.3,18.3,23.9,24.2h5.2
			c12.9-3.9,22.6-14.5,28.5-23.5c7-10.7,10.4-22.8,10.4-35V36.1c0-2.4-1.4-4.5-3.6-5.5l-33.3-14.2C378.4,15.8,372.7,15.4,371.2,16z"
			/>
		<path class="st3" d="M370,16.5l-33.3,14.2c-2.2,0.9-3.6,3.1-3.6,5.5v13.7c0,12.2,3.4,24.3,10.4,35c5.9,9,15.1,18.3,29.1,24.2
			c12.9-3.9,22.6-14.5,28.5-23.5c7-10.7,10.4-22.8,10.4-35V36.1c0-2.4-1.4-4.5-3.6-5.5l-33.3-14.2C373.2,15.8,371.5,15.8,370,16.5z"
			/>
		<g>
			<path class="st2" d="M411.5,46.8c0,0,0,0.2,0.1,0.6c0,0.5,0,1.1,0.1,1.8c0,0.8,0.1,1.8,0,2.9c-0.1,1.1,0,2.4-0.2,3.8
				c-0.1,1.4-0.2,2.9-0.5,4.6c-0.1,0.8-0.2,1.7-0.4,2.5c-0.2,0.9-0.4,1.8-0.6,2.7c-0.9,3.6-2.1,7.6-3.8,11.5
				c-1.8,3.9-3.9,7.5-6,10.6c-1.1,1.5-2.1,3-3.2,4.2c-0.5,0.6-1,1.3-1.6,1.8c-0.5,0.6-1,1.1-1.5,1.6c-0.9,1-1.9,1.9-2.7,2.7
				c-0.8,0.8-1.5,1.4-2.2,1.9c-0.6,0.5-1,0.8-1.4,1.1c-0.3,0.3-0.5,0.4-0.5,0.4c0,0,0.1-0.2,0.4-0.4c0.3-0.3,0.8-0.7,1.3-1.2
				c0.6-0.5,1.3-1.1,2.1-1.9c0.8-0.8,1.7-1.6,2.7-2.7c0.5-0.5,1-1.1,1.5-1.6c0.5-0.6,1-1.2,1.5-1.8c1.1-1.2,2.1-2.7,3.2-4.2
				c2.1-3.1,4.1-6.6,5.9-10.5c1.7-3.9,3-7.8,3.9-11.4c0.2-0.9,0.4-1.8,0.6-2.6c0.2-0.9,0.3-1.7,0.4-2.5c0.3-1.6,0.4-3.2,0.6-4.5
				c0.2-1.4,0.2-2.7,0.2-3.8c0.1-1.1,0.1-2.1,0.1-2.9c0-0.7,0-1.3,0-1.8C411.5,47,411.5,46.8,411.5,46.8z"/>
		</g>
	</g>
	<g>
		<polygon class="st4" points="369.9,76.5 350.8,61.3 356.1,54.7 368.9,64.9 387.6,43.9 394,49.6 		"/>
	</g>
</g>
<g>
	<g>
		<g>
			<g>
				<g>
					<path class="st5" d="M460.2,90.9h-3.6V71.2c0-4.6-3.8-8.4-8.4-8.4c-4.6,0-8.4,3.8-8.4,8.4v19.7h-3.6V71.2c0-6.6,5.4-12,12-12
						c6.6,0,12,5.4,12,12V90.9z"/>
				</g>
			</g>
			<g>
				<g>
					<path class="st5" d="M461.3,102.9H435c-1.7,0-3.1-1.4-3.1-3.1V80.6c0-1.7,1.4-3.1,3.1-3.1h26.2c1.7,0,3.1,1.4,3.1,3.1v19.2
						C464.3,101.5,463,102.9,461.3,102.9z"/>
				</g>
			</g>
			<g>
				<path class="st6" d="M450.6,90.8c0.6-0.6,1-1.5,1-2.5c0-2-1.6-3.6-3.6-3.6c-2,0-3.6,1.6-3.6,3.6c0,1.6,1.1,3,2.6,3.4l-0.8,3.4
					h3.4l-0.7-3.4C449.7,91.6,450.2,91.3,450.6,90.8"/>
			</g>
		</g>
	</g>
</g>
<g>
	<g>
		<g>
			<path class="st2" d="M49,378.2c-3.9-2.4-8.3-4-12.8-4.4c-2.1-0.2-4.4-0.2-6.1,1.1c-0.4,0.3-0.7,0.7-0.6,1.1
				c0.1,0.3,0.3,0.6,0.6,0.8C35.3,380.8,43.2,381.3,49,378.2"/>
		</g>
		<g>
			<path class="st2" d="M48.7,377.9c-2.9-2.3-5.8-4.5-8.3-7.3c-2.5-2.7-4.5-6-5.2-9.6c-0.2-1.1-0.3-2.3,0.4-3.2
				C42.2,362.9,47.4,369.6,48.7,377.9"/>
		</g>
		<g>
			<path class="st2" d="M49,378.2c-0.5-3.6-0.7-7.3,0.2-10.9c0.8-3.6,2.8-7,5.8-9c1.1,2.7,0.7,5.7-0.2,8.5
				c-1.2,4.3-3.2,8.4-5.7,12.1"/>
		</g>
		<g>
			<path class="st2" d="M55.5,389.8c-3.9,0.5-7.4,2.6-10.3,5.2c-2.9,2.7-5,6.2-5.9,10.1c3.9-0.2,7.1-3,9.5-6
				C51.1,396,52.8,392.7,55.5,389.8"/>
		</g>
		<g>
			<path class="st2" d="M56.9,391.6c-3.2-7.8-2-17.2,2.9-24C62,375.6,61.2,384.6,56.9,391.6"/>
		</g>
		<g>
			<path class="st2" d="M65.4,401.8c-3.6-0.2-7.2,0.6-10.3,2.4c-3.1,1.8-5.7,4.5-7.3,7.7c-0.2,0.4-0.4,1-0.1,1.4
				c0.3,0.3,0.7,0.4,1.2,0.3c3.5-0.2,6.5-2.3,9.1-4.7C60.5,406.6,62.7,403.9,65.4,401.8"/>
		</g>
		<g>
			<path class="st2" d="M65.1,401.3c-1.8-5.9-2-12.3-0.3-18.3c0.6-2.4,1.7-4.8,3.9-5.9c0.2-0.1,0.4-0.2,0.6-0.1
				c0.2,0.1,0.3,0.3,0.4,0.4c0.8,1.6,1,3.4,0.9,5.2c-0.1,1.8-0.5,3.6-0.8,5.3c-0.7,3.2-1,6.7-2.8,9.5c-0.4,0.7-0.8,1.4-1.1,2.1
				c-0.3,0.7-0.3,1-0.6,1.5"/>
		</g>
		<g>
			<path class="st2" d="M87.8,404.7c-1.7-6.4,0.1-14.1,4.1-19.4c0.3-0.4,0.7-0.8,1.2-0.8c0.7,0.1,0.9,1.1,0.9,1.8
				C93.7,392.9,91.5,399.3,87.8,404.7"/>
		</g>
		<g>
			<path class="st2" d="M89.8,406.1c7.8,2,16.7,0.1,23.1-4.7c-3.8-1.9-8.3-2.5-12.5-1.5C96.3,400.8,92.4,402.6,89.8,406.1"/>
		</g>
		<g>
			<path class="st2" d="M91.6,401.8c4.3-7.1,12.7-11.7,21-12.1c-1,3.4-3.7,6-6.9,7.6c-3.1,1.6-6.6,2.3-10.1,2.9
				C94.3,400.5,92.4,400.7,91.6,401.8"/>
		</g>
		<g>
			<path class="st2" d="M88.2,381.2c1.2-4,2.4-8.1,2.7-12.3c0.3-4.2-0.3-8.6-2.4-12.1c-4.1,7.9-4.5,17-0.4,24.8"/>
		</g>
		<g>
			<path class="st2" d="M101.9,374.3c4.7-8.6,14.4-15.5,24.2-16.5C122.3,367.2,112,374.5,101.9,374.3"/>
		</g>
		<g>
			<path class="st2" d="M98.9,376c7.1,1.1,13.1,5.6,19.7,8.3c1.4,0.6,2.9,1.1,4.5,0.9c1.5-0.2,3-1.2,3.4-2.7
				c0.3-1.2-0.3-2.6-1.2-3.5c-0.9-0.9-2.1-1.5-3.2-2c-7.2-3-14.9-3.1-22.5-1.3"/>
		</g>
		<g>
			<path class="st2" d="M94.8,380.9c1.6,0.5,2.1,1.3,3.4,2.4c4.3,3.7,9.5,6.3,15,7.7c0.6,0.1,1.3,0.2,1.6-0.3c0.2-0.5-0.1-1-0.4-1.4
				c-2.3-2.9-5.6-4.8-9-6.1c-3.5-1.3-6.4-2.8-10.6-2.5"/>
		</g>
		<g>
			<path class="st2" d="M90.2,351c5.8,5.4,13.9,8.1,21.7,7.4c0.4,0,0.7-0.1,1-0.4c0.5-0.6-0.1-1.5-0.7-2
				C105.7,351,98,348.9,90.2,351"/>
		</g>
		<g>
			<path class="st2" d="M95.7,348.9c7.6-5.7,18-7.4,27.1-4.5c-3.4,3.4-8.1,5.2-12.9,5.7C105.1,350.6,100.3,350.1,95.7,348.9"/>
		</g>
		<g>
			<path class="st2" d="M93.5,335.2c-0.6-6.4-0.2-11.4-0.7-17.8c0-0.5-0.1-1.1-0.6-1.3c-0.7-0.3-1.2,0.6-1.4,1.2
				c-1.9,5.9-0.9,12.7,2.7,17.7"/>
		</g>
		<g>
			<path class="st2" d="M93,335.9c4.3-2.7,7.6-6.2,10.5-10.2c2.1-2.9,3.8-6.3,3.4-9.8c-2.9-0.1-5.7,1.6-7.6,3.8
				c-1.9,2.2-3,5-3.9,7.8C94.6,330.2,94,333.1,93,335.9"/>
		</g>
		<g>
			<path class="st2" d="M103.4,333c9.5-3.5,18.3-8.7,26-15.3c-3.1-1.2-6.6-0.5-9.7,0.7c-7.1,2.9-12.9,7.7-16.3,14.5"/>
		</g>
		<g>
			<path class="st2" d="M95.9,339.4c4.8,0.5,9.7,0.9,14.4,0.1c4.7-0.8,9.1-2.6,13.5-4.5c0.4-0.2,0.8-0.3,0.9-0.7
				c0.2-0.4,0-0.9-0.3-1.2c-0.3-0.3-0.7-0.4-1.1-0.5c-4.7-1.3-9.9-0.7-14.5,0.9C104,335,100.2,336.9,95.9,339.4"/>
		</g>
		<g>
			<path class="st2" d="M68.6,351.2c-3.3-6.6-3.1-14.3-0.2-21.1c2,3,2.2,6.9,1.9,10.5c-0.4,3.6-1.5,7.3-1.5,10.9"/>
		</g>
		<g>
			<path class="st2" d="M55.5,344.6c-8.2-0.2-16.3,3.3-21.9,9.3c4.1,0.6,8.3-0.4,12-2.2c3.7-1.8,7-4.3,10.3-6.9"/>
		</g>
		<g>
			<path class="st2" d="M46.7,341.6c-4-0.3-7.8-0.8-11.7,0.4c-3.8,1.2-7.3,3.8-8.9,7.5c3.7,0.4,7.5-0.5,10.9-2.1
				C40.5,345.9,43.7,343.8,46.7,341.6"/>
		</g>
		<g>
			<path class="st2" d="M59.7,341.8c-3.6-2.4-7.3-4.7-11.5-5.7c-4.2-1-9-0.3-11.9,2.9c3.4,2,7.5,2.2,11.4,2.2c3.9,0,8.7,0,12.4,1.3"
				/>
		</g>
		<g>
			<path class="st2" d="M59.8,342c-6.1-6-8.5-16.9-6-25.1C58.6,324.2,60.8,333.2,59.8,342"/>
		</g>
		<g>
			<path class="st2" d="M76.7,324.9c1.2-2.7,2-5.5,3-8.3c1-2.7,2.3-5.4,4.3-7.6c2-2.2,4.7-3.8,7.6-3.9c-1.8,8.3-7.3,15.7-14.8,19.9"
				/>
		</g>
		<g>
			<path class="st2" d="M73.6,328.4c-1.9-2.6-4.1-6.2-6.7-8.2c-2.6-2-6-3.2-9.2-2.4C60.9,323.6,67,327.7,73.6,328.4"/>
		</g>
		<g>
			<path class="st2" d="M74.2,325.1c-1.3-3.2-2.5-6.4-3-9.8c-0.5-3.4-0.2-7,1.5-10c3.4,6.4,4.5,13.2,1.7,19.9"/>
		</g>
		<g>
			<path class="st2" d="M76.7,305.3c1.9-6.3,7.7-11,13.9-13.1c0.8-0.3,1.6-0.5,2.4-0.4c0.8,0.1,1.6,0.7,1.8,1.5
				c0.2,1.1-0.7,2-1.5,2.8C88.5,300.3,82.8,303.4,76.7,305.3"/>
		</g>
		<g>
			<path class="st2" d="M76.8,300.2c0.2-4.1,0.5-8.2,1.8-12.1c1.3-3.9,3.9-7.5,7.6-9.2c0.6,4.1-1.2,8.2-3.4,11.7
				c-2.2,3.5-4.8,6.9-6.1,10.8"/>
		</g>
		<g>
			<path class="st2" d="M76.7,303c-1.6-4.6-1.7-10.4-4.5-14.5c-1.9-2.8-5-4.7-6.7-7.7c-1.1,2.8-0.8,6,0.4,8.7
				c1.2,2.8,3.1,5.1,5.1,7.3C73,299,74.8,300.7,76.7,303"/>
		</g>
		<g>
			<g>
				<path class="st2" d="M76.7,438.5c-0.1,0-0.2-30.7-0.2-68.6c0-37.9,0.1-68.6,0.2-68.6c0.1,0,0.2,30.7,0.2,68.6
					C76.9,407.8,76.8,438.5,76.7,438.5z"/>
			</g>
		</g>
		<g>
			<g>
				<path class="st2" d="M103.5,346.5c0,0-0.4,0.2-1.2,0.4c-0.8,0.3-1.9,0.6-3.2,1.1c-2.7,0.9-6.4,2.2-10.4,3.9
					c-4,1.7-7.7,3.1-9.8,4.9c-1.1,0.9-1.7,1.9-2,2.6c-0.3,0.7-0.4,1.2-0.4,1.2c0,0,0-0.1,0-0.3c0-0.2,0.1-0.5,0.2-0.9
					c0.3-0.8,0.9-1.8,1.9-2.8c1.1-1,2.6-1.8,4.3-2.6c1.7-0.8,3.6-1.6,5.6-2.4c4-1.6,7.7-2.9,10.4-3.8c1.4-0.4,2.5-0.7,3.2-0.9
					C103.1,346.6,103.5,346.5,103.5,346.5z"/>
			</g>
		</g>
		<g>
			<g>
				<path class="st2" d="M112.3,324.9c0,0-0.1,0.1-0.3,0.3c-0.3,0.2-0.6,0.6-1,0.9c-0.9,0.8-2.2,2-3.7,3.3
					c-3.2,2.8-7.5,6.7-12.2,10.9c-4.8,4.3-8.9,8.3-11.8,11.4c-1.4,1.5-2.6,2.8-3.3,3.7c-0.4,0.4-0.7,0.7-0.9,1
					c-0.2,0.2-0.3,0.3-0.3,0.3c0,0,0.1-0.1,0.3-0.4c0.2-0.2,0.5-0.6,0.8-1.1c0.7-0.9,1.8-2.2,3.2-3.8c2.8-3.1,6.9-7.2,11.7-11.5
					c4.8-4.2,9.2-8.1,12.3-10.8c1.6-1.3,2.8-2.4,3.8-3.2c0.4-0.3,0.8-0.6,1-0.9C112.2,325,112.3,324.9,112.3,324.9z"/>
			</g>
		</g>
		<g>
			<g>
				<path class="st2" d="M89.9,344.8c-0.1-0.1,0.9-2.4,1.9-5.3c1-2.9,1.5-5.4,1.6-5.4c0.1,0-0.2,2.5-1.2,5.5
					c-0.5,1.5-1.1,2.8-1.5,3.7C90.3,344.2,90,344.8,89.9,344.8z"/>
			</g>
		</g>
		<g>
			<g>
				<path class="st2" d="M76.7,363.4c0,0-0.3-0.3-0.7-0.9c-0.5-0.6-1.1-1.5-1.9-2.4c-1.6-2-3.8-4.9-6.2-8c-2.5-3.1-4.7-5.9-6.3-7.9
					c-0.8-1-1.4-1.8-1.9-2.4c-0.5-0.6-0.7-0.9-0.7-0.9c0,0,0.3,0.3,0.8,0.8c0.5,0.5,1.2,1.3,2,2.3c1.7,2,4,4.7,6.5,7.8
					c2.5,3.1,4.6,6,6.1,8.1c0.8,1,1.4,1.9,1.8,2.5C76.5,363,76.7,363.3,76.7,363.4z"/>
			</g>
		</g>
		<g>
			<g>
				<path class="st2" d="M70.8,355.8c-0.1,0.1-1.6-1.8-2.5-4.6c-0.6-2-0.6-3.8-0.6-4.7l0.2,0c-0.1,0.4-0.2,0.5-0.2,0.5
					c0,0,0-0.2,0-0.6l0.2,0c0.1,0.8,0.2,2.6,0.8,4.5C69.6,353.8,70.9,355.7,70.8,355.8z"/>
			</g>
		</g>
		<g>
			<g>
				<path class="st2" d="M63.2,346.2c-0.1,0.1-0.6-0.6-1.7-1c-1.1-0.4-2.9-0.5-4.8-0.4c-1.9,0.1-3.6,0.5-4.8,0.8
					c-1.2,0.3-2,0.5-2,0.5c0-0.1,0.7-0.4,1.9-0.8c1.2-0.4,2.9-0.8,4.9-0.9c1.9-0.2,3.7,0,4.9,0.5C62.8,345.5,63.3,346.2,63.2,346.2z
					"/>
			</g>
		</g>
		<g>
			<g>
				<path class="st2" d="M61.4,343.9c0,0.1-1-0.4-2.6-1c-1.6-0.6-4-1.1-6.6-1.4c-2.6-0.2-5,0-6.7,0.3c-1.7,0.3-2.7,0.6-2.8,0.5
					c0,0,0.2-0.1,0.7-0.3c0.5-0.2,1.1-0.4,2-0.6c1.7-0.4,4.1-0.7,6.8-0.5c2.7,0.2,5,0.9,6.7,1.5c0.8,0.3,1.5,0.6,1.9,0.9
					C61.2,343.8,61.4,343.9,61.4,343.9z"/>
			</g>
		</g>
		<g>
			<g>
				<path class="st2" d="M76.7,334.1c-0.1,0-1-3-1.9-6.7c-0.9-3.7-1.6-6.8-1.5-6.8c0.1,0,1,3,1.9,6.7
					C76.1,331.1,76.8,334.1,76.7,334.1z"/>
			</g>
		</g>
		<g>
			<g>
				<path class="st2" d="M76.8,334.1c-0.1,0-0.7-2-2.1-4c-1.4-2.1-3.2-3.1-3.1-3.2c0,0,0.5,0.1,1.2,0.6c0.7,0.5,1.6,1.3,2.3,2.4
					C76.5,332,76.9,334.1,76.8,334.1z"/>
			</g>
		</g>
		<g>
			<g>
				<path class="st2" d="M76.7,422.1c0,0-0.1-0.7-0.5-2c-0.3-1.3-1-3.2-2.1-5.3c-2.1-4.3-6-9.8-10.9-15.3c-2.4-2.8-4.8-5.4-6.8-7.9
					c-2-2.5-3.7-4.9-4.9-7c-1.2-2.1-2-3.9-2.5-5.2c-0.2-0.6-0.4-1.1-0.5-1.5c-0.1-0.3-0.1-0.5-0.1-0.5c0,0,0.3,0.7,0.8,2
					c0.5,1.3,1.3,3,2.6,5.1c1.2,2.1,2.9,4.4,4.9,6.9c2,2.5,4.4,5.1,6.8,7.9c4.9,5.5,8.8,11.1,10.8,15.5c1,2.2,1.6,4.1,1.9,5.4
					c0.1,0.7,0.2,1.2,0.3,1.5C76.7,422,76.7,422.1,76.7,422.1z"/>
			</g>
		</g>
		<g>
			<g>
				<path class="st2" d="M100.9,394.8c0,0-0.4,0.3-1.3,0.7c-0.8,0.5-2,1.2-3.3,2.2c-1.3,1-2.8,2.3-4.3,3.9c-1.5,1.6-3.1,3.5-4.7,5.5
					c-3.2,4-6.2,7.6-8,10.4c-0.9,1.4-1.6,2.6-2,3.4c-0.4,0.8-0.7,1.3-0.7,1.3c0,0,0-0.1,0.1-0.4c0.1-0.2,0.2-0.6,0.4-1
					c0.4-0.9,1-2.1,1.9-3.5c1.7-2.9,4.7-6.5,7.9-10.5c1.6-2,3.2-3.9,4.7-5.5c1.6-1.6,3.1-2.9,4.4-3.9c1.4-1,2.6-1.7,3.4-2.1
					c0.4-0.2,0.8-0.3,1-0.4C100.8,394.8,100.9,394.7,100.9,394.8z"/>
			</g>
		</g>
		<g>
			<g>
				<path class="st2" d="M101.4,403.6c0,0.1-1,0.2-2.7,0.4c-1.7,0.2-4,0.5-6.4,1.3c-2.4,0.8-4.4,2-5.7,3c-1.3,1-1.9,1.9-2,1.8
					c0,0,0.1-0.2,0.4-0.6c0.3-0.4,0.8-0.9,1.4-1.4c1.3-1.1,3.3-2.4,5.8-3.2c2.5-0.8,4.8-1,6.5-1.1
					C100.4,403.6,101.4,403.6,101.4,403.6z"/>
			</g>
		</g>
		<g>
			<g>
				<path class="st2" d="M85.4,409.1c-0.1-0.1,1.1-1.9,2-4.4c0.9-2.5,1.1-4.7,1.2-4.7c0.1,0,0.1,0.6,0,1.4c-0.1,0.9-0.3,2.1-0.8,3.4
					c-0.5,1.3-1.1,2.4-1.6,3.1C85.8,408.7,85.5,409.1,85.4,409.1z"/>
			</g>
		</g>
		<g>
			<g>
				<path class="st2" d="M108.8,370.9c0,0-0.1,0.1-0.4,0.2c-0.3,0.2-0.8,0.3-1.3,0.6c-0.6,0.2-1.2,0.5-2,0.9
					c-0.8,0.4-1.6,0.8-2.6,1.3c-0.5,0.3-1,0.5-1.5,0.8c-0.5,0.3-1,0.6-1.5,1c-1.1,0.7-2.2,1.5-3.3,2.3c-2.3,1.7-4.6,3.7-6.9,6.1
					c-2.3,2.4-4.2,4.8-5.9,7.1c-0.8,1.2-1.6,2.3-2.2,3.4c-0.3,0.5-0.6,1.1-0.9,1.6c-0.3,0.5-0.5,1-0.8,1.5c-0.5,0.9-0.9,1.8-1.3,2.6
					c-0.4,0.8-0.7,1.5-0.9,2c-0.2,0.5-0.4,0.9-0.5,1.3c-0.1,0.3-0.2,0.4-0.2,0.4c0,0,0-0.2,0.1-0.5c0.1-0.3,0.3-0.8,0.5-1.3
					c0.2-0.6,0.4-1.3,0.8-2c0.3-0.8,0.7-1.7,1.2-2.7c0.2-0.5,0.5-1,0.8-1.5c0.3-0.5,0.6-1,0.9-1.6c0.6-1.1,1.4-2.2,2.2-3.4
					c1.6-2.3,3.6-4.8,5.9-7.2c2.3-2.4,4.7-4.4,7-6.1c1.2-0.8,2.3-1.6,3.4-2.3c0.5-0.3,1.1-0.7,1.6-1c0.5-0.3,1-0.6,1.5-0.8
					c0.9-0.5,1.8-0.9,2.6-1.3c0.8-0.4,1.5-0.7,2-0.9c0.5-0.2,1-0.4,1.3-0.5C108.6,370.9,108.8,370.9,108.8,370.9z"/>
			</g>
		</g>
		<g>
			<g>
				<path class="st2" d="M89.6,383.8c0,0,0.2-0.8,1.1-1.6c0.9-0.8,2.4-1.6,4.3-1.6c1.8,0,3.4,0.5,4.5,0.9c1.1,0.4,1.7,0.8,1.7,0.8
					c0,0.1-0.7-0.2-1.8-0.5c-1.1-0.3-2.6-0.8-4.4-0.7c-1.7,0.1-3.2,0.7-4.1,1.4C90,383.1,89.7,383.8,89.6,383.8z"/>
			</g>
		</g>
		<g>
			<g>
				<path class="st2" d="M86.7,386.7c-0.1-0.1,1-1.7,1.2-3.9c0.3-2.3-0.4-4.1-0.3-4.1c0,0,0.3,0.4,0.5,1.1c0.2,0.7,0.3,1.8,0.2,3
					c-0.1,1.2-0.5,2.2-0.9,2.9C87.1,386.4,86.8,386.8,86.7,386.7z"/>
			</g>
		</g>
	</g>
	<g>
		<path class="st2" d="M55.5,426.5c0.7,11.7,4.2,23.7,9.6,35.7h23.7c5.2-11.9,8.5-23.9,9.1-35.7H55.5z"/>
	</g>
	<g>
		<g>
			<path class="st6" d="M94,445.5c0,0.1-7.8,0.2-17.4,0.2c-9.6,0-17.4-0.1-17.4-0.2c0-0.1,7.8-0.2,17.4-0.2
				C86.2,445.3,94,445.4,94,445.5z"/>
		</g>
	</g>
	<g>
		<g>
			<path class="st6" d="M93.5,449.8c0,0.1-7.3,0.2-16.3,0.2c-9,0-16.3-0.1-16.3-0.2c0-0.1,7.3-0.2,16.3-0.2
				C86.2,449.6,93.5,449.7,93.5,449.8z"/>
		</g>
	</g>
	<g>
		<g>
			<path class="st6" d="M65.5,434.3c0.1,0,0.2,2.4,0.2,5.4c0,3-0.1,5.4-0.2,5.4c-0.1,0-0.2-2.4-0.2-5.4
				C65.3,436.7,65.4,434.3,65.5,434.3z"/>
		</g>
	</g>
	<g>
		<g>
			<path class="st6" d="M78.2,434.3c0.1,0,0.2,2.5,0.2,5.6c0,3.1-0.1,5.6-0.2,5.6s-0.2-2.5-0.2-5.6C77.9,436.8,78,434.3,78.2,434.3z
				"/>
		</g>
	</g>
	<g>
		<g>
			<path class="st6" d="M90.1,434.2c0.1,0,0.2,2.6,0.2,5.8c0,3.2-0.1,5.8-0.2,5.8c-0.1,0-0.2-2.6-0.2-5.8
				C89.8,436.7,89.9,434.2,90.1,434.2z"/>
		</g>
	</g>
	<g>
		<g>
			<path class="st6" d="M97.1,434.3c0,0.1-9.1,0.2-20.4,0.2c-11.3,0-20.4-0.1-20.4-0.2c0-0.1,9.1-0.2,20.4-0.2
				C87.9,434,97.1,434.1,97.1,434.3z"/>
		</g>
	</g>
</g>
<g>
	<g>
		<g>
			<g>
				<path class="st5" d="M464,324.8c4.2-1.8,7.2-6.1,7.2-11.2c0-6.7-5-12.1-11.3-12.1c-6.3,0-11.4,5.4-11.4,12c0,5.1,3,9.5,7.2,11.3
					c-17.5,2.6-16.7,21.6-16.7,21.6l41.3,0.2C480.4,346.6,481.3,327.4,464,324.8z"/>
			</g>
		</g>
	</g>
</g>
<g>
	<g>
		<g>
			<g>
				<path class="st5" d="M278.5,49.1c2.9-0.5,5.5-2.8,6.3-6.1c1-4.3-1.4-8.5-5.4-9.4c-4-0.9-8,1.7-9,6c-0.8,3.3,0.5,6.5,2.9,8.3
					c-11.5-0.9-13.8,11.3-13.8,11.3l26.3,6.2C285.7,65.4,289.1,53.3,278.5,49.1z"/>
			</g>
		</g>
	</g>
</g>
<g>
	<g>
		<g>
			<g>
				<path class="st3" d="M465.1,150.9c2.5-1.5,3.9-4.4,3.5-7.6c-0.6-4.2-4.2-7.1-8.1-6.5c-3.9,0.5-6.6,4.4-6,8.5
					c0.4,3.2,2.7,5.7,5.5,6.4c-10.6,3.2-8.4,14.9-8.4,14.9l25.7-3.6C477.3,163,476.1,151,465.1,150.9z"/>
			</g>
		</g>
	</g>
</g>
<g>
	<polygon class="st3" points="53.1,154.5 39.2,143.5 43.1,138.7 52.4,146.1 66,130.9 70.6,135 	"/>
</g>
<g>
	<path class="st7" d="M473.3,462.6c0,0.1-100.1,0.3-223.6,0.3c-123.5,0-223.7-0.1-223.7-0.3c0-0.1,100.1-0.3,223.7-0.3
		C373.1,462.4,473.3,462.5,473.3,462.6z"/>
</g>
<path class="st8" d="M72,170.5l-30.7,15.4c-2.3,1-3.8,3.2-3.8,5.7V206c0,12.8,3.6,25.5,10.9,36.7c5.5,8.4,12.9,19.2,25,25.3H79
	c13.6-4.1,23.7-15.2,29.9-24.6c7.4-11.2,10.9-23.9,10.9-36.7v-15.1c0-2.5-1.5-4.7-3.8-5.7L81.2,171C79.6,170.3,73.6,169.8,72,170.5z
	"/>
<path class="st9" d="M72,170.5l-30.7,15.4c-2.3,1-3.8,3.2-3.8,5.7V206c0,12.8,3.6,25.5,10.9,36.7c5.5,8.4,12.9,19.2,25,25.3H79
	c13.6-4.1,23.7-15.2,29.9-24.6c7.4-11.2,10.9-23.9,10.9-36.7v-15.1c0-2.5-1.5-4.7-3.8-5.7L81.2,171C79.6,170.3,73.6,169.8,72,170.5z
	"/>
<path class="st10" d="M70.8,171l-34.9,14.9c-2.3,1-3.8,3.2-3.8,5.7V206c0,12.8,3.6,25.5,10.9,36.7c6.2,9.4,15.8,19.2,30.5,25.3
	c13.6-4.1,23.7-15.2,29.9-24.6c7.4-11.2,10.9-23.9,10.9-36.7v-15.1c0-2.5-1.5-4.7-3.8-5.7L75.7,171C74.1,170.3,72.3,170.3,70.8,171z
	"/>
<g>
	
		<ellipse transform="matrix(0.9323 -0.3616 0.3616 0.9323 -72.6886 41.0017)" class="st8" cx="73.2" cy="214.7" rx="22.9" ry="22.9"/>
	<circle class="st4" cx="73.2" cy="206.5" r="9.5"/>
	<path class="st4" d="M55.9,229.7c0,0,4.4-10.6,17-10.6s17.7,10.6,17.7,10.6s-5.6,8.3-18,8C61.3,237.4,55.9,229.7,55.9,229.7z"/>
</g>
<g>
	<path class="st7" d="M96.1,214.7c0,0,0-0.1,0-0.4c0-0.3,0-0.6-0.1-1.1c0-0.2,0-0.5-0.1-0.8c0-0.3-0.1-0.6-0.2-1
		c-0.1-0.7-0.2-1.5-0.5-2.4c-0.4-1.8-1.2-3.8-2.5-6.1c-1.3-2.2-3.2-4.5-5.8-6.4c-2.6-1.9-5.8-3.6-9.6-4.2c-3.7-0.6-7.9-0.5-11.9,1
		c-1,0.3-2,0.8-3,1.3c-0.9,0.6-1.9,1.1-2.8,1.8c-0.9,0.6-1.7,1.4-2.6,2.2c-0.8,0.8-1.6,1.7-2.2,2.6c-1.3,1.9-2.5,4-3.2,6.2
		c-0.7,2.3-1.1,4.7-1.2,7.1c0,2.5,0.4,4.9,1.2,7.1c0.7,2.3,1.9,4.4,3.2,6.2c0.7,1,1.5,1.8,2.2,2.6c0.8,0.8,1.6,1.6,2.6,2.2
		c0.9,0.7,1.8,1.2,2.8,1.8c1,0.5,1.9,1,3,1.3c4,1.5,8.2,1.6,11.9,1c3.7-0.7,7-2.3,9.6-4.2c2.6-1.9,4.5-4.2,5.8-6.4
		c1.3-2.2,2.1-4.3,2.5-6.1c0.3-0.9,0.4-1.7,0.5-2.4c0.1-0.3,0.1-0.7,0.1-1c0-0.3,0-0.6,0.1-0.8c0-0.5,0.1-0.8,0.1-1.1
		C96.1,214.9,96.1,214.7,96.1,214.7c0,0,0,0.1,0,0.4c0,0.3,0,0.6,0,1.1c0,0.2,0,0.5,0,0.8c0,0.3-0.1,0.6-0.1,1
		c-0.1,0.7-0.2,1.5-0.4,2.4c-0.4,1.8-1.2,3.9-2.5,6.2c-1.3,2.2-3.2,4.6-5.8,6.6c-2.6,2-5.9,3.7-9.7,4.4c-3.8,0.7-8.1,0.6-12.2-1
		c-1-0.3-2-0.8-3-1.3c-1-0.6-2-1.1-2.8-1.8c-0.9-0.6-1.8-1.5-2.6-2.2c-0.8-0.9-1.6-1.7-2.3-2.7c-1.4-1.9-2.6-4-3.3-6.4
		c-0.8-2.3-1.2-4.8-1.2-7.3c0-2.5,0.4-5,1.2-7.3c0.7-2.3,1.9-4.5,3.3-6.4c0.7-1,1.5-1.8,2.3-2.7c0.9-0.8,1.7-1.6,2.6-2.2
		c0.9-0.7,1.9-1.2,2.8-1.8c1-0.5,2-1,3-1.3c4.1-1.5,8.4-1.6,12.2-1c3.8,0.7,7.1,2.4,9.7,4.4c2.6,2,4.5,4.3,5.8,6.6
		c1.3,2.2,2.1,4.4,2.5,6.2c0.3,0.9,0.3,1.7,0.4,2.4c0,0.3,0.1,0.7,0.1,1c0,0.3,0,0.6,0,0.8c0,0.5,0,0.8,0,1.1
		C96.1,214.6,96.1,214.7,96.1,214.7z"/>
</g>
<g>
	<path class="st7" d="M114.3,202.8c0,0,0,0.2,0.1,0.7c0,0.5,0,1.1,0.1,1.9c0,0.8,0.1,1.8,0,3c0,0.6,0,1.2-0.1,1.9
		c0,0.7,0,1.4-0.1,2.1c-0.1,1.5-0.2,3.1-0.5,4.8c-0.1,0.9-0.2,1.8-0.4,2.7c-0.2,0.9-0.4,1.8-0.6,2.8c-0.9,3.8-2.2,7.9-4,12.1
		c-1.9,4.1-4,7.8-6.3,11.1c-1.2,1.6-2.2,3.1-3.4,4.4c-0.6,0.7-1.1,1.3-1.6,1.9c-0.6,0.6-1.1,1.1-1.6,1.7c-1,1.1-2,2-2.9,2.8
		c-0.8,0.8-1.6,1.5-2.3,2c-0.6,0.5-1.1,0.9-1.5,1.2c-0.3,0.3-0.5,0.4-0.5,0.4c0,0,0.2-0.2,0.5-0.5c0.4-0.3,0.8-0.7,1.4-1.3
		c0.6-0.5,1.4-1.2,2.2-2c0.8-0.8,1.8-1.7,2.8-2.8c0.5-0.5,1-1.1,1.6-1.7c0.5-0.6,1-1.3,1.6-1.9c1.1-1.3,2.2-2.8,3.3-4.4
		c2.2-3.2,4.3-6.9,6.2-11c1.8-4.1,3.1-8.2,4-12c0.2-0.9,0.4-1.9,0.6-2.8c0.2-0.9,0.3-1.8,0.4-2.6c0.3-1.7,0.4-3.3,0.6-4.8
		c0.1-0.7,0.1-1.4,0.2-2.1c0-0.7,0.1-1.3,0.1-1.9c0.1-1.2,0.1-2.2,0.1-3c0-0.8,0-1.4,0-1.9C114.2,203,114.3,202.8,114.3,202.8z"/>
</g>
<g>
	<g>
		<g>
			<g>
				<g>
					<g>
						<g>
							<g>
								<g>
									<g>
										<g>
											<g>
												<g>
													<g>
														<g>
															<g>
																<g>
																	<g>
																		<g>
																			<g>
																				<g>
																					<path class="st7" d="M357.4,462.6l-236.5,0c-6.4,0-11.6-5.4-11.6-12l0-361.4c0-6.6,5.2-12,11.6-12l236.5,0
																						c6.4,0,11.6,5.4,11.6,12l0,361.4C369,457.3,363.8,462.6,357.4,462.6z"/>
																				</g>
																			</g>
																		</g>
																	</g>
																</g>
															</g>
														</g>
													</g>
												</g>
											</g>
										</g>
									</g>
									<g>
										<g>
											<g>
												<g>
													<g>
														<g>
															<g>
																<g>
																	<g>
																		<g>
																			<g>
																				<path class="st11" d="M243.7,445.1c0,6-4.9,10.8-11,10.8c-6.1,0-11-4.8-11-10.8c0-6,4.9-10.8,11-10.8
																					C238.8,434.3,243.7,439.1,243.7,445.1z"/>
																			</g>
																		</g>
																	</g>
																</g>
															</g>
														</g>
													</g>
												</g>
											</g>
										</g>
									</g>
								</g>
							</g>
						</g>
					</g>
				</g>
				<g>
					<g>
						<g>
							<path class="st11" d="M265.8,97.6h-53c-2,0-3.7-1.7-3.7-3.8l0,0c0-2.1,1.7-3.8,3.7-3.8h53c2,0,3.7,1.7,3.7,3.8l0,0
								C269.5,95.9,267.8,97.6,265.8,97.6z"/>
						</g>
					</g>
				</g>
			</g>
		</g>
		<g>
			<g>
				<g>
					<g>
						<g>
							<g>
								<g>
									<g>
										<g>
											<g>
												<g>
													<g>
														<rect x="117.3" y="104.7" class="st4" width="243.3" height="321.9"/>
													</g>
												</g>
											</g>
										</g>
									</g>
								</g>
							</g>
						</g>
					</g>
				</g>
			</g>
		</g>
		<rect x="350.2" y="104.7" class="st3" width="10.4" height="321.9"/>
		<path class="st2" d="M355.4,220.4L355.4,220.4c-1.8,0-3.2-1.4-3.2-3.2v-71.2c0-1.8,1.4-3.2,3.2-3.2l0,0c1.8,0,3.2,1.4,3.2,3.2
			v71.2C358.6,218.9,357.2,220.4,355.4,220.4z"/>
	</g>
	<path class="st2" d="M328.9,178H149.5c-2.8,0-5.2-2.3-5.2-5.2l0,0c0-2.8,2.3-5.2,5.2-5.2h179.4c2.8,0,5.2,2.3,5.2,5.2l0,0
		C334,175.7,331.7,178,328.9,178z"/>
	<path class="st10" d="M301.3,140.3H188.5c-2.8,0-5.2-2.3-5.2-5.2l0,0c0-2.8,2.3-5.2,5.2-5.2h112.8c2.8,0,5.2,2.3,5.2,5.2l0,0
		C306.4,138,304.1,140.3,301.3,140.3z"/>
	<path class="st2" d="M303.4,198.7H175c-2.8,0-5.2-2.3-5.2-5.2l0,0c0-2.8,2.3-5.2,5.2-5.2h128.4c2.8,0,5.2,2.3,5.2,5.2l0,0
		C308.6,196.4,306.3,198.7,303.4,198.7z"/>
	<path class="st2" d="M245.4,289.3h-98.8c-2.8,0-5.2-2.3-5.2-5.2l0,0c0-2.8,2.3-5.2,5.2-5.2h98.8c2.8,0,5.2,2.3,5.2,5.2l0,0
		C250.6,287,248.3,289.3,245.4,289.3z"/>
	<path class="st2" d="M326,267.7H146.6c-2.8,0-5.2-2.3-5.2-5.2l0,0c0-2.8,2.3-5.2,5.2-5.2H326c2.8,0,5.2,2.3,5.2,5.2l0,0
		C331.1,265.4,328.8,267.7,326,267.7z"/>
	<path class="st2" d="M326,337.3H169c-2.8,0-5.2-2.3-5.2-5.2v0c0-2.8,2.3-5.2,5.2-5.2h157c2.8,0,5.2,2.3,5.2,5.2v0
		C331.1,335,328.8,337.3,326,337.3z"/>
	<path class="st2" d="M326,359.3H146.6c-2.8,0-5.2-2.3-5.2-5.2l0,0c0-2.8,2.3-5.2,5.2-5.2H326c2.8,0,5.2,2.3,5.2,5.2l0,0
		C331.1,357,328.8,359.3,326,359.3z"/>
	<path class="st2" d="M326,381.7H146.6c-2.8,0-5.2-2.3-5.2-5.2l0,0c0-2.8,2.3-5.2,5.2-5.2H326c2.8,0,5.2,2.3,5.2,5.2l0,0
		C331.1,379.4,328.8,381.7,326,381.7z"/>
	<path class="st10" d="M154.7,332.1c0,3-2.4,5.4-5.4,5.4c-3,0-5.4-2.4-5.4-5.4c0-3,2.4-5.4,5.4-5.4
		C152.3,326.7,154.7,329.1,154.7,332.1z"/>
	<path class="st2" d="M326,247.5H169c-2.8,0-5.2-2.3-5.2-5.2l0,0c0-2.8,2.3-5.2,5.2-5.2h157c2.8,0,5.2,2.3,5.2,5.2l0,0
		C331.1,245.2,328.8,247.5,326,247.5z"/>
	<circle class="st10" cx="149.3" cy="242.4" r="5.4"/>
	<path class="st10" d="M321,414.5h-40.2c-4.5,0-8.2-3.7-8.2-8.2l0,0c0-4.5,3.7-8.2,8.2-8.2H321c4.5,0,8.2,3.7,8.2,8.2l0,0
		C329.2,410.8,325.5,414.5,321,414.5z"/>
</g>
<path class="st8" d="M113.6,26.6L71.9,47.6c-3.1,1.3-5.1,4.4-5.1,7.8v19.5c0,17.4,4.9,34.7,14.9,50c7.5,11.5,17.5,26.1,34.1,34.5
	h7.5c18.5-5.6,32.2-20.6,40.7-33.5c10-15.3,14.9-32.5,14.9-50V55.4c0-3.4-2-6.5-5.1-7.8l-47.5-20.3
	C123.9,26.4,115.7,25.7,113.6,26.6z"/>
<path class="st9" d="M113.6,26.6L71.9,47.6c-3.1,1.3-5.1,4.4-5.1,7.8v19.5c0,17.4,4.9,34.7,14.9,50c7.5,11.5,17.5,26.1,34.1,34.5
	h7.5c18.5-5.6,32.2-20.6,40.7-33.5c10-15.3,14.9-32.5,14.9-50V55.4c0-3.4-2-6.5-5.1-7.8l-47.5-20.3
	C123.9,26.4,115.7,25.7,113.6,26.6z"/>
<path class="st10" d="M111.9,27.3L64.4,47.6c-3.1,1.3-5.1,4.4-5.1,7.8v19.5c0,17.4,4.9,34.7,14.9,50c8.4,12.8,21.5,26.1,41.6,34.5
	c18.5-5.6,32.2-20.6,40.7-33.5c10-15.3,14.9-32.5,14.9-50V55.4c0-3.4-2-6.5-5.1-7.8l-47.5-20.3C116.4,26.4,114.1,26.4,111.9,27.3z"
	/>
<g>
	<path class="st7" d="M171.1,70.6c0,0,0,0.1,0,0.2c0,0.2,0,0.4,0,0.7c0,0.6,0.1,1.5,0.1,2.6c0,1.1,0.1,2.5,0,4.1
		c0,0.8-0.1,1.7-0.1,2.6c0,0.5,0,0.9,0,1.4c0,0.5-0.1,1-0.1,1.5c-0.2,2-0.3,4.2-0.8,6.5c-0.2,1.2-0.3,2.4-0.6,3.6
		c-0.3,1.2-0.5,2.5-0.8,3.8c-1.2,5.2-3,10.8-5.5,16.4c-2.5,5.6-5.5,10.7-8.5,15c-1.6,2.1-3,4.2-4.6,6c-0.8,0.9-1.5,1.8-2.2,2.6
		c-0.8,0.8-1.5,1.6-2.2,2.3c-1.3,1.5-2.7,2.7-3.9,3.8c-0.6,0.5-1.1,1.1-1.6,1.5c-0.5,0.4-1,0.8-1.4,1.2c-0.8,0.7-1.5,1.2-2,1.6
		c-0.2,0.2-0.4,0.3-0.5,0.4c-0.1,0.1-0.2,0.1-0.2,0.1c0,0,0-0.1,0.2-0.2c0.1-0.1,0.3-0.3,0.5-0.5c0.5-0.4,1.1-1,1.9-1.7
		c0.4-0.4,0.9-0.8,1.4-1.2c0.5-0.5,1-1,1.6-1.5c1.1-1.1,2.5-2.3,3.8-3.8c0.7-0.7,1.4-1.5,2.1-2.3c0.7-0.8,1.4-1.7,2.2-2.6
		c1.5-1.8,3-3.9,4.5-6c3-4.4,5.9-9.4,8.4-15c2.5-5.6,4.2-11.2,5.5-16.3c0.3-1.3,0.6-2.6,0.8-3.8c0.3-1.2,0.4-2.4,0.6-3.6
		c0.4-2.3,0.6-4.5,0.8-6.5c0.1-0.5,0.1-1,0.2-1.5c0-0.5,0-0.9,0.1-1.4c0-0.9,0.1-1.7,0.1-2.5c0.1-1.6,0.1-3,0.1-4.1
		c0-1.1,0-1.9,0-2.6c0-0.3,0-0.5,0-0.7C171.1,70.6,171.1,70.6,171.1,70.6z"/>
</g>
<g>
	<g>
		<g>
			<path class="st3" d="M134.1,96.8H129V69.2c0-6.5-5.3-11.8-11.8-11.8c-6.5,0-11.8,5.3-11.8,11.8v27.6h-5.1V69.2
				c0-9.3,7.6-16.8,16.8-16.8s16.8,7.6,16.8,16.8V96.8z"/>
		</g>
	</g>
	<g>
		<g>
			<g>
				<path class="st4" d="M134.1,113.7h-33.8c-3.2,0-5.8-2.6-5.8-5.8v-24c0-3.2,2.6-5.8,5.8-5.8h33.8c3.2,0,5.8,2.6,5.8,5.8v24
					C139.9,111,137.3,113.7,134.1,113.7z"/>
				<g>
					<path class="st7" d="M134.1,113.7c0,0,0.5,0,1.5-0.3c0.9-0.3,2.4-1,3.4-2.6c0.5-0.8,0.8-1.8,0.8-3c0-1.2,0-2.4,0-3.8
						c0-2.7,0-5.8,0-9.3c0-3.4,0-7.2-0.1-11.2c-0.1-1.9-1.4-3.9-3.3-4.7c-1-0.4-2-0.5-3.1-0.5c-1.1,0-2.2,0-3.4,0
						c-9.1,0-19.1,0-29.6,0c-1.3,0-2.5,0.4-3.5,1.2c-1,0.8-1.7,1.9-1.9,3.1c-0.1,0.6-0.2,1.2-0.2,1.8c0,0.6,0,1.3,0,1.9
						c0,1.3,0,2.5,0,3.7c0,4.9,0,9.7,0,14.3c0.1,2.3-0.4,4.6,0.8,6.4c1.1,1.8,3.1,2.8,5.1,2.7c4,0,7.8,0,11.2,0
						c6.9,0,12.4,0.1,16.3,0.1c1.9,0,3.4,0,4.4,0c0.5,0,0.9,0,1.2,0C134,113.6,134.1,113.6,134.1,113.7c0,0-0.1,0-0.4,0
						c-0.3,0-0.7,0-1.2,0c-1,0-2.5,0-4.4,0c-3.9,0-9.4,0-16.3,0.1c-3.4,0-7.2,0-11.2,0c-2.1,0.1-4.3-1-5.5-2.9
						c-0.6-0.9-0.9-2.1-0.9-3.2c0-1.1,0-2.2,0-3.4c0-4.5,0-9.3,0-14.3c0-1.2,0-2.5,0-3.7c0-0.6,0-1.3,0-1.9c0-0.6,0-1.3,0.2-2
						c0.3-1.3,1.1-2.5,2.1-3.3c1.1-0.9,2.4-1.3,3.8-1.3c10.5,0,20.5,0,29.6,0c1.1,0,2.3,0,3.4,0c1.1,0,2.3,0.1,3.3,0.5
						c2.1,0.9,3.4,3,3.5,5.1c0,4.1,0,7.8,0,11.3c0,3.4,0,6.5,0,9.3c0,1.4,0,2.6,0,3.8c0,1.2-0.4,2.3-0.9,3.1c-1,1.7-2.6,2.4-3.5,2.6
						C134.7,113.7,134.1,113.7,134.1,113.7z"/>
				</g>
			</g>
		</g>
	</g>
	<g>
		<path class="st9" d="M120.7,96.8c0.9-0.9,1.4-2.1,1.4-3.5c0-2.8-2.2-5-5-5c-2.8,0-5,2.2-5,5c0,2.3,1.5,4.2,3.6,4.8l-1.1,4.7h4.8
			l-1-4.7C119.4,97.8,120.1,97.4,120.7,96.8"/>
	</g>
</g>
<g>
	<g>
		<g>
			<g>
				<g>
					<g>
						<g>
							<g>
								<g>
									<g>
										<g>
											<g>
												<g>
													<g>
														<g>
															<g>
																<g>
																	<g>
																		<g>
																			<g>
																				<g>
																					<g>
																						<g>
																							<g>
																								<path class="st12" d="M430.4,132.5V173c0.1,7,1.1,18-10,17.6l0,0c-9.6-1-12.1-10.1-12.2-16.7
																									c0-3.1-0.1-5.7-0.1-6c0,0-10.5-0.9-11.4-11.2c-0.4-5-0.5-15.4-0.4-24.8c0.1-10.1,7.9-18.4,18-19.2l1-0.1
																									C426.2,112.5,430.6,121.6,430.4,132.5z"/>
																							</g>
																						</g>
																					</g>
																				</g>
																			</g>
																		</g>
																	</g>
																</g>
															</g>
														</g>
													</g>
												</g>
											</g>
										</g>
									</g>
								</g>
							</g>
						</g>
						<g>
							<g>
								<g>
									<g>
										<g>
											<g>
												<g>
													<g>
														<g>
															<g>
																<g>
																	<g>
																		<g>
																			<g>
																				<g>
																					<g>
																						<g>
																							<g>
																								<path class="st13" d="M408.2,167.9c0,0,6.6-0.1,13.2-5c0,0-2.7,7.8-13.2,7.6L408.2,167.9z"/>
																							</g>
																						</g>
																					</g>
																				</g>
																			</g>
																		</g>
																	</g>
																</g>
															</g>
														</g>
													</g>
												</g>
											</g>
										</g>
									</g>
								</g>
							</g>
						</g>
					</g>
				</g>
			</g>
			<g>
				<g>
					<g>
						<g>
							<g>
								<g>
									<g>
										<g>
											<g>
												<g>
													<g>
														<g>
															<g>
																<g>
																	<g>
																		<g>
																			<g>
																				<g>
																					<g>
																						<g>
																							<g>
																								<g>
																									<g>
																										<g>
																											<g>
																												<path class="st7" d="M414.1,136.1c0.2,0.2,1.4-0.8,3.1-0.8c1.7-0.1,3,0.8,3.2,0.6
																													c0.1-0.1-0.1-0.5-0.7-0.9c-0.6-0.4-1.5-0.8-2.6-0.7c-1.1,0-2,0.5-2.5,0.9
																													C414.2,135.7,414,136.1,414.1,136.1z"/>
																											</g>
																										</g>
																									</g>
																								</g>
																							</g>
																						</g>
																					</g>
																				</g>
																			</g>
																		</g>
																	</g>
																</g>
															</g>
														</g>
													</g>
												</g>
											</g>
										</g>
									</g>
								</g>
								<g>
									<g>
										<g>
											<g>
												<g>
													<g>
														<g>
															<g>
																<g>
																	<g>
																		<g>
																			<g>
																				<g>
																					<g>
																						<g>
																							<g>
																								<g>
																									<g>
																										<g>
																											<path class="st7" d="M414.1,141.1c0,0.7,0.7,1.3,1.5,1.3c0.8,0,1.4-0.6,1.4-1.4c0-0.7-0.7-1.3-1.5-1.3
																												C414.7,139.7,414.1,140.3,414.1,141.1z"/>
																										</g>
																									</g>
																								</g>
																							</g>
																						</g>
																					</g>
																				</g>
																			</g>
																		</g>
																	</g>
																</g>
															</g>
														</g>
													</g>
												</g>
											</g>
										</g>
									</g>
								</g>
								<g>
									<g>
										<g>
											<g>
												<g>
													<g>
														<g>
															<g>
																<g>
																	<g>
																		<g>
																			<g>
																				<g>
																					<g>
																						<g>
																							<g>
																								<g>
																									<g>
																										<g>
																											<path class="st7" d="M409.8,148.2c0-0.1-1-0.2-2.6-0.3c-0.4,0-0.8-0.1-0.9-0.3c-0.1-0.3,0-0.7,0.2-1.2
																												c0.3-1,0.6-2.1,1-3.2c1.4-4.5,2.3-8.3,2.1-8.3c-0.2-0.1-1.4,3.6-2.8,8.1c-0.3,1.1-0.6,2.2-0.9,3.2
																												c-0.1,0.5-0.3,1-0.1,1.6c0.1,0.3,0.4,0.5,0.7,0.5c0.3,0.1,0.5,0,0.7,0
																												C408.7,148.4,409.8,148.3,409.8,148.2z"/>
																										</g>
																									</g>
																								</g>
																							</g>
																						</g>
																					</g>
																				</g>
																			</g>
																		</g>
																	</g>
																</g>
															</g>
														</g>
													</g>
												</g>
											</g>
										</g>
									</g>
								</g>
							</g>
						</g>
					</g>
					<g>
						<g>
							<g>
								<g>
									<g>
										<g>
											<g>
												<g>
													<g>
														<g>
															<g>
																<g>
																	<g>
																		<g>
																			<g>
																				<g>
																					<g>
																						<g>
																							<path class="st7" d="M414.8,128.8c0.2,0.4,1.6,0.1,3.2,0.2c1.7,0.1,3,0.5,3.2,0.1c0.1-0.2-0.2-0.5-0.7-0.9
																								c-0.6-0.3-1.4-0.6-2.4-0.7c-1,0-1.9,0.2-2.5,0.5C415.1,128.2,414.8,128.6,414.8,128.8z"/>
																						</g>
																					</g>
																				</g>
																			</g>
																		</g>
																	</g>
																</g>
															</g>
														</g>
													</g>
												</g>
											</g>
										</g>
									</g>
								</g>
							</g>
						</g>
					</g>
					<g>
						<g>
							<g>
								<g>
									<g>
										<g>
											<g>
												<g>
													<g>
														<g>
															<g>
																<g>
																	<g>
																		<g>
																			<g>
																				<g>
																					<g>
																						<g>
																							<path class="st7" d="M398.3,131.4c0.2,0.3,1.5,0,3.2-0.1c1.6-0.1,3,0.2,3.2-0.2c0.1-0.2-0.2-0.4-0.8-0.7
																								c-0.6-0.2-1.4-0.4-2.4-0.4c-1,0-1.9,0.3-2.4,0.6C398.5,130.9,398.3,131.2,398.3,131.4z"/>
																						</g>
																					</g>
																				</g>
																			</g>
																		</g>
																	</g>
																</g>
															</g>
														</g>
													</g>
												</g>
											</g>
										</g>
									</g>
								</g>
							</g>
						</g>
					</g>
				</g>
			</g>
			<g>
				<g>
					<g>
						<g>
							<path class="st7" d="M382.6,122.6c0.1-0.4,0.4-0.8,0.8-1c0.8-0.5,1.7-0.4,2.7-0.4c2.8,0,5.5-0.9,7.8-2.4
								c1.1-1.6,2.3-3,3.6-4.4c3.1-3.2,5.7-5.4,8.4-6.5c3.5-1.4,9.3-2,12.9-1c3.6,0.9,6.9,3.9,7.4,7.6c2-1.7,5.1-1.7,7.5-0.7l0.1,0
								c2.7,1,4.3,3.9,5.1,6.7c0.8,2.8,1.2,5.8,2.6,8.3c0.3,0.5,0.7,1.2,0.4,1.7c-0.2,0.4-0.7,0.6-1.2,0.5c-0.5-0.1-0.9-0.3-1.3-0.6
								c0.3,0.7,0.6,1.5,0.9,2.2c-1,0.2-2,0.1-3-0.2c-0.6,2.6-1.3,5.6-2,7.4c-1.1,0-2.2,0.1-2.9,0.7c-1,0.9-1.4,2.5-3,1.9
								c-0.8-0.3-1.6-2-1.8-2.8c-1.8-5.5-2.4-11.4-1.8-17.1c-1.1-1.2-2.5-2.2-4-2.9l0.1,0.1c-2.9-1-6.2-2-8.9-0.6
								c-2.1,1.1-3.4,3.3-5,5c-3,3.3-7.1,5.2-11.6,5.4c-0.2,2.9,0.1,7.1-0.1,10l-2.5-4.7l0,0c-0.2-0.3-0.4-0.7-0.5-1l-0.1-0.1v0
								c-0.3-0.6-0.5-1.1-0.8-1.7c0,0,0,0,0,0c-1.6,1.4-3.9-0.7-2.7-2.4c0.2-0.3,0.5-0.6,0.9-0.9c-0.7,0.7-1.8,1-2.8,0.7
								c-0.9-0.3-1.7-1.3-1.6-2.2c0.1-0.7,0.5-1.3,1.1-1.5c-1.3,0.1-2.6-0.2-3.7-0.8C383.1,124.2,382.3,123.5,382.6,122.6z"/>
						</g>
					</g>
				</g>
			</g>
			<g>
				<g>
					<g>
						<g>
							<path class="st11" d="M422.8,115.6c0,0,0.4,0.3,1,1c0.6,0.7,1.3,1.8,1.6,3.4c0.2,0.8,0.3,1.7,0.3,2.6c0,1-0.1,2-0.1,3.1
								c-0.1,1.1-0.1,2.2-0.1,3.4c0,0.6,0.1,1.2,0.2,1.8c0.1,0.6,0.3,1.2,0.7,1.7c0.4,0.4,0.9,0.6,1.5,0.5c0.5-0.1,1-0.4,1.3-0.7
								c0.7-0.8,0.8-1.8,1-2.6l-0.2,0c0.4,0.8,0.7,1.6,1.3,2.2c0.5,0.6,1.3,1,2,1.1c0.4,0,0.7,0,1.1-0.2c0.3-0.2,0.6-0.4,0.7-0.7
								c0.2-0.3,0.2-0.6,0.2-0.9c0-0.3-0.1-0.6-0.3-0.8l-0.1,0.1c0.8,0.9,1.6,1.4,2.2,1.7c0.3,0.1,0.5,0.2,0.7,0.3
								c0.2,0,0.2,0.1,0.2,0.1c0,0-0.1,0-0.2-0.1c-0.2-0.1-0.4-0.2-0.7-0.3c-0.6-0.3-1.4-0.8-2.2-1.7l-0.1,0.1
								c0.3,0.4,0.4,1,0.1,1.5c-0.2,0.3-0.4,0.5-0.7,0.6c-0.3,0.1-0.6,0.2-1,0.2c-0.7-0.1-1.4-0.5-1.9-1c-0.5-0.6-0.9-1.3-1.2-2.1
								l-0.1-0.3l-0.1,0.4c-0.2,0.9-0.3,1.8-1,2.5c-0.3,0.3-0.7,0.6-1.2,0.7c-0.5,0.1-0.9-0.1-1.2-0.4c-0.4-0.4-0.5-1-0.7-1.6
								c-0.1-0.6-0.2-1.2-0.2-1.8c-0.1-1.2,0-2.3,0.1-3.4c0.1-1.1,0.1-2.1,0.1-3.1c0-1-0.1-1.9-0.3-2.7c-0.3-1.6-1.1-2.8-1.7-3.5
								C423.3,115.8,422.8,115.6,422.8,115.6z"/>
						</g>
					</g>
				</g>
			</g>
			<g>
				<g>
					<g>
						<g>
							<path class="st11" d="M390.7,125.7C390.7,125.7,390.7,125.8,390.7,125.7c0.2,0.1,0.2,0.2,0.3,0.3c0.1,0.1,0.3,0.2,0.4,0.3
								c0.2,0.1,0.4,0.2,0.6,0.3c1,0.5,2.5,0.9,4.4,0.8c1.9-0.1,4.2-0.8,6.3-2.3c2.1-1.5,3.9-3.7,5.4-6.2c0.8-1.3,1.4-2.5,2-3.7
								c0.7-1.2,1.4-2.3,2.3-3.2c0.9-0.9,1.9-1.5,3-1.8c0.5-0.2,1.1-0.2,1.6-0.2c0.5,0,1,0.1,1.4,0.3c0.9,0.3,1.6,0.8,2.2,1.3
								c0.5,0.5,0.9,1.1,1.2,1.5c0.5,1,0.5,1.6,0.5,1.6c0,0,0,0,0-0.1c0-0.1,0-0.2,0-0.3c-0.1-0.3-0.2-0.7-0.4-1.2
								c-0.2-0.5-0.6-1-1.2-1.6c-0.6-0.5-1.3-1-2.2-1.4c-0.5-0.2-1-0.3-1.5-0.3c-0.5,0-1.1,0-1.6,0.2c-1.1,0.3-2.2,1-3.1,1.8
								c-0.9,0.9-1.7,2-2.4,3.2c-0.7,1.2-1.3,2.5-2.1,3.7c-1.5,2.5-3.3,4.7-5.3,6.1c-2,1.5-4.3,2.2-6.1,2.3
								c-1.9,0.1-3.4-0.3-4.4-0.7C391.2,126.1,390.7,125.7,390.7,125.7z"/>
						</g>
					</g>
				</g>
			</g>
			<g>
				<g>
					<g>
						<g>
							<path class="st11" d="M389.8,121.2c0,0,0.1,0.1,0.4,0.3c0.2,0.2,0.6,0.4,1.1,0.6c0.5,0.2,1.1,0.4,1.7,0.6
								c0.7,0.2,1.4,0.3,2.2,0.3c0.8,0,1.6,0,2.2-0.2c0.7-0.1,1.3-0.3,1.8-0.5c0.5-0.2,0.9-0.3,1.1-0.5c0.3-0.1,0.4-0.2,0.4-0.2
								c0,0-0.6,0.3-1.6,0.6c-0.5,0.2-1.1,0.3-1.8,0.4c-0.7,0.1-1.4,0.2-2.2,0.1c-0.8,0-1.5-0.1-2.2-0.3c-0.7-0.1-1.3-0.3-1.7-0.5
								C390.3,121.5,389.8,121.1,389.8,121.2z"/>
						</g>
					</g>
				</g>
			</g>
			<g>
				<g>
					<g>
						<g>
							<g>
								<g>
									<g>
										<g>
											<g>
												<g>
													<g>
														<g>
															<path class="st7" d="M398.3,136.1c0.2,0.2,1.4-0.8,3.1-0.8c1.7-0.1,3,0.8,3.2,0.6c0.1-0.1-0.1-0.5-0.7-0.9
																c-0.6-0.4-1.5-0.8-2.6-0.7c-1.1,0-2,0.5-2.5,0.9C398.3,135.7,398.2,136.1,398.3,136.1z"/>
														</g>
													</g>
												</g>
											</g>
										</g>
									</g>
								</g>
							</g>
						</g>
					</g>
				</g>
			</g>
			<g>
				<g>
					<g>
						<g>
							<g>
								<g>
									<g>
										<g>
											<g>
												<g>
													<g>
														<path class="st7" d="M400,141.1c0,0.7,0.7,1.3,1.5,1.3c0.8,0,1.4-0.6,1.4-1.4c0-0.7-0.7-1.3-1.5-1.3
															C400.6,139.7,400,140.3,400,141.1z"/>
													</g>
												</g>
											</g>
										</g>
									</g>
								</g>
							</g>
						</g>
					</g>
				</g>
			</g>
			<g>
				<g>
					<g>
						<g>
							<g>
								<g>
									<g>
										<g>
											<g>
												<g>
													<g>
														<g>
															<g>
																<g>
																	<g>
																		<g>
																			<g>
																				<path class="st12" d="M430.2,140.2c0.2-0.1,7-2.6,7.3,4.5c0.3,7.1-6.9,5.9-6.9,5.7
																					C430.5,150.2,430.2,140.2,430.2,140.2z"/>
																			</g>
																		</g>
																	</g>
																</g>
															</g>
														</g>
													</g>
												</g>
											</g>
										</g>
									</g>
								</g>
							</g>
						</g>
					</g>
				</g>
				<g>
					<g>
						<g>
							<g>
								<g>
									<g>
										<g>
											<g>
												<g>
													<g>
														<g>
															<g>
																<g>
																	<g>
																		<g>
																			<g>
																				<g>
																					<path class="st13" d="M432.6,147.6c0,0,0.1,0.1,0.3,0.2c0.2,0.1,0.6,0.1,0.9,0c0.7-0.3,1.3-1.5,1.3-2.8
																						c0-0.6-0.2-1.3-0.4-1.8c-0.2-0.5-0.6-0.9-1-0.9c-0.4-0.1-0.6,0.2-0.7,0.4c-0.1,0.2,0,0.3-0.1,0.4
																						c0,0-0.2-0.1-0.1-0.4c0-0.1,0.1-0.3,0.3-0.5c0.2-0.1,0.4-0.2,0.7-0.2c0.5,0,1.1,0.5,1.3,1
																						c0.3,0.6,0.5,1.2,0.5,2c0,1.4-0.7,2.8-1.7,3.1c-0.5,0.2-0.9,0-1.1-0.1C432.6,147.8,432.5,147.7,432.6,147.6z"
																						/>
																				</g>
																			</g>
																		</g>
																	</g>
																</g>
															</g>
														</g>
													</g>
												</g>
											</g>
										</g>
									</g>
								</g>
							</g>
						</g>
					</g>
				</g>
			</g>
		</g>
		<g>
			<path class="st7" d="M414.8,149.7c0.1,0,0.1,0.4-0.2,1c-0.2,0.6-0.8,1.4-1.6,1.9c-0.8,0.5-1.8,0.7-2.4,0.7c-0.7-0.1-1-0.3-1-0.3
				c0-0.1,0.4,0,1,0c0.6,0,1.4-0.2,2.1-0.7c0.8-0.5,1.3-1.1,1.6-1.6C414.6,150.1,414.7,149.7,414.8,149.7z"/>
		</g>
	</g>
	<g>
		<g>
			<g>
				<g>
					<g>
						<g>
							<g>
								<g>
									<path class="st11" d="M450.6,430.9l2.1,24l7.5,18.6c0.5,1.3-0.2,2.8-1.7,3.2l0,0c-0.8,0.2-1.7,0.1-2.4-0.4
										c-4.3-3.1-19.8-14.6-19.9-16.1c-0.2-1.9-4.2-25.6-4.2-25.6L450.6,430.9z"/>
								</g>
							</g>
						</g>
					</g>
				</g>
			</g>
			<g>
				<g>
					<g>
						<g>
							<g>
								<g>
									<path class="st7" d="M458.6,476.7l-22.7-19.2l0.2,1.8c0.2,1,0.2,1.5,0.9,2.1c1.8,1.6,7.1,6.6,19,15.3
										C456.7,477.2,457.7,477,458.6,476.7L458.6,476.7z"/>
								</g>
							</g>
						</g>
					</g>
				</g>
			</g>
			<g>
				<g>
					<g>
						<g>
							<g>
								<g>
									<g>
										<path class="st4" d="M440.3,450c0.7,0.4,1,1.2,0.7,1.9c-0.3,0.7-1.3,1-2,0.6c-0.7-0.3-1.1-1.4-0.7-2
											c0.4-0.6,1.6-0.9,2.2-0.4"/>
									</g>
								</g>
							</g>
						</g>
					</g>
				</g>
			</g>
			<g>
				<g>
					<g>
						<g>
							<g>
								<g>
									<g>
										<path class="st7" d="M451.6,466.8c0.2,0.1,0.6-1.3,2-2.1c1.4-0.9,2.9-0.7,2.9-0.8c0-0.1-0.3-0.2-0.9-0.2
											c-0.6,0-1.5,0.1-2.2,0.6c-0.8,0.5-1.3,1.1-1.5,1.6C451.5,466.4,451.5,466.8,451.6,466.8z"/>
									</g>
								</g>
							</g>
						</g>
					</g>
				</g>
			</g>
			<g>
				<g>
					<g>
						<g>
							<g>
								<g>
									<g>
										<path class="st7" d="M453.7,469.8c0.1,0.1,0.9-0.8,2.1-1.3c1.3-0.5,2.4-0.4,2.5-0.6c0.1-0.1-1.2-0.5-2.7,0.1
											C454.2,468.7,453.6,469.8,453.7,469.8z"/>
									</g>
								</g>
							</g>
						</g>
					</g>
				</g>
			</g>
			<g>
				<g>
					<g>
						<g>
							<g>
								<g>
									<g>
										<path class="st7" d="M447.7,463c0.1,0.1,1.2-1.2,3.2-2.1c1.9-0.9,3.7-1,3.7-1.2c0-0.1-1.9-0.3-4,0.7
											C448.6,461.4,447.6,463,447.7,463z"/>
									</g>
								</g>
							</g>
						</g>
					</g>
				</g>
			</g>
			<g>
				<g>
					<g>
						<g>
							<g>
								<g>
									<g>
										<path class="st7" d="M446.4,455.8c0.1,0.1,1.4-0.6,3.3-0.8c1.8-0.3,3.3,0,3.4-0.1c0.1-0.1-1.5-0.7-3.4-0.4
											C447.6,454.7,446.3,455.7,446.4,455.8z"/>
									</g>
								</g>
							</g>
						</g>
					</g>
				</g>
			</g>
			<g>
				<g>
					<g>
						<g>
							<g>
								<g>
									<g>
										<path class="st7" d="M445.6,448.7c0.1,0.1,1.4-0.8,3.4-0.9c1.9-0.2,3.4,0.6,3.5,0.5c0-0.1-0.3-0.3-0.9-0.6
											c-0.6-0.3-1.6-0.5-2.6-0.4c-1,0.1-2,0.4-2.5,0.7C445.8,448.4,445.6,448.7,445.6,448.7z"/>
									</g>
								</g>
							</g>
						</g>
					</g>
				</g>
			</g>
			<g>
				<g>
					<g>
						<g>
							<g>
								<g>
									<g>
										<path class="st7" d="M448.8,446.5c0,0,0.1-0.3-0.1-0.9c-0.1-0.6-0.4-1.4-1-2.3c-0.3-0.4-0.7-1-1.4-1.2
											c-0.4-0.1-0.9,0-1.2,0.3c-0.3,0.3-0.3,0.7-0.3,1.1c0.2,1.5,1.8,2.9,3.6,2.9c1.9,0,3.4-1.1,4-2.5c0.1-0.4,0.2-0.8-0.1-1.2
											c-0.2-0.4-0.8-0.5-1.1-0.4c-0.7,0.2-1.2,0.6-1.6,1c-0.8,0.8-1.3,1.5-1.5,2c-0.3,0.5-0.3,0.9-0.3,0.9
											c0.1,0.1,0.5-1.2,2.1-2.6c0.4-0.3,0.9-0.7,1.4-0.8c0.3-0.1,0.5,0,0.6,0.2c0.1,0.2,0.1,0.5,0,0.8c-0.5,1.1-1.9,2.2-3.5,2.2
											c-1.6,0-2.9-1.2-3.1-2.4c0-0.3,0-0.6,0.2-0.8c0.1-0.2,0.4-0.3,0.6-0.2c0.5,0.1,0.9,0.6,1.2,1
											C448.6,445.1,448.7,446.5,448.8,446.5z"/>
									</g>
								</g>
							</g>
						</g>
					</g>
				</g>
			</g>
		</g>
	</g>
	<g>
		<g>
			<g>
				<g>
					<g>
						<g>
							<g>
								<g>
									<g>
										<g>
											<path class="st11" d="M390.1,432.1l0.9,20.4c0,0-21.7,7.7-21.9,11.5l42.1-0.3l-0.1-31.8L390.1,432.1z"/>
										</g>
									</g>
								</g>
							</g>
						</g>
					</g>
				</g>
				<g>
					<g>
						<g>
							<g>
								<g>
									<g>
										<g>
											<g>
												<path class="st2" d="M404,450.7c0.8,0.2,1.4,1.1,1.2,1.8c-0.2,0.8-1.1,1.3-1.9,1.1c-0.8-0.2-1.5-1.2-1.3-1.9
													c0.3-0.8,1.4-1.3,2.1-1"/>
											</g>
										</g>
									</g>
								</g>
							</g>
						</g>
					</g>
				</g>
				<g>
					<g>
						<g>
							<g>
								<g>
									<g>
										<g>
											<path class="st7" d="M411.2,463.7l-0.1-3.2l-40.3,1.5c0,0-1.9,0.8-1.6,2L411.2,463.7z"/>
										</g>
									</g>
								</g>
							</g>
						</g>
					</g>
				</g>
				<g>
					<g>
						<g>
							<g>
								<g>
									<g>
										<g>
											<g>
												<path class="st7" d="M390.3,452.3c0,0.2,1,0.3,2.1,0.9c1,0.6,1.6,1.4,1.7,1.3c0.2,0-0.1-1.2-1.4-1.9
													C391.5,451.9,390.3,452.1,390.3,452.3z"/>
											</g>
										</g>
									</g>
								</g>
							</g>
						</g>
					</g>
				</g>
				<g>
					<g>
						<g>
							<g>
								<g>
									<g>
										<g>
											<g>
												<path class="st7" d="M385.9,454c0,0.2,0.8,0.5,1.6,1.3c0.7,0.8,0.9,1.7,1.1,1.7c0.2,0,0.3-1.1-0.6-2.1
													C387.1,453.9,385.9,453.8,385.9,454z"/>
											</g>
										</g>
									</g>
								</g>
							</g>
						</g>
					</g>
				</g>
				<g>
					<g>
						<g>
							<g>
								<g>
									<g>
										<g>
											<g>
												<path class="st7" d="M383.5,459c0.2,0,0.5-0.9-0.1-2c-0.5-1.1-1.5-1.5-1.6-1.3c-0.1,0.2,0.5,0.7,0.9,1.6
													C383.2,458.2,383.3,459,383.5,459z"/>
											</g>
										</g>
									</g>
								</g>
							</g>
						</g>
					</g>
				</g>
				<g>
					<g>
						<g>
							<g>
								<g>
									<g>
										<g>
											<g>
												<path class="st7" d="M390.7,447.6c0.1,0.2,1-0.1,2.2,0c1.2,0,2.1,0.4,2.2,0.2c0.1-0.1-0.8-0.8-2.1-0.9
													C391.5,446.8,390.6,447.5,390.7,447.6z"/>
											</g>
										</g>
									</g>
								</g>
							</g>
						</g>
					</g>
				</g>
			</g>
		</g>
	</g>
	<g>
		<g>
			<g>
				<g>
					<path class="st7" d="M382.8,286c0,1.2,4.9,163.9,4.9,163.9h26l5.3-139.2c0,0,6.1,72.8,6.1,74.3c0,1.6,5.4,65.6,5.4,65.6
						l24.1-1.8L453,302.2l-2.9-21.5L382.8,286z"/>
				</g>
			</g>
			<g>
				<g>
					<g>
						<path class="st11" d="M421.6,305.5c0,0-0.4,0.2-1.1,0.4c-0.7,0.2-1.7,0.6-2.9,1l-0.2,0.1l0-0.2c-0.1-2-0.3-4.6-0.5-7.4
							c-0.2-3.1-0.3-5.9-0.3-8c0-1,0-1.8,0-2.4c0-0.6,0-0.9,0.1-0.9c0,0,0.1,0.3,0.1,0.9c0.1,0.6,0.1,1.4,0.2,2.4
							c0.2,2,0.3,4.8,0.5,8c0.2,2.9,0.3,5.5,0.3,7.4l-0.3-0.2c1.3-0.4,2.3-0.6,3-0.8C421.2,305.6,421.6,305.5,421.6,305.5z"/>
					</g>
				</g>
			</g>
			<g>
				<g>
					<g>
						<path class="st11" d="M419.6,288.6c0,0,0.1-0.1,0.3-0.2c0.3-0.1,0.7-0.1,1.1,0.1c0.4,0.2,0.9,0.7,0.9,1.3
							c-0.1,0.6-0.6,1.3-1.4,1.4c-0.8,0.1-1.6-0.3-1.9-0.8c-0.4-0.5-0.2-1.2,0-1.5c0.3-0.4,0.6-0.6,0.9-0.7c0.3-0.1,0.4-0.1,0.4,0
							c0,0.1-0.6,0.2-1,0.9c-0.2,0.3-0.2,0.8,0.1,1.2c0.3,0.4,0.9,0.7,1.4,0.6c0.6-0.1,1-0.6,1-1c0.1-0.5-0.2-0.8-0.6-1
							C420.2,288.4,419.6,288.7,419.6,288.6z"/>
					</g>
				</g>
			</g>
			<g>
				<g>
					<g>
						<path class="st11" d="M431.6,290.3c-0.1,0-0.3-0.7-0.4-1.6c-0.1-0.9-0.1-1.6,0.1-1.6c0.1,0,0.3,0.7,0.4,1.6
							C431.7,289.5,431.7,290.3,431.6,290.3z"/>
					</g>
				</g>
			</g>
			<g>
				<g>
					<g>
						<path class="st11" d="M433.4,290.1c-0.1,0-0.3-0.8-0.3-1.7c0-0.9,0.1-1.7,0.2-1.7c0.1,0,0.3,0.8,0.3,1.7
							C433.6,289.4,433.5,290.1,433.4,290.1z"/>
					</g>
				</g>
			</g>
			<g>
				<g>
					<g>
						<path class="st11" d="M402,291.2c-0.1,0-0.4-0.8-0.5-1.9c-0.1-1.1-0.1-1.9,0-1.9c0.1,0,0.4,0.8,0.5,1.9
							C402.2,290.3,402.2,291.2,402,291.2z"/>
					</g>
				</g>
			</g>
			<g>
				<g>
					<g>
						<path class="st11" d="M404.2,291.4c-0.1,0-0.6-0.8-0.6-2c-0.1-1.2,0.3-2.1,0.5-2c0.1,0,0,0.9,0.1,2
							C404.1,290.5,404.4,291.3,404.2,291.4z"/>
					</g>
				</g>
			</g>
		</g>
		<g>
			<g>
				<g>
					<path class="st11" d="M396,289.2c0,0,0,0.3-0.1,0.7c-0.1,0.5-0.3,1.1-0.5,1.9c-0.5,1.6-1.6,3.7-3.2,5.8
						c-1.7,2.1-3.6,3.6-5.1,4.6c-0.8,0.5-1.4,0.8-1.8,1.1c-0.5,0.2-0.7,0.3-0.7,0.3c0-0.1,0.9-0.6,2.4-1.6c1.4-1,3.3-2.6,4.9-4.6
						c1.6-2,2.7-4.1,3.3-5.6C395.7,290.2,395.9,289.2,396,289.2z"/>
				</g>
			</g>
		</g>
		<g>
			<g>
				<g>
					<path class="st11" d="M452.2,300.2c0,0-0.3,0.1-0.8,0.1c-0.5,0-1.3,0-2.2,0c-1.8-0.2-4.4-0.8-6.7-2.3c-2.3-1.5-3.7-3.5-4.4-5
						c-0.4-0.8-0.6-1.4-0.7-1.8c-0.1-0.4-0.1-0.7-0.1-0.7c0.1,0,0.3,1,1.1,2.4c0.8,1.4,2.2,3.3,4.4,4.8c2.2,1.5,4.7,2.1,6.4,2.4
						C451.1,300.2,452.2,300.1,452.2,300.2z"/>
				</g>
			</g>
		</g>
		<g>
			<g>
				<g>
					<path class="st11" d="M409.8,382.5c0,0.1-4.3-0.8-9.6-2.1c-5.3-1.3-9.5-2.4-9.5-2.5c0-0.1,4.3,0.8,9.6,2.1
						C405.6,381.3,409.9,382.4,409.8,382.5z"/>
				</g>
			</g>
		</g>
		<g>
			<g>
				<g>
					<path class="st11" d="M451.7,376.6c0.1,0.1-3.7,2.1-8.4,4.4c-4.7,2.3-8.5,4.1-8.6,4c-0.1-0.1,3.7-2.1,8.4-4.4
						C447.8,378.3,451.7,376.5,451.7,376.6z"/>
				</g>
			</g>
		</g>
	</g>
	<g>
		<g>
			<g>
				<g>
					<path class="st12" d="M370.1,230.9l3.6,4.4v-7.6h11.2c0,0,1.2,17.5,1,21.2c-0.1,1.3-0.7,3.5-1.4,5.7c-1.5,4.7-7.3,6.1-10.9,2.7
						c-1.2-1.1-2.4-2.4-3.5-3.9c-5-6.4-13.2-22-13.2-22l8.6-5.2L370.1,230.9z"/>
				</g>
			</g>
			<g>
				<g>
					<g>
						<path class="st13" d="M369.4,230.1c-0.1,0.1,0.5,0.8,1.5,2c0.9,1.2,2.3,2.8,3.7,4.5c1.5,1.7,2.9,3.3,4,4.3
							c1.1,1,1.9,1.6,1.9,1.5c0-0.1-0.6-0.7-1.6-1.8c-1-1.1-2.4-2.7-3.9-4.4C372.1,232.7,369.6,229.9,369.4,230.1z"/>
					</g>
				</g>
			</g>
		</g>
		<g>
			<g>
				<g>
					<polygon class="st12" points="395.7,177.1 407.5,172.5 429.2,171.2 439.5,175.1 425.4,182.9 413.4,182.5 					"/>
				</g>
			</g>
			<g>
				<path class="st11" d="M381.7,288.2c1.1,0.2,72.3,3.2,72.3,3.2l-2.5-64.1l-0.2-12.6l-4-38.1c0,0-10.7-3.7-16.1-5.4
					c0,0-5.7,6-16.6,5.8c-10.6-0.2-12.9-2.6-12.9-2.6l-14.9,5.7c0,0-10.6,3.8-12.4,8.5c-1.8,4.6-5,30.6-5,30.6h15.4l-0.3,45.9
					L381.7,288.2z"/>
			</g>
			<g class="st14">
				<polyline points="426.6,202.7 428.8,218.8 439.5,223.6 447.4,216.9 447.4,201.9 426.6,202.7 				"/>
			</g>
			<g>
				<g>
					<path class="st7" d="M447.1,207.3c0,0.1-4.4,0.2-9.9,0.2c-5.5,0-9.9-0.1-9.9-0.2c0-0.1,4.4-0.2,9.9-0.2
						C442.6,207,447.1,207.1,447.1,207.3z"/>
				</g>
			</g>
			<g>
				<g>
					<g>
						<g>
							<g>
								<g>
									<path class="st7" d="M376.9,195.3c0,0,0.1,0.1,0.1,0.4c0.1,0.3,0.2,0.7,0.3,1.2c0.3,1.1,0.7,2.6,1.4,4.5
										c0.7,1.9,1.7,4.2,2.9,6.7c1.2,2.6,2.2,5.5,3.3,8.7l0,0l0,0c0,3.8-0.1,8-0.1,12.4c-0.1,9.8-0.2,18.7-0.3,25.1
										c-0.1,3.2-0.1,5.8-0.1,7.6c0,0.9,0,1.6-0.1,2.1c0,0.5,0,0.7-0.1,0.7c0,0,0-0.2,0-0.7c0-0.5,0-1.2,0-2.1c0-1.8,0-4.4,0-7.6
										c0-6.5,0.1-15.3,0.1-25.1c0-4.4,0.1-8.6,0.1-12.4l0,0.1c-1.1-3.2-2.1-6.2-3.2-8.7c-1.2-2.5-2.2-4.8-2.9-6.7
										c-0.7-1.9-1.1-3.5-1.3-4.6c-0.1-0.5-0.2-1-0.2-1.3C376.9,195.5,376.9,195.3,376.9,195.3z"/>
								</g>
							</g>
						</g>
						<g>
							<g>
								<g>
									<path class="st7" d="M452.5,187.8c0,0,0,0.5,0,1.4c0,1-0.1,2.2-0.1,3.7c-0.1,3.2-0.3,7.5-0.5,12.3
										c-0.2,4.8-0.4,9.1-0.6,12.3c-0.1,1.5-0.2,2.8-0.2,3.7c-0.1,0.9-0.1,1.4-0.1,1.4c0,0,0-0.5,0-1.4c0-1,0-2.2,0.1-3.7
										c0.1-3.1,0.2-7.5,0.4-12.3c0.2-4.8,0.4-9.1,0.6-12.3c0.1-1.6,0.2-2.8,0.3-3.7C452.4,188.3,452.5,187.8,452.5,187.8z"/>
								</g>
							</g>
						</g>
						<g class="st8">
							<g>
								<g>
									<path d="M377,197.6c-0.3,7,2.3,13.8,7,19.1C382.5,210.1,378.9,204,377,197.6z"/>
								</g>
							</g>
						</g>
						<g class="st8">
							<g>
								<g>
									<path d="M408.3,261.1c3.3-0.3,6.3-2.3,8.6-4.8c2.2-2.5,4.2-5.3,5.7-8.3c2.1-4,3.1-8.5,3.4-13.1
										C421.8,246.1,415.7,254.9,408.3,261.1z"/>
								</g>
							</g>
						</g>
						<g>
							<g>
								<g>
									<path class="st7" d="M427.3,230.1c0,0,0,0.1-0.1,0.4c-0.1,0.3-0.2,0.7-0.3,1.2c-0.1,0.5-0.3,1.1-0.5,1.8
										c-0.2,0.7-0.4,1.5-0.7,2.4c-0.6,1.8-1.4,3.8-2.5,6c-1.1,2.2-2.4,4.5-3.9,6.9c-1.6,2.3-3.2,4.4-4.8,6.3
										c-1.6,1.8-3.2,3.4-4.6,4.6c-0.7,0.6-1.3,1.1-1.9,1.6c-0.6,0.5-1.1,0.8-1.5,1.1c-0.4,0.3-0.7,0.5-1,0.7
										c-0.2,0.1-0.3,0.2-0.4,0.2c0,0,0.1-0.1,0.3-0.3c0.3-0.2,0.6-0.4,0.9-0.7c0.4-0.3,0.9-0.7,1.4-1.2c0.6-0.5,1.2-1,1.9-1.6
										c1.4-1.2,2.9-2.8,4.5-4.6c1.6-1.8,3.2-3.9,4.8-6.3c1.5-2.3,2.8-4.7,3.9-6.8c1.1-2.2,1.9-4.2,2.5-5.9
										c0.3-0.9,0.6-1.6,0.8-2.3c0.2-0.7,0.4-1.3,0.6-1.8c0.1-0.4,0.2-0.8,0.3-1.1C427.2,230.2,427.2,230.1,427.3,230.1z"/>
								</g>
							</g>
						</g>
					</g>
					<g>
						<g>
							<g>
								<path class="st7" d="M425.2,210c0,0,0,0.2-0.1,0.7c-0.1,0.5-0.2,1.1-0.3,1.9c-0.1,0.8-0.3,1.8-0.6,2.9
									c-0.3,1.1-0.6,2.4-1,3.8c-0.2,0.7-0.4,1.4-0.7,2.2c-0.2,0.8-0.5,1.5-0.8,2.4c-0.5,1.6-1.3,3.3-2,5.1
									c-1.5,3.6-3.5,7.4-5.8,11.2c-2.4,3.8-4.9,7.3-7.4,10.3c-1.3,1.5-2.5,2.9-3.7,4.1c-0.6,0.6-1.2,1.2-1.7,1.8
									c-0.6,0.6-1.1,1.1-1.7,1.6c-1,1-2.1,1.9-3,2.6c-0.9,0.8-1.7,1.4-2.3,1.9c-0.6,0.5-1.1,0.9-1.5,1.1c-0.3,0.3-0.5,0.4-0.5,0.4
									c0,0,0.2-0.2,0.5-0.4c0.4-0.3,0.8-0.7,1.5-1.2c0.6-0.5,1.4-1.1,2.3-1.9c0.9-0.8,1.9-1.6,2.9-2.7c0.5-0.5,1.1-1,1.6-1.6
									c0.6-0.6,1.1-1.2,1.7-1.8c1.2-1.2,2.4-2.6,3.6-4.1c2.4-3,5-6.4,7.3-10.2c2.3-3.8,4.2-7.6,5.8-11.2c0.7-1.8,1.5-3.5,2-5.1
									c0.3-0.8,0.6-1.6,0.8-2.3c0.2-0.8,0.5-1.5,0.7-2.2c0.5-1.4,0.8-2.7,1.1-3.8c0.3-1.1,0.5-2.1,0.7-2.9
									c0.2-0.8,0.3-1.4,0.4-1.8C425.1,210.2,425.2,210,425.2,210z"/>
							</g>
						</g>
					</g>
				</g>
			</g>
		</g>
		<g>
			<g>
				<g>
					<g>
						<g>
							<path class="st2" d="M368.9,190.1c4.4,6.7,22.2,33.7,27.4,41.7c0.6,0.9-0.1,2-1.2,1.9l-31.6-4c-0.3,0-0.6-0.2-0.8-0.5
								L332.5,188c-0.6-0.9,0-2,1.1-2l32.5,2.4C367.3,188.5,368.3,189.1,368.9,190.1z"/>
						</g>
					</g>
					<g>
						<g>
							<g>
								<path class="st7" d="M368.9,190.1c0,0-0.1-0.1-0.3-0.4c-0.2-0.2-0.5-0.6-1-0.9c-0.5-0.3-1.3-0.5-2.1-0.5
									c-0.9-0.1-1.8-0.2-2.9-0.2c-4.5-0.3-10.8-0.9-18.7-1.5c-2-0.2-4.1-0.3-6.2-0.5c-1.1-0.1-2.2-0.2-3.3-0.3
									c-0.3,0-0.5-0.1-0.9-0.1c-0.3,0-0.7,0.1-0.9,0.4c-0.5,0.4-0.6,1.3-0.2,1.9c2.8,3.8,5.7,7.8,8.8,12
									c6.2,8.5,13,17.8,20.2,27.6c0.5,0.6,0.9,1.2,1.4,1.8c0.2,0.2,0.3,0.3,0.6,0.4c0.2,0.1,0.4,0.1,0.6,0.1l1.1,0.1
									c1.5,0.2,3,0.4,4.4,0.6c2.9,0.4,5.8,0.7,8.6,1.1c5.7,0.7,11.1,1.4,16.3,2c0.3,0,0.6,0.1,1,0.1c0.4,0,0.8-0.2,1-0.4
									c0.3-0.3,0.4-0.7,0.4-1c0-0.4-0.2-0.8-0.4-1c-0.7-1.1-1.4-2.1-2.1-3.2c-1.4-2.1-2.7-4.1-4-6c-2.6-3.9-5-7.5-7.2-10.8
									c-4.4-6.6-7.9-11.9-10.4-15.7c-1.2-1.8-2.2-3.3-2.8-4.2c-0.3-0.5-0.6-0.8-0.8-1.1C369,190.2,368.9,190.1,368.9,190.1
									c0,0,0.1,0.1,0.2,0.4c0.2,0.3,0.4,0.6,0.7,1.1c0.6,1,1.6,2.4,2.8,4.3c2.4,3.7,5.9,9.1,10.3,15.8c2.2,3.3,4.6,7,7.1,10.9
									c1.3,2,2.6,4,4,6c0.7,1,1.4,2.1,2.1,3.2c0.2,0.3,0.3,0.5,0.3,0.8c0,0.3-0.1,0.5-0.3,0.7c-0.2,0.2-0.4,0.3-0.7,0.3
									c-0.3,0-0.6-0.1-0.9-0.1c-5.2-0.7-10.7-1.4-16.3-2.1c-2.8-0.4-5.7-0.7-8.6-1.1c-1.5-0.2-2.9-0.4-4.4-0.6l-1.1-0.1
									c-0.2,0-0.4,0-0.5-0.1c-0.1-0.1-0.3-0.1-0.4-0.2c-0.4-0.6-0.9-1.2-1.3-1.8c-7.2-9.8-14-19.1-20.2-27.5
									c-3.1-4.2-6-8.2-8.8-12c-0.3-0.4-0.2-1,0.2-1.3c0.2-0.2,0.4-0.3,0.6-0.3c0.2,0,0.6,0,0.8,0c1.1,0.1,2.2,0.2,3.3,0.2
									c2.2,0.2,4.2,0.3,6.2,0.4c7.9,0.5,14.3,1,18.8,1.3c1.1,0.1,2.1,0.1,2.9,0.2c0.9,0,1.6,0.2,2.1,0.4
									C368.6,189.5,368.9,190.1,368.9,190.1z"/>
							</g>
						</g>
					</g>
				</g>
				<g>
					<g>
						<g>
							<path class="st7" d="M332.5,188c0,0,0.2,0,0.7,0.1c0.5,0,1.1,0.1,1.9,0.2c1.7,0.2,4.1,0.4,7.1,0.6c6.1,0.5,14.6,1.2,24.3,2
								l-0.2-0.1c1.5,2.3,3.1,4.6,4.7,7c6.4,9.8,12,18.9,16.2,25.3c2.1,3.2,3.8,5.8,5.1,7.6c0.6,0.9,1.1,1.5,1.4,2
								c0.3,0.5,0.5,0.7,0.5,0.7c0,0-0.1-0.3-0.4-0.7c-0.3-0.5-0.8-1.2-1.3-2.1c-1.2-1.9-2.9-4.5-4.9-7.7
								c-4.1-6.5-9.7-15.6-16.1-25.4c-1.6-2.4-3.1-4.8-4.7-7l-0.1-0.1l-0.1,0c-9.7-0.7-18.2-1.3-24.3-1.8c-3-0.2-5.4-0.4-7.2-0.5
								c-0.8,0-1.4-0.1-1.9-0.1C332.8,188,332.5,188,332.5,188z"/>
						</g>
					</g>
				</g>
				<g>
					<g>
						<g>
							<path class="st4" d="M352.1,193.9C352.1,193.9,352.1,193.9,352.1,193.9C352.1,193.9,352.1,193.9,352.1,193.9L352.1,193.9z"/>
						</g>
					</g>
					<g>
						<g>
							<path class="st4" d="M351.3,194.4c0.1-0.4,0.4-0.5,0.8-0.5c0.4,0.1,0.6,0.2,0.8,0.5c0.3,0.3,0.4,0.8,0.2,1.1
								c-0.3,0.4-1,0.2-1.3-0.1C351.5,195.1,351.3,194.8,351.3,194.4z"/>
						</g>
					</g>
				</g>
			</g>
			<g>
				<g>
					<path class="st12" d="M366.1,217.8c0,0,1.2-3-1.9-3.4c-3.2-0.4-11.5,0-11.5,0s-4.5,0.5-3.6,3.7c0,0-2.7,2.4-1.2,5
						c1.4,2.6,2,1.8,2,1.8s-0.4,3.2,2,3.6c0,0,2.6,3.1,5,2.9c2.4-0.2,12.6-5.1,13.2-6c0.7-1,1.6-1.5,1.1-2.6c0,0,1.2-2.8-1.4-3.2
						C369.7,219.6,369.5,217.3,366.1,217.8z"/>
				</g>
			</g>
			<g>
				<g>
					<g>
						<path class="st13" d="M351.7,218.8c0,0.1,0.8,0.1,2.1,0.2c1.3,0,3.1,0,5.2,0c2-0.1,3.8,0,5.2-0.3c1.4-0.3,1.9-1.1,1.8-1.1
							c-0.1-0.1-0.6,0.6-1.9,0.8c-1.3,0.2-3.1,0.1-5.1,0.1c-2,0-3.8,0.1-5.2,0.2C352.5,218.7,351.7,218.8,351.7,218.8z"/>
					</g>
				</g>
			</g>
			<g>
				<g>
					<g>
						<path class="st13" d="M353.9,223.6c0,0,0.2,0.1,0.7,0.2c0.5,0.1,1.1,0.2,2,0.1c0.8,0,1.8-0.2,2.9-0.5c1.1-0.3,2.2-0.7,3.4-1.1
							c1.2-0.4,2.3-0.6,3.4-0.7c1,0,2.2,0,2.9-0.6c0.4-0.3,0.6-0.6,0.7-1c0.1-0.4,0-0.7-0.1-0.9c-0.3-0.5-0.6-0.5-0.6-0.5
							c0,0,0.2,0.1,0.4,0.5c0.2,0.4,0.1,1.1-0.6,1.5c-0.6,0.4-1.6,0.4-2.7,0.4c-1.1,0-2.3,0.3-3.5,0.7c-1.2,0.4-2.3,0.8-3.4,1.1
							c-1,0.3-2,0.5-2.8,0.6C355,223.8,354,223.5,353.9,223.6z"/>
					</g>
				</g>
			</g>
			<g>
				<g>
					<g>
						<path class="st13" d="M357.3,227.7c0,0.1,0.8-0.1,2.1-0.4c1.3-0.3,3.1-0.8,5-1.5c1.9-0.6,3.7-1.3,4.9-1.8c1.2-0.5,2-0.9,2-0.9
							c-0.1-0.1-3.2,0.9-7.1,2.2C360.5,226.6,357.3,227.5,357.3,227.7z"/>
					</g>
				</g>
			</g>
			<g>
				<g>
					<g>
						<path class="st13" d="M356.5,231.4c0,0.1,0.7,0,1.8-0.2c1.1-0.2,2.5-0.7,4-1.4c1.5-0.7,2.9-1.4,3.8-1.9c1-0.5,1.5-0.9,1.5-0.9
							c-0.1-0.2-2.6,0.9-5.6,2.4C359.1,230.8,356.5,231.3,356.5,231.4z"/>
					</g>
				</g>
			</g>
		</g>
		<g>
			<g>
				<g>
					<path class="st12" d="M457.5,202.9c0,0-6.5,25.9-14.5,35.4c-7.8,9.3-20.1,5-24.3-7c-4.2-12-11.8-39.3-11.8-39.3l9.3-7.1
						l16,31.1l7.2-21.2L457.5,202.9z"/>
				</g>
			</g>
			<g>
				<g>
					<g>
						<g>
							<path class="st12" d="M407.3,192.7l-6.8-9.9c0,0-2.3-0.5-2.9-0.9c-0.8-0.5-1.5-4.4-1.5-5.1c0-0.8-1.3-2.6-0.8-3.1
								c0.5-0.5,2.4-0.5,2.3-1.3c0-0.2-1.4-1.8-0.3-3c0.4-0.4,1.9-0.8,1.9-0.8l-0.1-3.8c0,0,2-4.4,4.1-2.8c0,0,7.8,6,8.6,7
								c0.8,1,3.8,13.5,4.3,15.8"/>
						</g>
					</g>
					<g>
						<g>
							<g>
								<path class="st13" d="M416.2,184.9c0,0,0-0.2-0.1-0.7c-0.1-0.5-0.2-1.1-0.4-1.9c-0.4-1.6-0.9-4-1.7-6.9
									c-0.4-1.5-0.8-3-1.3-4.7c-0.1-0.4-0.3-0.9-0.5-1.3c-0.2-0.5-0.6-0.8-0.9-1.1c-0.7-0.6-1.5-1.2-2.2-1.9
									c-1.6-1.3-3.2-2.5-4.9-3.9c-0.4-0.3-0.8-0.7-1.4-0.9c-0.6-0.2-1.3,0.1-1.8,0.4c-0.9,0.8-1.6,1.8-2.1,2.8l0,0l0,0.1
									c0,0.4,0,0.8,0,1.2c0,0.9,0.1,1.8,0.1,2.6l0.2-0.2c-0.5,0.1-0.9,0.3-1.4,0.5c-0.2,0.1-0.5,0.2-0.7,0.4
									c-0.2,0.2-0.3,0.4-0.4,0.7c-0.2,0.5,0,1,0.1,1.5c0.1,0.2,0.2,0.4,0.3,0.6l0.2,0.3l0,0.1c0,0,0,0,0,0c0,0,0,0,0,0.1
									c0,0.1-0.2,0.2-0.4,0.3c-0.2,0.1-0.4,0.1-0.6,0.2c-0.2,0.1-0.4,0.1-0.6,0.2c-0.2,0.1-0.4,0.2-0.7,0.5
									c-0.2,0.3-0.1,0.6,0,0.8c0.1,0.2,0.1,0.4,0.2,0.6c0.2,0.4,0.4,0.8,0.5,1.1c0.1,0.2,0.1,0.4,0.1,0.5c0,0.2,0,0.4,0.1,0.6
									c0.1,0.4,0.1,0.8,0.2,1.2c0.2,0.8,0.4,1.5,0.6,2.3c0.2,0.4,0.3,0.7,0.6,1c0.4,0.3,0.7,0.3,1.1,0.5c0.7,0.2,1.4,0.4,2,0.5
									l-0.1-0.1c2.1,3,3.8,5.4,5,7.2c0.6,0.8,1,1.5,1.4,1.9c0.3,0.4,0.5,0.7,0.5,0.7c0,0-0.1-0.3-0.4-0.7c-0.3-0.5-0.8-1.2-1.3-2
									c-1.2-1.8-2.9-4.2-4.9-7.3l0-0.1l-0.1,0c-0.6-0.2-1.3-0.3-2-0.5c-0.3-0.1-0.7-0.2-0.9-0.4c-0.2-0.2-0.3-0.6-0.5-0.9
									c-0.3-0.7-0.4-1.4-0.6-2.2c-0.1-0.4-0.1-0.8-0.2-1.2c0-0.2-0.1-0.4-0.1-0.6c0-0.2-0.1-0.5-0.1-0.7c-0.2-0.4-0.3-0.8-0.5-1.2
									c-0.1-0.2-0.2-0.4-0.2-0.6c-0.1-0.2-0.1-0.4,0-0.5c0-0.1,0.2-0.2,0.4-0.2c0.2-0.1,0.4-0.1,0.6-0.2c0.2-0.1,0.4-0.1,0.7-0.2
									c0.2-0.1,0.5-0.2,0.6-0.5c0-0.1,0-0.2,0-0.3c0,0,0-0.1,0-0.2l0-0.1l-0.2-0.3c-0.1-0.2-0.2-0.4-0.3-0.6
									c-0.1-0.4-0.2-0.8-0.1-1.2c0-0.2,0.2-0.4,0.3-0.5c0.1-0.1,0.3-0.2,0.5-0.3c0.4-0.2,0.9-0.3,1.3-0.4l0.2,0l0-0.2
									c0-0.9,0-1.7-0.1-2.6c0-0.4,0-0.8,0-1.2l0,0.1c0.5-1,1.1-2,1.9-2.6c0.4-0.3,0.9-0.5,1.3-0.3c0.4,0.1,0.9,0.5,1.3,0.9
									c1.7,1.3,3.4,2.6,4.9,3.9c0.8,0.6,1.5,1.2,2.2,1.8c0.4,0.3,0.7,0.6,0.8,1c0.2,0.4,0.3,0.8,0.5,1.2c0.5,1.7,1,3.3,1.4,4.7
									c0.8,2.9,1.4,5.2,1.8,6.9c0.2,0.8,0.4,1.4,0.5,1.9C416.1,184.7,416.2,184.9,416.2,184.9z"/>
							</g>
						</g>
					</g>
				</g>
				<g>
					<g>
						<g>
							<path class="st13" d="M399.2,168.7c0,0.1,0.8,0,2,0.1c0.6,0,1.3,0.3,2.1,0.5c0.9,0.2,1.8,0.1,2.8,0c1.9-0.3,3.5,0.5,4.4,1.4
								c0.9,0.9,1,1.7,1.1,1.7c0,0,0.1-0.9-0.8-1.9c-0.4-0.5-1.1-1-1.9-1.3c-0.8-0.4-1.8-0.4-2.8-0.3c-1,0.1-1.9,0.2-2.6,0
								c-0.8-0.2-1.6-0.4-2.2-0.4C400,168.4,399.2,168.6,399.2,168.7z"/>
						</g>
					</g>
				</g>
				<g>
					<g>
						<g>
							<path class="st13" d="M402,168.5c0.1,0.1,0.4-0.4,0.4-1c0-0.7-0.4-1.1-0.5-1c-0.1,0.1,0,0.5,0,1
								C401.9,168,401.9,168.4,402,168.5z"/>
						</g>
					</g>
				</g>
				<g>
					<g>
						<g>
							<path class="st13" d="M397.4,172.6c0,0.1,2.7,0.2,5.9-0.5c0.8-0.2,1.5-0.4,2.2-0.3c0.6,0.1,1.1,0.5,1.4,0.9
								c0.6,0.8,0.7,1.5,0.8,1.5c0,0,0.1-0.7-0.5-1.7c-0.3-0.5-0.8-1-1.6-1.2c-0.8-0.2-1.6,0.1-2.4,0.2
								C400,172.4,397.4,172.5,397.4,172.6z"/>
						</g>
					</g>
				</g>
				<g>
					<g>
						<g>
							<path class="st13" d="M396.3,176.2c0,0.1,0.6,0.1,1.5,0c0.9-0.1,2.1-0.4,3.4-0.7c0.7-0.1,1.3-0.2,1.8-0.2
								c0.6,0,1,0.2,1.3,0.5c0.6,0.5,0.6,1.2,0.6,1.2c0,0,0.1-0.1,0.1-0.4c0-0.3-0.2-0.7-0.5-1c-0.3-0.4-0.9-0.6-1.5-0.7
								c-0.6-0.1-1.3,0-2,0.2c-1.3,0.3-2.5,0.6-3.4,0.8C396.9,176.1,396.3,176.1,396.3,176.2z"/>
						</g>
					</g>
				</g>
				<g>
					<g>
						<g>
							<path class="st13" d="M398.6,179c-0.1,0.1,0.6,0.8,1.8,0.8l-0.2-0.2c0,0.2,0,0.4,0.1,0.6c0.2,1.4,0.4,2.5,0.6,2.5
								c0.1,0,0.1-1.2-0.1-2.5c0-0.2-0.1-0.4-0.1-0.6l0-0.2l-0.2,0C399.4,179.4,398.7,178.9,398.6,179z"/>
						</g>
					</g>
				</g>
			</g>
		</g>
		<g>
			<g>
				<g>
					<path class="st11" d="M447.3,176.6c0,0,13.2,3.2,13.2,20.8c0,17.5-4,26.2-4,26.2l-24.4-13.3l5.4-13.7L447.3,176.6z"/>
				</g>
			</g>
		</g>
		<g>
			<g>
				<path class="st7" d="M456.5,223.6c0,0-0.2-0.1-0.5-0.2c-0.4-0.2-0.8-0.4-1.4-0.7c-1.3-0.7-3-1.6-5.2-2.7
					c-4.4-2.4-10.5-5.7-17.4-9.4l-0.2-0.1l0.1-0.2c0.4-1.1,0.9-2.2,1.3-3.4c1.6-4,3-7.9,4.4-11.4c0.7-1.8,1.3-3.4,1.9-5
					c0.6-1.6,1.2-3,1.9-4.3c1.4-2.5,3-4.3,4.4-5.1c0.7-0.4,1.3-0.6,1.7-0.7c0.2,0,0.4-0.1,0.5-0.1c0.1,0,0.2,0,0.2,0
					c0,0.1-0.9,0-2.3,0.9c-1.3,0.8-2.9,2.6-4.2,5.1c-0.7,1.2-1.3,2.7-1.9,4.2c-0.6,1.6-1.2,3.2-1.9,5c-1.3,3.5-2.8,7.4-4.4,11.4
					c-0.4,1.2-0.9,2.3-1.3,3.4l-0.1-0.3c6.8,3.8,12.9,7.1,17.3,9.5c2.1,1.2,3.9,2.2,5.1,2.9c0.6,0.3,1,0.6,1.4,0.8
					C456.4,223.5,456.5,223.6,456.5,223.6z"/>
			</g>
		</g>
	</g>
</g>
</svg>
