<?xml version="1.0" encoding="utf-8"?>
<!-- Generator: Adobe Illustrator 26.5.0, SVG Export Plug-In . SVG Version: 6.00 Build 0)  -->
<svg version="1.1" id="Layer_1" xmlns="http://www.w3.org/2000/svg" xmlns:xlink="http://www.w3.org/1999/xlink" x="0px" y="0px"
	 width="50px" height="50px" viewBox="0 0 50 50" style="enable-background:new 0 0 50 50;" xml:space="preserve">
<style type="text/css">
	.st0{fill:#FFFFFF;}
</style>
<g>
	<path class="st0" d="M4.5,26.2c0.2-0.4,0.5-0.5,0.9-0.5c0.6,0,1.2,0,1.8,0c0.1-4.8,1.7-8.9,5-12.3s7.3-5.2,12.1-5.5
		c0-0.7,0-1.3,0-2c-0.4,0-0.9,0-1.3,0c0-0.5,0-0.9,0-1.3c1.4,0,2.7,0,4.1,0c0,0.4,0,0.9,0,1.3c-0.4,0-0.9,0-1.3,0c0,0.7,0,1.4,0,2.1
		c4.7,0.3,8.8,2,12.1,5.5c3.3,3.4,4.9,7.5,5,12.3c0.6,0,1.2,0,1.8,0c0.4,0,0.7,0.1,0.9,0.5c0,0.2,0,0.5,0,0.7c0,0.1-0.1,0.1-0.1,0.2
		c-0.4,2.1-1.7,3.4-3.7,3.9c-0.2,0.1-0.5,0.1-0.7,0.1c0,0.1,0.1,0.1,0.1,0.2c0.6,1.4,0.4,2.5-0.8,3.5c-2.7,2.2-5.4,4.5-8.1,6.7
		c-1,0.8-2.2,1.2-3.5,1.2c-5.2,0-10.3,0-15.5,0c-0.2,0-0.3,0-0.5,0c0,0.6,0,1.2,0,1.8c0,0.4-0.1,0.7-0.5,0.9c-2.6,0-5.1,0-7.7,0
		c0-0.5,0-0.9,0-1.4c2.3,0,4.5,0,6.8,0c0-3.4,0-6.8,0-10.2c-2.3,0-4.5,0-6.8,0c0-0.5,0-0.9,0-1.4c2.3,0,4.5,0,6.8,0
		c0.4,0,0.7,0.1,1.1,0.1c0.1,0,0.2,0,0.2-0.1c0.5-0.4,1.1-0.9,1.7-1.4c-0.2,0-0.4,0-0.5,0c-1.4,0-2.9,0-4.3,0c-1.7,0-3-0.7-4-2.1
		c-0.5-0.6-0.7-1.4-0.9-2.2C4.5,26.7,4.5,26.4,4.5,26.2z M41.4,25.6c-0.3-6.2-3-11.1-8.4-14.2c-5.8-3.2-11.7-3-17.2,0.7
		c-4.7,3.1-7,7.8-7.2,13.5C19.5,25.6,30.4,25.6,41.4,25.6z M12.7,41.4c0.2,0,0.4,0,0.5,0c5.1,0,10.2,0,15.3,0c1.1,0,2-0.3,2.9-1
		c1.6-1.4,3.3-2.7,4.9-4.1c1.1-0.9,2.1-1.7,3.2-2.6c0.4-0.4,0.6-0.8,0.5-1.4c-0.2-0.5-0.5-0.8-1.1-0.9c-0.4-0.1-0.8,0.1-1.1,0.4
		c-2.4,1.7-4.9,3.5-7.3,5.2c-0.3,0.2-0.7,0.3-1.1,0.3c-2.5,0-5,0-7.4,0c-0.2,0-0.4,0-0.6,0c-0.8-0.1-1.3-0.5-1.6-1.3
		c-0.3-0.7-0.2-1.4,0.3-2s1.1-0.8,1.8-0.8c1.4,0,2.8,0,4.2,0c0.5,0,0.8-0.2,1-0.7c0.2-0.4,0.1-0.8-0.2-1c-0.2-0.2-0.6-0.3-0.9-0.3
		c-2.8,0-5.7,0-8.5,0c-0.7,0-1.2,0.2-1.7,0.6c-0.9,0.7-1.7,1.4-2.6,2.1c-0.2,0.2-0.3,0.4-0.3,0.6c0,2.1,0,4.2,0,6.4
		C12.7,41,12.7,41.2,12.7,41.4z M5.9,27.1C6,27.3,6,27.6,6.1,27.8c0.7,1.4,1.8,2,3.4,2c5.7,0,11.4,0,17.2,0c4.5,0,9,0,13.5,0
		c0.3,0,0.7,0,1-0.1c1.3-0.2,2.5-1.3,2.8-2.6C31.3,27.1,18.7,27.1,5.9,27.1z M36.2,31.2c-2.7,0-5.4,0-8,0c0,0.1,0,0.1,0,0.1
		c0.6,1.6-0.5,3.3-2.4,3.3c-1.3,0-2.6,0-3.9,0c-0.2,0-0.4,0-0.5,0c-0.3,0.1-0.5,0.3-0.5,0.6s0.2,0.6,0.5,0.7c0.1,0,0.3,0,0.4,0
		c2.5,0,5,0,7.4,0c0.2,0,0.3,0,0.4-0.1C31.9,34.3,34,32.7,36.2,31.2z"/>
	<path class="st0" d="M7.9,38.6c1.1,0,2,0.9,2,2S9,42.7,7.8,42.7c-1.1,0-2-0.9-2-2C5.9,39.6,6.8,38.6,7.9,38.6z M7.9,40
		c-0.4,0-0.7,0.3-0.7,0.7s0.3,0.7,0.7,0.7c0.4,0,0.7-0.3,0.7-0.7S8.3,40,7.9,40z"/>
	<path class="st0" d="M15.7,15.7c-0.3-0.3-0.6-0.7-0.9-1c2.9-2.7,6.3-4,10.3-4.1c0,0.4,0,0.9,0,1.4C21.4,12.1,18.3,13.3,15.7,15.7z"
		/>
	<path class="st0" d="M12.4,17.4c0.4-0.6,0.9-1.1,1.3-1.7c0.4,0.3,0.7,0.6,1,0.9c-0.4,0.5-0.8,1-1.2,1.6
		C13.2,17.9,12.9,17.7,12.4,17.4z"/>
</g>
</svg>
