<?xml version="1.0" encoding="utf-8"?>
<!-- Generator: Adobe Illustrator 26.2.1, SVG Export Plug-In . SVG Version: 6.00 Build 0)  -->
<svg version="1.1" id="Layer_1" xmlns="http://www.w3.org/2000/svg" xmlns:xlink="http://www.w3.org/1999/xlink" x="0px" y="0px"
	 width="39.6px" height="36.4px" viewBox="0 0 39.6 36.4" style="enable-background:new 0 0 39.6 36.4;" xml:space="preserve">
<style type="text/css">
	.st0{fill:#292974;}
</style>
<g>
	<path class="st0" d="M37.12,19.55c-0.21,0.21-0.38,0.49-0.63,0.61c-0.26,0.12-0.59,0.09-0.92,0.14c0,0.6,0,1.2,0.01,1.81
		c0,0.07,0.07,0.15,0.13,0.2c0.18,0.16,0.28,0.38,0.16,0.57c-0.1,0.15-0.32,0.31-0.49,0.32c-0.74,0.03-1.49,0.03-2.23,0
		c-0.16-0.01-0.4-0.16-0.46-0.31c-0.06-0.14,0.06-0.37,0.11-0.55c0.03-0.09,0.14-0.16,0.14-0.24c0.01-0.59,0.01-1.19,0.01-1.81
		c-0.9,0-1.77,0-2.67,0c0,0.91,0,1.83,0,2.75c0.01,0.01,0.03,0.03,0.05,0.03c0.96,0.1,1.19,0.37,1.19,1.34c0,0.32,0,0.63,0,0.95
		c-0.01,0.66-0.38,1.04-1.05,1.07c-0.15,0.01-0.31,0-0.5,0c0,0.64-0.01,1.25,0.01,1.85c0,0.08,0.13,0.14,0.16,0.23
		c0.06,0.17,0.17,0.37,0.12,0.52c-0.05,0.14-0.26,0.32-0.4,0.33c-0.79,0.03-1.58,0.03-2.37,0c-0.15-0.01-0.36-0.17-0.42-0.31
		c-0.05-0.14,0.05-0.35,0.1-0.52c0.04-0.14,0.15-0.27,0.16-0.41c0.02-0.55,0.01-1.1,0.01-1.66c-1.31,0-2.58,0-3.89,0
		c0,0.62,0,1.24,0.01,1.85c0,0.07,0.12,0.13,0.15,0.2c0.06,0.17,0.19,0.37,0.14,0.51c-0.06,0.15-0.27,0.34-0.43,0.34
		c-0.78,0.04-1.56,0.04-2.33,0c-0.16-0.01-0.37-0.18-0.43-0.33c-0.05-0.13,0.06-0.34,0.12-0.51c0.03-0.1,0.14-0.18,0.14-0.27
		c0.01-0.58,0.01-1.17,0.01-1.83c-0.68,0-1.34,0-2.06,0c0,0.67-0.01,1.29,0.01,1.92c0,0.07,0.13,0.12,0.16,0.2
		c0.06,0.17,0.16,0.37,0.11,0.52c-0.05,0.14-0.26,0.31-0.41,0.32c-0.79,0.03-1.58,0.03-2.37,0c-0.15-0.01-0.36-0.18-0.41-0.32
		c-0.05-0.14,0.06-0.35,0.11-0.52c0.04-0.14,0.15-0.27,0.16-0.4c0.02-0.55,0.01-1.1,0.01-1.66c-1.32,0-2.59,0-3.91,0
		c0,0.62-0.01,1.21,0.01,1.8c0,0.08,0.12,0.15,0.15,0.23c0.07,0.18,0.19,0.39,0.14,0.54c-0.05,0.15-0.28,0.32-0.44,0.33
		c-0.76,0.03-1.53,0.03-2.3,0c-0.16-0.01-0.39-0.18-0.44-0.32c-0.05-0.15,0.07-0.36,0.13-0.54c0.03-0.09,0.13-0.17,0.13-0.25
		c0.01-0.58,0.01-1.17,0.01-1.81c-0.17,0-0.32,0.01-0.48,0c-0.68-0.03-1.04-0.41-1.05-1.1c0-0.37,0-0.74,0-1.11
		c0.01-0.72,0.34-1.08,1.06-1.13c0.06,0,0.11-0.01,0.21-0.02c0-0.46,0-0.92,0-1.38c0-0.46,0-0.92,0-1.4c-0.91,0-1.78,0-2.72,0
		c0,0.46,0,0.93,0,1.4c0,0.27-0.02,0.52,0.23,0.76c0.28,0.26,0.05,0.75-0.35,0.76c-0.79,0.03-1.58,0.02-2.37-0.01
		c-0.15-0.01-0.36-0.18-0.41-0.32c-0.05-0.14,0.06-0.35,0.11-0.52c0.05-0.15,0.16-0.29,0.16-0.43c0.02-0.54,0.01-1.08,0.01-1.67
		c-0.67,0.06-1.24-0.04-1.54-0.7c0-0.63,0-1.26,0-1.89c0.23-0.53,0.64-0.8,1.28-0.73c0-0.14,0-0.26,0-0.38c0-0.78,0-1.55,0-2.33
		c0-0.4,0.19-0.62,0.51-0.62c0.32,0,0.5,0.22,0.51,0.63c0.01,0.77,0,1.53,0,2.3c0,0.12,0,0.24,0,0.38c1.54,0,3.04,0,4.6,0
		c0-0.33-0.02-0.64,0-0.95c0.11-1.6,1.18-2.65,2.78-2.75c0.08-0.01,0.15-0.01,0.27-0.02c0-0.29,0-0.57,0-0.84c0-0.78,0-1.55,0-2.33
		c-0.01-1.17-0.75-1.93-1.92-1.95c-1.27-0.02-2.55-0.02-3.82,0C5.51,8.07,4.78,8.83,4.77,10c0,0.55,0.01,1.1,0,1.65
		c-0.01,0.43-0.31,0.69-0.65,0.54c-0.14-0.06-0.33-0.24-0.33-0.37c-0.01-0.95-0.16-1.92,0.13-2.85C4.24,7.92,5.25,7.1,6.37,7.07
		c1.42-0.04,2.84-0.06,4.26-0.01c1.67,0.06,2.79,1.26,2.81,2.93c0.01,0.98,0,1.96,0,2.94c0,0.08,0.01,0.15,0.02,0.25
		c0.49,0,0.97,0,1.5,0c0-0.14,0-0.27,0-0.41c0.01-1.07-0.01-2.14,0.05-3.2c0.07-1.27,1.22-2.44,2.48-2.49
		c1.54-0.05,3.09-0.05,4.63,0c1.26,0.04,2.43,1.23,2.49,2.48c0.05,1.07,0.03,2.14,0.04,3.21c0,0.13,0,0.26,0,0.41c0.53,0,1,0,1.52,0
		c0-0.38,0-0.75,0-1.12c0.01-0.87-0.01-1.74,0.06-2.6c0.11-1.24,1.25-2.35,2.5-2.39c1.5-0.05,3-0.05,4.5,0
		c1.37,0.04,2.51,1.2,2.6,2.56c0.04,0.67,0.02,1.35,0.02,2.02c0,0.34-0.18,0.53-0.47,0.55c-0.3,0.02-0.52-0.18-0.53-0.53
		c-0.02-0.52-0.03-1.04,0-1.55c0.08-1.15-0.74-2.13-2.1-2.08c-1.16,0.04-2.32,0.01-3.48,0.01c-1.34,0-2.07,0.73-2.08,2.06
		c0,1.01,0,2.02,0,3.07c0.99,0,1.82,0.33,2.45,1.1c0.62,0.77,0.65,1.67,0.61,2.62c1.54,0,3.04,0,4.6,0c0-0.11,0-0.23,0-0.35
		c0-0.75,0-1.51,0-2.26c0-0.13,0.01-0.27,0.06-0.4c0.1-0.24,0.3-0.33,0.55-0.28c0.27,0.05,0.4,0.24,0.4,0.51c0,0.8,0,1.6,0,2.4
		c0,0.12,0,0.24,0,0.4c0.62-0.05,1.04,0.2,1.28,0.74C37.12,18.29,37.12,18.92,37.12,19.55z M10.39,23.06c2.55,0,5.07,0,7.62,0
		c0.01-0.07,0.02-0.13,0.02-0.18c0-2.25,0.01-4.5,0-6.75c-0.01-1.16-0.79-1.9-1.95-1.91c-1.25-0.01-2.5,0-3.75,0
		c-0.18,0-0.36,0.01-0.53,0.06c-0.88,0.22-1.4,0.9-1.4,1.86c-0.01,2.24,0,4.48,0,6.72C10.37,22.91,10.38,22.98,10.39,23.06z
		 M29.21,23.06c0.01-0.08,0.02-0.13,0.02-0.17c0-2.26,0.01-4.52,0-6.79c-0.01-1.15-0.77-1.89-1.93-1.89c-1.22-0.01-2.44,0-3.65,0
		c-1.33,0-2.07,0.74-2.07,2.07c0,2.14,0,4.28,0,6.41c0,0.12,0,0.24,0,0.37C24.14,23.06,26.66,23.06,29.21,23.06z M23.6,13.19
		c0-1.19,0.03-2.35-0.01-3.5c-0.03-0.88-0.77-1.59-1.66-1.61c-1.42-0.03-2.84-0.03-4.26,0c-0.89,0.02-1.62,0.71-1.66,1.61
		c-0.06,1.13-0.03,2.27-0.03,3.41c0,0.03,0.03,0.06,0.04,0.09c0.08,0.01,0.16,0.01,0.24,0.02c1.52,0.1,2.57,1.08,2.74,2.61
		c0.04,0.36,0.04,0.73,0.06,1.1c0.51,0,0.98,0,1.49,0c-0.02-0.93,0-1.84,0.62-2.61C21.79,13.53,22.6,13.19,23.6,13.19z M20.32,25.38
		c3.41,0,6.78,0,10.15,0c0-0.44,0-0.85,0-1.26c-3.39,0-6.77,0-10.15,0C20.32,24.54,20.32,24.95,20.32,25.38z M19.27,24.12
		c-3.39,0-6.77,0-10.14,0c0,0.44,0,0.85,0,1.27c3.39,0,6.76,0,10.14,0C19.27,24.96,19.27,24.55,19.27,24.12z M30.24,17.95
		c0,0.34,0.02,0.64-0.01,0.94c-0.02,0.29,0.08,0.36,0.36,0.36c1.72-0.01,3.45-0.01,5.17-0.01c0.11,0,0.21-0.01,0.32-0.02
		c0-0.44,0-0.85,0-1.27C34.14,17.95,32.21,17.95,30.24,17.95z M9.32,19.22c0-0.44,0-0.85,0-1.27c-1.95,0-3.87,0-5.8,0
		c0,0.43,0,0.85,0,1.27C5.47,19.22,7.39,19.22,9.32,19.22z M19.06,23.12c0.51,0,0.99,0,1.48,0c0-0.99,0-1.9,0-2.84
		c-0.5,0-0.99,0-1.48,0C19.06,21.22,19.06,22.12,19.06,23.12z M19.06,19.22c0.51,0,0.99,0,1.48,0c0-0.43,0-0.84,0-1.25
		c-0.5,0-0.99,0-1.48,0C19.06,18.39,19.06,18.79,19.06,19.22z M33.98,20.27c0,0.66,0,1.28,0,1.9c0.2,0,0.37,0,0.55,0
		c0-0.65,0-1.27,0-1.9C34.34,20.27,34.18,20.27,33.98,20.27z M11.2,28.34c0-0.64,0-1.26,0-1.89c-0.19,0-0.36,0-0.54,0
		c0,0.64,0,1.27,0,1.89C10.85,28.34,11.02,28.34,11.2,28.34z M17.17,26.44c0,0.64,0,1.26,0,1.89c0.19,0,0.36,0,0.54,0
		c0-0.65,0-1.27,0-1.89C17.52,26.44,17.36,26.44,17.17,26.44z M22.41,28.34c0-0.64,0-1.27,0-1.9c-0.2,0-0.37,0-0.55,0
		c0,0.65,0,1.27,0,1.9C22.04,28.34,22.2,28.34,22.41,28.34z M5.59,22.18c0-0.66,0-1.28,0-1.91c-0.19,0-0.36,0-0.53,0
		c0,0.65,0,1.27,0,1.91C5.24,22.18,5.41,22.18,5.59,22.18z M28.38,26.44c0,0.65,0,1.27,0,1.89c0.19,0,0.36,0,0.54,0
		c0-0.65,0-1.27,0-1.89C28.73,26.44,28.57,26.44,28.38,26.44z"/>
	<path class="st0" d="M19.06,23.12c0-1,0-1.9,0-2.84c0.5,0,0.98,0,1.48,0c0,0.93,0,1.85,0,2.84C20.04,23.12,19.56,23.12,19.06,23.12
		z"/>
	<path class="st0" d="M19.06,19.22c0-0.43,0-0.83,0-1.25c0.49,0,0.97,0,1.48,0c0,0.42,0,0.82,0,1.25
		C20.05,19.22,19.57,19.22,19.06,19.22z"/>
</g>
</svg>
