<?xml version="1.0" encoding="utf-8"?>
<!-- Generator: Adobe Illustrator 26.5.0, SVG Export Plug-In . SVG Version: 6.00 Build 0)  -->
<svg version="1.1" id="Layer_1" xmlns="http://www.w3.org/2000/svg" xmlns:xlink="http://www.w3.org/1999/xlink" x="0px" y="0px"
	 width="50px" height="50px" viewBox="0 0 50 50" style="enable-background:new 0 0 50 50;" xml:space="preserve">
<style type="text/css">
	.st0{fill:#0C62C1;}
</style>
<g>
	<path class="st0" d="M3.5,14.6c0.2-0.8,0.3-1.6,0.6-2.4C5.5,7.9,9.8,5,14.3,5.4c4.8,0.4,8.5,3.7,9.3,8.5c0.2,1.3,0.2,2.6,0.3,3.8
		c0.2,2.8,0.3,5.5,0.5,8.3c0.1,1.2-0.2,1.7-1.4,2.3c0.1,1.1,0.3,2.2,0.4,3.3c0.2,1.5,0.4,3.1,0.4,4.6c0,2.8-1,5.2-3.3,7
		c-3.4,2.7-8.5,1.9-11.1-1.6c-1.1-1.5-1.6-3.2-1.8-4.9c-0.1-0.5-0.2-1.1-0.3-1.6c-0.1-0.6,0.1-1,0.6-1.1c0.5-0.1,0.9,0.2,1,0.8
		c0.2,1.1,0.4,2.3,0.7,3.4c0.6,2.1,1.8,3.7,3.9,4.6c3.6,1.5,7.5-0.6,8.4-4.5c0.3-1.3,0.3-2.6,0.1-3.9c-0.3-2.1-0.5-4.2-0.7-6.3
		c0-0.2-0.1-0.4-0.3-0.5c-2.3-1.8-4.8-2.3-7.6-1.7c-2,0.5-3.7,1.5-5,3.1c-0.5,0.6-1.1,0.9-1.9,0.7c-0.8-0.2-1.2-0.8-1.3-1.5
		c-0.3-2.1-0.6-4.2-0.9-6.3c-0.2-1.7-0.5-3.5-0.7-5.2c0,0,0-0.1-0.1-0.1C3.5,15.7,3.5,15.1,3.5,14.6z M22.4,21.4c0-0.2,0-0.3,0-0.4
		c-0.1-1.7-0.2-3.5-0.3-5.2c-0.1-0.9-0.1-1.8-0.4-2.6c-1.2-4-4.9-6.4-9-6c-4.5,0.5-7.9,4.6-7.5,9.1c0.2,1.4,0.4,2.9,0.6,4.3
		C5.9,21.3,6,22,6.1,22.9c2.3-2,4.9-3.1,7.9-3.4C17,19.1,19.7,20,22.4,21.4z M6.8,27.8c2-2.6,4.6-3.8,7.7-4.1
		c3.1-0.3,5.8,0.7,8.2,2.8c-0.1-1.1-0.1-2-0.2-2.9c0-0.1-0.2-0.3-0.3-0.3c-0.7-0.4-1.5-0.8-2.3-1.2c-4.6-2.1-9.7-0.9-13.1,2.3
		c-0.4,0.4-0.6,0.7-0.5,1.3C6.6,26.3,6.7,27,6.8,27.8z"/>
	<path class="st0" d="M46.5,16.3c-0.1,1-0.3,1.9-0.4,2.9c-0.4,2.9-0.8,5.8-1.2,8.6c-0.2,1.5-1.5,1.9-2.4,1.5
		c-0.3-0.1-0.6-0.4-0.8-0.6c-1.9-2.4-4.5-3.3-7.5-3.3c-2,0-3.8,0.7-5.3,2c-0.1,0.1-0.2,0.2-0.2,0.3c-0.3,2.6-0.7,5.2-0.9,7.8
		c-0.2,2.4,0.5,4.6,2.5,6.2c2.9,2.3,7.2,1.5,9.1-1.7c0.7-1.1,1-2.4,1.2-3.6c0.1-0.6,0.2-1.3,0.4-1.9c0.1-0.5,0.5-0.8,1-0.7
		c0.4,0.1,0.7,0.5,0.6,0.9c-0.3,1.5-0.5,3.1-1.1,4.6c-1,2.8-3,4.7-6,5.2c-3.8,0.7-7.4-1.4-8.8-5c-0.7-1.9-0.7-3.8-0.5-5.8
		c0.3-1.8,0.4-3.6,0.6-5.4c0,0,0-0.1,0-0.1c-1.2-0.5-1.5-1-1.4-2.3c0.2-2.7,0.3-5.4,0.5-8c0.1-1.6,0.1-3.3,0.5-4.9
		c0.9-3.8,4.3-6.9,8.2-7.5c4.8-0.7,9.1,1.7,11,6.1c0.3,0.8,0.5,1.7,0.7,2.6c0,0.1,0.1,0.2,0.1,0.4C46.5,15.1,46.5,15.7,46.5,16.3z
		 M43.9,22.7c0-0.3,0.1-0.5,0.1-0.7c0.2-1.7,0.4-3.4,0.7-5c0.8-4.7-2.3-9-7-9.8c-4.9-0.8-9.5,2.9-9.8,7.9c-0.1,1.8-0.2,3.6-0.3,5.4
		c0,0.3,0,0.5,0,0.8C33.4,18.5,38.8,18.7,43.9,22.7z M43.2,27.9c0.1-1.1,0.3-2,0.4-3c0-0.1-0.1-0.2-0.1-0.3c-2.1-2-4.5-3.2-7.3-3.4
		c-2.8-0.3-5.4,0.4-7.9,1.7c-0.6,0.3-1,0.6-0.8,1.3c0,0.1,0,0.3,0,0.4c0,0.6-0.1,1.3-0.1,2c2.4-2.1,5.1-3.1,8.2-2.8
		C38.6,24,41.2,25.3,43.2,27.9z"/>
	<path class="st0" d="M6.7,31.5c0-0.5,0.4-0.8,0.9-0.8c0.5,0,0.8,0.4,0.8,0.8c0,0.5-0.4,0.8-0.9,0.8C7.1,32.3,6.7,32,6.7,31.5z"/>
	<path class="st0" d="M42.4,30.7c0.5,0,0.8,0.4,0.8,0.9c0,0.5-0.4,0.8-0.8,0.8c-0.5,0-0.9-0.4-0.8-0.9C41.6,31,42,30.7,42.4,30.7z"
		/>
</g>
</svg>
