<?xml version="1.0" encoding="utf-8"?>
<!-- Generator: Adobe Illustrator 26.0.2, SVG Export Plug-In . SVG Version: 6.00 Build 0)  -->
<svg version="1.1" id="Layer_1" xmlns="http://www.w3.org/2000/svg" xmlns:xlink="http://www.w3.org/1999/xlink" x="0px" y="0px"
	 width="56.4px" height="56.4px" viewBox="0 0 56.4 56.4" style="enable-background:new 0 0 56.4 56.4;" xml:space="preserve">
<style type="text/css">
	.st0{fill:#333333;}
</style>
<g>
	<path class="st0" d="M28.5,7.1c0.7,0.3,0.9,0.8,0.9,1.5c0,1,0,2,0,3.1c0,0.5,0.1,0.6,0.6,0.7c2.4,0.4,4.4,1.4,6.1,3.1
		c1.8,1.8,2.8,3.9,3.2,6.4c0.1,0.6,0.1,1.1,0.1,1.7c0,2.5,0,4.9,0,7.4c0,3.8,1.1,7.2,3.5,10.1c0.3,0.4,0.7,0.8,1,1.2
		c0.4,0.4,0.5,0.9,0.3,1.4s-0.6,0.8-1.2,0.8c-3.5,0-7,0-10.5,0c-0.6,0-0.6,0-0.6,0.6c0,0.6,0,1.3-0.2,1.9c-0.6,1.7-2.4,2.7-4.1,2.5
		c-1.8-0.3-3.1-1.8-3.2-3.6c0-0.3,0-0.7,0-1c0-0.2-0.1-0.3-0.3-0.3c-0.1,0-0.2,0-0.4,0c-3.4,0-6.8,0-10.2,0c-0.6,0-1.1-0.2-1.4-0.8
		c-0.2-0.6,0-1.1,0.4-1.5c2.5-2.6,4-5.7,4.4-9.3c0.1-0.6,0.1-1.2,0.1-1.8c0-2.6,0-5.2,0-7.9c0-2.8,1-5.3,2.9-7.4
		c1.7-1.9,3.9-3.1,6.4-3.5c0.4-0.1,0.5-0.2,0.5-0.7c0-1,0-2,0-3.1c0-0.7,0.2-1.3,0.9-1.5C28.1,7.1,28.3,7.1,28.5,7.1z M28.2,41.9
		c3.9,0,7.7,0,11.6,0c0.1,0,0.3,0.1,0.4-0.1c0.1-0.1-0.1-0.2-0.2-0.3c-1.3-1.9-2.2-4-2.7-6.2c-0.3-1.3-0.4-2.7-0.5-4.1
		c0-2.9,0.2-5.9-0.1-8.8c-0.2-2.2-1.2-4-2.8-5.4c-1.9-1.7-4.2-2.5-6.8-2.2c-2.1,0.2-3.9,1.2-5.4,2.7c-1.6,1.8-2.3,3.9-2.3,6.2
		c0,2.5,0,4.9,0,7.4c0,0.7,0,1.5-0.1,2.2c-0.4,3-1.4,5.7-3.1,8.1c-0.1,0.1-0.2,0.2-0.2,0.3c0.1,0.2,0.3,0.1,0.4,0.1
		C20.5,41.9,24.3,41.9,28.2,41.9z M27,45.1c0,0.2,0,0.4,0,0.7c0.1,0.6,0.6,1,1.2,1c0.6,0,1.1-0.4,1.2-1c0-0.3,0-0.7,0-1
		c0-0.3-0.1-0.4-0.4-0.4c-0.4,0-0.9,0-1.3,0C26.9,44.4,27,44.3,27,45.1z"/>
	<path class="st0" d="M7.2,22.7c0.1-3.7,1.2-7.2,3.1-10.4c1-1.7,2.3-3.2,3.7-4.5c0.3-0.2,0.5-0.5,0.9-0.6c0.5-0.1,1.1,0.2,1.4,0.6
		c0.2,0.5,0.2,1-0.2,1.4c-1,1-2,2-2.8,3.1c-1.9,2.6-3,5.5-3.4,8.7c-0.1,0.7-0.1,1.5-0.1,2.2c0,0.8-0.5,1.3-1.2,1.3
		c-0.7,0-1.2-0.5-1.3-1.3C7.2,23.1,7.2,22.9,7.2,22.7z"/>
	<path class="st0" d="M49.2,22.7c0,0.2,0,0.4,0,0.6c0,0.8-0.5,1.3-1.3,1.3c-0.7,0-1.2-0.5-1.2-1.3c0-1.6-0.2-3.1-0.6-4.6
		c-0.9-3.4-2.6-6.3-5.1-8.7c-0.2-0.2-0.5-0.4-0.7-0.7c-0.4-0.4-0.4-1.1-0.1-1.5c0.4-0.5,1-0.7,1.5-0.4c0.2,0.1,0.4,0.2,0.5,0.3
		c3.6,3.3,5.9,7.4,6.7,12.3C49.1,20.9,49.2,21.8,49.2,22.7z"/>
	<path class="st0" d="M12.1,22.8c0.1-3.6,1.4-6.8,3.6-9.7c0.6-0.7,1.2-1.3,1.9-2c0.6-0.6,1.3-0.5,1.8,0c0.5,0.5,0.5,1.2-0.1,1.8
		c-1.2,1.1-2.3,2.3-3,3.8c-1.1,2-1.6,4.2-1.7,6.5c0,1-0.9,1.6-1.7,1.2c-0.5-0.2-0.7-0.6-0.8-1.1C12.1,23.2,12.1,23,12.1,22.8z"/>
	<path class="st0" d="M44.3,22.8c0,0.1,0,0.3,0,0.4c0,0.8-0.5,1.3-1.2,1.3c-0.7,0-1.2-0.5-1.2-1.3c0-1.7-0.3-3.4-1-5
		c-0.7-1.8-1.8-3.4-3.3-4.8c-0.2-0.2-0.4-0.3-0.5-0.5c-0.5-0.5-0.5-1.2-0.1-1.7c0.5-0.5,1.1-0.6,1.7-0.2c0.6,0.5,1.2,1.1,1.7,1.6
		c2,2.3,3.3,4.9,3.8,7.9C44.2,21.4,44.3,22.1,44.3,22.8z"/>
</g>
</svg>
