<?xml version="1.0" encoding="utf-8"?>
<!-- Generator: Adobe Illustrator 26.0.2, SVG Export Plug-In . SVG Version: 6.00 Build 0)  -->
<svg version="1.1" id="Layer_1" xmlns="http://www.w3.org/2000/svg" xmlns:xlink="http://www.w3.org/1999/xlink" x="0px" y="0px"
	 width="56.4px" height="56.4px" viewBox="0 0 56.4 56.4" style="enable-background:new 0 0 56.4 56.4;" xml:space="preserve">
<style type="text/css">
	.st0{fill:#333333;}
</style>
<g>
	<path class="st0" d="M28.2,49.4C16.3,49.4,6.8,39.8,6.9,28.1C6.9,16.3,16.5,6.8,28.3,6.8c11.8,0.1,21.3,9.7,21.2,21.6
		C49.4,40,39.8,49.5,28.2,49.4z M47.8,28.1c0-10.8-8.8-19.6-19.5-19.6c-10.9,0-19.6,8.8-19.7,19.6c0,10.9,8.8,19.6,19.8,19.6
		C39,47.7,47.8,38.9,47.8,28.1z"/>
	<path class="st0" d="M28.2,54.6c0-0.6,0-1.1,0-1.6c12.1-1,20.5-6.8,23.8-18.7c2.4-8.6,0-16.4-5.8-23.1c-0.1,0-0.1,0-0.2,0
		c0,0.4,0,0.8,0,1.2c0,0.4,0,0.8,0,1.2c-0.6,0-1.1,0-1.7,0c0-0.1,0-0.2,0-0.3c0-1.3,0-2.6,0-3.8c0-0.6,0.3-1,0.9-1
		c1.4,0,2.8,0,4.2,0c0,0.6,0,1.1,0,1.7c-0.6,0-1.1,0-1.8,0c4.8,5.4,7.2,11.6,7,18.6c-0.2,7.1-2.9,13.2-8,18.2
		C41.5,52,35.4,54.4,28.2,54.6z"/>
	<path class="st0" d="M16.5,6.3c-0.5,0.3-0.9,0.5-1.4,0.8c-0.3-0.5-0.6-0.9-0.9-1.4c0.5-0.3,1-0.6,1.5-0.9C16,5.3,16.2,5.8,16.5,6.3
		z"/>
	<path class="st0" d="M8.1,13.7c-0.5-0.3-0.9-0.6-1.4-1c0.4-0.5,0.7-0.9,1.1-1.4c0.4,0.4,0.9,0.7,1.3,1.1
		C8.7,12.9,8.4,13.3,8.1,13.7z"/>
	<path class="st0" d="M14.2,50.6c0.3-0.5,0.6-1,0.9-1.4c0.5,0.3,0.9,0.5,1.4,0.8c-0.3,0.5-0.5,1-0.8,1.5
		C15.2,51.2,14.7,50.9,14.2,50.6z"/>
	<path class="st0" d="M22.2,53.9c-0.6-0.2-1.1-0.3-1.7-0.4c0.2-0.5,0.3-1.1,0.5-1.6c0.5,0.1,1,0.3,1.5,0.4
		C22.4,52.8,22.3,53.3,22.2,53.9z"/>
	<path class="st0" d="M21,4.5c-0.2-0.5-0.3-1-0.5-1.6c0.5-0.2,1.1-0.3,1.7-0.5c0.1,0.6,0.3,1.1,0.4,1.7C22,4.2,21.5,4.3,21,4.5z"/>
	<path class="st0" d="M19.4,5c-0.5,0.2-1,0.4-1.5,0.6c-0.2-0.5-0.5-1-0.7-1.5c0.5-0.2,1-0.4,1.6-0.7C19,3.9,19.2,4.4,19.4,5z"/>
	<path class="st0" d="M4.1,17.2c0.5,0.2,1,0.5,1.5,0.7c-0.2,0.5-0.4,1-0.6,1.5c-0.5-0.2-1-0.4-1.6-0.6C3.7,18.3,3.9,17.8,4.1,17.2z"
		/>
	<path class="st0" d="M3.6,25.7c-0.6-0.1-1.1-0.1-1.7-0.2C1.9,25,2,24.4,2.1,23.8c0.6,0.1,1.1,0.2,1.7,0.3
		C3.7,24.7,3.6,25.2,3.6,25.7z"/>
	<path class="st0" d="M2.9,20.5C3.5,20.7,4,20.8,4.5,21c-0.1,0.5-0.3,1-0.4,1.6c-0.5-0.1-1.1-0.2-1.6-0.4
		C2.6,21.6,2.7,21.1,2.9,20.5z"/>
	<path class="st0" d="M3.4,27.3c0,0.6,0,1.1,0,1.6c-0.5,0-1.1,0-1.6,0c0-0.5,0-1.1,0-1.6C2.3,27.3,2.9,27.3,3.4,27.3z"/>
	<path class="st0" d="M4.5,35.3c-0.5,0.2-1.1,0.3-1.6,0.5c-0.2-0.6-0.3-1.1-0.4-1.7C3,34,3.5,33.9,4.1,33.8
		C4.2,34.3,4.4,34.8,4.5,35.3z"/>
	<path class="st0" d="M5.7,42.1c-0.3-0.5-0.6-1-0.9-1.5c0.5-0.3,1-0.5,1.5-0.8c0.3,0.5,0.5,0.9,0.8,1.4C6.7,41.5,6.2,41.8,5.7,42.1z
		"/>
	<path class="st0" d="M23.8,2c0.6-0.1,1.1-0.1,1.7-0.2c0.1,0.6,0.1,1.1,0.2,1.7c-0.5,0.1-1,0.2-1.6,0.2C24,3.2,23.9,2.6,23.8,2z"/>
	<path class="st0" d="M11.4,7.7c0.5-0.4,0.9-0.7,1.4-1.1c0.3,0.5,0.7,0.9,1,1.4c-0.4,0.3-0.8,0.6-1.3,1C12.1,8.6,11.8,8.2,11.4,7.7z
		"/>
	<path class="st0" d="M17.3,52.2c0.3-0.6,0.5-1,0.7-1.5c0.5,0.2,1,0.4,1.5,0.6c-0.2,0.5-0.4,1-0.6,1.6
		C18.3,52.7,17.8,52.4,17.3,52.2z"/>
	<path class="st0" d="M6.4,16.5c-0.5-0.3-1-0.5-1.5-0.8c0.3-0.5,0.6-1,0.8-1.5c0.5,0.3,0.9,0.6,1.4,0.9C6.9,15.6,6.6,16,6.4,16.5z"
		/>
	<path class="st0" d="M3.6,30.6c0.1,0.5,0.1,1,0.2,1.6c-0.6,0.1-1.1,0.2-1.7,0.3C2,31.9,2,31.3,1.9,30.8C2.5,30.7,3,30.6,3.6,30.6z"
		/>
	<path class="st0" d="M3.5,37.5c0.5-0.2,1-0.4,1.6-0.6c0.2,0.5,0.4,1,0.6,1.5c-0.5,0.2-1,0.5-1.5,0.7C3.9,38.5,3.7,38,3.5,37.5z"/>
	<path class="st0" d="M9.1,43.8c-0.5,0.4-0.9,0.7-1.3,1.1c-0.3-0.5-0.7-0.9-1-1.4c0.5-0.3,0.9-0.7,1.4-1C8.4,43,8.7,43.4,9.1,43.8z"
		/>
	<path class="st0" d="M12.8,49.6c-0.5-0.4-0.9-0.7-1.4-1c0.4-0.4,0.7-0.8,1.1-1.3c0.4,0.3,0.8,0.6,1.3,1
		C13.4,48.7,13.1,49.1,12.8,49.6z"/>
	<path class="st0" d="M10.1,47.4c-0.4-0.4-0.8-0.8-1.2-1.2c0.4-0.4,0.8-0.8,1.2-1.1c0.4,0.4,0.8,0.8,1.1,1.1
		C10.9,46.6,10.5,47,10.1,47.4z"/>
	<path class="st0" d="M24.1,52.5c0.6,0.1,1.1,0.2,1.6,0.2c-0.1,0.6-0.1,1.1-0.2,1.7c-0.6-0.1-1.1-0.1-1.7-0.2
		C24,53.7,24,53.1,24.1,52.5z"/>
	<path class="st0" d="M11.2,10.1c-0.4,0.4-0.7,0.8-1.1,1.2c-0.4-0.4-0.8-0.8-1.2-1.1c0.4-0.4,0.8-0.8,1.3-1.2
		C10.5,9.3,10.9,9.7,11.2,10.1z"/>
	<path class="st0" d="M10.3,28.1c0-9.9,8.1-17.9,18-17.8c9.9,0,17.9,8.1,17.9,18C46.1,38,38,46,28.2,46C18.3,46,10.3,38,10.3,28.1z
		 M28.2,44.3c8.8,0,16.1-7.2,16.2-16c0-9-7.1-16.3-16-16.4c-9-0.1-16.3,7.2-16.4,16.1C11.9,37,19.2,44.3,28.2,44.3z"/>
	<path class="st0" d="M27.3,29.8c0.6,0,1.1,0,1.7,0c0,0.6,0,1.1,0,1.7c-0.5,0-1.1,0-1.6,0c0,0.6,0,1.1,0,1.7c-0.6,0-1.1,0-1.7,0
		c0-0.5,0-1.1,0-1.7c-1,0-1.9,0-2.8,0c-0.5,0-1.1,0.1-1.4-0.5c-0.3-0.6,0.1-1,0.4-1.4c1.2-2,2.5-4,3.8-6c0.2-0.4,0.5-0.7,1.1-0.6
		c0.5,0.1,0.7,0.6,0.7,1.1C27.3,26,27.3,27.9,27.3,29.8z M25.6,27c0,0-0.1,0-0.1,0c-0.6,0.9-1.1,1.8-1.7,2.8c0.7,0,1.2,0,1.8,0
		C25.6,28.9,25.6,28,25.6,27z"/>
	<path class="st0" d="M17.2,31.5c1.2,0,2.2,0,3.3,0c0,0.6,0,1.1,0,1.7c-0.2,0-0.4,0-0.6,0c-1.4,0-2.8,0-4.3,0c-0.4,0-0.8-0.1-1-0.5
		c-0.2-0.4,0-0.8,0.3-1.1c1.1-1.3,2.1-2.5,3.1-3.8c0.4-0.5,0.6-1.1,0.7-1.7c0.1-0.8-0.5-1.4-1.2-1.5c-0.7,0-1.3,0.5-1.3,1.3
		c0,0.1,0,0.2,0,0.4c-0.6,0-1.1,0-1.6,0c-0.5-1.8,1.5-3.7,3.4-3.3c1.9,0.4,2.9,2.1,2.3,4.1c-0.2,0.6-0.5,1.2-0.9,1.7
		C18.8,29.7,18,30.6,17.2,31.5z"/>
	<path class="st0" d="M39.1,33.2c-0.4,0-1,0-1.5,0c0-1.5,0.1-2.9,0.5-4.3s0.9-2.8,1.3-4.1c-0.8,0-1.7,0-2.6,0c0,0.2,0,0.5,0,0.8
		c-0.6,0-1.1,0-1.7,0c0-0.6,0-1.2,0-1.8c0-0.5,0.3-0.8,0.8-0.8c1.7,0,3.4,0,5.1,0c0.8,0,1.1,0.7,0.7,1.4c-0.8,1.4-1.5,2.8-1.8,4.4
		C39.5,30.2,39.4,31.7,39.1,33.2z"/>
	<path class="st0" d="M32.5,22.8c0.6,0.1,1.1,0.3,1.7,0.4c-0.9,3.4-1.7,6.8-2.6,10.2c-0.6-0.1-1.1-0.3-1.6-0.4
		C30.8,29.6,31.6,26.3,32.5,22.8z"/>
	<path class="st0" d="M25.6,27c0,0.9,0,1.8,0,2.7c-0.6,0-1.2,0-1.8,0c0.6-0.9,1.2-1.9,1.7-2.8C25.5,27,25.6,27,25.6,27z"/>
</g>
</svg>
