<?xml version="1.0" encoding="utf-8"?>
<!-- Generator: Adobe Illustrator 26.0.1, SVG Export Plug-In . SVG Version: 6.00 Build 0)  -->
<svg version="1.1" id="Layer_1" xmlns="http://www.w3.org/2000/svg" xmlns:xlink="http://www.w3.org/1999/xlink" x="0px" y="0px"
	 width="18.19px" height="20.23px" viewBox="0 0 18.19 20.23" style="enable-background:new 0 0 18.19 20.23;" xml:space="preserve"
	>
<style type="text/css">
	.st0{fill:#505050;}
</style>
<path class="st0" d="M16.33,18.69c-0.01-1.72-0.55-3.26-1.65-4.58c-1.22-1.47-2.78-2.36-4.68-2.59c-2.2-0.26-4.14,0.35-5.78,1.84
	c-1.35,1.22-2.11,2.75-2.32,4.56c-0.03,0.25-0.03,0.51-0.04,0.77c-0.45,0-0.89,0-1.34,0c0.14-3.96,2.14-6.6,5.72-8.13
	c-1.33-1-2.08-2.33-2.1-4.02C4.13,5.15,4.62,3.95,5.61,2.98c2.04-2.02,5.2-1.85,7.06,0.09c2.05,2.14,1.82,5.68-0.75,7.51
	c0.07,0.03,0.13,0.05,0.19,0.07c2.61,1.04,4.36,2.9,5.21,5.58c0.18,0.58,0.29,1.18,0.33,1.79c0,0.05,0.02,0.11,0.03,0.16
	c0,0.17,0,0.34,0,0.5C17.22,18.69,16.78,18.69,16.33,18.69z M9.1,2.88c-1.98,0-3.61,1.62-3.62,3.61c-0.01,1.99,1.62,3.63,3.61,3.63
	c1.98,0,3.61-1.62,3.62-3.61C12.72,4.52,11.09,2.88,9.1,2.88z"/>
</svg>
