<?xml version="1.0" encoding="utf-8"?>
<!-- Generator: Adobe Illustrator 26.3.1, SVG Export Plug-In . SVG Version: 6.00 Build 0)  -->
<svg version="1.1" id="Layer_1" xmlns="http://www.w3.org/2000/svg" xmlns:xlink="http://www.w3.org/1999/xlink" x="0px" y="0px"
	 width="50px" height="50px" viewBox="0 0 50 50" style="enable-background:new 0 0 50 50;" xml:space="preserve">
<g>
	<path d="M11.1,28.25c0-5.24,0-10.49,0-15.73c0-1.69,0.85-2.54,2.52-2.54c7.61,0,15.21,0,22.82,0c1.59,0,2.47,0.87,2.47,2.45
		c0,10.56,0,21.13,0,31.69c0,1.58-0.88,2.45-2.47,2.45c-7.62,0-15.24,0-22.86,0c-1.61,0-2.47-0.87-2.47-2.5
		C11.1,38.8,11.1,33.53,11.1,28.25z M24.97,31.57c4.06,0,7.34-3.26,7.35-7.31c0.01-4.04-3.27-7.32-7.33-7.32
		c-3.99-0.01-7.29,3.27-7.3,7.26C17.67,28.26,20.94,31.57,24.97,31.57z M25,38.16c-0.73,0-1.46,0-2.19,0c-1.2,0-2.41,0-3.61,0
		c-0.36,0-0.67,0.16-0.72,0.51c-0.03,0.25,0.07,0.58,0.23,0.76c0.13,0.15,0.44,0.18,0.67,0.18c3.26,0.01,6.52,0.01,9.79,0.01
		c0.55,0,1.1,0.01,1.65,0c0.5-0.01,0.83-0.38,0.77-0.82c-0.05-0.4-0.36-0.64-0.86-0.64C28.81,38.15,26.9,38.16,25,38.16z M25,35.96
		c-0.93,0-1.86,0-2.79,0c-0.54,0-0.87,0.28-0.87,0.73c0,0.44,0.33,0.73,0.86,0.73c1.86,0,3.72,0,5.58,0c0.54,0,0.87-0.29,0.87-0.73
		c0-0.44-0.33-0.73-0.87-0.73C26.86,35.96,25.93,35.96,25,35.96z"/>
	<path d="M33.05,8.5c-5.7,0-11.33,0-16.96,0c-0.01-0.02-0.01-0.04-0.02-0.06c1.13-0.4,2.25-0.79,3.38-1.19
		c3.49-1.22,6.98-2.44,10.47-3.66c1.7-0.59,3.12,0.42,3.13,2.23C33.05,6.7,33.05,7.58,33.05,8.5z"/>
	<path d="M23.53,23.49c0.1-1.56,0.27-3.07,0.95-4.47c0.11-0.23,0.34-0.41,0.51-0.61c0.17,0.2,0.4,0.37,0.52,0.6
		c0.68,1.4,0.85,2.91,0.96,4.47C25.5,23.49,24.54,23.49,23.53,23.49z"/>
	<path d="M23.51,25c1.01,0,1.95,0,3.02,0c-0.16,1.01-0.29,2-0.48,2.97c-0.1,0.49-0.29,0.96-0.49,1.42c-0.12,0.26-0.36,0.47-0.54,0.7
		c-0.19-0.23-0.46-0.42-0.55-0.68c-0.28-0.82-0.53-1.65-0.72-2.49C23.6,26.31,23.59,25.68,23.51,25z"/>
	<path d="M28.07,23.52c-0.3-1.6-0.59-3.13-0.87-4.63c1.52,0.2,3.53,2.75,3.56,4.6c-0.07,0.01-0.15,0.03-0.22,0.03
		C29.69,23.52,28.84,23.52,28.07,23.52z"/>
	<path d="M28.06,25c0.84,0,1.75,0,2.66,0c0.19,1.61-1.9,4.3-3.53,4.62C27.48,28.12,27.76,26.59,28.06,25z"/>
	<path d="M21.94,23.51c-0.83,0-1.75,0-2.66,0c-0.19-1.62,1.9-4.3,3.52-4.62C22.52,20.39,22.24,21.92,21.94,23.51z"/>
	<path d="M19.24,25c0.95,0,1.86,0,2.7,0c0.29,1.56,0.58,3.11,0.86,4.62C21.21,29.31,19.29,26.88,19.24,25z"/>
</g>
</svg>
