<?xml version="1.0" encoding="utf-8"?>
<!-- Generator: Adobe Illustrator 26.0.2, SVG Export Plug-In . SVG Version: 6.00 Build 0)  -->
<svg version="1.1" id="Layer_1" xmlns="http://www.w3.org/2000/svg" xmlns:xlink="http://www.w3.org/1999/xlink" x="0px" y="0px"
	 width="56.4px" height="56.4px" viewBox="0 0 56.4 56.4" style="enable-background:new 0 0 56.4 56.4;" xml:space="preserve">
<style type="text/css">
	.st0{fill:#333333;}
</style>
<g>
	<path class="st0" d="M52.2,11.3c0,11.3,0,22.5,0,33.8c-8.1,0-16.2,0-24.3,0c-0.4,0-0.6,0.1-0.9,0.5c-3,4.2-8.5,6.2-13.4,4.8
		c-5.1-1.5-8.3-4.8-9.2-10c-0.9-5.2,1-9.5,5.2-12.6C9.9,27.4,10,27.3,10,27c0-5,0-10.1,0-15.1c0-0.2,0-0.4,0-0.6c1,0,1.9,0,2.8,0
		s1.8,0,2.8,0c0-0.6,0-1.1,0-1.6c0.1-2.2,1.9-4,4.1-4c2.4-0.1,4.3,1.8,4.3,4.2c0,0.5,0,0.9,0,1.4c1,0,1.9,0,2.8,0c0-0.2,0-0.4,0-0.7
		c0-0.8,0-1.6,0.3-2.4c0.8-1.9,2.7-2.9,4.7-2.5c1.9,0.4,3.3,2.1,3.4,4c0,0.5,0,1,0,1.5c1,0,1.9,0,2.8,0c0-0.5,0-0.9,0-1.3
		c0-2.4,1.9-4.3,4.2-4.3c2.3,0,4.2,1.9,4.2,4.3c0,0.4,0,0.9,0,1.3C48.5,11.3,50.3,11.3,52.2,11.3z M49.3,42.2c0-6.6,0-13.1,0-19.6
		c-12.2,0-24.4,0-36.5,0c0,1.1,0,2.3,0,3.4c5-1.4,9.4-0.5,13,3.2s4.4,8.1,3,13C35.7,42.2,42.5,42.2,49.3,42.2z M16.8,47.9
		c5.4,0,9.9-4.4,9.9-9.8s-4.4-9.9-9.8-9.9C11.4,28.2,7,32.6,7,38C7,43.5,11.4,47.9,16.8,47.9z M26.9,16.9c0-0.9,0-1.9,0-2.8
		c-2.8,0-5.6,0-8.4,0c0,0.9,0,1.9,0,2.8c-1,0-1.9,0-2.8,0c0-0.9,0-1.8,0-2.8c-1,0-1.9,0-2.8,0c0,1.9,0,3.7,0,5.6
		c12.2,0,24.3,0,36.5,0c0-1.9,0-3.7,0-5.6c-2.8,0-5.6,0-8.4,0c0,0.9,0,1.8,0,2.8c-1,0-1.9,0-2.8,0c0-0.9,0-1.9,0-2.8
		c-2.8,0-5.6,0-8.4,0c0,0.9,0,1.8,0,2.8C28.7,16.9,27.8,16.9,26.9,16.9z M21.3,11.3c0-0.5,0-1,0-1.5c0-0.7-0.6-1.3-1.4-1.3
		c-0.7,0-1.3,0.5-1.4,1.2c-0.1,0.5,0,1.1,0,1.6C19.4,11.3,20.3,11.3,21.3,11.3z M32.5,11.3c0-0.5,0-1,0-1.4c0-0.7-0.6-1.3-1.3-1.3
		c-0.7,0-1.4,0.4-1.5,1.1c-0.1,0.5,0,1.1,0,1.7C30.7,11.3,31.6,11.3,32.5,11.3z M43.8,11.3c0-0.5,0-1,0-1.5c0-0.7-0.6-1.3-1.3-1.3
		c-0.7,0-1.3,0.5-1.4,1.2c-0.1,0.5,0,1.1,0,1.6C41.9,11.3,42.8,11.3,43.8,11.3z"/>
	<path class="st0" d="M32.5,25.4c1.9,0,3.7,0,5.6,0c0,0.9,0,1.8,0,2.8c-1.8,0-3.7,0-5.6,0C32.5,27.2,32.5,26.3,32.5,25.4z"/>
	<path class="st0" d="M41,28.2c0-0.9,0-1.8,0-2.8c1.8,0,3.7,0,5.6,0c0,0.9,0,1.8,0,2.8C44.7,28.2,42.9,28.2,41,28.2z"/>
	<path class="st0" d="M32.5,33.8c0-0.9,0-1.8,0-2.8c1.9,0,3.7,0,5.6,0c0,0.9,0,1.8,0,2.8C36.3,33.8,34.4,33.8,32.5,33.8z"/>
	<path class="st0" d="M46.5,31c0,0.9,0,1.8,0,2.8c-1.9,0-3.7,0-5.6,0c0-0.9,0-1.8,0-2.8C42.8,31,44.7,31,46.5,31z"/>
	<path class="st0" d="M32.5,36.7c1.9,0,3.7,0,5.6,0c0,0.9,0,1.8,0,2.8c-1.8,0-3.7,0-5.6,0C32.5,38.5,32.5,37.6,32.5,36.7z"/>
	<path class="st0" d="M46.5,36.7c0,0.9,0,1.8,0,2.8c-1.9,0-3.7,0-5.6,0c0-0.9,0-1.8,0-2.8C42.8,36.7,44.7,36.7,46.5,36.7z"/>
	<path class="st0" d="M15.5,31c0.9,0,1.8,0,2.8,0c0,1.9,0,3.7,0,5.6c0.9,0,1.9,0,2.8,0c0,1,0,1.9,0,2.8c-1.9,0-3.7,0-5.6,0
		C15.5,36.6,15.5,33.8,15.5,31z"/>
</g>
</svg>
