<?xml version="1.0" encoding="utf-8"?>
<!-- Generator: Adobe Illustrator 26.5.0, SVG Export Plug-In . SVG Version: 6.00 Build 0)  -->
<svg version="1.1" id="Layer_1" xmlns="http://www.w3.org/2000/svg" xmlns:xlink="http://www.w3.org/1999/xlink" x="0px" y="0px"
	 width="50px" height="50px" viewBox="0 0 50 50" style="enable-background:new 0 0 50 50;" xml:space="preserve">
<style type="text/css">
	.st0{fill:#0C62C1;}
</style>
<g>
	<path class="st0" d="M36.1,32.4c0,5,0,9.9,0,14.9c0,0.8-0.1,0.9-0.9,0.9c-6.8,0-13.6,0-20.4,0c-0.8,0-0.9-0.1-0.9-0.9
		c0-5,0-10-0.1-15c-0.2,0.6-0.3,1.3-0.5,1.9c-0.3,1.4-0.6,2.8-1,4.2c-0.1,0.6-0.3,0.7-0.9,0.6c-1.9-0.5-3.8-0.9-5.6-1.4
		c-0.6-0.1-0.7-0.3-0.5-0.9C7.6,27.4,9.8,18,12.1,8.7c0.3-1.1,0.9-1.9,1.9-2.3c0.9-0.4,1.8-0.8,2.7-1.2C16.8,5.1,17,5,17,4.8
		c0.5-1.3,1.6-2,2.8-2.6c0.6-0.3,1.2-0.4,1.8-0.4c2.3,0,4.6-0.1,6.9,0c1.9,0.1,3.4,1.1,4.3,2.8c0.2,0.3,0.3,0.5,0.6,0.6
		c0.9,0.4,1.7,0.8,2.5,1.1c1,0.5,1.7,1.2,1.9,2.3c2.2,9.4,4.4,18.8,6.7,28.1c0.1,0.5,0,0.7-0.5,0.9c-1.9,0.5-3.8,1-5.7,1.4
		c-0.5,0.1-0.7,0-0.8-0.5c-0.4-1.9-0.9-3.8-1.3-5.8C36.2,32.7,36.2,32.5,36.1,32.4C36.1,32.4,36.1,32.4,36.1,32.4z M16.8,6.2
		c-0.8,0.4-1.7,0.7-2.5,1.1c-0.7,0.3-1.1,0.8-1.3,1.6c-1.9,7.9-3.8,15.9-5.7,23.8c-0.3,1.3-0.6,2.7-1,4.1c1.7,0.4,3.4,0.8,5.1,1.3
		c0-0.1,0.1-0.2,0.1-0.3c0.6-2.6,1.2-5.3,1.8-7.9c0.4-1.6,0.6-3.2,0.5-4.9c0-2.7,0-5.4,0-8.1c0-0.2,0-0.3,0-0.5
		c0.1-0.2,0.3-0.4,0.4-0.4c0.2,0,0.4,0.2,0.5,0.4c0.1,0.1,0,0.3,0,0.5c0,2.4,0,4.7,0,7.1c0,0.2,0,0.4,0,0.6c1.5,0,3,0,4.5,0
		c0.2-0.8,0.7-1.1,1.5-1c0.2,0,0.3,0,0.5,0c0.8-0.1,1.4,0.1,1.6,1c1.8,0,3.6,0,5.4,0c-0.2-0.2-0.3-0.4-0.5-0.6
		c-2.5-2.9-4.9-5.9-7-9.1C19.1,12.1,17.4,9.5,16.8,6.2z M35.1,24.5c0-0.3,0-0.4,0-0.6c0-2.4,0-4.7,0-7.1c0-0.1,0-0.3,0-0.4
		c0-0.3,0.2-0.5,0.5-0.5c0.3,0,0.5,0.2,0.5,0.5c0,0.2,0,0.3,0,0.5c0,3.3,0,6.7,0,10c0,0.4,0.1,0.8,0.1,1.1c0.4,1.7,0.8,3.5,1.2,5.2
		c0.4,1.6,0.7,3.2,1.1,4.8c1.7-0.4,3.4-0.8,5-1.3c0-0.1,0-0.2-0.1-0.3c-0.7-3-1.4-6-2.1-9c-1.5-6.2-3-12.4-4.4-18.6
		c-0.1-0.6-0.4-1.1-0.9-1.4c-0.9-0.5-1.9-0.9-2.9-1.3c-0.4,2.7-1.7,4.9-3.1,7.1c-0.9,1.4-1.9,2.8-2.9,4.2c-0.1,0.2-0.2,0.4-0.1,0.6
		c0.9,2,1.8,4.1,2.7,6.1c0.1,0.3,0.3,0.3,0.5,0.3c1.4,0,2.7,0,4.1,0C34.6,24.5,34.8,24.5,35.1,24.5z M29,47.2c0-6.4,0-12.8,0-19.1
		c-1.2,0-2.3,0-3.5,0c0,0.2,0,0.4,0,0.6c0,3.7,0,7.4,0,11.1c0,0.9,0,0.9-0.9,0.9c-0.6,0-1.2,0-1.8,0c-0.7,0-0.8-0.1-0.8-0.8
		c0-0.6,0-1.1,0-1.7c-0.6,0-1.1,0-1.7,0c-0.7,0-0.8-0.1-0.8-0.9c0-2.9,0-5.8,0-8.6c0-0.2,0-0.4,0-0.6c-1.5,0-3,0-4.5,0
		c0,6.4,0,12.8,0,19.1C19.7,47.2,24.3,47.2,29,47.2z M30.1,28.1c0,6.4,0,12.7,0,19.1c1.7,0,3.3,0,5,0c0-6.4,0-12.7,0-19.1
		C33.4,28.1,31.7,28.1,30.1,28.1z M21.4,2.8c0.3,3.9,2.1,7.2,3.5,10.7c0.1,0,0.1-0.1,0.1-0.1c1.3-2.8,2.5-5.5,3.2-8.5
		c0.2-0.7,0.2-1.4,0.3-2.1C26.2,2.8,23.8,2.8,21.4,2.8z M20.4,3.1c-0.3,0.2-0.6,0.3-0.9,0.5c-1.5,0.9-2,1.9-1.5,3.6
		c0.4,1.2,0.9,2.5,1.5,3.6c2.2,4.1,5.1,7.7,8,11.3c0,0,0.1,0,0.1,0.1c-0.1-0.2-0.2-0.4-0.2-0.5c-1.4-3-2.8-6.1-4.2-9.1
		C22,9.4,20.7,6.4,20.4,3.1z M29.7,3.1c-0.4,1.4-0.6,2.8-1.1,4.1c-0.9,2.4-2,4.8-2.9,7.2c-0.1,0.1-0.1,0.3-0.1,0.5
		c0.2,0.6,0.5,1.2,0.8,1.8c0.1-0.1,0.1-0.1,0.1-0.1c1.3-2,2.7-4,3.9-6.1c0.7-1.2,1.3-2.5,1.5-3.8c0.1-0.7,0.1-1.4-0.4-2.1
		C31.2,3.9,30.4,3.4,29.7,3.1z M21.9,37.1c0-4.2,0-8.4,0-12.5c-0.5,0-1,0-1.5,0c0,4.2,0,8.4,0,12.5C21,37.1,21.4,37.1,21.9,37.1z
		 M35.1,25.5c-4,0-8,0-12,0c0,0.5,0,1,0,1.5c4,0,8,0,12,0C35.1,26.5,35.1,26,35.1,25.5z M24.5,39.6c0-3.9,0-7.7,0-11.6
		c-0.5,0-1,0-1.5,0c0,3.9,0,7.7,0,11.6C23.5,39.6,24,39.6,24.5,39.6z M19.4,25.5c-1.5,0-3,0-4.5,0c0,0.5,0,1,0,1.4c1.5,0,3,0,4.5,0
		C19.4,26.5,19.4,26,19.4,25.5z"/>
</g>
</svg>
