<?xml version="1.0" encoding="utf-8"?>
<!-- Generator: Adobe Illustrator 26.0.1, SVG Export Plug-In . SVG Version: 6.00 Build 0)  -->
<svg version="1.1" id="Layer_1" xmlns="http://www.w3.org/2000/svg" xmlns:xlink="http://www.w3.org/1999/xlink" x="0px" y="0px"
	 width="26.47px" height="27.33px" viewBox="0 0 26.47 27.33" style="enable-background:new 0 0 26.47 27.33;" xml:space="preserve"
	>
<style type="text/css">
	.st0{fill:#3A3A3A;}
</style>
<g>
	<path class="st0" d="M25.96,8.88c-0.18,0.81-0.85,1.26-1.37,1.81c-0.14,0.15-0.33,0.12-0.48-0.02c-0.16-0.14-0.17-0.33-0.02-0.49
		c0.27-0.29,0.55-0.56,0.82-0.85c0.42-0.44,0.41-0.98-0.02-1.41c-0.56-0.55-1.13-1.1-1.71-1.67c-0.23,0.23-0.45,0.45-0.66,0.68
		c-0.04,0.04-0.05,0.13-0.04,0.2c0.09,0.5-0.07,0.93-0.35,1.34c-0.74,1.07-1.47,2.15-2.2,3.22c-0.05,0.08-0.11,0.16-0.13,0.2
		c0.42,0.45,0.84,0.89,1.26,1.34c0.07-0.06,0.12-0.1,0.16-0.14c0.4-0.41,0.8-0.81,1.2-1.22c0.23-0.23,0.43-0.26,0.6-0.08
		c0.17,0.17,0.15,0.36-0.08,0.58c-1,1.01-1.99,2.03-2.99,3.04c-2.68,2.73-5.36,5.46-8.05,8.17c-0.46,0.46-0.79,1.01-1.14,1.54
		c-0.34,0.52-0.73,0.95-1.36,1.1c-0.19,0-0.39,0-0.58,0c-0.25-0.12-0.52-0.21-0.75-0.37c-1.92-1.29-3.82-2.6-5.75-3.88
		c-0.53-0.35-0.95-0.75-1.08-1.39c0-0.14,0-0.29,0-0.43c0.11-0.56,0.48-0.97,0.78-1.42c0.24-0.37,0.5-0.73,0.75-1.09
		c0.17-0.24,0.35-0.29,0.55-0.15c0.18,0.13,0.21,0.32,0.05,0.55c-0.39,0.58-0.79,1.15-1.18,1.73c-0.37,0.55-0.27,1.05,0.28,1.43
		c1.99,1.35,3.98,2.69,5.97,4.04c0.64,0.44,1.12,0.35,1.55-0.29c2.66-3.88,5.31-7.77,7.97-11.65c0.04-0.07,0.09-0.13,0.14-0.21
		c-2.58-1.75-5.16-3.49-7.75-5.25c-0.06,0.09-0.12,0.16-0.17,0.24c-1.85,2.71-3.71,5.42-5.56,8.13c-0.05,0.07-0.1,0.15-0.16,0.21
		c-0.14,0.15-0.3,0.15-0.46,0.05c-0.16-0.11-0.21-0.26-0.13-0.44c0.03-0.07,0.08-0.14,0.13-0.2c3.06-4.47,6.12-8.95,9.18-13.42
		c0.65-0.94,1.57-1.12,2.52-0.48c0.47,0.31,0.93,0.63,1.4,0.95c0.21-0.21,0.41-0.4,0.6-0.6c0.69-0.69,1.7-0.71,2.4-0.03
		c1.78,1.72,3.54,3.45,5.32,5.18c0.28,0.27,0.42,0.61,0.53,0.97C25.96,8.56,25.96,8.72,25.96,8.88z M18.75,4.87
		c-0.08-0.06-0.14-0.1-0.2-0.14c-1.09-0.74-2.18-1.48-3.27-2.21c-0.59-0.4-1.08-0.3-1.48,0.29c-0.97,1.41-1.93,2.82-2.9,4.23
		c-0.04,0.06-0.08,0.13-0.14,0.21c1.45,0.98,2.89,1.96,4.34,2.94C16.32,8.41,17.53,6.65,18.75,4.87z M19.35,5.27
		c-1.22,1.78-2.43,3.55-3.64,5.33c0.94,0.64,1.86,1.26,2.8,1.9c0.23-0.33,0.45-0.65,0.67-0.98c0.81-1.18,1.62-2.36,2.42-3.54
		c0.3-0.44,0.26-0.97-0.13-1.25C20.79,6.22,20.07,5.76,19.35,5.27z M14.08,20.26c0.02,0.02,0.03,0.03,0.05,0.05
		c2.15-2.18,4.3-4.37,6.41-6.51c-0.4-0.42-0.78-0.83-1.17-1.25C17.59,15.13,15.83,17.7,14.08,20.26z M22.68,5.76
		c-1.07-1.04-2.11-2.06-3.17-3.07c-0.25-0.24-0.58-0.28-0.9-0.15c-0.38,0.14-0.58,0.5-0.89,0.76c1.5,1.02,2.95,2,4.4,2.99
		C22.29,6.12,22.47,5.95,22.68,5.76z"/>
	<path class="st0" d="M7.48,22.47c-0.36,0-0.53-0.26-0.42-0.51c0.04-0.08,0.09-0.15,0.14-0.22c2.04-2.98,4.08-5.96,6.12-8.94
		c0.05-0.07,0.1-0.15,0.16-0.21c0.14-0.13,0.29-0.13,0.44-0.02c0.15,0.1,0.21,0.24,0.14,0.42c-0.03,0.07-0.08,0.14-0.12,0.21
		c-2.05,3-4.1,6-6.16,9C7.69,22.31,7.55,22.41,7.48,22.47z"/>
	<path class="st0" d="M8.07,17.93c-0.1,0.26-0.16,0.55-0.31,0.79c-0.33,0.54-0.7,1.06-1.07,1.57c-0.5,0.71-1.34,0.84-2.06,0.34
		c-0.71-0.49-0.88-1.3-0.4-2.02c0.36-0.54,0.72-1.08,1.11-1.61c0.39-0.54,1.06-0.73,1.68-0.52c0.61,0.21,1,0.77,1,1.42
		C8.03,17.91,8.05,17.92,8.07,17.93z M5.42,20.2c0.35,0.01,0.55-0.13,0.7-0.35c0.34-0.5,0.69-1,1.03-1.51
		c0.26-0.39,0.18-0.79-0.19-1.05c-0.37-0.26-0.81-0.19-1.07,0.19c-0.35,0.51-0.7,1.02-1.05,1.53c-0.16,0.24-0.21,0.49-0.06,0.75
		C4.93,20.04,5.17,20.19,5.42,20.2z"/>
	<path class="st0" d="M9.12,23.58c-0.35,0-0.53-0.26-0.43-0.5c0.02-0.06,0.06-0.11,0.1-0.16c1.39-2.04,2.79-4.08,4.18-6.12
		c0.12-0.17,0.24-0.31,0.47-0.23c0.25,0.09,0.33,0.33,0.18,0.56c-0.25,0.37-0.5,0.74-0.76,1.11c-1.15,1.69-2.31,3.38-3.47,5.06
		C9.31,23.42,9.19,23.51,9.12,23.58z"/>
	<path class="st0" d="M9.37,16.22c-0.33-0.01-0.5-0.26-0.42-0.49c0.02-0.06,0.06-0.11,0.1-0.17c0.9-1.31,1.79-2.62,2.69-3.93
		c0.11-0.16,0.23-0.3,0.45-0.22c0.25,0.08,0.34,0.32,0.21,0.54c-0.1,0.17-0.22,0.33-0.34,0.5c-0.8,1.17-1.6,2.34-2.41,3.51
		C9.57,16.08,9.43,16.16,9.37,16.22z"/>
	<path class="st0" d="M13.03,7.24c-0.36-0.01-0.53-0.32-0.37-0.58c0.18-0.28,0.37-0.54,0.56-0.82c0.43-0.64,0.87-1.27,1.3-1.91
		c0.15-0.22,0.33-0.27,0.51-0.17c0.21,0.12,0.24,0.35,0.07,0.6c-0.46,0.68-0.93,1.36-1.4,2.05c-0.14,0.21-0.28,0.43-0.44,0.63
		C13.19,7.14,13.08,7.2,13.03,7.24z"/>
	<path class="st0" d="M16.02,5.83c-0.07,0.14-0.1,0.23-0.15,0.3c-0.41,0.6-0.82,1.2-1.23,1.8c-0.16,0.23-0.33,0.28-0.53,0.15
		c-0.2-0.13-0.22-0.33-0.07-0.56c0.41-0.61,0.83-1.22,1.25-1.82c0.11-0.16,0.25-0.25,0.43-0.17C15.83,5.59,15.92,5.72,16.02,5.83z"
		/>
	<path class="st0" d="M20.41,8.09c-0.43-0.32-0.82-0.6-1.19-0.91c-0.05-0.04,0-0.3,0.08-0.38c0.08-0.08,0.29-0.13,0.38-0.08
		c0.34,0.19,0.67,0.42,0.97,0.66c0.08,0.06,0.12,0.26,0.08,0.36C20.7,7.87,20.55,7.95,20.41,8.09z"/>
	<path class="st0" d="M18.81,7.67c0.2,0.04,1.23,0.71,1.24,0.87c0.01,0.13-0.03,0.3-0.11,0.38c-0.07,0.07-0.28,0.12-0.36,0.07
		c-0.35-0.2-0.68-0.43-0.99-0.67c-0.07-0.06-0.1-0.26-0.06-0.36C18.57,7.84,18.71,7.76,18.81,7.67z"/>
	<path class="st0" d="M18.68,10.63c0,0.35-0.29,0.54-0.54,0.39c-0.31-0.19-0.62-0.4-0.92-0.62c-0.17-0.13-0.19-0.32-0.07-0.49
		c0.12-0.16,0.29-0.22,0.46-0.1c0.31,0.2,0.62,0.4,0.92,0.62C18.61,10.49,18.65,10.59,18.68,10.63z"/>
	<path class="st0" d="M19.39,9.63c-0.01,0.33-0.3,0.51-0.54,0.37c-0.32-0.19-0.63-0.41-0.94-0.63c-0.17-0.12-0.17-0.3-0.06-0.47
		c0.11-0.17,0.28-0.23,0.46-0.12c0.32,0.2,0.63,0.41,0.93,0.63C19.32,9.48,19.36,9.58,19.39,9.63z"/>
</g>
</svg>
