<?xml version="1.0" encoding="utf-8"?>
<!-- Generator: Adobe Illustrator 26.5.0, SVG Export Plug-In . SVG Version: 6.00 Build 0)  -->
<svg version="1.1" id="Layer_1" xmlns="http://www.w3.org/2000/svg" xmlns:xlink="http://www.w3.org/1999/xlink" x="0px" y="0px"
	 width="28.5px" height="28.3px" viewBox="0 0 28.5 28.3" style="enable-background:new 0 0 28.5 28.3;" xml:space="preserve">
<style type="text/css">
	.st0{fill:#D9D9D9;}
</style>
<path class="st0" d="M14.2,0C6.2,0-0.1,6.5,0.1,14.4l0,0v8.1c0,3.1,2.6,5.7,5.7,5.7s5.7-2.6,5.7-5.7v-3.7c0-2-1.6-3.4-3.4-3.4
	c-2,0-3.4,1.6-3.4,3.4v3.9c0,0.5,0.4,1,1,1s1-0.4,1-1v-3.9c0-0.8,0.6-1.4,1.4-1.4s1.4,0.6,1.4,1.4v3.7c0,2-1.7,3.7-3.7,3.7
	s-3.7-1.7-3.7-3.7v-8.1l0,0h-1l0,0h1C1.9,7.5,7.3,2,14.2,2s12.3,5.6,12.3,12.3v8.1c0,2-1.7,3.7-3.7,3.7S19,24.4,19,22.4v-3.7
	c0-0.8,0.6-1.4,1.4-1.4s1.4,0.6,1.4,1.4v4c0,0.5,0.4,1,1,1s1-0.4,1-1v-4c0-2-1.6-3.4-3.4-3.4c-2,0-3.4,1.6-3.4,3.4v3.7
	c0,3.1,2.6,5.7,5.7,5.7s5.7-2.6,5.7-5.7v-8.1C28.5,6.5,22.2,0,14.2,0z"/>
</svg>
