<?xml version="1.0" encoding="utf-8"?>
<!-- Generator: Adobe Illustrator 26.0.1, SVG Export Plug-In . SVG Version: 6.00 Build 0)  -->
<svg version="1.1" id="Layer_1" xmlns="http://www.w3.org/2000/svg" xmlns:xlink="http://www.w3.org/1999/xlink" x="0px" y="0px"
	 width="570px" height="285.19px" viewBox="0 0 570 285.19" style="enable-background:new 0 0 570 285.19;" xml:space="preserve">
<style type="text/css">
	.st0{fill:#E8F2FB;}
	.st1{fill:#A4C6E8;}
	.st2{fill:#FFFFFF;}
	.st3{opacity:0.8;}
	.st4{fill:#F37169;}
	.st5{fill:#CEE0F4;}
	.st6{fill:#9BBBE2;}
	.st7{fill:#9BD5E7;}
	.st8{fill:#3B384D;}
	.st9{fill:#F09A5A;}
	.st10{fill:#E3853E;}
	.st11{fill:#7A4F35;}
	.st12{fill:#D54B42;}
	.st13{opacity:0.2;fill:#9BBBE2;}
	.st14{fill:#2F2E3D;}
	.st15{fill:#D6E1E8;}
	.st16{fill:#BDCCD4;}
	.st17{fill:#2E5C9B;}
	.st18{fill:#6891C8;}
	.st19{fill:#78A0D4;}
	.st20{fill:#F2E5DD;}
	.st21{fill:#313D60;}
	.st22{fill:#74B570;}
	.st23{fill:#9DD199;}
</style>
<g>
	<path class="st0" d="M118.03,35.1c64.24-23.85,129.54-2.76,173.83,43.16c44.28,45.93,137.22-31.7,186.51,14.15
		C512.01,123.7,496.6,204.15,450.48,239c-62.69,47.36-253.35,23.33-294.59,15.27c-47.51-9.29-82.25-37.46-96.36-71.65
		C25.52,100.22,89.64,45.64,118.03,35.1z"/>
	<g>
		<g>
			<path class="st1" d="M337.63,68.23c0.22-1.94,0.33-3.92,0.33-5.92c0-1.06-0.03-2.1-0.1-3.15L328.08,56
				c-0.6-4.13-1.79-8.06-3.46-11.72l6.49-7.98c-1.5-2.64-3.22-5.14-5.14-7.47l-9.79,3.19c-2.85-2.91-6.11-5.43-9.69-7.45l0.56-10.28
				c-2.73-1.24-5.59-2.26-8.54-3.03l-6.04,8.34c-2.36-0.4-4.77-0.61-7.24-0.61c-1.68,0-3.34,0.1-4.97,0.29l-5.59-8.65
				c-3,0.61-5.9,1.47-8.69,2.57l0.01,10.3c-3.68,1.83-7.07,4.17-10.07,6.93l-9.6-3.7c-2.04,2.23-3.89,4.63-5.53,7.19l6.06,8.32
				c-1.88,3.58-3.27,7.45-4.08,11.52l-9.94,2.64c-0.22,1.94-0.33,3.92-0.33,5.92c0,1.06,0.03,2.1,0.1,3.15l9.78,3.17
				c0.6,4.13,1.79,8.06,3.46,11.72l-6.49,7.98c1.5,2.64,3.22,5.14,5.14,7.47l9.79-3.19c2.85,2.91,6.11,5.43,9.69,7.45l-0.56,10.28
				c2.73,1.24,5.59,2.26,8.54,3.03l6.04-8.34c2.36,0.4,4.77,0.61,7.24,0.61c1.68,0,3.34-0.1,4.97-0.29l5.59,8.65
				c3-0.61,5.9-1.47,8.69-2.57l-0.01-10.3c3.68-1.83,7.07-4.17,10.07-6.93l9.6,3.7c2.04-2.23,3.89-4.63,5.53-7.19l-6.06-8.32
				c1.88-3.58,3.27-7.45,4.08-11.52L337.63,68.23z M285.22,83c-11.42,0-20.69-9.26-20.69-20.69c0-11.42,9.26-20.69,20.69-20.69
				c11.42,0,20.69,9.26,20.69,20.69C305.9,73.73,296.64,83,285.22,83z"/>
			<g>
				<path class="st2" d="M313.43,85.9c-0.17,0-0.35-0.06-0.49-0.18c-0.33-0.27-0.37-0.76-0.1-1.09c5.2-6.25,8.06-14.18,8.06-22.32
					c0-3.9-0.64-7.73-1.9-11.38c-0.14-0.4,0.08-0.84,0.48-0.98c0.4-0.14,0.84,0.08,0.98,0.48c1.31,3.82,1.98,7.81,1.98,11.89
					c0,8.51-2.99,16.78-8.42,23.31C313.87,85.81,313.65,85.9,313.43,85.9z"/>
			</g>
			<g>
				<path class="st2" d="M310.44,37.08c-0.19,0-0.38-0.07-0.53-0.21c-3.49-3.29-7.54-5.78-12.03-7.41c-0.4-0.15-0.61-0.59-0.46-0.99
					c0.15-0.4,0.59-0.61,0.99-0.46c4.69,1.7,8.91,4.3,12.56,7.74c0.31,0.29,0.33,0.78,0.03,1.09
					C310.85,37,310.64,37.08,310.44,37.08z"/>
			</g>
			<g>
				<path class="st2" d="M277.2,28.46c-0.35,0-0.66-0.23-0.75-0.58c-0.1-0.41,0.15-0.83,0.56-0.94c2.91-0.74,5.93-1.11,8.96-1.11
					c0.43,0,0.77,0.35,0.77,0.77c0,0.43-0.35,0.77-0.77,0.77c-2.9,0-5.79,0.36-8.58,1.06C277.32,28.45,277.26,28.46,277.2,28.46z"/>
			</g>
		</g>
		<g>
			<path class="st1" d="M171.37,199.21c0.15-1.35,0.23-2.71,0.23-4.1c0-0.73-0.02-1.46-0.07-2.18l-6.78-2.19
				c-0.42-2.86-1.24-5.58-2.4-8.12l4.49-5.53c-1.04-1.83-2.23-3.56-3.56-5.17l-6.78,2.21c-1.98-2.02-4.23-3.76-6.71-5.16l0.39-7.12
				c-1.89-0.86-3.87-1.57-5.92-2.1l-4.19,5.78c-1.63-0.27-3.31-0.42-5.02-0.42c-1.17,0-2.31,0.07-3.45,0.2l-3.87-5.99
				c-2.08,0.42-4.09,1.02-6.02,1.78l0.01,7.13c-2.55,1.27-4.9,2.89-6.97,4.8l-6.65-2.57c-1.41,1.54-2.7,3.21-3.83,4.98l4.2,5.76
				c-1.3,2.48-2.26,5.16-2.83,7.98l-6.88,1.83c-0.15,1.35-0.23,2.71-0.23,4.1c0,0.73,0.02,1.46,0.07,2.18l6.78,2.19
				c0.42,2.86,1.24,5.58,2.4,8.12l-4.49,5.53c1.04,1.83,2.23,3.56,3.56,5.17l6.78-2.21c1.98,2.02,4.23,3.76,6.71,5.16l-0.39,7.12
				c1.89,0.86,3.87,1.57,5.92,2.1l4.19-5.78c1.63,0.27,3.31,0.42,5.02,0.42c1.17,0,2.31-0.07,3.45-0.2l3.87,5.99
				c2.08-0.42,4.09-1.02,6.02-1.78l-0.01-7.13c2.55-1.27,4.9-2.89,6.97-4.8l6.65,2.57c1.41-1.54,2.7-3.21,3.83-4.98l-4.2-5.76
				c1.3-2.48,2.26-5.16,2.83-7.98L171.37,199.21z M135.07,209.44c-7.91,0-14.33-6.41-14.33-14.33c0-7.91,6.41-14.33,14.33-14.33
				c7.91,0,14.33,6.41,14.33,14.33C149.4,203.02,142.98,209.44,135.07,209.44z"/>
			<g>
				<path class="st2" d="M154.61,211.69c-0.17,0-0.35-0.06-0.49-0.18c-0.33-0.27-0.37-0.76-0.1-1.09c3.57-4.29,5.53-9.72,5.53-15.31
					c0-2.67-0.44-5.3-1.3-7.81c-0.14-0.4,0.08-0.84,0.48-0.98c0.4-0.14,0.84,0.08,0.98,0.48c0.92,2.67,1.38,5.46,1.38,8.31
					c0,5.95-2.09,11.74-5.89,16.3C155.05,211.59,154.83,211.69,154.61,211.69z"/>
			</g>
			<g>
				<path class="st2" d="M152.54,177.87c-0.19,0-0.38-0.07-0.53-0.21c-2.4-2.26-5.17-3.97-8.25-5.08c-0.4-0.15-0.61-0.59-0.46-0.99
					c0.15-0.4,0.59-0.61,0.99-0.46c3.28,1.19,6.23,3.01,8.78,5.41c0.31,0.29,0.33,0.78,0.03,1.09
					C152.95,177.79,152.74,177.87,152.54,177.87z"/>
			</g>
			<g>
				<path class="st2" d="M129.51,171.9c-0.35,0-0.66-0.23-0.75-0.58c-0.1-0.41,0.15-0.83,0.56-0.94c2.04-0.51,4.14-0.77,6.26-0.77
					c0.43,0,0.77,0.35,0.77,0.77s-0.35,0.77-0.77,0.77c-1.99,0-3.97,0.24-5.88,0.73C129.64,171.89,129.57,171.9,129.51,171.9z"/>
			</g>
		</g>
		<path class="st1" d="M369.21,107.63c0-0.4-0.01-0.8-0.03-1.19l5.08-4.08c-0.4-2.03-1.02-3.99-1.84-5.83l-6.56-0.5
			c-1.49-2.35-3.42-4.4-5.68-6.02l-0.02-6.53c-1.83-0.96-3.77-1.72-5.81-2.24l-4.48,4.82c-0.77-0.08-1.56-0.13-2.35-0.13
			c-1.97,0-3.89,0.27-5.71,0.76l-5.14-4.07c-1.94,0.84-3.76,1.9-5.43,3.15l0.97,6.48c-1.92,1.91-3.48,4.17-4.58,6.68l-6.39,1.48
			c-0.54,1.97-0.86,4.04-0.94,6.16l5.63,3.26c0.29,2.85,1.13,5.54,2.41,7.96l-2.82,5.9c1.21,1.65,2.6,3.17,4.14,4.51l6.04-2.36
			c2.37,1.54,5.07,2.64,7.96,3.16l2.85,5.86c0.34,0.01,0.68,0.02,1.02,0.02c1.71,0,3.37-0.16,4.99-0.46l1.92-6.21
			c2.79-0.94,5.33-2.43,7.49-4.35l6.35,1.43c1.3-1.53,2.44-3.2,3.38-4.99l-3.68-5.4C368.77,112.61,369.21,110.17,369.21,107.63z
			 M347.27,117.19c-5.05,0-9.14-4.09-9.14-9.14c0-5.05,4.09-9.14,9.14-9.14c5.05,0,9.14,4.09,9.14,9.14
			C356.41,113.1,352.32,117.19,347.27,117.19z"/>
	</g>
	<g>
		<g class="st3">
			<path class="st1" d="M453.7,54.97h-7.86c-3.03,0-5.5-2.47-5.5-5.5v-7.86c0-3.03,2.47-5.5,5.5-5.5h7.86c3.03,0,5.5,2.47,5.5,5.5
				v7.86C459.2,52.5,456.73,54.97,453.7,54.97z M445.84,38.28c-1.84,0-3.34,1.5-3.34,3.34v7.86c0,1.84,1.5,3.34,3.34,3.34h7.86
				c1.84,0,3.34-1.5,3.34-3.34v-7.86c0-1.84-1.5-3.34-3.34-3.34H445.84z"/>
		</g>
		<g class="st3">
			<path class="st1" d="M416.73,54.97h-7.86c-3.03,0-5.5-2.47-5.5-5.5v-7.86c0-3.03,2.47-5.5,5.5-5.5h7.86c3.03,0,5.5,2.47,5.5,5.5
				v7.86C422.24,52.5,419.77,54.97,416.73,54.97z M408.88,38.28c-1.84,0-3.34,1.5-3.34,3.34v7.86c0,1.84,1.5,3.34,3.34,3.34h7.86
				c1.84,0,3.34-1.5,3.34-3.34v-7.86c0-1.84-1.5-3.34-3.34-3.34H408.88z"/>
		</g>
		<g>
			<path class="st4" d="M413.3,50.4c-0.01,0-0.03,0-0.04,0c-0.27-0.01-0.53-0.15-0.69-0.36l-5.65-7.36
				c-0.31-0.41-0.23-0.99,0.17-1.3c0.41-0.31,0.99-0.24,1.3,0.17l4.98,6.49l13-13.93c0.35-0.37,0.94-0.39,1.31-0.05
				c0.37,0.35,0.39,0.94,0.05,1.31L413.98,50.1C413.8,50.29,413.55,50.4,413.3,50.4z"/>
		</g>
	</g>
	<path class="st5" d="M479.66,257.84c-32.16-1.57-141.56,1.09-174.83,2.13c-33.27,1.04-71.89-1.37-91.95-4.91
		c-20.06-3.54-136.02,0.3-130.76,9.82c5.26,9.52,51.67,4.26,104.29,8.09c52.62,3.83,170.97-0.48,197.67,0
		c26.7,0.48,51.18-0.96,85.58-2.87S498.3,258.75,479.66,257.84z"/>
	<g>
		<rect x="83.73" y="58.73" class="st6" width="67.22" height="110.18"/>
		<rect x="87.25" y="60.97" class="st2" width="61.49" height="103.74"/>
		<g>
			<g>
				<path class="st7" d="M105.65,102.57c2.31-4.98,6.23-6.57,12.66-6.57c7.66,0,11.64,2.77,12.76,6.81
					C117.36,103,105.65,102.57,105.65,102.57z"/>
				<path class="st8" d="M115.64,71.78c-3.24,0.91-3.1,2.73-4.18,4.42c-1.08,1.69-3.43,2.82-3.71,3.95
					c-0.28,1.13,0.72,3.48-0.47,4.79c-1.19,1.32-1.6,1.97-1.13,3.29c0.47,1.32,1.5,3.38,1.6,3.66c0.09,0.28,1.41,2.25,3.01,2.54
					c1.6,0.28,4.6,0.75,6.11,1.41c1.5,0.66,6.34-0.84,9.02-0.75c2.68,0.09,4.51-1.88,4.32-3.2c-0.19-1.32,1.98-3.95,1.97-6.2
					c-0.01-2.42-2.82-4.23-3.57-5.82c-0.75-1.6,0.09-4.42-2.72-6.08c-1.78-1.05-3.01-0.96-4.42-1.43
					C120.05,71.88,117.7,71.2,115.64,71.78z"/>
				<path class="st9" d="M119.58,99.97c-0.73,1.08-1.27,1.13-2.07,0c-0.63-0.9-1.88-2.93-1.88-3.97V85.69
					c0-1.03,0.85-1.88,1.88-1.88h2.07c1.03,0,1.88,0.85,1.88,1.88v10.31C121.46,97.04,120.24,99,119.58,99.97z"/>
				<path class="st10" d="M119.58,83.81h-2.07c-1.03,0-1.88,0.85-1.88,1.88v9.2c2.32,0.74,4.44-0.73,5.82-2.38v-6.82
					C121.46,84.66,120.62,83.81,119.58,83.81z"/>
				<ellipse class="st9" cx="118.55" cy="83.92" rx="6.25" ry="8.51"/>
				<path class="st8" d="M121.46,77.14c-3.95,6.67-9.77,6.01-9.77,6.01s0.14-8.83,4.77-9.3c4.63-0.47,7.35,1.39,8.29,4.45
					c0.94,3.06,0,5.08,0,5.08s-1.5-1.17-2.25-3.05C121.74,78.46,121.46,77.14,121.46,77.14z"/>
				
					<ellipse transform="matrix(0.9033 -0.429 0.429 0.9033 -25.4697 55.9872)" class="st9" cx="111.46" cy="84.49" rx="1.64" ry="2.47"/>
				<path class="st9" d="M123.88,83.79c-0.58,1.23-0.39,2.54,0.43,2.93c0.82,0.39,1.96-0.29,2.54-1.52
					c0.58-1.23,0.39-2.54-0.43-2.93C125.6,81.87,124.46,82.56,123.88,83.79z"/>
				<path class="st2" d="M120.9,88.53c0,0-1.05,1.36-2.35,1.36c-1.3,0-2.35-1.36-2.35-1.36H120.9z"/>
			</g>
			<path class="st6" d="M125.99,116.08h-15.78c-1.01,0-1.83-0.83-1.83-1.83c0-1.01,0.83-1.83,1.83-1.83h15.78
				c1.01,0,1.83,0.83,1.83,1.83C127.82,115.25,127,116.08,125.99,116.08z"/>
			<path class="st6" d="M128.88,121.71h-21.55c-1.01,0-1.83-0.83-1.83-1.83c0-1.01,0.83-1.83,1.83-1.83h21.55
				c1.01,0,1.83,0.83,1.83,1.83C130.71,120.89,129.88,121.71,128.88,121.71z"/>
			<path class="st6" d="M144.31,141.98H91.88c-0.59,0-1.06-0.48-1.06-1.06s0.48-1.06,1.06-1.06h52.43c0.59,0,1.06,0.48,1.06,1.06
				S144.9,141.98,144.31,141.98z"/>
			<path class="st6" d="M144.31,146.93H91.88c-0.59,0-1.06-0.48-1.06-1.06c0-0.59,0.48-1.06,1.06-1.06h52.43
				c0.59,0,1.06,0.48,1.06,1.06C145.38,146.45,144.9,146.93,144.31,146.93z"/>
			<path class="st6" d="M144.31,151.88H91.88c-0.59,0-1.06-0.48-1.06-1.06c0-0.59,0.48-1.06,1.06-1.06h52.43
				c0.59,0,1.06,0.48,1.06,1.06C145.38,151.4,144.9,151.88,144.31,151.88z"/>
			<g>
				<path class="st6" d="M136.98,103.79H99.22c-1.05,0-1.9-0.85-1.9-1.9V67.09c0-1.05,0.85-1.9,1.9-1.9h37.76
					c1.05,0,1.9,0.85,1.9,1.9v34.81C138.88,102.94,138.03,103.79,136.98,103.79z M99.22,66.73c-0.19,0-0.35,0.16-0.35,0.35v34.81
					c0,0.19,0.16,0.35,0.35,0.35h37.76c0.19,0,0.35-0.16,0.35-0.35V67.09c0-0.19-0.16-0.35-0.35-0.35H99.22z"/>
			</g>
			<g>
				<polygon class="st6" points="104.67,126.5 105.76,128.71 108.2,129.07 106.43,130.79 106.85,133.23 104.67,132.08 
					102.48,133.23 102.9,130.79 101.13,129.07 103.57,128.71 				"/>
				<polygon class="st6" points="113.62,126.5 114.71,128.71 117.16,129.07 115.39,130.79 115.81,133.23 113.62,132.08 
					111.43,133.23 111.85,130.79 110.08,129.07 112.53,128.71 				"/>
				<polygon class="st6" points="122.58,126.5 123.67,128.71 126.11,129.07 124.35,130.79 124.76,133.23 122.58,132.08 
					120.39,133.23 120.81,130.79 119.04,129.07 121.48,128.71 				"/>
				<polygon class="st6" points="131.53,126.5 132.62,128.71 135.07,129.07 133.3,130.79 133.72,133.23 131.53,132.08 
					129.34,133.23 129.76,130.79 127.99,129.07 130.44,128.71 				"/>
			</g>
		</g>
	</g>
	<g>
		<rect x="233.6" y="58.73" class="st6" width="67.22" height="110.18"/>
		<rect x="237.12" y="60.97" class="st2" width="61.49" height="103.74"/>
		<g>
			<g>
				<path class="st11" d="M258.44,83.36c0,4.94,2.97,12.9,9.98,12.64c7.01-0.26,8.56-7.85,8.83-9.99
					C277.52,83.87,258.44,83.36,258.44,83.36z"/>
				<path class="st12" d="M255.52,102.57c2.31-4.98,6.23-6.57,12.66-6.57c7.66,0,11.64,2.77,12.76,6.81
					C267.23,103,255.52,102.57,255.52,102.57z"/>
				<path class="st9" d="M269.45,99.97c-0.73,1.08-1.27,1.13-2.07,0c-0.63-0.9-1.88-2.93-1.88-3.97V85.69
					c0-1.03,0.85-1.88,1.88-1.88h2.07c1.03,0,1.88,0.85,1.88,1.88v10.31C271.33,97.04,270.11,99,269.45,99.97z"/>
				<path class="st10" d="M269.45,83.81h-2.07c-1.03,0-1.88,0.85-1.88,1.88v9.2c2.32,0.74,4.44-0.73,5.82-2.38v-6.82
					C271.33,84.66,270.49,83.81,269.45,83.81z"/>
				<ellipse class="st9" cx="268.42" cy="83.92" rx="6.25" ry="8.51"/>
				<path class="st11" d="M271.85,77.45c-0.74,2.62-2.37,2.59-4.64,3.45c-2.27,0.86-3.35,1.72-4.1,3.4
					c-0.95,2.14,0.43,8.36,0.43,8.36s-5.74-4.3-5.08-11.06c0.66-6.76,4.65-9.38,8.4-9.38c3.75,0,5.18,2.29,5.18,2.29
					s2,0.01,3.89,2.25c2.54,3.01,1.76,10.32,0,12.93c-1.76,2.62-2.93,3.44-2.89,3.32c0.04-0.12,1.64-6.13,0.78-9.85
					C272.97,79.44,271.85,77.45,271.85,77.45z"/>
				<path class="st2" d="M270.77,88.53c0,0-1.05,1.36-2.35,1.36s-2.35-1.36-2.35-1.36H270.77z"/>
			</g>
			<path class="st6" d="M275.86,116.08h-15.78c-1.01,0-1.83-0.83-1.83-1.83c0-1.01,0.83-1.83,1.83-1.83h15.78
				c1.01,0,1.83,0.83,1.83,1.83C277.69,115.25,276.87,116.08,275.86,116.08z"/>
			<path class="st6" d="M278.75,121.71h-21.55c-1.01,0-1.83-0.83-1.83-1.83c0-1.01,0.83-1.83,1.83-1.83h21.55
				c1.01,0,1.83,0.83,1.83,1.83C280.58,120.89,279.75,121.71,278.75,121.71z"/>
			<path class="st6" d="M294.18,141.98h-52.43c-0.59,0-1.06-0.48-1.06-1.06s0.48-1.06,1.06-1.06h52.43c0.59,0,1.06,0.48,1.06,1.06
				S294.77,141.98,294.18,141.98z"/>
			<path class="st6" d="M294.18,146.93h-52.43c-0.59,0-1.06-0.48-1.06-1.06c0-0.59,0.48-1.06,1.06-1.06h52.43
				c0.59,0,1.06,0.48,1.06,1.06C295.25,146.45,294.77,146.93,294.18,146.93z"/>
			<path class="st6" d="M294.18,151.88h-52.43c-0.59,0-1.06-0.48-1.06-1.06c0-0.59,0.48-1.06,1.06-1.06h52.43
				c0.59,0,1.06,0.48,1.06,1.06C295.25,151.4,294.77,151.88,294.18,151.88z"/>
			<g>
				<path class="st6" d="M286.85,103.79h-37.77c-1.05,0-1.9-0.85-1.9-1.9V67.09c0-1.05,0.85-1.9,1.9-1.9h37.77
					c1.05,0,1.9,0.85,1.9,1.9v34.81C288.75,102.94,287.9,103.79,286.85,103.79z M249.09,66.73c-0.19,0-0.35,0.16-0.35,0.35v34.81
					c0,0.19,0.16,0.35,0.35,0.35h37.77c0.19,0,0.35-0.16,0.35-0.35V67.09c0-0.19-0.16-0.35-0.35-0.35H249.09z"/>
			</g>
			<g>
				<polygon class="st6" points="254.54,126.5 255.63,128.71 258.07,129.07 256.3,130.79 256.72,133.23 254.54,132.08 
					252.35,133.23 252.77,130.79 251,129.07 253.44,128.71 				"/>
				<polygon class="st6" points="263.49,126.5 264.58,128.71 267.03,129.07 265.26,130.79 265.68,133.23 263.49,132.08 
					261.3,133.23 261.72,130.79 259.95,129.07 262.4,128.71 				"/>
				<polygon class="st6" points="272.45,126.5 273.54,128.71 275.98,129.07 274.21,130.79 274.63,133.23 272.45,132.08 
					270.26,133.23 270.68,130.79 268.91,129.07 271.35,128.71 				"/>
				<polygon class="st6" points="281.4,126.5 282.49,128.71 284.94,129.07 283.17,130.79 283.59,133.23 281.4,132.08 279.21,133.23 
					279.63,130.79 277.86,129.07 280.31,128.71 				"/>
			</g>
		</g>
	</g>
	<polygon class="st13" points="241.16,167.81 135.07,167.81 142.57,59.13 244.99,59.13 	"/>
	<g>
		<rect x="146.21" y="38.57" class="st6" width="91.82" height="150.5"/>
		<rect x="151.02" y="41.64" class="st2" width="83.99" height="141.69"/>
		<g>
			<g>
				<path class="st14" d="M185.19,71.4c-0.06-0.18-1.53-8.62-1.7-11.9c-0.18-3.28,5.28-3.75,5.28-3.75s4.45-2.4,7.68-1.17
					c3.22,1.23,5.42,3.3,6.88,5.88c1.47,2.58-1.29,10.62-1.29,10.62L185.19,71.4z"/>
				<path class="st15" d="M175.08,98.52c-0.02-0.14,0.38-3.46,0.39-3.59c0.74-6.99,9.36-8.96,17.97-8.96
					c10.11,0,16.97,1.85,18.06,9.12c0.03,0.21,0.62,3.54,0.59,3.77C193.35,99.1,175.08,98.52,175.08,98.52z"/>
				<path class="st9" d="M195.18,91.39c-1,1.48-1.74,1.54-2.82,0c-0.86-1.22-3.75-4.02-3.75-5.43l1.18-14.08
					c0-1.41,1.15-2.57,2.57-2.57h2.82c1.41,0,2.57,1.15,2.57,2.57l0.55,14.08C198.3,87.37,196.08,90.06,195.18,91.39z"/>
				<path class="st10" d="M195.18,69.32h-2.82c-1.41,0-2.57,1.15-2.57,2.57l-1.03,12.49c3.17,1.01,7.45-1.04,9.34-3.3l-0.36-9.18
					C197.74,70.47,196.59,69.32,195.18,69.32z"/>
				<path class="st16" d="M184.08,86.99l4.53,8.37c0,0,2.42-1.99,2.66-1.6c0.23,0.39-0.43,5.32-0.43,5.32s5.39,0.07,5.63-0.16
					c0.23-0.23-1.09-5.36-0.55-5.36c0.55,0,2.19,1.48,2.19,1.48l5.05-8.05l-1.11-0.27l-8.28,4.45l-8.86-4.36L184.08,86.99z"/>
				<polygon class="st12" points="189.25,90.84 192.62,93.1 191.57,99.08 196.11,98.83 194.97,93.38 197.76,90.84 196.45,89.61 
					190.56,89.61 				"/>
				<path class="st15" d="M188.84,82.89l-4.16,3.96c0,0,4.24,7.53,4.47,7.53c0.23,0,3.59-4.15,3.59-4.15l2.15-0.04l3.4,3.57
					l3.95-6.99l-4.03-4.27c0,0-3.44,6.64-4.06,6.8c-0.63,0.16-0.63,0.23-1.14-0.16C192.51,88.75,188.84,82.89,188.84,82.89z"/>
				<ellipse class="st9" cx="193.77" cy="69.46" rx="8.53" ry="11.63"/>
				<path class="st9" d="M186.11,69.28c0.8,1.68,0.54,3.47-0.58,4.01c-1.12,0.53-2.68-0.4-3.47-2.08c-0.8-1.68-0.54-3.47,0.58-4.01
					S185.31,67.6,186.11,69.28z"/>
				<path class="st9" d="M201.04,69.28c-0.8,1.68-0.54,3.47,0.58,4.01s2.68-0.4,3.47-2.08c0.8-1.68,0.54-3.47-0.58-4.01
					C203.4,66.67,201.84,67.6,201.04,69.28z"/>
				<path class="st2" d="M197.55,74.23c0,0-1.69,2.75-3.79,2.75c-2.09,0-3.79-2.75-3.79-2.75H197.55z"/>
				<path class="st14" d="M188.76,61.55c3.52-2.46,5.1-2.05,7.74,1.99c2.64,4.04,5.8,4.12,5.8,4.12l0.41-4.19c0,0-3.93-7.6-9.2-6.6
					c-5.27,1-8.27,5.74-8.27,5.74s-0.26,8.9,0.48,9.2c0.74,0.3,0.82-2.87,1.35-3.52c0.53-0.64-0.53-3.69,0.18-5.1
					C187.94,61.79,188.76,61.55,188.76,61.55z"/>
				<path class="st14" d="M200.07,66.12c1.23,1.34,0.76,6.68,1.41,6.62c0.64-0.06,0.88-5.1,0.7-5.63
					C202.01,66.59,200.07,66.12,200.07,66.12z"/>
			</g>
			<path class="st6" d="M212.75,116.9h-39.2c-1.38,0-2.51-1.13-2.51-2.51c0-1.38,1.13-2.51,2.51-2.51h39.2
				c1.38,0,2.51,1.13,2.51,2.51C215.25,115.77,214.13,116.9,212.75,116.9z"/>
			<path class="st6" d="M207.87,124.6h-29.44c-1.38,0-2.51-1.13-2.51-2.51c0-1.38,1.13-2.51,2.51-2.51h29.44
				c1.38,0,2.51,1.13,2.51,2.51C210.38,123.47,209.25,124.6,207.87,124.6z"/>
			<path class="st6" d="M228.96,152.29h-71.61c-0.8,0-1.45-0.65-1.45-1.45s0.65-1.45,1.45-1.45h71.61c0.8,0,1.45,0.65,1.45,1.45
				S229.76,152.29,228.96,152.29z"/>
			<path class="st6" d="M228.96,159.04h-71.61c-0.8,0-1.45-0.65-1.45-1.45c0-0.8,0.65-1.45,1.45-1.45h71.61
				c0.8,0,1.45,0.65,1.45,1.45C230.41,158.39,229.76,159.04,228.96,159.04z"/>
			<path class="st6" d="M228.96,165.8h-71.61c-0.8,0-1.45-0.65-1.45-1.45s0.65-1.45,1.45-1.45h71.61c0.8,0,1.45,0.65,1.45,1.45
				S229.76,165.8,228.96,165.8z"/>
			<g>
				<path class="st6" d="M218.94,99.84h-51.58c-1.28,0-2.31-1.04-2.31-2.31V49.99c0-1.28,1.04-2.31,2.31-2.31h51.58
					c1.28,0,2.31,1.04,2.31,2.31v47.54C221.25,98.81,220.22,99.84,218.94,99.84z M167.36,49.23c-0.42,0-0.77,0.34-0.77,0.77v47.54
					c0,0.42,0.34,0.77,0.77,0.77h51.58c0.42,0,0.77-0.34,0.77-0.77V49.99c0-0.42-0.34-0.77-0.77-0.77H167.36z"/>
			</g>
			<g>
				<polygon class="st6" points="168.59,131.14 170.08,134.16 173.42,134.65 171.01,137 171.58,140.33 168.59,138.76 165.6,140.33 
					166.17,137 163.76,134.65 167.1,134.16 				"/>
				<polygon class="st6" points="180.82,131.14 182.31,134.16 185.65,134.65 183.24,137 183.81,140.33 180.82,138.76 177.83,140.33 
					178.41,137 175.99,134.65 179.33,134.16 				"/>
				<polygon class="st6" points="193.05,131.14 194.55,134.16 197.89,134.65 195.47,137 196.04,140.33 193.05,138.76 190.07,140.33 
					190.64,137 188.22,134.65 191.56,134.16 				"/>
				<polygon class="st6" points="205.28,131.14 206.78,134.16 210.12,134.65 207.7,137 208.27,140.33 205.28,138.76 202.3,140.33 
					202.87,137 200.45,134.65 203.79,134.16 				"/>
				<polygon class="st6" points="217.71,131.14 219.2,134.16 222.54,134.65 220.13,137 220.7,140.33 217.71,138.76 214.72,140.33 
					215.29,137 212.88,134.65 216.22,134.16 				"/>
			</g>
		</g>
	</g>
	<path class="st17" d="M384.53,184.23h-115.9c-1.24,0-2.24-1-2.24-2.24l0,0c0-1.24,1-2.24,2.24-2.24h115.9c1.24,0,2.24,1,2.24,2.24
		l0,0C386.78,183.22,385.77,184.23,384.53,184.23z"/>
	<g>
		<path class="st9" d="M415.83,119.62c1.6,5.63-2.3,11.43-6.6,12.65c-4.3,1.22-7.36-2.61-8.96-8.23c-1.6-5.63,0.59-11.18,4.89-12.4
			C409.46,110.42,414.24,113.99,415.83,119.62z"/>
		<path class="st9" d="M391.75,228.68c0,0,11.01,17.1,12.49,17.84c1.49,0.74,5.2,0.93,3.81,3.72c-1.39,2.79-1.95,13.75-3.25,14.31
			c-1.3,0.56-12.45,1.86-10.78,0c1.67-1.86,2.7-0.93,3.55-4.27c0.84-3.35,2.03-9.66,0.45-10.96c-1.58-1.3-11.24-13.01-11.24-13.01
			L391.75,228.68z"/>
		<path class="st9" d="M336.35,236.02c0,0-13.38,22.05-15.86,24.04c-2.48,1.98-10.66,4.96-3.96,5.45c6.69,0.5,9.91-2.23,14.12-3.47
			c4.21-1.24,9.42-1.98,7.43-5.2c-1.98-3.22-1.16-10.25,3.11-14.71C345.47,237.66,336.35,236.02,336.35,236.02z"/>
		<path class="st18" d="M404.63,184.88c0,0-33.12-0.87-46.26,9.91c-7.68,11.65-26.27,46.01-27.71,49.8
			c0.99,0.99,6.57,2.78,9.04,2.53c7.31-8.72,16.97-16.25,20.82-23.09c4.74-8.43,6.19-12.64,13.88-13.38
			c7.68-0.74,25.03-3.22,30.23-3.22S404.63,184.88,404.63,184.88z"/>
		<polygon class="st17" points="433.52,265.57 431.78,265.57 419.33,213.62 423.15,213.62 		"/>
		<polygon class="st17" points="381.51,265.57 383.24,265.57 397.53,211.79 393.71,211.79 		"/>
		<path class="st19" d="M423.51,182.61l-19.26,3.32c0,0-25.59,0.24-37.29,2.41c-10.64,1.98-12.21,14.08,0,30.73
			c6.94,9.46,12.8,17,24.8,25.51c3.05-2.24,4.22-3.09,5.06-8.48c-0.87-1.19-3.12-8.64-3.81-10.1
			c-6.63-13.87-15.49-18.91-15.61-20.27c1.49-2.42,39.38,12.59,46.92,3.76C431.5,201.08,423.51,182.61,423.51,182.61z"/>
		<path class="st4" d="M424.31,139.01c-5.07-0.71-10.24,0.25-15.07,3.75c-4.22,4.3-9,11.4-8.71,23.11
			c0.37,14.87-2.3,15.82,0.49,19.91c11.63,4.8,31.51,25.43,26.83,3.31c-3.39-16.01,7.44-27.95-1.3-45.71
			C425.84,141.94,424.95,140.54,424.31,139.01z"/>
		<path class="st12" d="M400.53,171.47c-0.23,7.75-1.32,10.03-0.48,12.46c4.74,0.48,13.41,2.38,15.58,5.41
			c2.48,3.47,4.96,3.96,3.8,1.4c-1.16-2.56-4.21-6.19,0.5-18.67c4.71-12.47,6.94-20.9,2.31-29.57L400.53,171.47z"/>
		<path class="st9" d="M424.31,139.01c-3.12-7.39-3.89-15.7-3.89-15.7l-8.18,2.42c0,0,4.65,10.41,0.19,14.12
			c-0.95,0.79-2.05,1.75-3.19,2.91C414.07,139.27,419.23,138.3,424.31,139.01z"/>
		<path class="st10" d="M420.66,125.28c-0.48-0.43-1.09-0.97-1.73-1.53l-6.67,1.97c0,0.01-0.01,0.02-0.01,0.04
			c0.16,0.37,1.86,4.33,2.08,8.15c1.99-1.21,4.16-3.17,6.65-6.61C420.85,126.53,420.74,125.86,420.66,125.28z"/>
		<path class="st9" d="M418.56,141.34c-8.42,2.95-7.49,11.82-15.24,24.9c-4.01,6.77-7.74,6.67-7.74,6.67s-9.41,0.08-20.79-1.32
			c-7.13-0.87-7.58,1.25-2.62,3.02c9.99,3.57,20.37,7.42,28.73,6.49c8.36-0.93,22.67-22.27,23.4-27.82
			C425.33,145.61,422.8,139.86,418.56,141.34z"/>
		<g>
			<path class="st17" d="M414.22,215.79c-0.52,0-1.06-0.01-1.61-0.02c-6.86-0.17-11.54-1.12-15.29-1.88
				c-4.38-0.89-6.8-1.38-9.61-0.04c-1.08,0.52-2.37,0.06-2.89-1.02s-0.06-2.37,1.02-2.89c4.12-1.97,7.57-1.27,12.34-0.3
				c3.59,0.73,8.05,1.64,14.53,1.8c7.26,0.18,11.68-0.9,13.92-3.38c2-2.22,2.58-5.94,1.84-11.71c-0.25-1.98-0.51-3.62-0.73-5.07
				c-0.63-4.09-1.05-6.8-0.53-10.98c0.48-3.88,1.77-9.05,4.74-19.08c0.34-1.15,1.54-1.8,2.69-1.46c1.15,0.34,1.8,1.55,1.46,2.69
				c-5.55,18.68-5.27,20.5-4.08,28.16c0.23,1.48,0.49,3.15,0.75,5.18c0.92,7.12-0.01,11.94-2.92,15.17
				C426.86,214.28,422,215.79,414.22,215.79z"/>
		</g>
		<path class="st12" d="M337.26,254.61c-8.88,4.34-13.66,6.83-16.5,6.59c-0.67-0.06-1.23-0.12-1.7-0.2
			c-3.17,1.87-8.22,4.08-2.53,4.5c6.69,0.5,9.91-2.23,14.12-3.47c4.21-1.24,9.42-1.98,7.43-5.2
			C337.7,256.22,337.43,255.46,337.26,254.61z"/>
		<path class="st12" d="M405.21,246.88c-0.22,7.03-1.18,14-5.48,15.31c-1.14,0.35-2.18,0.4-3.1,0.28c-0.68,0.84-1.5,0.85-2.61,2.08
			c-1.67,1.86,9.48,0.56,10.78,0c1.3-0.56,1.86-11.52,3.25-14.31C409.2,247.95,406.9,247.41,405.21,246.88z"/>
		<g>
			<path class="st19" d="M371.01,180.36h-28.21c-0.84,0-1.61-0.49-1.96-1.25l-11.4-24.53c-0.5-1.08-0.03-2.37,1.05-2.88
				c1.08-0.5,2.37-0.03,2.88,1.05l10.82,23.28h26.83c1.2,0,2.16,0.97,2.16,2.16C373.18,179.39,372.21,180.36,371.01,180.36z"/>
		</g>
		<path class="st9" d="M376.92,171.84c-5.7-0.08-11.35-3.48-14.16-2.98c-2.81,0.5-11.98,6.86-10.82,7.1
			c1.16,0.25,8.43-3.52,8.67-3.58c0.25-0.06,1.82,2.61,5.7,3.59c3.88,0.98,0.03-2.91,12.06,0.72
			C386.19,179.06,376.92,171.84,376.92,171.84z"/>
		<path class="st20" d="M423.47,132.27l0.84,6.75c0,0-7.38,0.44-11.05,2.5c-3.67,2.07-9.09,8.03-9.09,8.03l4.42-7.62l0.64-4.87
			L423.47,132.27z"/>
		<path class="st20" d="M420.33,140.53c-5.48-1.03-8.01,3.88-11.56,11.89c-3.55,8.01-9.61,17.74-10.82,19
			c-1.21,1.25-20.32,0-20.32,0s-0.58,5.53,0,6.2c0.58,0.66,3.88,0.58,3.88,0.58s1.32,1.06,2.56,1.89c1.24,0.84,11.73,2.4,16.6,2.16
			c4.87-0.25,9.33-0.66,9.99-1.4c0.66-0.74,13.96-21.23,14.79-28.58C426.28,144.9,423.12,141.05,420.33,140.53z"/>
		<path class="st21" d="M404.17,106.83c-10.36,0.5-8.74,16.08-8.74,16.08s2.69,0.83,8.33-0.1c-0.43-1.67-0.25-5.95-0.25-5.95
			s0.66,3.47,1.49,5.58c1.19,0.55,2.54,0.06,4.83-0.49c1.18,4.95,4.5,7.04,6.78,7.76c2.52,0.79,5.18,1.73,8.15,0.25
			c2.97-1.49,1.34-16.69-0.24-19.74c-2.37-4.59-6.31-8.69-13.12-6.53C407.99,104.77,404.17,106.83,404.17,106.83z"/>
		<path class="st21" d="M422.19,125.34l4.24,6.19c0,0-4.69,11.73,8.96,17.04c10.69,4.16,9.43,11.49,4.6,18.87
			c-4.83,7.37,2.89,13.81,2.89,13.81s1.18-8.17,11.57-9.71c14.17-2.1,18.18-21.12,7.6-30.63c-8.76-7.87-11.42-1.35-17.35-8.41
			c-5.93-7.06-17.11-2.29-17.11-2.29l-4.1-5.98L422.19,125.34z"/>
		<g>
			<path class="st21" d="M466.91,160.07c-0.06,0-0.12-0.01-0.18-0.05c-0.18-0.1-0.25-0.33-0.15-0.51c3.56-6.51,0.66-14.4-0.81-16.53
				c-0.15-0.23-0.3-0.46-0.46-0.7c-1.44-2.24-3.22-5.03-12.76-6.75c-2.3-0.41-4.16-1.78-6.13-3.22c-4.07-2.99-8.68-6.37-18.69-1.76
				c-0.19,0.09-0.41,0-0.5-0.18c-0.09-0.19,0-0.41,0.18-0.5c10.42-4.8,15.22-1.27,19.45,1.84c1.9,1.39,3.69,2.71,5.81,3.09
				c9.86,1.78,11.75,4.72,13.26,7.08c0.15,0.24,0.3,0.46,0.45,0.68c1.53,2.24,4.58,10.5,0.85,17.32
				C467.18,160,467.05,160.07,466.91,160.07z"/>
		</g>
		<g>
			<path class="st21" d="M419.93,131.68c-0.68,0-1.41-0.06-2.2-0.18c-3.62-0.54-8.49-2.6-8.87-14.17c-0.01-0.21,0.16-0.38,0.36-0.39
				c0.21,0,0.38,0.16,0.39,0.36c0.16,4.77,1.1,8.3,2.81,10.49c1.3,1.66,3.02,2.61,5.42,2.96c3.35,0.5,5.58-0.12,6.61-1.84
				c0.11-0.18,0.34-0.24,0.52-0.13c0.18,0.11,0.24,0.34,0.13,0.52C424.15,130.88,422.42,131.68,419.93,131.68z"/>
		</g>
	</g>
	<polygon class="st17" points="279.02,265.57 281.8,265.57 292.63,182.8 286.51,182.8 	"/>
	<polygon class="st17" points="373.48,265.57 370.69,265.57 359.86,182.8 365.99,182.8 	"/>
	<g>
		<path class="st22" d="M482.64,195.7c4.82,4.4,2.72,8.79-0.84,16.96c-3.56,8.17-4.19,38.32-4.19,38.32l2.93-0.42
			c0,0-0.42-30.99,3.56-39.37c3.98-8.38,5.65-12.56,9.21-9.84C496.88,204.08,482.64,195.7,482.64,195.7z"/>
		<path class="st23" d="M479.99,190.01c0.58-2.61,4.06-5.43,8.7-7.82c-0.69,3.84-2.9,10.13-0.61,11.42
			c3.09,1.74,0.3-7.04,1.49-11.86c4.36-2.13,9.61-3.87,14.44-4.74c-0.01,0.02-0.01,0.03-0.02,0.05c-2.72,6.91-6.28,9.63-4.82,10.68
			c1.1,0.79,4.69-7.19,9.44-11.29c3.56-0.19,6.57,0.29,8.35,1.7c2.75,2.18,4.6,4.11,1.83,10.75c-1.58,1.13-3.63,1.94-6.01,2.18
			c-6.28,0.63-9.21,0.84-4.82,2.93c2.15,1.03,5.76-0.06,8.69-0.72c-0.95,1.75-2.12,3.73-3.53,5.98c-0.9,1.43-1.89,2.67-2.94,3.75
			c-2.02,0.39-3.79,0.39-4.72-0.01c-2.93-1.26-10.47-5.23-12.35-3.56c-1.84,1.64,13.96,2.68,12.87,6.84
			c-7.66,4.41-16.43,2.31-17.98-1.74C485.92,199.13,478.23,197.85,479.99,190.01z"/>
		<path class="st22" d="M495.83,219.78c-8.38-6.28-16.96-0.42-21.36,6.28c-4.4,6.7-1.26,21.78-1.26,21.78s1.68,0,1.68-0.63
			c0-0.63-4.61-17.8,6.28-25.55c6.81-4.85,11.73-2.51,12.35-0.21c0.63,2.3-2.72,6.49-2.72,6.49L495.83,219.78z"/>
		<path class="st23" d="M476.57,206.87c8.38,0,11.1,12.98,8.79,20.52c-2.3,7.54-5.44,21.57-5.44,21.57l-2.09-2.09
			c0,0,7.96-19.68,6.07-28.48c-1.88-8.79-6.49-10.26-7.33-10.26C475.73,208.13,476.57,206.87,476.57,206.87z"/>
		<path class="st22" d="M483.59,227.45c0.59-0.78,1.32-1.43,2.2-1.85c-0.12,0.62-0.26,1.22-0.44,1.79
			c-1.05,3.43-2.27,8.22-3.29,12.4c-0.09-0.54-0.24-1.36-0.46-2.64c-0.05-0.3-0.09-0.63-0.12-0.97
			C482.31,233.39,483.08,230.35,483.59,227.45z"/>
		<path class="st23" d="M485.88,227.51c15.91-6.7,7.53-15.9,21.56-9.82c0.99,0.43,2.19,1.51,3.4,2.99
			c-1.25,0.35-2.76,0.61-4.45,0.36c-4.19-0.63-2.72,2.72,4.19,3.56c1.3,0.16,2.36,0.38,3.24,0.68c3.29,6.32,4.78,14.64-2.19,17.53
			c-1.37,0.57-3.07,0.9-4.96,1.02c-2.15-1.71,0.52-11.6-2.79-10.23c-3.18,1.31,1,8.48,0.42,10.28c-3.14-0.06-6.62-0.57-9.94-1.39
			c-1.31-0.74-2.32-1.73-2.63-3.02c-1.05-4.4,5.86-7.12,6.07-10.89c0.19-3.46-2.53,7.62-9.75,9.25
			C481.53,234.78,478.44,230.64,485.88,227.51z"/>
		<path class="st23" d="M474.54,215.66c1.68-3.56-2.72-4.4-2.51-1.68c0.19,2.41,0.21,8.28-2.27,9.87
			c-4.27-0.46-10.07-2.18-14.46-4.8c-0.06-0.35,0-0.72,0.18-1.09c1.88-3.77,14.03-6.91,10.26-8.17c-3-1-8.26,4.91-12.5,7.88
			c-2.55-1.93-4.25-4.23-4.25-6.8c0-3.48,4.23-7.42,9.69-9.3c2.46,0.25,4.75,1.59,8.31,3.62c5.27,2.99,4.05-1.84-0.93-4.71
			c4.3,0.22,8.59,2.06,11.76,6.45c0,0-0.3,1.88,1.69,4.78c5.42,7.92-0.84,12.55-8.31,12.25
			C471.63,221.88,473.38,218.12,474.54,215.66z"/>
		<path class="st22" d="M495.33,219.43c4.09,3.16,8.64,6.86,14.23,9.38c5.58,2.51,4.47,10.7,4.47,10.7s0.84-7.07-3.82-9.49
			c-4.65-2.42-7.72-5.3-11.26-5.86c-3.54-0.56-5.49-1.12-5.49-1.12s1.12-2.23,0.47-3.07C493.27,219.12,495.33,219.43,495.33,219.43z
			"/>
		<path class="st22" d="M515.51,182.27c-14.98,4-25.97,13.59-28.01,15.91c-2.05,2.33-2.05,2.98-2.05,2.98l1.58,2.98l0.74-0.37
			c0,0-1.21-2.51,1.95-5.77c5.46-5.62,12.1-10.05,16.66-12.01C510.95,184.04,515.51,182.27,515.51,182.27z"/>
		<path class="st19" d="M477.01,265.21L477.01,265.21c5.65,0,10.23-4.58,10.23-10.23v-10.29h-20.47v10.29
			C466.78,260.63,471.36,265.21,477.01,265.21z"/>
		<rect x="466.78" y="247.04" class="st2" width="20.47" height="1.44"/>
		<rect x="466.78" y="249.66" class="st2" width="20.47" height="0.85"/>
	</g>
	<g>
		<path class="st1" d="M102.83,247.3h0.86c2.14,0,3.88-1.74,3.88-3.88v0c0-2.14-1.74-3.88-3.88-3.88h-0.86
			c-2.14,0-3.88,1.74-3.88,3.88v0C98.95,245.57,100.69,247.3,102.83,247.3z"/>
		<path class="st1" d="M87.16,247.3h0.86c2.14,0,3.88-1.74,3.88-3.88v0c0-2.14-1.74-3.88-3.88-3.88h-0.86
			c-2.14,0-3.88,1.74-3.88,3.88v0C83.28,245.57,85.02,247.3,87.16,247.3z"/>
		<path class="st1" d="M71.49,247.3h0.86c2.14,0,3.88-1.74,3.88-3.88v0c0-2.14-1.74-3.88-3.88-3.88h-0.86
			c-2.14,0-3.88,1.74-3.88,3.88v0C67.61,245.57,69.35,247.3,71.49,247.3z"/>
	</g>
	<g>
		<path class="st1" d="M515.39,100.76v-0.86c0-2.14-1.74-3.88-3.88-3.88l0,0c-2.14,0-3.88,1.74-3.88,3.88v0.86
			c0,2.14,1.74,3.88,3.88,3.88h0C513.65,104.63,515.39,102.9,515.39,100.76z"/>
		<path class="st1" d="M515.39,116.43v-0.86c0-2.14-1.74-3.88-3.88-3.88l0,0c-2.14,0-3.88,1.74-3.88,3.88v0.86
			c0,2.14,1.74,3.88,3.88,3.88h0C513.65,120.3,515.39,118.57,515.39,116.43z"/>
		<path class="st1" d="M515.39,132.09v-0.86c0-2.14-1.74-3.88-3.88-3.88l0,0c-2.14,0-3.88,1.74-3.88,3.88v0.86
			c0,2.14,1.74,3.88,3.88,3.88l0,0C513.65,135.97,515.39,134.24,515.39,132.09z"/>
	</g>
</g>
</svg>
