<?xml version="1.0" encoding="utf-8"?>
<!-- Generator: Adobe Illustrator 26.0.1, SVG Export Plug-In . SVG Version: 6.00 Build 0)  -->
<svg version="1.1" id="Layer_1" xmlns="http://www.w3.org/2000/svg" xmlns:xlink="http://www.w3.org/1999/xlink" x="0px" y="0px"
	 width="28.5px" height="28.3px" viewBox="0 0 28.5 28.3" style="enable-background:new 0 0 28.5 28.3;" xml:space="preserve">
<style type="text/css">
	.st0{fill:#4C4C4C;}
</style>
<g>
	<path class="st0" d="M14.3,1.3C7.2,1.3,1.5,7.1,1.5,14.1s5.7,12.8,12.8,12.8s12.8-5.7,12.8-12.8C27.1,7.1,21.3,1.3,14.3,1.3z
		 M14.3,25.1c-6.1,0-11-4.9-11-11s4.9-11,11-11s11,4.9,11,11S20.4,25.1,14.3,25.1z"/>
	<polygon class="st0" points="15.5,14.9 15.5,14.9 15,15.7 	"/>
	<path class="st0" d="M19.1,17.1l-3.7-2.2L15,15.7l0.5-0.8c-0.2-0.1-0.4-0.3-0.5-0.6c-0.2-0.3-0.2-0.5-0.2-0.7V8.8
		c0-0.5-0.4-0.9-0.9-0.9c-0.5,0-0.9,0.4-0.9,0.9v4.9c0,0.6,0.2,1.1,0.5,1.6c0.3,0.5,0.7,0.9,1.1,1.2l0,0l0,0l0,0l0,0l3.7,2.2
		c0.4,0.2,1,0.1,1.2-0.3C19.7,18,19.6,17.4,19.1,17.1z"/>
</g>
</svg>
