<?xml version="1.0" encoding="utf-8"?>
<!-- Generator: Adobe Illustrator 26.0.1, SVG Export Plug-In . SVG Version: 6.00 Build 0)  -->
<svg version="1.1" id="Layer_1" xmlns="http://www.w3.org/2000/svg" xmlns:xlink="http://www.w3.org/1999/xlink" x="0px" y="0px"
	 width="23.68px" height="23.68px" viewBox="0 0 23.68 23.68" style="enable-background:new 0 0 23.68 23.68;" xml:space="preserve"
	>
<style type="text/css">
	.st0{fill:#E61E25;}
</style>
<g>
	<path class="st0" d="M21.61,20.81c-0.13,0.38-0.35,0.67-0.77,0.77c-0.32,0.08-0.6,0.01-0.86-0.19c-0.07-0.06-0.14-0.13-0.21-0.2
		c-2.59-2.59-5.17-5.17-7.76-7.76c-0.05-0.05-0.08-0.13-0.13-0.19c-0.03,0-0.06,0-0.09,0c-0.04,0.06-0.08,0.14-0.13,0.19
		c-2.6,2.6-5.2,5.2-7.8,7.8c-0.29,0.29-0.62,0.45-1.03,0.35c-0.73-0.18-1.01-1.04-0.54-1.62c0.06-0.07,0.13-0.14,0.2-0.21
		c2.58-2.58,5.16-5.16,7.74-7.73c0.06-0.06,0.14-0.09,0.2-0.14c0-0.03,0-0.06,0-0.09c-0.07-0.05-0.15-0.08-0.2-0.14
		c-2.6-2.59-5.2-5.19-7.79-7.79C2.3,3.71,2.17,3.51,2.11,3.3C1.96,2.82,2.23,2.33,2.69,2.14c0.06-0.02,0.11-0.05,0.17-0.07
		c0.14,0,0.28,0,0.42,0c0.31,0.11,0.53,0.32,0.76,0.55c2.54,2.55,5.09,5.09,7.64,7.64c0.05,0.05,0.11,0.1,0.19,0.18
		c0.07-0.08,0.11-0.15,0.17-0.21c2.56-2.56,5.12-5.12,7.67-7.68c0.21-0.21,0.43-0.4,0.72-0.48c0.13,0,0.25,0,0.38,0
		c0.41,0.13,0.68,0.39,0.8,0.8c0,0.14,0,0.28,0,0.42c-0.1,0.3-0.31,0.52-0.52,0.73c-2.55,2.55-5.1,5.1-7.65,7.65
		c-0.05,0.05-0.13,0.09-0.19,0.13c0,0.03,0,0.06,0,0.09c0.06,0.04,0.14,0.08,0.19,0.13c2.56,2.55,5.11,5.11,7.67,7.66
		c0.21,0.21,0.41,0.43,0.51,0.72C21.61,20.53,21.61,20.67,21.61,20.81z"/>
</g>
</svg>
