<?xml version="1.0" encoding="utf-8"?>
<!-- Generator: Adobe Illustrator 26.0.1, SVG Export Plug-In . SVG Version: 6.00 Build 0)  -->
<svg version="1.1" id="Layer_1" xmlns="http://www.w3.org/2000/svg" xmlns:xlink="http://www.w3.org/1999/xlink" x="0px" y="0px"
	 width="123.81px" height="123.81px" viewBox="0 0 123.81 123.81" style="enable-background:new 0 0 123.81 123.81;"
	 xml:space="preserve">
<style type="text/css">
	.st0{fill:#0D78AE;}
</style>
<g>
	<path class="st0" d="M26.43,105.88c-0.25-0.13-0.47-0.23-0.69-0.35c-3.17-1.64-4.86-4.25-4.87-7.8
		c-0.03-14.72-0.02-29.44-0.01-44.16c0-5.07,3.7-8.76,8.77-8.79c2.17-0.01,4.33,0,6.61,0c0-0.5,0-0.92,0-1.34
		c0-8.66-0.03-17.32,0.01-25.98c0.02-5.24,5.42-8.52,10-6.1c2.49,1.32,3.67,3.49,3.67,6.3c0.01,8.55,0,17.11,0,25.66
		c0,0.43,0,0.85,0,1.46c0.4,0,0.77-0.01,1.15,0c2.38,0.05,4.8-0.14,7.14,0.2c4.19,0.59,7.06,4.12,7.09,8.36
		c0.04,5.1,0.01,10.19,0.01,15.29c0,0.39,0,0.78,0,1.17c0.06,0.03,0.12,0.06,0.18,0.08c0.17-0.32,0.34-0.63,0.49-0.95
		c2.78-5.77,5.55-11.55,8.33-17.32c1.58-3.28,4.32-4.24,7.6-2.66c9.88,4.74,19.75,9.49,29.63,14.24c1.78,0.86,2.02,1.52,1.17,3.28
		c-6.97,14.5-13.94,28.99-20.91,43.49c-0.79,1.64-1.49,1.88-3.14,1.09c-7.47-3.59-14.94-7.19-22.41-10.79
		c-0.35-0.17-0.7-0.32-1.12-0.51c-0.83,2.87-2.55,4.93-5.38,6.09c0.89,2.67,0.43,4.97-1.99,6.56c-1.8,1.18-3.74,1.14-5.53-0.07
		c-2.07-1.4-2.66-3.42-2.09-5.89c-4.72,0-9.39,0-14.11,0c0.57,2.58-0.08,4.71-2.4,6.08c-1.86,1.09-3.79,0.98-5.52-0.32
		C25.96,110.59,25.55,108.4,26.43,105.88z M36.26,48.27C36,48.23,35.9,48.2,35.8,48.2c-2.14,0-4.27-0.03-6.41,0
		c-2.87,0.04-5.09,2.24-5.09,5.11c-0.02,14.86-0.02,29.72,0,44.57c0,2.8,2.23,4.98,5.04,5.05c1.03,0.03,2.07,0.01,3.1,0.01
		c8.05,0,16.1,0.01,24.15,0c2.55,0,4.52-1.52,5.16-3.84c0.18-0.66,0.11-1.05-0.58-1.32c-0.79-0.31-1.55-0.72-2.31-1.09
		c-3.14-1.54-4.11-4.31-2.6-7.47c1.77-3.69,3.55-7.37,5.31-11.07c0.18-0.37,0.34-0.8,0.34-1.21c0.02-7.91,0.03-15.82,0-23.73
		c-0.01-2.51-1.84-4.72-4.33-4.93c-2.5-0.21-5.03-0.05-7.66-0.05c0,2.86,0,5.65,0,8.41c-1.2,0-2.28,0-3.43,0c0-2.85,0-5.62,0-8.39
		c-2.3,0-4.52,0-6.85,0c0,2.86,0,5.66,0,8.42c-1.17,0-2.23,0-3.36,0C36.26,53.86,36.26,51.1,36.26,48.27z M106.26,72.05
		c-10.34-4.98-20.55-9.9-30.79-14.84c-0.02,0.03-0.09,0.15-0.15,0.27c-5.35,11.12-10.71,22.25-16.05,33.38
		c-0.65,1.34-0.32,2.09,1.14,2.8c7.66,3.68,15.32,7.37,22.99,11.05c1.92,0.92,3.83,1.85,5.82,2.8
		C94.9,95.67,100.56,83.91,106.26,72.05z M46.52,44.72c0-0.43,0-0.81,0-1.2c0-4.1,0-8.19,0-12.29c0-4.53-0.01-9.05,0-13.58
		c0-1.59-0.66-2.77-2.11-3.41c-2.31-1.01-4.72,0.71-4.73,3.37c-0.01,8.8-0.01,17.6,0,26.4c0,0.24,0.05,0.47,0.08,0.7
		C42.02,44.72,44.22,44.72,46.52,44.72z M109.21,65.89c-0.31-0.16-0.5-0.26-0.69-0.35c-7.11-3.42-14.22-6.85-21.33-10.27
		c-2.4-1.16-4.8-2.32-7.22-3.44c-0.96-0.44-1.84-0.12-2.27,0.73c-0.45,0.87-0.13,1.8,0.82,2.34c0.12,0.07,0.26,0.12,0.38,0.18
		c9.32,4.49,18.64,8.97,27.97,13.46c0.28,0.13,0.57,0.24,0.89,0.38C108.25,67.89,108.71,66.94,109.21,65.89z M32.82,108.1
		c0.01-0.92-0.74-1.69-1.66-1.72c-0.96-0.03-1.77,0.78-1.74,1.74c0.02,0.92,0.8,1.67,1.72,1.66
		C32.05,109.78,32.82,109.01,32.82,108.1z M55.08,109.78c0.92-0.01,1.68-0.77,1.69-1.69c0.01-0.96-0.81-1.76-1.77-1.72
		c-0.92,0.04-1.66,0.83-1.64,1.74C53.39,109.04,54.16,109.79,55.08,109.78z"/>
	<path class="st0" d="M93.44,20.4c2.54,1.69,4.98,3.33,7.46,4.93c0.2,0.13,0.67,0.03,0.92-0.12c1.15-0.71,2.25-1.5,3.39-2.23
		c1.03-0.67,1.69-0.61,2.57,0.25c1.02,0.99,2.03,2,3.02,3.02c0.95,0.98,0.98,1.84,0.03,2.79c-2.15,2.18-4.3,4.36-6.5,6.5
		c-1.79,1.74-4.14,2.02-6.29,0.71c-9.43-5.73-18.84-11.5-28.25-17.26c-1.11-0.68-1.42-1.73-0.68-2.6c1.68-2,3.61-3.62,6.36-3.98
		c2.07-0.27,3.95,0.18,5.73,1.22c1.01,0.59,2.01,1.61,3.05,1.64c1.03,0.04,2.11-0.9,3.16-1.43c1.97-0.98,3.96-1.95,5.92-2.97
		c0.96-0.5,1.73-0.37,2.51,0.37c2.55,2.44,2.57,2.51,0.47,5.32C95.37,17.83,94.44,19.07,93.44,20.4z M107.32,27.67
		c-1.12-1.25-1.12-1.25-2.36-0.43c-0.77,0.51-1.57,0.98-2.31,1.54c-0.96,0.73-1.82,0.69-2.82,0.01c-3.08-2.11-6.21-4.15-9.31-6.23
		c-1.5-1-1.63-1.79-0.55-3.25c1.07-1.44,2.14-2.88,3.21-4.31c-2.7,1.13-5.27,2.38-7.81,3.7c-0.93,0.48-1.72,0.45-2.59-0.11
		c-1.19-0.77-2.41-1.51-3.66-2.19c-2-1.1-4.32-0.8-5.83,0.73c3.95,2.42,7.9,4.82,11.84,7.23c4.76,2.91,9.53,5.82,14.28,8.75
		c0.83,0.51,1.67,0.79,2.44,0.04C103.7,31.37,105.47,29.53,107.32,27.67z"/>
	<path class="st0" d="M53.4,38.58c0-1.18,0-2.24,0-3.37c1.6-0.07,2.8-0.87,3.94-1.9c4.59-4.12,11.35-4.11,15.98-0.03
		c0.32,0.28,0.61,0.6,0.94,0.88c0.85,0.73,1.72,0.75,2.61,0.07c3.12-2.38,5.52-2.24,8.27,0.59c3.27,3.36,6.68,6.51,10.98,8.55
		c3.08,1.46,6.3,2.42,9.67,2.88c0.41,0.06,0.84,0.05,1.48,0.09c-0.85-2.06-1.63-3.95-2.45-5.94c0.96-0.49,1.92-0.98,2.95-1.5
		c3.09,6.14,4.81,12.54,5.31,19.45c-1.16,0.07-2.23,0.13-3.28,0.2c-0.37-2.33-0.69-4.54-1.09-6.74c-0.35-1.91-0.39-1.89-2.29-2.08
		c-7.89-0.77-14.72-3.91-20.5-9.33c-1.25-1.17-2.42-2.41-3.65-3.61c-1.03-1-1.89-1.03-3.01-0.12c-2.54,2.08-5.31,1.97-7.67-0.3
		c-3.71-3.58-8.53-3.67-12.34-0.19C57.62,37.67,55.75,38.55,53.4,38.58z"/>
	<path class="st0" d="M18.71,83.25c-0.75,0.38-1.7,0.85-2.64,1.32C6.23,66.99,8.62,37.02,31.86,20.35c0.63,0.87,1.27,1.75,1.81,2.5
		C14.17,39.43,9.24,59.45,18.71,83.25z"/>
	<path class="st0" d="M63.69,113.17c0-1.14,0-2.19,0-3.11c4.33-0.76,8.68-1.53,13.17-2.32c0.26,0.78,0.59,1.81,0.96,2.93
		C73.19,112.21,68.55,112.99,63.69,113.17z"/>
	<path class="st0" d="M53.6,14.39c-0.15-0.93-0.33-1.96-0.51-3.07c4.73-0.81,9.35-1.01,14.11-0.48c-0.11,1.12-0.22,2.2-0.31,3.08
		C62.42,14.08,58.08,14.24,53.6,14.39z"/>
	<path class="st0" d="M31.2,60.22c1.13,0,2.18,0,3.29,0c0,13.07,0,26.1,0,39.22c-1.05,0-2.13,0-3.29,0
		C31.2,86.42,31.2,73.36,31.2,60.22z"/>
	<path class="st0" d="M41.46,60.22c1.13,0,2.19,0,3.29,0c0,13.08,0,26.1,0,39.22c-1.06,0-2.14,0-3.29,0
		C41.46,86.41,41.46,73.36,41.46,60.22z"/>
	<path class="st0" d="M51.72,60.22c1.12,0,2.18,0,3.29,0c0,13.1,0,26.15,0,39.25c-1.1,0-2.16,0-3.29,0
		C51.72,86.42,51.72,73.37,51.72,60.22z"/>
	<path class="st0" d="M84.15,66.55c6.63-0.01,11.96,5.3,11.97,11.93c0.01,6.62-5.31,11.97-11.93,12c-6.55,0.03-11.99-5.39-12-11.96
		C72.18,71.92,77.53,66.57,84.15,66.55z M88.1,82.3c-1.46,1.6-2.86,3.13-4.23,4.64c2.33,0.42,5.82-1.2,6.97-3.33
		C89.89,83.16,88.94,82.7,88.1,82.3z M75.87,76.42c-0.62,3.01,0.01,5.51,1.88,7.7c0.33-2.12,0.66-4.17,1-6.32
		C77.88,77.38,76.93,76.93,75.87,76.42z M89.6,79.21c0.85,0.41,1.8,0.87,2.76,1.32c0.89-2.41-0.06-6.15-1.81-7.52
		C90.25,75,89.94,77.01,89.6,79.21z M84.57,69.97c-2.94-0.04-5.28,1.02-7.18,3.36c1.06,0.51,2.03,0.98,2.85,1.38
		C81.73,73.08,83.1,71.58,84.57,69.97z M81.25,84c0.14,0.07,0.29,0.14,0.43,0.21c1.05-1.11,2.1-2.22,3.26-3.44
		c-1.07-0.52-1.93-0.93-3-1.45C81.7,80.97,81.47,82.48,81.25,84z M83.41,76.25c1.1,0.52,1.95,0.92,3.04,1.43
		c0.22-1.7,0.41-3.2,0.6-4.7c-0.14-0.06-0.27-0.12-0.41-0.18C85.6,73.91,84.56,75.02,83.41,76.25z"/>
	<path class="st0" d="M84.42,97.59c-0.53,1.09-0.99,2.04-1.49,3.08c-5.14-2.47-10.21-4.91-15.4-7.4c0.5-1.04,0.96-2.01,1.47-3.08
		C74.18,92.67,79.25,95.11,84.42,97.59z"/>
</g>
</svg>
