<?xml version="1.0" encoding="utf-8"?>
<!-- Generator: Adobe Illustrator 26.0.1, SVG Export Plug-In . SVG Version: 6.00 Build 0)  -->
<svg version="1.1" id="Layer_1" xmlns="http://www.w3.org/2000/svg" xmlns:xlink="http://www.w3.org/1999/xlink" x="0px" y="0px"
	 width="18.19px" height="20.23px" viewBox="0 0 18.19 20.23" style="enable-background:new 0 0 18.19 20.23;" xml:space="preserve"
	>
<style type="text/css">
	.st0{fill:#4F4F4F;}
</style>
<path class="st0" d="M15.02,2.5h-1.69V1.66c0-0.47-0.38-0.85-0.85-0.85c-0.47,0-0.85,0.38-0.85,0.85V2.5H6.56V1.66
	c0-0.47-0.38-0.85-0.85-0.85c-0.47,0-0.85,0.38-0.85,0.85V2.5H3.17c-1.4,0-2.54,1.14-2.54,2.54v11.84c0,1.4,1.14,2.54,2.54,2.54
	h11.84c1.4,0,2.54-1.14,2.54-2.54V5.04C17.55,3.64,16.42,2.5,15.02,2.5z M3.17,4.19h1.69v0.85c0,0.47,0.38,0.85,0.85,0.85
	c0.47,0,0.85-0.38,0.85-0.85V4.19h5.08v0.85c0,0.47,0.38,0.85,0.85,0.85c0.47,0,0.85-0.38,0.85-0.85V4.19h1.69
	c0.47,0,0.85,0.38,0.85,0.85v2.54H2.33V5.04C2.33,4.57,2.71,4.19,3.17,4.19z M15.02,17.73H3.17c-0.47,0-0.85-0.38-0.85-0.85V9.27
	h13.53v7.61C15.86,17.35,15.48,17.73,15.02,17.73z"/>
</svg>
