<?xml version="1.0" encoding="utf-8"?>
<!-- Generator: Adobe Illustrator 26.5.0, SVG Export Plug-In . SVG Version: 6.00 Build 0)  -->
<svg version="1.1" id="Layer_1" xmlns="http://www.w3.org/2000/svg" xmlns:xlink="http://www.w3.org/1999/xlink" x="0px" y="0px"
	 width="50px" height="50px" viewBox="0 0 50 50" style="enable-background:new 0 0 50 50;" xml:space="preserve">
<style type="text/css">
	.st0{fill:#FFFFFF;}
</style>
<g>
	<path class="st0" d="M23.7,46.6c0-0.7,0-1.3,0-2c-0.3-0.1-0.6-0.1-0.9-0.2c-3-1-5-3.7-5.1-6.9c0-4.1,0-8.3,0-12.4
		c0-0.3-0.1-0.5-0.4-0.7c-1.4-0.9-2.6-1.9-3.6-3.3c-1.2-1.8-1.9-3.8-1.9-6c0-2.3,1.8-4.2,4.1-4.3c0.7,0,1.4,0,2.1,0
		c5.1,0,10.3,0,15.4,0c2.2,0,4,1.5,4.3,3.5c0.2,1.3,0,2.6-0.4,3.8c-0.7,2.1-1.9,3.9-3.7,5.3c-0.1,0.1-0.2,0.2-0.4,0.3
		c-1,0.5-1.3,1.3-1.3,2.4c0.1,3.7,0,7.3,0,11c0.1,3.9-2.6,6.8-5.7,7.4c-0.1,0-0.1,0-0.2,0.1c0,0.7,0,1.3,0,2
		C25.4,46.6,24.6,46.6,23.7,46.6z M29.6,25.3c-3.1,0-6.2,0-9.3,0c0,0.1,0,0.1,0,0.2c0,4.1,0,8.1,0,12.2c0,2.9,3,5.1,5.8,4.3
		c2.1-0.6,3.5-2.4,3.5-4.7c0-3.9,0-7.7,0-11.6C29.6,25.6,29.6,25.4,29.6,25.3z M34.7,18.5c-6.5,0-12.9,0-19.4,0
		c0.2,0.3,0.3,0.6,0.5,0.8c0.9,1.5,2.3,2.4,3.7,3.4c0.1,0.1,0.2,0.1,0.4,0.1c3.5,0,7,0,10.4,0c0.2,0,0.3,0,0.5-0.1
		c0.6-0.4,1.2-0.9,1.8-1.3C33.5,20.5,34.2,19.6,34.7,18.5z M14.5,15.9c7,0,13.9,0,20.9,0c0.3-1.7-0.6-2.5-2.1-2.5
		c-5.6,0-11.2,0-16.7,0c-0.2,0-0.3,0-0.5,0c-0.9,0.1-1.6,0.8-1.6,1.7C14.5,15.3,14.5,15.6,14.5,15.9z"/>
	<path class="st0" d="M16.1,8.3c-0.8,0-1.6,0-2.5,0c0-1.6,0-3.2,0-4.9c0.8,0,1.6,0,2.5,0C16.1,5,16.1,6.7,16.1,8.3z"/>
	<path class="st0" d="M18.7,3.4c0.8,0,1.6,0,2.5,0c0,1.6,0,3.2,0,4.8c-0.8,0-1.6,0-2.5,0C18.7,6.7,18.7,5.1,18.7,3.4z"/>
	<path class="st0" d="M26.2,8.3c-0.8,0-1.6,0-2.5,0c0-1.6,0-3.2,0-4.8c0.8,0,1.6,0,2.5,0C26.2,5.1,26.2,6.7,26.2,8.3z"/>
	<path class="st0" d="M28.8,3.4c0.8,0,1.6,0,2.5,0c0,1.6,0,3.2,0,4.8c-0.8,0-1.6,0-2.5,0C28.8,6.7,28.8,5.1,28.8,3.4z"/>
	<path class="st0" d="M33.9,3.4c0.8,0,1.6,0,2.5,0c0,1.6,0,3.2,0,4.8c-0.8,0-1.6,0-2.5,0C33.9,6.7,33.9,5.1,33.9,3.4z"/>
	<path class="st0" d="M26.2,28.1c0,0.8,0,1.6,0,2.5c-0.8,0-1.6,0-2.5,0c0-0.8,0-1.6,0-2.5C24.6,28.1,25.4,28.1,26.2,28.1z"/>
	<path class="st0" d="M26.2,33.2c0,0.8,0,1.6,0,2.5c-0.8,0-1.6,0-2.5,0c0-0.8,0-1.6,0-2.5C24.6,33.2,25.4,33.2,26.2,33.2z"/>
</g>
</svg>
