<?xml version="1.0" encoding="utf-8"?>
<!-- Generator: Adobe Illustrator 26.0.1, SVG Export Plug-In . SVG Version: 6.00 Build 0)  -->
<svg version="1.1" id="Layer_1" xmlns="http://www.w3.org/2000/svg" xmlns:xlink="http://www.w3.org/1999/xlink" x="0px" y="0px"
	 width="26px" height="26px" viewBox="0 0 26 26" style="enable-background:new 0 0 26 26;" xml:space="preserve">
<style type="text/css">
	.st0{fill:url(#SVGID_1_);}
	.st1{fill:#FFFFFF;}
</style>
<g>
	
		<linearGradient id="SVGID_1_" gradientUnits="userSpaceOnUse" x1="4.7088" y1="23.2912" x2="22.835" y2="5.165" gradientTransform="matrix(1 0 0 -1 0 28)">
		<stop  offset="0" style="stop-color:#2AA4F4"/>
		<stop  offset="1" style="stop-color:#007AD9"/>
	</linearGradient>
	<path class="st0" d="M13,1.16C6.46,1.16,1.16,6.46,1.16,13S6.46,24.84,13,24.84S24.84,19.54,24.84,13S19.54,1.16,13,1.16z"/>
	<path class="st1" d="M14.6,16.14h3.06l0.48-3.11H14.6v-1.7c0-1.29,0.42-2.44,1.63-2.44h1.94V6.17c-0.34-0.05-1.06-0.15-2.43-0.15
		c-2.85,0-4.52,1.5-4.52,4.93v2.07H8.3v3.11h2.93v8.55c0.58,0.09,1.17,0.15,1.77,0.15c0.55,0,1.08-0.05,1.6-0.12V16.14z"/>
</g>
</svg>
