<?xml version="1.0" encoding="utf-8"?>
<!-- Generator: Adobe Illustrator 26.2.1, SVG Export Plug-In . SVG Version: 6.00 Build 0)  -->
<svg version="1.1" id="Layer_1" xmlns="http://www.w3.org/2000/svg" xmlns:xlink="http://www.w3.org/1999/xlink" x="0px" y="0px"
	 width="25.2px" height="25.2px" viewBox="0 0 25.2 25.2" style="enable-background:new 0 0 25.2 25.2;" xml:space="preserve">
<style type="text/css">
	.st0{fill:#5EB7DD;}
</style>
<g>
	<path class="st0" d="M21.38,13.05c-0.06,0.35-0.1,0.71-0.18,1.06c-0.6,2.68-2.94,4.76-5.66,5.05c-1.12,0.12-2.2-0.02-3.24-0.44
		c-0.09-0.03-0.19-0.05-0.28-0.05c-1.42,0-2.83,0-4.25,0c-0.07,0-0.14,0-0.2-0.02c-0.13-0.04-0.18-0.13-0.17-0.26
		c0.01-0.13,0.09-0.21,0.21-0.23c0.06-0.01,0.13-0.01,0.19-0.01c1.06,0,2.11,0,3.17,0c0.06,0,0.12,0,0.23,0
		c-0.2-0.15-0.38-0.27-0.54-0.41c-1.77-1.48-2.59-3.38-2.44-5.68C8.28,11,8.61,10.02,9.17,9.12c0.02-0.04,0.05-0.08,0.08-0.11
		C9.34,8.9,9.46,8.87,9.58,8.95s0.15,0.2,0.1,0.33c-0.02,0.06-0.06,0.11-0.1,0.16c-2.25,3.66-0.01,8.5,4.22,9.17
		c3.25,0.51,6.27-1.58,6.94-4.81c0.66-3.19-1.42-6.43-4.61-7.12c-2.24-0.48-4.18,0.13-5.79,1.76c-0.03,0.03-0.06,0.07-0.1,0.1
		c-0.11,0.09-0.23,0.09-0.34,0c-0.1-0.1-0.12-0.25-0.02-0.36C10.05,8,10.22,7.82,10.4,7.66c0.24-0.2,0.49-0.39,0.76-0.61
		c-0.09,0-0.15,0-0.21,0c-1.06,0-2.11,0-3.17,0c-0.06,0-0.13,0-0.19-0.01c-0.13-0.02-0.2-0.1-0.21-0.23
		C7.37,6.69,7.43,6.59,7.56,6.56c0.06-0.02,0.14-0.02,0.2-0.02c1.42,0,2.83,0,4.25,0c0.11,0,0.22-0.02,0.31-0.06
		c3.87-1.53,8.15,0.81,8.94,4.9c0.05,0.26,0.08,0.52,0.12,0.78C21.38,12.45,21.38,12.75,21.38,13.05z"/>
	<path class="st0" d="M3.82,11.61c0.09-0.13,0.21-0.17,0.37-0.17c0.8,0,1.6,0,2.4,0c0.07,0,0.14,0,0.2,0.02
		c0.12,0.04,0.18,0.14,0.16,0.27c-0.01,0.12-0.09,0.2-0.21,0.22c-0.04,0.01-0.08,0.01-0.12,0.01c-0.82,0-1.64,0-2.47,0
		c-0.15,0-0.27-0.05-0.34-0.18C3.82,11.72,3.82,11.66,3.82,11.61z"/>
	<path class="st0" d="M3.82,13.42c0.07-0.13,0.17-0.18,0.32-0.18c0.83,0,1.67,0,2.5,0c0.23,0,0.36,0.14,0.3,0.32
		c-0.05,0.16-0.18,0.19-0.32,0.19c-0.64,0-1.28,0-1.92,0c-0.17,0-0.34-0.01-0.51,0c-0.15,0.01-0.28-0.04-0.37-0.16
		C3.82,13.54,3.82,13.48,3.82,13.42z"/>
	<path class="st0" d="M14.76,17.73c-2.59-0.04-4.69-1.88-5.06-4.44c-0.39-2.67,1.51-5.27,4.18-5.73c2.82-0.48,5.42,1.33,5.95,4.14
		c0.04,0.18,0.05,0.37,0.07,0.56c0.01,0.17-0.09,0.29-0.23,0.31c-0.14,0.01-0.26-0.09-0.28-0.26c-0.08-1-0.42-1.91-1.09-2.67
		c-1.28-1.44-2.88-1.97-4.73-1.47c-1.86,0.51-3,1.78-3.33,3.68c-0.44,2.52,1.26,4.86,3.79,5.31c2.47,0.43,4.89-1.29,5.3-3.76
		c0.01-0.08,0.03-0.19,0.09-0.23c0.07-0.05,0.19-0.08,0.28-0.06c0.12,0.03,0.18,0.15,0.15,0.27c-0.09,0.36-0.16,0.73-0.28,1.07
		C18.82,16.42,16.84,17.76,14.76,17.73z"/>
	<path class="st0" d="M15.04,12.35c0.23,0,0.45,0,0.67,0c0.06,0,0.13,0,0.19,0c0.16,0.01,0.27,0.11,0.27,0.25s-0.1,0.26-0.26,0.26
		c-0.37,0.01-0.74,0.01-1.11,0c-0.17,0-0.26-0.1-0.26-0.28c0-0.71,0-1.42,0-2.12c0-0.17,0.11-0.28,0.26-0.28
		c0.15,0,0.25,0.12,0.25,0.29c0,0.55,0,1.11,0,1.66C15.04,12.19,15.04,12.25,15.04,12.35z"/>
	<path class="st0" d="M6.5,8.94c-0.43,0-0.86,0-1.29,0c-0.2,0-0.32-0.1-0.31-0.26c0-0.15,0.12-0.25,0.31-0.25c0.87,0,1.74,0,2.6,0
		c0.2,0,0.31,0.1,0.31,0.26S8.01,8.94,7.8,8.94C7.36,8.94,6.93,8.94,6.5,8.94z"/>
	<path class="st0" d="M6.51,16.27c0.43,0,0.87,0,1.3,0c0.2,0,0.31,0.1,0.31,0.26c0,0.15-0.12,0.25-0.3,0.25c-0.87,0-1.74,0-2.6,0
		c-0.2,0-0.32-0.11-0.31-0.26c0-0.15,0.12-0.25,0.31-0.25C5.64,16.27,6.07,16.27,6.51,16.27z"/>
	<path class="st0" d="M7.23,10.69c-0.17,0-0.34,0-0.51,0c-0.17-0.01-0.27-0.1-0.27-0.25s0.1-0.26,0.26-0.26
		c0.35-0.01,0.71-0.01,1.06,0c0.16,0,0.27,0.12,0.26,0.26c0,0.14-0.11,0.24-0.27,0.25C7.58,10.69,7.41,10.69,7.23,10.69z"/>
	<path class="st0" d="M7.23,14.52c0.18,0,0.35,0,0.53,0c0.16,0.01,0.27,0.11,0.27,0.25c0,0.13-0.1,0.25-0.25,0.25
		c-0.36,0.01-0.73,0.01-1.09,0c-0.15,0-0.24-0.12-0.24-0.26s0.1-0.24,0.25-0.24C6.88,14.51,7.06,14.52,7.23,14.52z"/>
	<path class="st0" d="M15.03,9.06c0,0.07,0,0.14,0,0.2C15.02,9.4,14.9,9.51,14.77,9.5c-0.14-0.01-0.24-0.09-0.25-0.23
		c-0.01-0.14-0.01-0.28,0-0.43c0.01-0.15,0.12-0.25,0.26-0.24c0.14,0,0.24,0.1,0.25,0.25C15.04,8.92,15.03,8.99,15.03,9.06z"/>
	<path class="st0" d="M12.12,9.67c0.08,0.04,0.15,0.06,0.19,0.1c0.1,0.09,0.2,0.19,0.29,0.29c0.1,0.12,0.09,0.25-0.01,0.35
		c-0.1,0.09-0.24,0.1-0.35,0c-0.11-0.09-0.22-0.19-0.29-0.31c-0.04-0.07-0.06-0.19-0.03-0.26C11.94,9.77,12.05,9.73,12.12,9.67z"/>
	<path class="st0" d="M17.15,10.49c-0.21,0-0.34-0.22-0.22-0.38c0.1-0.14,0.23-0.27,0.37-0.37c0.06-0.04,0.21-0.02,0.27,0.03
		c0.06,0.05,0.11,0.22,0.08,0.26c-0.12,0.16-0.28,0.3-0.43,0.44C17.21,10.49,17.17,10.48,17.15,10.49z"/>
	<path class="st0" d="M12.69,14.95c-0.04,0.08-0.05,0.14-0.09,0.18c-0.1,0.11-0.2,0.22-0.31,0.31c-0.11,0.09-0.24,0.08-0.34-0.02
		s-0.11-0.23-0.01-0.34c0.1-0.11,0.2-0.23,0.32-0.31c0.07-0.05,0.19-0.06,0.27-0.03C12.59,14.78,12.64,14.88,12.69,14.95z"/>
	<path class="st0" d="M17.68,15.23c0,0.21-0.22,0.35-0.37,0.23c-0.14-0.1-0.27-0.23-0.37-0.37c-0.04-0.06-0.03-0.22,0.02-0.27
		c0.06-0.06,0.22-0.12,0.28-0.08c0.16,0.12,0.29,0.28,0.43,0.42C17.68,15.18,17.68,15.22,17.68,15.23z"/>
	<path class="st0" d="M14.52,16.15c0-0.07-0.01-0.15,0-0.22c0.02-0.14,0.11-0.23,0.25-0.23s0.24,0.09,0.25,0.23
		c0.01,0.14,0.01,0.28,0,0.43s-0.12,0.25-0.25,0.25s-0.24-0.1-0.25-0.25C14.52,16.28,14.52,16.21,14.52,16.15L14.52,16.15z"/>
	<path class="st0" d="M11.22,12.87c-0.08-0.01-0.16,0-0.24-0.02c-0.14-0.03-0.21-0.12-0.2-0.25c0-0.14,0.08-0.23,0.22-0.24
		c0.15-0.01,0.31-0.01,0.46,0c0.14,0.01,0.21,0.1,0.22,0.24c0,0.14-0.06,0.23-0.2,0.26C11.4,12.86,11.31,12.86,11.22,12.87z"/>
	<path class="st0" d="M18.32,12.35c0.08,0,0.16-0.01,0.24,0c0.13,0.02,0.2,0.1,0.21,0.23c0.01,0.14-0.06,0.24-0.19,0.26
		c-0.16,0.02-0.33,0.02-0.49,0c-0.15-0.01-0.22-0.12-0.21-0.26s0.09-0.22,0.23-0.23C18.18,12.34,18.25,12.35,18.32,12.35
		L18.32,12.35z"/>
</g>
</svg>
