<?xml version="1.0" encoding="utf-8"?>
<!-- Generator: Adobe Illustrator 26.5.0, SVG Export Plug-In . SVG Version: 6.00 Build 0)  -->
<svg version="1.1" id="Layer_1" xmlns="http://www.w3.org/2000/svg" xmlns:xlink="http://www.w3.org/1999/xlink" x="0px" y="0px"
	 width="50px" height="50px" viewBox="0 0 50 50" style="enable-background:new 0 0 50 50;" xml:space="preserve">
<style type="text/css">
	.st0{fill:#0C62C1;}
</style>
<g>
	<path class="st0" d="M17,22.9c0.2,0,0.3,0,0.5,0c0.9,0,1.6,0.6,1.6,1.5c0,0.5,0,1.1,0,1.6c0,0.9-0.7,1.5-1.6,1.6
		c-0.2,0-0.3,0-0.5,0c0,0.2,0,0.3,0,0.5c0,3,0,6,0,9c0,0.9-0.1,1-1,1c-0.6,0-1.3,0-1.9,0c-0.1,0-0.3,0.1-0.3,0.2
		c-0.2,0.9-0.4,1.8-0.2,2.7c0.1,0.3,0.2,0.6,0.3,0.9c0.5,1.1,0.5,2.2-0.2,3.2c-0.3,0.4-0.6,0.5-1,0.2c-0.3-0.2-0.4-0.6-0.1-1
		c0.4-0.6,0.4-1.3,0.1-2c-0.6-1.1-0.6-2.3-0.4-3.5c0-0.2,0.1-0.5,0.2-0.8c-0.5,0-1,0-1.4,0c-0.6,0-0.8-0.2-0.9-0.8
		C9.3,32.2,8.7,27,8.1,21.9c-0.1-0.6-0.3-1-0.7-1.4c-4.5-4.4-3.5-12.1,1.9-15c1.8-1,3.7-1.1,5.7-0.8c5.7,1,11.4,2,17.1,3.1
		C33,8,33.7,7.9,34.5,7.5c0.8-0.4,1.7-0.8,2.6-1.1c0.6-0.3,1.1,0,1.1,0.7c0,4.5,0,9,0,13.4c0,0.7-0.4,1-1.1,0.7
		c-1.2-0.5-2.3-1-3.5-1.5c-0.2-0.1-0.5-0.1-0.7-0.1c-4.9,0.9-9.7,1.7-14.6,2.6c-0.3,0.1-0.6,0.1-1,0.2C16.9,22.4,16.9,22.6,17,22.9z
		 M32.7,13.8c0-1.4,0-2.8,0-4.2c0-0.3-0.1-0.4-0.4-0.4c-0.6-0.1-1.2-0.2-1.8-0.3C25.3,7.9,20.1,7,14.9,6.1C13,5.7,11.3,5.9,9.7,6.8
		c-3.2,1.9-4.6,6.1-3.3,9.8c1.2,3.3,4,5.3,7.3,5c0.8-0.1,1.6-0.3,2.4-0.4c5.4-1,10.8-1.9,16.2-2.9c0.4-0.1,0.5-0.2,0.4-0.6
		C32.7,16.5,32.7,15.1,32.7,13.8z M15.6,36.8c0-4.7,0-9.4,0-14.2c-2.1,0.5-4.2,0.4-6.2-0.6c0.6,5,1.2,9.8,1.9,14.7
		C12.7,36.8,14.1,36.8,15.6,36.8z M36.9,7.9C36,8.3,35.2,8.6,34.4,9c-0.3,0.1-0.4,0.2-0.4,0.5c0,2.7,0,5.4,0,8.1
		c0,0.6,0.1,0.9,0.7,1c0.7,0.2,1.4,0.6,2.1,0.9C36.9,15.7,36.9,11.8,36.9,7.9z M17,24.3c0,0.7,0,1.3,0,2c0.7,0.1,0.8,0,0.8-0.7
		c0-0.2,0-0.5,0-0.7C17.7,24.2,17.7,24.2,17,24.3z"/>
	<path class="st0" d="M43.3,9.8c-0.3,0.1-0.6,0.2-0.8,0.4c-1,0.7-2.7,0.4-3.5-0.5c-0.2-0.3-0.2-0.6,0-0.8c0.2-0.3,0.5-0.3,0.9-0.1
		c0.3,0.2,0.6,0.4,0.9,0.5c0.3,0.2,0.7,0.1,1-0.1c1.1-0.9,2.5-0.5,3.4,0c0.3,0.2,0.4,0.5,0.3,0.9c-0.2,0.3-0.5,0.4-0.9,0.3
		C44.1,10,43.7,9.9,43.3,9.8z"/>
	<path class="st0" d="M45.4,13.3c0,0.6-0.5,0.9-0.9,0.7c-0.2-0.1-0.4-0.2-0.6-0.2c-0.6-0.2-1.1-0.2-1.6,0.2
		c-0.7,0.6-1.5,0.5-2.3,0.1c-0.4-0.2-0.7-0.4-1-0.7c-0.3-0.2-0.3-0.6-0.1-0.9c0.2-0.3,0.6-0.3,0.9-0.1c0.3,0.2,0.6,0.4,0.9,0.5
		c0.3,0.2,0.6,0.1,0.9-0.1c1.1-0.8,2.3-0.6,3.4-0.1C45.2,13,45.3,13.2,45.4,13.3z"/>
	<path class="st0" d="M43.3,17.5c-0.3,0.1-0.6,0.2-0.8,0.3c-1.1,0.7-2.7,0.5-3.5-0.5c-0.2-0.3-0.2-0.6,0-0.9
		c0.2-0.3,0.5-0.3,0.9-0.1c0.3,0.2,0.5,0.4,0.8,0.5c0.4,0.2,0.8,0.2,1.1-0.1c1.1-0.8,2.4-0.5,3.4,0c0.3,0.2,0.4,0.5,0.3,0.9
		c-0.2,0.3-0.5,0.4-0.9,0.3C44.1,17.8,43.7,17.7,43.3,17.5z"/>
	<path class="st0" d="M16.2,13.8c0,2.1-1.7,3.8-3.8,3.7c-2,0-3.7-1.7-3.7-3.8c0-2,1.7-3.7,3.7-3.7C14.5,10,16.2,11.7,16.2,13.8z
		 M14.9,13.8c0-1.3-1.1-2.4-2.4-2.4c-1.3,0-2.4,1.1-2.4,2.4c0,1.3,1.1,2.4,2.4,2.4C13.8,16.2,14.9,15.1,14.9,13.8z"/>
</g>
</svg>
