<?xml version="1.0" encoding="utf-8"?>
<!-- Generator: Adobe Illustrator 26.5.0, SVG Export Plug-In . SVG Version: 6.00 Build 0)  -->
<svg version="1.1" id="Layer_1" xmlns="http://www.w3.org/2000/svg" xmlns:xlink="http://www.w3.org/1999/xlink" x="0px" y="0px"
	 width="50px" height="50px" viewBox="0 0 50 50" style="enable-background:new 0 0 50 50;" xml:space="preserve">
<style type="text/css">
	.st0{fill:#FFFFFF;}
</style>
<path class="st0" d="M34.7,34.1c-6.5,0-12.9,0-19.5,0c0,0.2,0,0.4,0,0.6c0,3.9,0,7.7,0,11.6c0,0.9-0.2,1.1-1.1,1.1
	c-0.6,0-1.1,0-1.7,0c-0.8,0-1.1-0.2-1.1-1.1c0-5.4,0-10.9,0-16.3c0-0.3,0-0.6-0.3-0.7c-0.2-0.1-0.3-0.4-0.3-0.6c0-1.4,0-2.7,0-4.1
	c0-0.5,0.3-0.8,0.9-0.8c1.4,0,2.8,0,4.2,0c0-0.2,0-0.3,0-0.4c0-2.5,0-5,0-7.4c0-0.4-0.1-0.5-0.5-0.5c-0.3,0-0.6-0.1-0.8-0.1
	c-1.3-0.3-2.1-1.1-2.2-2.5c-0.1-1.6-0.1-3.2,0-4.9c0.1-1.5,0.9-2.3,2.5-2.6c0.3-0.1,0.7-0.1,1.1-0.1c0-0.5,0-1,0-1.5
	c0-0.6,0.3-0.9,0.8-0.9c0.7,0,1.5,0,2.2,0c0.6,0,0.9,0.3,0.9,0.9c0,0.5,0,0.9,0,1.4c0,0,0,0,0.1,0.1c3.4,0,6.8,0,10.3,0
	c0-0.4,0-0.9,0-1.3c0-0.8,0.3-1,1-1c0.6,0,1.2,0,1.8,0c0.8,0,1.1,0.2,1.1,1c0,0.4,0,0.8,0,1.2v0.1c0.5,0.1,0.9,0.1,1.4,0.2
	c1.3,0.3,2,1.1,2.1,2.4c0.1,1.6,0.1,3.3,0,4.9s-1.1,2.5-2.9,2.6c-0.2,0-0.4,0-0.6,0.1c0,2.8,0,5.5,0,8.3c1,0,2,0,3,0
	c0.4,0,0.9,0,1.3,0c0.5,0,0.8,0.3,0.8,0.8c0,1.4,0,2.8,0,4.2c0,0.2-0.2,0.5-0.3,0.6c-0.3,0.2-0.3,0.4-0.3,0.7c0,5.4,0,10.9,0,16.3
	c0,0.9-0.2,1.1-1.1,1.1c-0.6,0-1.1,0-1.7,0c-0.8,0-1-0.2-1-1c0-3.9,0-7.8,0-11.6C34.7,34.5,34.7,34.3,34.7,34.1z M25,6.7
	C25,6.6,25,6.6,25,6.7c-2.6,0-5.2-0.1-7.8,0c-0.8,0-1.5,0.1-2.3,0.2c-0.7,0.1-1,0.4-1,1.1c0,1.6,0,3.1,0,4.7c0,0.6,0.4,1,1,1.1
	c0.7,0.1,1.4,0.2,2,0.2c5.3,0,10.5,0,15.8,0c0.7,0,1.3,0,2-0.1c1.1-0.1,1.5-0.5,1.5-1.6c0-1.2,0-2.5,0-3.7c0-1.3-0.4-1.7-1.7-1.8
	c-0.1,0-0.2,0-0.3,0C31.1,6.7,28.1,6.7,25,6.7z M30.2,15.4c-3.5,0-6.9,0-10.3,0c0,2.8,0,5.5,0,8.3c3.5,0,6.9,0,10.3,0
	C30.2,20.9,30.2,18.1,30.2,15.4z M12.3,27.8c8.5,0,16.9,0,25.4,0c0-0.9,0-1.7,0-2.6c-8.5,0-16.9,0-25.4,0
	C12.3,26.1,12.3,26.9,12.3,27.8z M15.3,32.5c6.5,0,13,0,19.4,0c0-1.1,0-2.1,0-3.1c-6.5,0-12.9,0-19.4,0
	C15.3,30.4,15.3,31.5,15.3,32.5z M13,29.4c0,5.5,0,10.9,0,16.4c0.2,0,0.5,0,0.7,0c0-5.5,0-10.9,0-16.4C13.5,29.4,13.3,29.4,13,29.4z
	 M37,45.7c0-5.5,0-10.9,0-16.3c-0.3,0-0.5,0-0.7,0c0,5.5,0,10.9,0,16.3C36.6,45.7,36.8,45.7,37,45.7z M17.5,15.4c0,2.8,0,5.5,0,8.3
	c0.3,0,0.5,0,0.8,0c0-2.8,0-5.5,0-8.3C18,15.4,17.7,15.4,17.5,15.4z M31.7,15.4c0,2.8,0,5.5,0,8.3c0.3,0,0.5,0,0.8,0
	c0-2.8,0-5.5,0-8.3C32.3,15.4,32,15.4,31.7,15.4z M18.3,5.1c0-0.3,0-0.5,0-0.8c-0.3,0-0.5,0-0.8,0c0,0.3,0,0.5,0,0.8
	C17.7,5.1,18,5.1,18.3,5.1z M31.7,5.1c0.3,0,0.5,0,0.8,0c0-0.3,0-0.5,0-0.8c-0.3,0-0.5,0-0.8,0C31.7,4.5,31.7,4.8,31.7,5.1z"/>
</svg>
