<?xml version="1.0" encoding="utf-8"?>
<!-- Generator: Adobe Illustrator 26.3.1, SVG Export Plug-In . SVG Version: 6.00 Build 0)  -->
<svg version="1.1" id="Layer_1" xmlns="http://www.w3.org/2000/svg" xmlns:xlink="http://www.w3.org/1999/xlink" x="0px" y="0px"
	 width="50px" height="50px" viewBox="0 0 50 50" style="enable-background:new 0 0 50 50;" xml:space="preserve">
<path d="M3.73,28.23c0-1.08,0-2.16,0-3.24c0.03-0.13,0.06-0.27,0.07-0.4c0.16-2.18,0.65-4.3,1.57-6.28
	c3.25-6.99,8.91-10.69,16.39-11.83c0.65-0.1,1.31-0.15,2-0.22c0-0.85,0-1.68,0-2.5c0.84,0,1.64,0,2.47,0c0,0.84,0,1.67,0,2.51
	c5.77,0.39,10.81,2.38,14.79,6.63c4.03,4.3,5.53,9.48,5.19,15.32c-0.19-0.09-0.36-0.17-0.53-0.25c-0.99-0.43-1.96-0.91-2.97-1.26
	c-1.06-0.37-2.16-0.61-3.3-0.39c-0.96,0.18-1.79,0.65-2.56,1.23c-0.67,0.51-1.28,1.09-1.99,1.69c-0.25-0.27-0.47-0.6-0.77-0.83
	c-0.78-0.59-1.56-1.2-2.4-1.69c-1.13-0.66-2.33-0.64-3.48,0.01c-0.58,0.32-1.12,0.71-1.68,1.06c-0.25,0.16-0.31,0.37-0.31,0.66
	c0.01,4.61,0.01,9.22,0.01,13.82c0,0.12-0.01,0.25,0.01,0.37c0.07,0.49,0.33,0.85,0.79,1.03c0.47,0.19,0.94,0.12,1.26-0.25
	c0.22-0.26,0.39-0.65,0.41-0.99c0.06-0.79,0.02-1.59,0.02-2.39c0.86,0,1.65,0,2.49,0c0,0.86,0.01,1.7,0,2.54
	c-0.03,1.56-1.01,2.92-2.48,3.45c-0.25,0.09-0.5,0.15-0.75,0.22c-0.33,0-0.66,0-1,0c-0.02-0.01-0.05-0.04-0.07-0.04
	c-2.18-0.57-3.17-1.84-3.17-4.08c0-4.57,0-9.13,0.01-13.7c0-0.29-0.07-0.5-0.32-0.65c-0.63-0.38-1.22-0.81-1.87-1.14
	c-1.01-0.53-2.06-0.52-3.07-0.02c-0.54,0.27-1.08,0.56-1.56,0.93c-0.67,0.51-1.27,1.09-1.99,1.72c-0.19-0.22-0.35-0.49-0.58-0.67
	c-0.8-0.62-1.6-1.27-2.46-1.81c-0.74-0.47-1.6-0.65-2.47-0.5c-0.88,0.16-1.78,0.31-2.62,0.61C5.75,27.25,4.75,27.77,3.73,28.23z"/>
</svg>
