<?xml version="1.0" encoding="utf-8"?>
<!-- Generator: Adobe Illustrator 26.0.1, SVG Export Plug-In . SVG Version: 6.00 Build 0)  -->
<svg version="1.1" xmlns="http://www.w3.org/2000/svg" xmlns:xlink="http://www.w3.org/1999/xlink" x="0px" y="0px" width="216.4px"
	 height="167.2px" viewBox="0 0 216.4 167.2" style="enable-background:new 0 0 216.4 167.2;" xml:space="preserve">
<style type="text/css">
	.st0{display:none;}
	.st1{display:inline;}
	.st2{fill:#F5F5F5;}
	.st3{fill:#407BFF;}
	.st4{fill:#E6E6E6;}
	.st5{fill:#E0E0E0;}
	.st6{fill:#FAFAFA;}
	.st7{fill:#F0F0F0;}
	.st8{fill:#FFFFFF;}
	.st9{fill:#E58A7B;}
	.st10{opacity:0.2;}
	.st11{fill:#E8ECF1;}
	.st12{fill:#263238;}
	.st13{fill:#CF6F64;}
	.st14{fill:#0D78AE;}
	.st15{fill:#DF5753;}
	.st16{opacity:0.56;fill:#FAFAFA;}
	.st17{opacity:0.07;fill:#407BFF;}
	.st18{opacity:0.47;fill:#407BFF;}
	.st19{opacity:0.1;fill:#FFFFFF;}
	.st20{opacity:0.6;}
	.st21{opacity:0.4;}
	.st22{opacity:0.4;fill:#FFFFFF;}
	.st23{opacity:0.3;fill:#0D78AE;}
</style>
<g id="Background_complete">
</g>
<g id="Background_simple" class="st0">
	<g class="st1">
		<path class="st2" d="M-7.34,82.34c58.54,60.36,135.47,102.2,206.78,34.62c36.76-34.84,85.34-128.93,37.4-171.99
			C170.77-114.36,132.86-17.27,83.47-4.11C49.61,4.91,21.15-47.07-19.39-12.37C-51.43,15.07-31.68,57.25-7.34,82.34z"/>
	</g>
</g>
<g id="Shadow">
</g>
<g id="Character_2">
</g>
<g id="Screen">
	<rect x="103.51" y="16.31" class="st3" width="2.6" height="0.42"/>
</g>
<g id="Character_1">
	<g>
		<rect x="6.33" y="141.11" class="st4" width="203.73" height="0.1"/>
		<rect x="43.7" y="147.27" class="st4" width="13.5" height="0.1"/>
		<rect x="31.61" y="147.27" class="st4" width="7.82" height="0.1"/>
		<rect x="84.31" y="148.77" class="st4" width="7.82" height="0.1"/>
		<rect x="115.3" y="151.05" class="st4" width="17.6" height="0.1"/>
		<rect x="109.09" y="151.05" class="st4" width="2.58" height="0.1"/>
		<rect x="152.89" y="148.77" class="st4" width="38.17" height="0.1"/>
		<path class="st4" d="M102.91,122.94H24.23c-1.28,0-2.33-1.04-2.33-2.33V10.01c0-1.28,1.04-2.33,2.33-2.33h78.68
			c1.28,0,2.33,1.04,2.33,2.33v110.6C105.23,121.89,104.19,122.94,102.91,122.94z M24.23,7.79c-1.23,0-2.22,1-2.22,2.22v110.6
			c0,1.23,1,2.22,2.22,2.22h78.68c1.23,0,2.22-1,2.22-2.22V10.01c0-1.23-1-2.22-2.22-2.22H24.23z"/>
		<path class="st4" d="M191.04,122.94h-78.68c-1.28,0-2.33-1.04-2.33-2.33V10.01c0-1.28,1.04-2.33,2.33-2.33h78.68
			c1.28,0,2.33,1.04,2.33,2.33v110.6C193.37,121.89,192.32,122.94,191.04,122.94z M112.36,7.79c-1.23,0-2.22,1-2.22,2.22v110.6
			c0,1.23,1,2.22,2.22,2.22h78.68c1.23,0,2.22-1,2.22-2.22V10.01c0-1.23-1-2.22-2.22-2.22H112.36z"/>
		<rect x="106.33" y="106.3" class="st5" width="8.96" height="35.54"/>
		<polygon class="st6" points="113.59,141.85 115.29,141.85 115.29,137.01 111.8,137.01 		"/>
		<rect x="67.07" y="106.3" class="st5" width="8.96" height="35.54"/>
		<rect x="74.54" y="106.3" class="st6" width="40.75" height="32.57"/>
		<path class="st5" d="M113.81,107.91v8.62H76.02v-8.62H113.81 M113.97,107.75H75.86v8.93h38.11V107.75L113.97,107.75z"/>
		<polygon class="st6" points="76.24,141.85 74.54,141.85 74.54,137.01 78.03,137.01 		"/>
		<path class="st4" d="M94.02,112.21c0,0.5,0.4,0.9,0.9,0.9c0.5,0,0.9-0.4,0.9-0.9c0-0.5-0.4-0.9-0.9-0.9
			C94.42,111.31,94.02,111.72,94.02,112.21z"/>
		<path class="st5" d="M113.81,118.28v8.62H76.02v-8.62H113.81 M113.97,118.12H75.86v8.93h38.11V118.12L113.97,118.12z"/>
		<path class="st4" d="M94.02,122.59c0,0.5,0.4,0.9,0.9,0.9c0.5,0,0.9-0.4,0.9-0.9c0-0.5-0.4-0.9-0.9-0.9
			C94.42,121.69,94.02,122.09,94.02,122.59z"/>
		<path class="st5" d="M113.81,128.66v8.62H76.02v-8.62H113.81 M113.97,128.5H75.86v8.93h38.11V128.5L113.97,128.5z"/>
		<path class="st4" d="M94.02,132.97c0,0.5,0.4,0.9,0.9,0.9c0.5,0,0.9-0.4,0.9-0.9c0-0.5-0.4-0.9-0.9-0.9
			C94.42,132.07,94.02,132.47,94.02,132.97z"/>
		<rect x="61.59" y="85.66" class="st5" width="8.96" height="56.19"/>
		<polygon class="st6" points="68.85,141.85 70.55,141.85 70.55,137.01 67.07,137.01 		"/>
		<rect x="28.11" y="85.66" class="st5" width="8.96" height="56.19"/>
		<rect x="35.58" y="85.66" class="st6" width="34.97" height="53.22"/>
		<path class="st5" d="M69.05,87.17v12.05H37.09V87.17H69.05 M69.23,86.98H36.9V99.4h32.33V86.98L69.23,86.98z"/>
		<path class="st5" d="M69.05,100.68v31.96H53.83v-31.96H69.05 M69.23,100.5H53.64v32.33h15.59V100.5L69.23,100.5z"/>
		<path class="st5" d="M52.31,100.68v31.96H37.09v-31.96H52.31 M52.5,100.5H36.9v32.33H52.5V100.5L52.5,100.5z"/>
		<polygon class="st6" points="37.29,141.85 35.58,141.85 35.58,137.01 39.07,137.01 		"/>
		<path class="st4" d="M52.17,93.19c0,0.5,0.4,0.9,0.9,0.9c0.5,0,0.9-0.4,0.9-0.9c0-0.5-0.4-0.9-0.9-0.9
			C52.57,92.29,52.17,92.69,52.17,93.19z"/>
		<path class="st4" d="M55.39,115.9c0,0.5,0.4,0.9,0.9,0.9c0.5,0,0.9-0.4,0.9-0.9c0-0.5-0.4-0.9-0.9-0.9
			C55.8,115,55.39,115.4,55.39,115.9z"/>
		<path class="st4" d="M48.94,115.9c0,0.5,0.4,0.9,0.9,0.9c0.5,0,0.9-0.4,0.9-0.9c0-0.5-0.4-0.9-0.9-0.9
			C49.34,115,48.94,115.4,48.94,115.9z"/>
		<path class="st5" d="M47.93,70h-3.78c0,0,0.66,3.49,0.66,5.55c0,2.06-2.87,10.12,1.23,10.12c4.11,0,1.23-8.06,1.23-10.12
			C47.27,73.49,47.93,70,47.93,70z"/>
		<path class="st2" d="M33.55,78.26v2.46c0,2.72,2.23,4.95,4.95,4.95h2.46c2.72,0,4.95-2.23,4.95-4.95v-2.46H33.55z"/>
		<path class="st5" d="M86.06,101.12c0,2.85,3.19,5.18,7.09,5.18h3.52c3.9,0,7.09-2.33,7.09-5.18H86.06z"/>
		<path class="st5" d="M179.35,96.95c-2.14,1.74-5.08,4.93-7.78,9.42c-1.8,2.99-2.88,6.12-3.36,10.26
			c0.01-4.69,0.02-9.72,0.04-14.47c0.54-1.22,1.78-4.04,2.67-6.27c2.96-7.43,4.07-9.26,6.74-15.66c3.56-8.55,7.2-18.69,6.16-17.88
			c-2.13,1.65-10.28,16.91-11.16,19.1c-3.03,7.51-3.87,12.99-4.4,18.28c0.02-4.46,0.03-8.56,0.05-11.72
			c0.05-10.31,0.23-13.64,0.32-14.67c0.33-0.52,0.72-1.13,0.95-1.46c1.91-2.77,2.65-5.13,4.46-9.25c2.56-5.85,4.76-16.24,4.11-15.71
			c-2.68,2.18-4.79,6.87-7.57,12.85c-2.78,5.98-1.98,9.41-2.53,14.51c-0.12,1-0.2,4.78-0.27,10.02c-0.72-5.58-2.07-9.26-4.54-12.6
			c-3.03-4.11-5.97-6.89-8.12-8.34c-2.15-1.45,3.72,8.65,6.52,13.05c2.5,3.92,4.8,7.39,6.1,10.8c-0.07,7.1-0.1,16.09-0.1,24.46
			c-0.64-3.81-1.69-7.91-3.1-11.08c-1.69-3.82-4.28-9.67-6.34-11.65c-0.5-0.48,2.16,10.9,3.86,13.93c1.7,3.03,2.95,5.88,4.03,7.59
			c0.25,0.4,1.08,1.94,1.55,2.83c0,10.22,0.06,19.23,0.15,22.3h0.44c-0.03-0.79-0.03-5.99-0.03-12.87c1.06-3.73,3.49-8,5.5-11.88
			C175.88,106.6,181.48,95.21,179.35,96.95z"/>
		<polygon class="st7" points="174.39,141.85 161.62,141.85 160.65,129.33 175.35,129.33 		"/>
		<polygon class="st2" points="176.3,130.79 159.7,130.79 159.23,126.56 176.78,126.56 		"/>
		<rect x="34.13" y="16.06" class="st5" width="22.84" height="25.08"/>
		<rect x="35.85" y="16.06" class="st2" width="23.59" height="25.08"/>
		
			<rect x="37.08" y="18.78" transform="matrix(-1.836970e-16 1 -1 -1.836970e-16 76.2426 -19.045)" class="st8" width="21.13" height="19.64"/>
		
			<rect x="42.2" y="23.54" transform="matrix(-1.836970e-16 1 -1 -1.836970e-16 76.2426 -19.045)" class="st2" width="10.88" height="10.12"/>
		<rect x="152.2" y="18.98" class="st5" width="21.22" height="23.3"/>
		<rect x="153.8" y="18.98" class="st2" width="21.92" height="23.3"/>
		
			<rect x="154.94" y="21.51" transform="matrix(-1.836970e-16 1 -1 -1.836970e-16 195.3864 -134.1234)" class="st8" width="19.63" height="18.24"/>
		<circle class="st2" cx="164.75" cy="30.63" r="5.69"/>
		<rect x="63.75" y="31.01" class="st5" width="16.94" height="18.6"/>
		<rect x="65.03" y="31.01" class="st2" width="17.5" height="18.6"/>
		
			<rect x="65.94" y="33.03" transform="matrix(-1.836970e-16 1 -1 -1.836970e-16 114.0921 -33.4621)" class="st8" width="15.67" height="14.57"/>
		<polygon class="st2" points="73.78,36.35 69.79,43.25 77.76,43.25 		"/>
		<ellipse class="st2" cx="108.2" cy="154.9" rx="79" ry="4.61"/>
		<path class="st9" d="M148.64,51.89l-4.04-1.64c0,0-5.33,9.73-6.86,10.22c-2.08,0.67-6.38,2.53-8.93,2.87
			c-0.34,0.4-0.91,1.67-0.86,2.14c3.43,1.14,10.96-0.37,12.57-1.57C144.19,61.18,148.64,51.89,148.64,51.89z"/>
		<path class="st3" d="M149.88,49.68c0.75,2.79-3.33,8.38-3.33,8.38l-5.36-3.01c0,0,1-2.3,2.22-4.64
			C145.39,46.63,149.02,46.5,149.88,49.68z"/>
		<path class="st10" d="M149.88,49.68c0.75,2.79-3.33,8.38-3.33,8.38l-5.36-3.01c0,0,1-2.3,2.22-4.64
			C145.39,46.63,149.02,46.5,149.88,49.68z"/>
		<path class="st10" d="M143.33,56.26l2.11,1.18l0.37-6.46C144.58,51.91,143.71,54.75,143.33,56.26z"/>
		<path class="st3" d="M146.36,47.58c0,0-4.16,9.26-1.74,26.52c4.94,0,14,0,16.41,0c0.26-2.52-0.6-14.81,2.52-26.67
			c0,0-2.78-0.56-5.45-0.69c-2.09-0.1-5.12-0.17-6.98,0C148.69,46.95,146.36,47.58,146.36,47.58z"/>
		<path class="st10" d="M146.36,47.58c0,0-4.16,9.26-1.74,26.52c4.94,0,14,0,16.41,0c0.26-2.52-0.6-14.81,2.52-26.67
			c0,0-2.78-0.56-5.45-0.69c-2.09-0.1-5.12-0.17-6.98,0C148.69,46.95,146.36,47.58,146.36,47.58z"/>
		<path class="st11" d="M142.56,155.27c-0.03,0.44,6.2,0.79,13.9,0.79c7.7,0,13.96-0.35,13.99-0.79c0.03-0.44-6.2-0.79-13.9-0.79
			C148.85,154.47,142.58,154.83,142.56,155.27z"/>
		
			<rect x="152.13" y="144.6" transform="matrix(0.9331 -0.3595 0.3595 0.9331 -42.9639 65.1645)" class="st9" width="3.13" height="6.96"/>
		<polygon class="st9" points="166.49,152.13 163.42,152.13 162.29,145.03 165.36,145.03 		"/>
		<path class="st12" d="M163.22,151.78l3.45,0c0.13,0,0.23,0.09,0.25,0.21l0.45,2.73c0.05,0.28-0.19,0.55-0.48,0.55
			c-1.2-0.02-1.78-0.09-3.3-0.09c-0.93,0-2.86,0.1-4.15,0.1c-1.26,0-1.38-1.27-0.85-1.39c2.39-0.52,3.33-1.23,4.12-1.91
			C162.86,151.84,163.04,151.78,163.22,151.78z"/>
		<path class="st12" d="M153.01,150.7l3.27-0.95c0.12-0.04,0.25,0.02,0.3,0.13l1.21,2.44c0.13,0.25-0.02,0.57-0.31,0.65
			c-1.18,0.32-1.98,0.53-3.46,0.96c-1.02,0.3-2.07,0.78-3.08,1.1c-0.7,0.22-2.35,0.23-3.2,0.23c-1.26,0-1.54-1.33-1-1.39
			c1.37-0.15,1.55-0.08,2.3-0.46c1.25-0.63,2.21-1.14,3.29-2.27C152.53,150.95,152.75,150.78,153.01,150.7z"/>
		<path class="st9" d="M129.32,63.31l-3.38-1.42l-1.39,3.74c0,0,1.95,0.35,4.17,0L129.32,63.31z"/>
		<polygon class="st9" points="123.44,61.8 123.35,64.29 124.55,65.63 125.94,61.89 		"/>
		
			<rect x="151.53" y="144.71" transform="matrix(0.9329 -0.3601 0.3601 0.9329 -42.4857 64.9533)" class="st13" width="3.13" height="3.59"/>
		<polygon class="st13" points="165.36,145.03 162.29,145.03 162.88,148.69 165.94,148.69 		"/>
		<path class="st10" d="M144.11,69.43c0.06,0.74,0.13,1.49,0.22,2.27l12.2-3.96c1.91-0.57,3.56-1.77,4.69-3.4
			c0.05-1.09,0.11-2.23,0.2-3.43c0.04-0.58,0.09-1.18,0.15-1.78c0.06-0.63,0.13-1.27,0.2-1.91L144.11,69.43z"/>
		<path class="st8" d="M148.09,56.07l-0.42-0.05c0.24-2.03,1.76-3.64,3.36-3.6l-0.01,0.42C149.64,52.8,148.31,54.24,148.09,56.07z"
			/>
		<path class="st8" d="M150.26,59.83c-0.02,0-0.05,0-0.07,0l0.01-0.42c1.4,0.05,2.72-1.41,2.94-3.23l0.42,0.05
			C153.32,58.23,151.85,59.83,150.26,59.83z"/>
		<path class="st9" d="M157.88,38.88c-0.57,2.24-1.25,6.36,0.23,7.85c0,0-1.04,2.28-5.21,2.28c-3.81,0-1.77-2.28-1.77-2.28
			c2.54-0.6,2.58-2.45,2.25-4.2L157.88,38.88z"/>
		<path class="st13" d="M156.04,40.37l-2.66,2.16c0.08,0.41,0.14,0.83,0.14,1.24c0.78,0.77,2.34-1.19,2.5-2.19
			C156.1,41.08,156.11,40.6,156.04,40.37z"/>
		<path class="st13" d="M148.81,38.85c0.39,0.7,1.08,1.13,1.73,1.28c0.98,0.22,1.47-0.68,1.2-1.59c-0.24-0.82-1.04-1.91-2.03-1.72
			C148.74,37,148.36,38.05,148.81,38.85z"/>
		<path class="st12" d="M150.42,31.67c-1.52,0.7-2.06,6.75-0.15,7.65C152.19,40.21,153.31,30.34,150.42,31.67z"/>
		<path class="st9" d="M158.34,35.5c-0.36,3.04-0.42,4.83-2.05,6.39c-2.45,2.35-6.12,0.95-6.66-2.08c-0.49-2.73,0.19-7.24,3.23-8.45
			C155.86,30.17,158.71,32.46,158.34,35.5z"/>
		<path class="st12" d="M153.34,33.24c2.25-0.58,3.91-0.97,3.32,0.91c-0.79,2.51-1.73,4.94-0.47,5.05c0.77,0.07,4.19-1.38,3.76-2.85
			c-0.38-1.28,1.21-1.62,1.51-2.28c1.06-2.35-1.96-2.04-1.43-3.47c0.52-1.38-2.43-3.72-4.07-2.58c-2.65,1.85-7.21,1.82-4.81-1.21
			c1.72-2.17-1.35-1.73-1.35-1.73s1.85,1.1-1.26,2.79C145.25,29.68,148.26,34.54,153.34,33.24z"/>
		<path class="st9" d="M159.52,38.85c-0.47,0.7-1.21,1.13-1.88,1.28c-1,0.22-1.39-0.68-1.01-1.59c0.34-0.82,1.27-1.91,2.23-1.72
			C159.8,37,160.06,38.05,159.52,38.85z"/>
		<path class="st14" d="M144.63,74.1c0,0-2.75,24.65-2.97,34.01c-0.22,9.73,9.33,40.09,9.33,40.09l4.89-2.06
			c0,0-5.7-27.74-4.91-37.29c0.86-10.42,4.43-34.75,4.43-34.75H144.63z"/>
		<path class="st10" d="M151.47,80.87c-2.19,4.56-0.72,13.56,0.47,18.9c0.45-3.77,0.99-7.86,1.5-11.64
			C153.39,82.3,152.94,77.81,151.47,80.87z"/>
		<path class="st3" d="M155.67,144.54c0.02-0.01,0.58,1.56,0.58,1.56l-5.64,2.37l-0.89-1.65L155.67,144.54z"/>
		<path class="st14" d="M150.45,74.1c0,0,2.11,23.44,3.5,32.23c1.53,9.62,7.54,41.66,7.54,41.66h5.62c0,0-3.37-31.26-4-40.79
			c-0.69-10.34-2.07-33.1-2.07-33.1H150.45z"/>
		<path class="st3" d="M167.19,146.52c0.02,0,0.19,1.57,0.19,1.57h-6.18l-0.44-1.8L167.19,146.52z"/>
		<path class="st10" d="M165.04,144.66c-0.03,0-0.05-0.02-0.05-0.05c-0.03-0.28-3.07-28.51-3.64-37.06
			c-0.62-9.28-1.87-29.87-1.88-30.08c0-0.03,0.02-0.05,0.05-0.06c0,0,0,0,0,0c0.03,0,0.05,0.02,0.05,0.05
			c0.01,0.21,1.26,20.79,1.88,30.08c0.57,8.55,3.61,36.78,3.64,37.06C165.09,144.64,165.07,144.66,165.04,144.66
			C165.04,144.66,165.04,144.66,165.04,144.66z"/>
		<path class="st12" d="M153.68,36.35c-0.01,0.25-0.16,0.45-0.32,0.45c-0.16,0-0.28-0.2-0.27-0.45c0.01-0.25,0.16-0.45,0.32-0.45
			C153.58,35.9,153.7,36.1,153.68,36.35z"/>
		<path class="st12" d="M150.89,36.35c-0.01,0.25-0.16,0.45-0.32,0.45s-0.28-0.2-0.27-0.45c0.01-0.25,0.16-0.45,0.32-0.45
			C150.78,35.9,150.9,36.1,150.89,36.35z"/>
		<path class="st15" d="M151.77,36.47c0,0-0.65,1.43-1.31,2.12c0.41,0.41,1.17,0.22,1.17,0.22L151.77,36.47z"/>
		<path class="st12" d="M151.84,39.85c-0.04,0-0.07-0.03-0.07-0.07c0-0.04,0.04-0.07,0.08-0.07c1.09,0,1.64-0.76,1.64-0.77
			c0.02-0.03,0.07-0.04,0.1-0.02c0.03,0.02,0.04,0.07,0.02,0.1C153.58,39.05,153,39.85,151.84,39.85z"/>
		<path class="st12" d="M154.18,35.6c-0.04,0.02-0.09,0.01-0.13-0.01c-0.53-0.34-1.03-0.11-1.04-0.11c-0.07,0.04-0.16,0-0.19-0.07
			c-0.03-0.07,0.01-0.16,0.08-0.19c0.03-0.01,0.65-0.3,1.31,0.12c0.07,0.04,0.08,0.13,0.04,0.2
			C154.24,35.56,154.21,35.59,154.18,35.6z"/>
		<path class="st12" d="M149.8,34.78c-0.02-0.01-0.04-0.02-0.06-0.03c-0.06-0.05-0.06-0.14,0-0.2c0.57-0.6,1.23-0.51,1.26-0.51
			c0.08,0.01,0.13,0.09,0.11,0.17c-0.02,0.08-0.09,0.13-0.17,0.12l0,0c-0.02,0-0.54-0.07-0.99,0.41
			C149.91,34.78,149.86,34.8,149.8,34.78z"/>
		<path class="st9" d="M165.13,51.43l-4.24-1.13c0,0-4.16,10.23-5.62,10.9c-2,0.91-7.06,4.05-9.21,5.57
			c-0.12,0.51-0.03,1.86,0.24,2.23c3.66-0.66,10.69-3.37,12.15-4.74C161.81,61.13,165.13,51.43,165.13,51.43z"/>
		<path class="st14" d="M162.18,152.31c-0.23,0-0.45-0.04-0.58-0.16c-0.1-0.09-0.15-0.22-0.13-0.38c0.01-0.12,0.08-0.18,0.14-0.21
			c0.35-0.17,1.3,0.43,1.41,0.5c0.02,0.02,0.04,0.04,0.03,0.07c-0.01,0.03-0.03,0.05-0.06,0.06
			C162.77,152.26,162.46,152.31,162.18,152.31z M161.76,151.68c-0.04,0-0.07,0.01-0.1,0.02c-0.02,0.01-0.04,0.03-0.05,0.09
			c-0.01,0.12,0.01,0.2,0.08,0.26c0.16,0.14,0.56,0.16,1.09,0.06C162.45,151.9,161.99,151.68,161.76,151.68z"/>
		<path class="st14" d="M162.97,152.21c-0.01,0-0.02,0-0.03-0.01c-0.31-0.17-0.88-0.84-0.8-1.19c0.02-0.06,0.07-0.17,0.24-0.19
			c0.11-0.01,0.22,0.02,0.3,0.09c0.34,0.29,0.36,1.18,0.36,1.21c0,0.03-0.01,0.05-0.04,0.07C163,152.2,162.98,152.21,162.97,152.21z
			 M162.42,150.96c-0.01,0-0.02,0-0.03,0c-0.1,0.01-0.11,0.06-0.11,0.07c-0.05,0.2,0.31,0.71,0.61,0.95
			c-0.02-0.26-0.09-0.77-0.31-0.96C162.54,150.98,162.48,150.96,162.42,150.96z"/>
		<path class="st14" d="M151.36,151.81c-0.3,0.07-0.59,0.09-0.77-0.01c-0.12-0.06-0.18-0.17-0.2-0.31
			c-0.01-0.09,0.02-0.16,0.08-0.22c0.33-0.29,1.66,0.02,1.81,0.06c0.03,0.01,0.05,0.03,0.05,0.06c0,0.03-0.02,0.06-0.05,0.07
			C152.04,151.58,151.69,151.73,151.36,151.81z M150.69,151.32c-0.06,0.01-0.1,0.03-0.13,0.06c-0.03,0.02-0.03,0.05-0.03,0.09
			c0.01,0.1,0.05,0.16,0.13,0.21c0.22,0.12,0.72,0.02,1.37-0.25C151.57,151.33,150.98,151.25,150.69,151.32z"/>
		<path class="st14" d="M152.27,151.48c-0.01,0-0.02,0-0.03,0c-0.39-0.07-1.24-0.54-1.25-0.89c0-0.08,0.04-0.19,0.23-0.26
			c0.14-0.05,0.28-0.04,0.42,0.02c0.44,0.22,0.67,1,0.68,1.03c0.01,0.02,0,0.05-0.02,0.07C152.3,151.46,152.29,151.47,152.27,151.48
			z M151.31,150.45c-0.01,0-0.03,0.01-0.04,0.01c-0.13,0.04-0.13,0.1-0.12,0.11c0,0.21,0.59,0.6,1,0.73
			c-0.08-0.22-0.28-0.68-0.57-0.82C151.49,150.43,151.4,150.42,151.31,150.45z"/>
		<path class="st9" d="M146.41,66.53l-4.25,1.96l-0.49,1.2l1.57,1.06c0,0,2.93-0.32,3.77-2.2L146.41,66.53z"/>
		<path class="st12" d="M146.59,69.07c-0.27-1.58-0.78-2.3-0.79-2.31l0.67-0.5c0.03,0.03,0.64,0.87,0.95,2.67L146.59,69.07z"/>
		<path class="st12" d="M147.32,67.11c0.14,0.34-0.08,0.75-0.49,0.92c-0.41,0.17-0.86,0.02-0.99-0.32
			c-0.14-0.34,0.08-0.75,0.49-0.92C146.73,66.63,147.18,66.77,147.32,67.11z"/>
		<polygon class="st9" points="139.29,70.07 139.86,70.64 143.67,69.01 142.16,68.49 		"/>
		<path class="st10" d="M155.67,144.54c0.02-0.01,0.58,1.56,0.58,1.56l-5.64,2.37l-0.89-1.65L155.67,144.54z"/>
		<path class="st10" d="M167.19,146.52c0.02,0,0.19,1.57,0.19,1.57h-6.18l-0.44-1.8L167.19,146.52z"/>
		<path class="st3" d="M166.24,50.26c1.12,3.61-3.24,8.55-3.24,8.55l-6.05-2.47c0,0,0.85-2.63,2.47-6.14
			C161.26,46.2,165.11,46.62,166.24,50.26z"/>
		<path class="st10" d="M166.24,50.26c1.12,3.61-3.24,8.55-3.24,8.55l-6.05-2.47c0,0,0.85-2.63,2.47-6.14
			C161.26,46.2,165.11,46.62,166.24,50.26z"/>
		<rect x="136.37" y="33.96" transform="matrix(0.045 -0.999 0.999 0.045 99.4449 172.3584)" class="st3" width="7" height="0.42"/>
		<polygon class="st3" points="139.01,15.94 90.93,15.94 86.45,116.06 134.53,116.06 		"/>
		<polygon class="st16" points="137.57,17.31 89.49,17.31 85.02,117.43 133.1,117.43 		"/>
		<polygon class="st17" points="136.14,18.68 88.06,18.68 83.58,118.8 131.66,118.8 		"/>
		<polygon class="st8" points="130.67,62.35 89.63,62.35 89.28,70.01 130.32,70.01 		"/>
		<polygon class="st3" points="112.2,56.76 89.88,56.76 89.72,60.19 112.05,60.19 		"/>
		<polygon class="st8" points="129.74,83.03 88.7,83.03 88.36,90.69 129.4,90.69 		"/>
		<polygon class="st18" points="122.22,101.03 94.62,101.03 94.21,110.21 121.81,110.21 		"/>
		<path class="st8" d="M120.37,111.64h-27.6c-0.01,0-0.03-0.01-0.04-0.02c-0.01-0.01-0.01-0.02-0.01-0.04l0.41-9.18
			c0-0.03,0.02-0.05,0.05-0.05h27.6c0.01,0,0.03,0.01,0.04,0.02c0.01,0.01,0.01,0.02,0.01,0.04l-0.41,9.18
			C120.42,111.62,120.4,111.64,120.37,111.64z M92.82,111.54h27.5l0.41-9.09h-27.5L92.82,111.54z"/>
		<polygon class="st3" points="107.38,77.44 88.95,77.44 88.8,80.87 107.22,80.87 		"/>
		<path class="st8" d="M121.69,37.61c-0.1,2.29-0.93,4.41-2.27,6.13c-2.01,2.61-5.17,4.3-8.64,4.3c-3.47,0-6.47-1.7-8.25-4.3
			c-1.18-1.72-1.82-3.84-1.72-6.13c0.26-5.77,5.14-10.44,10.9-10.44C117.48,27.17,121.95,31.84,121.69,37.61z"/>
		<path class="st3" d="M122.67,29.35c-0.03,0.61-0.25,1.17-0.6,1.63c-0.53,0.69-1.37,1.14-2.3,1.14c-0.92,0-1.72-0.45-2.19-1.14
			c-0.31-0.46-0.48-1.02-0.46-1.63c0.07-1.53,1.37-2.77,2.9-2.77C121.55,26.58,122.74,27.82,122.67,29.35z"/>
		<path class="st12" d="M94.05,66.18c-0.03,0.68-0.6,1.23-1.28,1.23c-0.68,0-1.2-0.55-1.17-1.23c0.03-0.68,0.6-1.23,1.28-1.23
			C93.55,64.95,94.08,65.5,94.05,66.18z"/>
		<path class="st12" d="M99.54,66.18c-0.03,0.68-0.6,1.23-1.28,1.23c-0.68,0-1.2-0.55-1.17-1.23c0.03-0.68,0.6-1.23,1.28-1.23
			C99.05,64.95,99.57,65.5,99.54,66.18z"/>
		<path class="st12" d="M105.04,66.18c-0.03,0.68-0.6,1.23-1.28,1.23c-0.68,0-1.2-0.55-1.17-1.23c0.03-0.68,0.6-1.23,1.28-1.23
			C104.54,64.95,105.07,65.5,105.04,66.18z"/>
		<path class="st12" d="M93.12,86.86c-0.03,0.68-0.6,1.23-1.28,1.23c-0.68,0-1.2-0.55-1.17-1.23c0.03-0.68,0.6-1.23,1.28-1.23
			C92.63,85.63,93.15,86.18,93.12,86.86z"/>
		<path class="st12" d="M98.62,86.86c-0.03,0.68-0.6,1.23-1.28,1.23s-1.2-0.55-1.17-1.23c0.03-0.68,0.6-1.23,1.28-1.23
			C98.12,85.63,98.65,86.18,98.62,86.86z"/>
		<path class="st12" d="M104.11,86.86c-0.03,0.68-0.6,1.23-1.28,1.23s-1.2-0.55-1.17-1.23c0.03-0.68,0.6-1.23,1.28-1.23
			S104.14,86.18,104.11,86.86z"/>
		<path class="st12" d="M109.61,86.86c-0.03,0.68-0.6,1.23-1.28,1.23c-0.68,0-1.2-0.55-1.17-1.23c0.03-0.68,0.6-1.23,1.28-1.23
			C109.11,85.63,109.64,86.18,109.61,86.86z"/>
		<path class="st12" d="M115.1,86.86c-0.03,0.68-0.6,1.23-1.28,1.23c-0.68,0-1.2-0.55-1.17-1.23c0.03-0.68,0.6-1.23,1.28-1.23
			C114.61,85.63,115.14,86.18,115.1,86.86z"/>
		
			<ellipse transform="matrix(0.715 -0.6991 0.6991 0.715 7.8976 87.6091)" class="st3" cx="111.41" cy="34.12" rx="4.32" ry="4.13"/>
		<path class="st3" d="M119.42,43.74c-2.01,2.61-5.17,4.3-8.64,4.3c-3.47,0-6.47-1.7-8.25-4.3c1.98-1.97,5.12-3.25,8.59-3.25
			C114.6,40.49,117.62,41.77,119.42,43.74z"/>
		
			<ellipse transform="matrix(0.715 -0.6991 0.6991 0.715 7.8976 87.6091)" class="st19" cx="111.41" cy="34.12" rx="4.32" ry="4.13"/>
		<path class="st19" d="M119.42,43.74c-2.01,2.61-5.17,4.3-8.64,4.3c-3.47,0-6.47-1.7-8.25-4.3c1.98-1.97,5.12-3.25,8.59-3.25
			C114.6,40.49,117.62,41.77,119.42,43.74z"/>
		<path class="st9" d="M59.47,71.86c-0.39,0.85-0.79,1.78-1.15,2.69c-0.36,0.92-0.72,1.83-1.03,2.76c-0.61,1.86-1.18,3.74-1.46,5.62
			l-0.09,0.6c-0.01,0.07,0,0.17,0.03,0.3c0.06,0.26,0.22,0.61,0.45,0.95c0.46,0.69,1.11,1.38,1.81,2.03
			c0.7,0.66,1.46,1.28,2.25,1.88c0.78,0.6,1.61,1.19,2.41,1.74l-0.76,1.43c-1.94-0.85-3.74-1.86-5.49-3.13
			c-0.86-0.66-1.71-1.36-2.46-2.31c-0.37-0.48-0.74-1.02-0.97-1.74c-0.12-0.36-0.2-0.76-0.2-1.2c0-0.1,0.01-0.24,0.02-0.31l0.02-0.2
			l0.04-0.4c0.22-2.16,0.7-4.24,1.33-6.25c0.32-1.01,0.66-2,1.04-2.98c0.4-0.98,0.79-1.93,1.28-2.92L59.47,71.86z"/>
		<path class="st9" d="M62.12,90.19L65,88.73l-0.74,3.16c0,0-1.98,0.55-2.9-0.41L62.12,90.19z"/>
		<polygon class="st9" points="67.64,89.25 66.87,91.87 64.26,91.89 65,88.73 		"/>
		<path class="st15" d="M71.7,56.6c0,0,0.25,0.92,0.65,1.61c-0.34,0.32-0.65,0.21-0.65,0.21V56.6z"/>
		<ellipse class="st12" cx="71.62" cy="56.16" rx="0.31" ry="0.47"/>
		<path class="st12" d="M71.54,55.71l0.62-0.18C72.16,55.53,71.85,56.01,71.54,55.71z"/>
		<path class="st9" d="M63.74,59.59c0.37,1.9,0.74,5.37-0.58,6.64c0,0,0.52,1.92,4.04,1.92c3.88,0,1.85-1.92,1.85-1.92
			c-2.12-0.51-2.06-2.07-1.69-3.55L63.74,59.59z"/>
		<path class="st9" d="M62.72,55.28c0.19,3.17,0.21,4.51,1.81,6.14c2.41,2.44,6.25,1.51,7.01-1.65c0.68-2.85,0.25-7.55-2.85-8.81
			C65.63,49.72,62.52,52.11,62.72,55.28z"/>
		<path class="st12" d="M63.03,51.69c-1.59,0.58-3.71,0.15-2.88,5.05c0.88,5.19-0.47,6.9-0.47,6.9s6.03,1.28,12.18-0.08
			c0,0-1.88-3.29-1.35-5.68c0.67-3.06,0.14-4.19,0.14-4.19S65.26,50.88,63.03,51.69z"/>
		<path class="st9" d="M69.75,56.93c-0.01,0.63,0.21,1.26,0.5,1.7c0.43,0.66,0.94,0.39,1.07-0.29c0.11-0.62,0.03-1.7-0.52-2.13
			C70.26,55.79,69.76,56.21,69.75,56.93z"/>
		<path class="st12" d="M61.65,52.25c-0.46-1.28,1.72-3.25,6.32-2.43c4.6,0.82,4.81,4.65,4.81,4.65l-0.93-1.11l0.04,1.16l-4.73,0.91
			L61.65,52.25z"/>
		<path class="st3" d="M62.04,66.45L62.04,66.45c-0.06-0.39,0.2-0.76,0.59-0.82c1.43-0.24,4.69-0.72,6.33-0.49
			c1.22,0.17,1.54,0.88,1.59,1.46c0.04,0.43-0.32,0.8-0.75,0.78l-7.09-0.32C62.38,67.03,62.09,66.78,62.04,66.45z"/>
		<path class="st20" d="M62.04,66.45L62.04,66.45c-0.06-0.39,0.2-0.76,0.59-0.82c1.43-0.24,4.69-0.72,6.33-0.49
			c1.22,0.17,1.54,0.88,1.59,1.46c0.04,0.43-0.32,0.8-0.75,0.78l-7.09-0.32C62.38,67.03,62.09,66.78,62.04,66.45z"/>
		<polygon class="st9" points="66.13,137.63 68.76,139.45 73.16,133.5 70.53,131.67 		"/>
		<polygon class="st9" points="60,137.51 62.78,139.09 66.67,132.79 63.9,131.21 		"/>
		<polygon class="st13" points="73.16,133.5 70.89,136.57 68.26,134.74 70.53,131.67 		"/>
		<polygon class="st13" points="63.89,131.21 66.67,132.79 64.67,136.04 61.89,134.46 		"/>
		<path class="st3" d="M68.35,86.34c0,0,10.26,12.93,8.34,25.3c-1.55,9.99-10.56,23.51-10.56,23.51l-4.23-2.1
			c0,0,4.6-8.99,7.62-18.52c1.27-4,0.73-8.4-1.64-11.86c-5.2-7.59-13.52-3.07-7.92-16.33H68.35z"/>
		<path class="st20" d="M68.35,86.34c0,0,10.26,12.93,8.34,25.3c-1.55,9.99-10.56,23.51-10.56,23.51l-4.23-2.1
			c0,0,4.6-8.99,7.62-18.52c1.27-4,0.73-8.4-1.64-11.86c-5.2-7.59-13.52-3.07-7.92-16.33H68.35z"/>
		<path class="st21" d="M73.38,94.65l-1.49-1.48c0,0.12,2.89,17.95,3.7,22.96c0.49-1.54,0.87-3.05,1.09-4.49
			C77.63,105.58,75.65,99.39,73.38,94.65z"/>
		<path class="st3" d="M72.93,86.34c0,0,12.35,16.25,12.7,25.99c0.29,8.16-13.46,23.94-13.46,23.94l-3.99-2.58
			c0,0,8.04-11.21,10.06-20.38c-0.77-9.07-17.33-26.97-17.33-26.97H72.93z"/>
		<path class="st20" d="M72.93,86.34c0,0,12.35,16.25,12.7,25.99c0.29,8.16-13.46,23.94-13.46,23.94l-3.99-2.58
			c0,0,8.04-11.21,10.06-20.38c-0.77-9.07-17.33-26.97-17.33-26.97H72.93z"/>
		<path class="st14" d="M57.65,66.96c-1.32,0.31-2.59,5.11-2.59,5.11l5.16,3.44c0,0,1.72-3.8,1.12-5.46
			C60.71,68.33,59.32,66.56,57.65,66.96z"/>
		<path class="st10" d="M58.66,70.05l-0.36,4.18l1.92,1.29c0,0,0.9-1.99,1.17-3.72L58.66,70.05z"/>
		<path class="st14" d="M74.46,67.05c0,0,1.52,0.54-1.53,19.29c-5.15,0-10.48,0-12.98,0c0.22-5.28,0.22-8.54-2.3-19.39
			c0,0,2.72-0.59,5.51-0.73c2.18-0.11,3.97-0.18,5.9,0C71.59,66.46,74.46,67.05,74.46,67.05z"/>
		<path class="st9" d="M75.78,70.03c0.29,0.81,0.61,1.69,0.93,2.54c0.31,0.86,0.63,1.71,0.97,2.56l1,2.56l0.25,0.64l0.13,0.32
			l0.06,0.16c0.01,0.03,0.01,0.03,0,0.02c-0.02-0.01-0.03-0.09-0.29-0.25c-0.12-0.08-0.33-0.15-0.53-0.16
			c-0.2-0.01-0.36,0.04-0.45,0.08c-0.18,0.09-0.19,0.13-0.18,0.12c0.01-0.01,0.05-0.04,0.09-0.09c0.18-0.21,0.39-0.58,0.58-0.95
			c0.19-0.37,0.37-0.77,0.56-1.18c0.36-0.81,0.69-1.66,1.02-2.51c0.33-0.85,0.64-1.71,0.95-2.58l0.93-2.6l1.57,0.4
			c-0.31,1.86-0.71,3.68-1.19,5.51c-0.23,0.92-0.5,1.82-0.81,2.74c-0.15,0.46-0.33,0.92-0.52,1.38c-0.21,0.47-0.41,0.93-0.77,1.47
			c-0.1,0.14-0.2,0.28-0.36,0.44c-0.16,0.16-0.34,0.35-0.74,0.52c-0.2,0.09-0.47,0.16-0.79,0.15c-0.32-0.01-0.64-0.12-0.86-0.26
			c-0.45-0.29-0.61-0.56-0.74-0.77c-0.06-0.1-0.11-0.21-0.15-0.29l-0.08-0.16l-0.15-0.32l-0.31-0.63c-0.4-0.85-0.8-1.7-1.17-2.56
			c-0.37-0.86-0.73-1.73-1.08-2.61c-0.33-0.89-0.67-1.75-0.96-2.69L75.78,70.03z"/>
		<path class="st14" d="M74.46,67.05c1.56,0.37,3.31,4.98,3.31,4.98l-4.64,3.95c0,0-3.01-5.03-2.4-6.69
			C71.37,67.57,72.42,66.56,74.46,67.05z"/>
		<path class="st9" d="M82.52,67.27l1.63-1.36l1.13,1.76l-0.83,1.47c0,0-1.33,1.22-2.5,0.6l0,0C81.56,68.89,81.8,67.88,82.52,67.27z
			"/>
		<polygon class="st9" points="87.1,65.92 86.98,66.36 84.4,66.79 84.15,65.91 		"/>
		<polygon class="st14" points="72.51,136.49 67.85,133.48 68.69,132.03 73.92,135.24 		"/>
		<path class="st12" d="M64.59,138.88c-0.37,0-0.86-0.23-1.15-0.4c-0.03-0.01-0.04-0.04-0.04-0.07c0-0.03,0.02-0.06,0.05-0.06
			c0.13-0.04,1.23-0.38,1.54-0.12c0.05,0.04,0.1,0.12,0.09,0.25c-0.02,0.17-0.1,0.29-0.23,0.35
			C64.78,138.86,64.69,138.88,64.59,138.88z M63.68,138.44c0.51,0.26,0.91,0.35,1.11,0.26c0.08-0.04,0.13-0.12,0.15-0.24
			c0.01-0.06-0.01-0.09-0.03-0.11C64.74,138.21,64.12,138.31,63.68,138.44z"/>
		<path class="st12" d="M63.48,138.49c-0.02,0-0.04-0.01-0.05-0.02c-0.02-0.02-0.03-0.05-0.02-0.07c0.01-0.04,0.26-0.92,0.68-1.12
			c0.11-0.05,0.22-0.06,0.34-0.01c0.18,0.07,0.19,0.2,0.19,0.27c-0.03,0.37-0.78,0.87-1.12,0.96
			C63.49,138.49,63.49,138.49,63.48,138.49z M64.27,137.38c-0.04,0-0.08,0.01-0.11,0.03c-0.25,0.12-0.46,0.6-0.56,0.89
			c0.36-0.15,0.85-0.55,0.87-0.77c0-0.04-0.01-0.08-0.1-0.12C64.33,137.39,64.3,137.38,64.27,137.38z"/>
		<path class="st12" d="M70.42,140.64c-0.46,0-1.1-0.59-1.45-0.95c-0.02-0.02-0.03-0.06-0.01-0.09c0.01-0.03,0.05-0.04,0.08-0.04
			c0.16,0.02,1.58,0.21,1.78,0.61c0.04,0.08,0.04,0.16-0.01,0.24c-0.07,0.13-0.18,0.21-0.32,0.23
			C70.46,140.64,70.44,140.64,70.42,140.64z M69.23,139.74c0.51,0.5,0.97,0.78,1.22,0.74c0.09-0.01,0.16-0.06,0.21-0.15
			c0.02-0.03,0.02-0.06,0.01-0.1C70.56,140.02,69.81,139.84,69.23,139.74z"/>
		<path class="st12" d="M69.28,139.73c-0.1,0-0.2-0.01-0.27-0.02c-0.03,0-0.05-0.02-0.06-0.05c-0.01-0.03,0-0.05,0.01-0.07
			c0.02-0.03,0.57-0.69,1.1-0.74c0.16-0.01,0.3,0.03,0.42,0.13c0.16,0.14,0.15,0.26,0.11,0.34
			C70.46,139.59,69.76,139.73,69.28,139.73z M69.17,139.58c0.46,0.03,1.18-0.13,1.28-0.32c0.01-0.02,0.03-0.07-0.07-0.16
			c-0.09-0.08-0.19-0.11-0.31-0.1C69.73,139.03,69.35,139.39,69.17,139.58z"/>
		<path class="st14" d="M63.59,138.06l-3.46-0.98c-0.13-0.04-0.25,0.02-0.3,0.14l-1.17,2.62c-0.12,0.27,0.05,0.61,0.34,0.69
			c1.21,0.32,1.81,0.41,3.33,0.84c0.94,0.26,2.27,0.75,3.56,1.11c1.26,0.36,1.72-0.89,1.22-1.16c-2.26-1.2-2.44-2.02-3.06-2.93
			C63.94,138.23,63.78,138.11,63.59,138.06z"/>
		<path class="st14" d="M69.06,139.21l-2.95-2.05c-0.11-0.07-0.25-0.06-0.33,0.03l-1.96,2.1c-0.2,0.22-0.15,0.59,0.1,0.76
			c1.04,0.7,1.58,0.98,2.88,1.88c0.8,0.55,2.39,1.78,3.49,2.55c1.08,0.75,1.92-0.28,1.53-0.7c-1.75-1.87-2.14-3.04-2.43-4.11
			C69.34,139.49,69.22,139.32,69.06,139.21z"/>
		<polygon class="st14" points="66.67,135.42 61.35,132.78 61.9,131.34 67.58,134.12 		"/>
		<path class="st3" d="M59.75,85.58l-0.45,1.16c-0.05,0.09,0.06,0.18,0.21,0.18H73c0.12,0,0.21-0.06,0.22-0.13l0.12-1.16
			c0.01-0.08-0.09-0.15-0.22-0.15H59.97C59.87,85.48,59.78,85.52,59.75,85.58z"/>
		<path class="st22" d="M59.75,85.58l-0.45,1.16c-0.05,0.09,0.06,0.18,0.21,0.18H73c0.12,0,0.21-0.06,0.22-0.13l0.12-1.16
			c0.01-0.08-0.09-0.15-0.22-0.15H59.97C59.87,85.48,59.78,85.52,59.75,85.58z"/>
		<path class="st3" d="M61.87,87.05h-0.35c-0.07,0-0.12-0.04-0.12-0.08l0.17-1.51c0-0.04,0.07-0.08,0.14-0.08h0.35
			c0.07,0,0.12,0.04,0.12,0.08l-0.17,1.51C62.01,87.01,61.94,87.05,61.87,87.05z"/>
		<path class="st3" d="M70.19,87.05h-0.35c-0.07,0-0.12-0.04-0.12-0.08l0.17-1.51c0-0.04,0.07-0.08,0.14-0.08h0.35
			c0.07,0,0.12,0.04,0.12,0.08l-0.17,1.51C70.32,87.01,70.26,87.05,70.19,87.05z"/>
		<ellipse class="st2" cx="61.56" cy="155.27" rx="10.92" ry="0.79"/>
		<path class="st5" d="M68.22,154.15c-1.93-0.56-4.06-1.28-5.37-2.05c-0.04-0.02-0.08-0.04-0.11-0.06v-8.73h3.88
			c0.64,0,1.16-0.52,1.16-1.16c0-0.64-0.52-1.16-1.16-1.16h-3.88v-39.86h-2.33v39.86h-3.88c-0.64,0-1.16,0.52-1.16,1.16
			c0,0.64,0.52,1.16,1.16,1.16h3.88v8.73c-0.04,0.02-0.08,0.03-0.11,0.06c-1.32,0.77-3.44,1.49-5.37,2.05
			c-0.63,0.18-0.5,1.12,0.16,1.12h6.49h6.49C68.72,155.27,68.85,154.33,68.22,154.15z"/>
		<path class="st14" d="M66.66,105.6H56.48c-2.35,0-4.26-1.92-4.26-4.26v0c0-2.35,1.92-4.26,4.26-4.26h10.18
			c2.35,0,4.26,1.92,4.26,4.26v0C70.93,103.68,69.01,105.6,66.66,105.6z"/>
		<path class="st3" d="M54.19,105.6v0.74c0,0.61,0.67,1.11,1.48,1.11h11.8c0.81,0,1.48-0.5,1.48-1.11v-0.74H54.19z"/>
		<path class="st23" d="M54.19,105.6v0.74c0,0.61,0.67,1.11,1.48,1.11h11.8c0.81,0,1.48-0.5,1.48-1.11v-0.74H54.19z"/>
	</g>
</g>
</svg>
