<?xml version="1.0" encoding="utf-8"?>
<!-- Generator: Adobe Illustrator 26.2.1, SVG Export Plug-In . SVG Version: 6.00 Build 0)  -->
<svg version="1.1" id="Layer_1" xmlns="http://www.w3.org/2000/svg" xmlns:xlink="http://www.w3.org/1999/xlink" x="0px" y="0px"
	 width="35.6px" height="35.6px" viewBox="0 0 35.6 35.6" style="enable-background:new 0 0 35.6 35.6;" xml:space="preserve">
<style type="text/css">
	.st0{fill:#6289C6;}
</style>
<path class="st0" d="M1.83,28.84c0-0.96,0-1.91,0-2.87c0.3-0.68,0.93-0.37,1.47-0.49c0-0.14,0-0.28,0-0.43c0-5.3,0-10.61,0-15.91
	c0-0.28,0-0.57,0.06-0.84c0.26-1.22,1.3-2.05,2.56-2.06c2.64-0.01,5.28,0,7.92,0c0.25,0,0.37-0.03,0.45-0.32
	c0.43-1.59,1.87-2.67,3.5-2.68c1.65-0.01,3.1,1.08,3.53,2.68c0.08,0.29,0.2,0.32,0.45,0.32c2.61-0.01,5.22,0,7.83-0.01
	c0.58,0,1.11,0.13,1.59,0.47c0.81,0.58,1.13,1.39,1.13,2.37c-0.01,5.32,0,10.65,0,15.97c0,0.14,0,0.28,0,0.46
	c0.25,0,0.46,0.01,0.66,0c0.38-0.03,0.64,0.11,0.8,0.46c0,0.96,0,1.91,0,2.87c-0.02,0.03-0.04,0.05-0.04,0.08
	c-0.21,1.74-1.82,3.46-4.18,3.43c-2.89-0.05-5.78-0.01-8.67-0.01c-0.57,0-0.87-0.21-0.88-0.61c-0.01-0.41,0.3-0.64,0.88-0.64
	c2.94,0,5.88,0,8.83,0c1.23,0,2.25-0.7,2.65-1.81c0.3-0.82,0.12-1.66,0.18-2.48c-2.87,0-5.69,0-8.54,0c0,0.23,0.01,0.44,0,0.64
	c-0.03,0.89-0.71,1.58-1.6,1.59c-3.06,0.01-6.11,0.01-9.17,0c-0.89,0-1.57-0.7-1.6-1.59c-0.01-0.21,0-0.43,0-0.65
	c-2.87,0-5.69,0-8.54,0c0,0.46,0,0.91,0,1.35c0,1.79,1.15,2.95,2.94,2.95c2.95,0,5.91,0,8.86,0c0.44,0,0.74,0.26,0.73,0.64
	c-0.01,0.36-0.3,0.61-0.72,0.61c-3.05,0-6.09,0.02-9.14-0.01c-1.41-0.01-2.53-0.66-3.27-1.85C2.17,29.98,2.04,29.39,1.83,28.84z
	 M31.06,25.52c0-0.14,0-0.24,0-0.34c0-5.39,0-10.77,0-16.16c0-0.98-0.54-1.52-1.53-1.52c-2.6,0-5.2,0-7.8,0c-0.1,0-0.2,0-0.22,0
	c-0.3,0.65-0.57,1.23-0.85,1.83c0.1,0,0.23,0,0.36,0c0.96,0.04,1.67,0.73,1.69,1.69c0.02,1.27,0.01,2.54,0,3.81
	c0,0.46-0.25,0.71-0.72,0.71c-2.8,0-5.59,0-8.39,0c-0.48,0-0.73-0.25-0.73-0.74c0-1.25-0.01-2.5,0-3.74
	c0.01-0.99,0.72-1.7,1.71-1.73c0.13,0,0.25,0,0.34,0c-0.28-0.62-0.55-1.2-0.84-1.83c-0.04,0-0.14,0-0.24,0c-2.59,0-5.18,0-7.77,0
	c-1,0-1.54,0.53-1.54,1.54c0,5.38,0,10.75,0,16.13c0,0.11,0.01,0.22,0.02,0.35c0.16,0,0.28,0,0.4,0c2.37,0,4.74,0,7.11,0
	c0.56,0,0.77,0.22,0.78,0.78c0,0.34,0,0.69,0,1.03c0.01,0.32,0.14,0.45,0.46,0.45c2.98,0,5.97,0,8.95,0c0.34,0,0.46-0.13,0.47-0.48
	c0.01-0.3,0-0.6,0-0.9c0-0.69,0.19-0.88,0.86-0.88c2.35,0,4.7,0,7.05,0C30.77,25.52,30.9,25.52,31.06,25.52z M21.47,14.28
	c0-1.06,0-2.09,0-3.12c0-0.43-0.15-0.58-0.58-0.58c-2.06,0-4.11,0-6.17,0c-0.45,0-0.6,0.15-0.6,0.6c0,0.95,0,1.89,0,2.84
	c0,0.09,0.01,0.18,0.02,0.27C16.6,14.28,19.01,14.28,21.47,14.28z M17.77,9.32c1.34,0.01,2.43-1.05,2.44-2.39
	c0.02-1.31-1.06-2.41-2.37-2.43c-1.35-0.02-2.46,1.07-2.46,2.41C15.38,8.23,16.45,9.31,17.77,9.32z"/>
<path class="st0" d="M17.44,31.96c-0.33-0.02-0.61-0.32-0.59-0.65c0.02-0.35,0.33-0.62,0.67-0.59c0.34,0.03,0.59,0.32,0.57,0.66
	C18.07,31.71,17.78,31.98,17.44,31.96z"/>
<path class="st0" d="M17.5,17.04c3.25,0,6.51,0,9.76,0c0.62,0,0.82,0.2,0.82,0.82c0,1.59,0,3.18,0,4.77c0,0.6-0.2,0.81-0.8,0.81
	c-6.54,0-13.08,0-19.62,0c-0.6,0-0.8-0.21-0.8-0.81c0-1.6,0-3.2,0-4.8c0-0.58,0.21-0.79,0.79-0.79
	C10.93,17.04,14.21,17.04,17.5,17.04z M8.12,18.3c0,1.3,0,2.59,0,3.88c6.24,0,12.46,0,18.69,0c0-1.3,0-2.59,0-3.88
	C20.58,18.3,14.37,18.3,8.12,18.3z"/>
<path class="st0" d="M11.52,20.86c-0.26,0-0.52,0.01-0.78,0c-0.36-0.02-0.62-0.27-0.62-0.61c0-0.32,0.23-0.61,0.58-0.62
	c0.55-0.02,1.1-0.02,1.65,0c0.34,0.02,0.57,0.32,0.56,0.64c-0.01,0.33-0.26,0.57-0.61,0.59C12.04,20.87,11.78,20.86,11.52,20.86
	C11.52,20.86,11.52,20.86,11.52,20.86z"/>
<path class="st0" d="M23.41,20.86c-0.26,0-0.52,0.01-0.78,0c-0.35-0.02-0.59-0.27-0.6-0.59c-0.01-0.32,0.22-0.62,0.56-0.63
	c0.55-0.03,1.1-0.03,1.65,0c0.34,0.01,0.58,0.31,0.57,0.62c-0.01,0.33-0.26,0.59-0.63,0.61C23.93,20.87,23.67,20.86,23.41,20.86
	C23.41,20.86,23.41,20.86,23.41,20.86z"/>
<path class="st0" d="M15.5,20.86c-0.27,0-0.54,0.01-0.81,0c-0.34-0.02-0.57-0.25-0.59-0.57c-0.02-0.33,0.19-0.63,0.53-0.65
	c0.57-0.03,1.14-0.03,1.71,0c0.34,0.02,0.55,0.32,0.53,0.65c-0.02,0.32-0.25,0.55-0.59,0.57C16.02,20.87,15.76,20.86,15.5,20.86z"/>
<path class="st0" d="M19.44,20.86c-0.26,0-0.52,0.01-0.78,0c-0.35-0.02-0.59-0.26-0.6-0.59c-0.01-0.33,0.21-0.62,0.56-0.63
	c0.55-0.03,1.1-0.03,1.65,0c0.34,0.01,0.57,0.3,0.57,0.62c-0.01,0.34-0.25,0.58-0.62,0.61c-0.02,0-0.04,0-0.06,0
	C19.92,20.87,19.68,20.87,19.44,20.86C19.44,20.86,19.44,20.86,19.44,20.86z"/>
</svg>
