<?xml version="1.0" encoding="utf-8"?>
<!-- Generator: Adobe Illustrator 26.0.2, SVG Export Plug-In . SVG Version: 6.00 Build 0)  -->
<svg version="1.1" id="Layer_1" xmlns="http://www.w3.org/2000/svg" xmlns:xlink="http://www.w3.org/1999/xlink" x="0px" y="0px"
	 width="147.1px" height="42px" viewBox="0 0 147.1 42" style="enable-background:new 0 0 147.1 42;" xml:space="preserve">
<style type="text/css">
	.st0{fill-rule:evenodd;clip-rule:evenodd;fill:#FFFFFF;}
	.st1{fill-rule:evenodd;clip-rule:evenodd;fill:#BBBCBF;}
	
		.st2{clip-path:url(#SVGID_00000038376306447362090020000016216701975990263727_);fill:url(#SVGID_00000137810757596931359440000007108314204788172177_);}
	
		.st3{clip-path:url(#SVGID_00000165229771388037767230000002782013112699205775_);fill:url(#SVGID_00000099624228539716040300000015258320616211559068_);}
	
		.st4{clip-path:url(#SVGID_00000021798237065968834440000016334909655952042891_);fill:url(#SVGID_00000161590277768090555740000003918683806924433833_);}
	
		.st5{fill:none;stroke:#FFFFFF;stroke-width:0.9498;stroke-linecap:round;stroke-linejoin:round;stroke-miterlimit:22.9256;stroke-dasharray:1.6954,2.5461;}
</style>
<path class="st0" d="M95.1,8.7l-1.3-3.2h-4.5l-0.1,0.6l4.1,8.5l-8.6,9.6l-0.1,0.6h4.6l3.2-3.6l2.8-3.5h0.1l1.3,3.4l1.7,3.7h4.3
	l0.1-0.6l-4.4-9.6l7.6-8.5l0.1-0.6h-4.7l-2.5,3l-2.6,3.4L95.1,8.7z M69.3,15.4C70,11.3,73.2,9,76.5,9c2.6,0,4.6,1.6,4.6,4.8
	c0,5-3.7,7.6-7.3,7.6C70,21.4,68.7,18.7,69.3,15.4z M85.3,13.1c0-5.2-3.6-7.9-8-7.9C71,5.2,65,9.5,65,17.2c0,5.2,3.5,7.9,8,7.9
	C79.9,25.2,85.3,20.6,85.3,13.1z M51.7,5.8l-6.6,11.7H45l-0.4-6.2l-0.7-5.9h-4.3L39.5,6l2.6,19h2.5l5.9-10.4h0.1L52.8,25H55
	L65.5,6.1c0-0.2,0.1-0.4,0.1-0.6h-4.3c-1.1,2-2.3,3.9-3.3,5.9l-2.9,6.2H55L53.3,5.8H51.7z"/>
<path class="st0" d="M144.2,33.6h1.2c0,0.7-0.2,1.2-0.6,1.5c-0.3,0.3-0.8,0.5-1.4,0.5c-0.6,0-1-0.1-1.3-0.4
	c-0.3-0.3-0.4-0.7-0.4-1.2c0-0.1,0-0.3,0-0.4c0-0.1,0-0.3,0-0.5c0.1-0.4,0.1-0.8,0.2-1.2c0.1-0.4,0.2-0.6,0.2-0.8
	c0.2-0.5,0.4-0.8,0.8-1c0.3-0.2,0.7-0.3,1.2-0.3c0.6,0,1,0.1,1.3,0.4c0.3,0.2,0.4,0.6,0.4,1.2c0,0.2,0,0.4-0.1,0.7
	c0,0.3-0.1,0.5-0.2,0.8H143c0,0.3-0.1,0.5-0.1,0.7s0,0.4,0,0.5c0,0.2,0,0.4,0.1,0.5s0.3,0.2,0.5,0.2s0.4-0.1,0.5-0.3
	C144.1,34.3,144.2,34,144.2,33.6 M144.5,32c0-0.1,0-0.3,0.1-0.4c0-0.1,0-0.2,0-0.3c0-0.2,0-0.3-0.1-0.4s-0.2-0.1-0.4-0.1
	s-0.4,0.1-0.6,0.3c-0.1,0.2-0.2,0.5-0.3,1L144.5,32L144.5,32z M140.8,33.4c-0.1,0.8-0.3,1.3-0.6,1.7s-0.8,0.5-1.4,0.5
	c-0.6,0-1-0.1-1.3-0.4c-0.3-0.3-0.4-0.7-0.4-1.2c0-0.2,0-0.4,0-0.6c0-0.2,0.1-0.5,0.1-0.8c0.1-0.5,0.2-0.9,0.3-1.1
	c0.1-0.3,0.2-0.5,0.4-0.8s0.4-0.5,0.7-0.6s0.6-0.2,0.9-0.2c0.5,0,1,0.1,1.3,0.4s0.4,0.7,0.4,1.2c0,0.1,0,0.2,0,0.2
	c0,0.1,0,0.2,0,0.3H140c0-0.1,0-0.2,0-0.3c0-0.1,0-0.2,0-0.2c0-0.2,0-0.4-0.1-0.5s-0.2-0.2-0.4-0.2s-0.3,0.1-0.4,0.2
	c-0.1,0.1-0.2,0.4-0.3,0.7c-0.1,0.5-0.2,0.9-0.3,1.3c-0.1,0.4-0.1,0.7-0.1,0.9c0,0.3,0,0.4,0.1,0.5s0.2,0.2,0.4,0.2s0.4-0.1,0.5-0.3
	s0.2-0.5,0.3-1L140.8,33.4L140.8,33.4z M133.2,35.4h-1.3l1.2-5.5h1.2l-0.1,0.5c0.2-0.2,0.4-0.4,0.7-0.5c0.2-0.1,0.4-0.2,0.7-0.2
	s0.6,0.1,0.8,0.3c0.2,0.2,0.3,0.4,0.3,0.8c0,0.1,0,0.1,0,0.2s0,0.2-0.1,0.4l-0.8,3.9h-1.3l0.8-3.8c0-0.1,0-0.2,0.1-0.3v-0.1
	c0-0.1,0-0.3-0.1-0.3c-0.1-0.1-0.2-0.1-0.3-0.1c-0.2,0-0.4,0.1-0.5,0.2c-0.1,0.2-0.2,0.4-0.3,0.8L133.2,35.4z M130.1,33.6h1.2
	c0,0.7-0.2,1.2-0.6,1.5c-0.3,0.3-0.8,0.5-1.4,0.5c-0.6,0-1-0.1-1.3-0.4c-0.3-0.3-0.4-0.7-0.4-1.2c0-0.1,0-0.3,0-0.4
	c0-0.1,0-0.3,0-0.5c0.1-0.4,0.1-0.8,0.2-1.2c0.1-0.4,0.2-0.6,0.2-0.8c0.2-0.5,0.4-0.8,0.8-1c0.3-0.2,0.7-0.3,1.2-0.3
	c0.6,0,1,0.1,1.3,0.4c0.3,0.2,0.4,0.6,0.4,1.2c0,0.2,0,0.4-0.1,0.7c0,0.3-0.1,0.5-0.2,0.8h-2.6c0,0.3-0.1,0.5-0.1,0.7s0,0.4,0,0.5
	c0,0.2,0,0.4,0.1,0.5s0.3,0.2,0.5,0.2s0.4-0.1,0.5-0.3C130,34.3,130.1,34,130.1,33.6z M130.4,32c0-0.1,0-0.3,0.1-0.4
	c0-0.1,0-0.2,0-0.3c0-0.2,0-0.3-0.1-0.4s-0.2-0.1-0.4-0.1s-0.4,0.1-0.6,0.3c-0.1,0.2-0.2,0.5-0.3,1L130.4,32L130.4,32z M124.8,35.4
	L126,30h1.3l-1.2,5.5L124.8,35.4L124.8,35.4z M126.1,29.2l0.2-1.1h1.3l-0.2,1.1H126.1z M123.7,30l-0.2,0.9l0,0
	c0.2-0.4,0.3-0.6,0.6-0.8c0.2-0.2,0.5-0.3,0.8-0.3c0.1,0,0.1,0,0.1,0h0.1l-0.3,1.4c-0.1,0-0.1,0-0.2,0s-0.1,0-0.2,0
	c-0.3,0-0.6,0.1-0.8,0.2c-0.2,0.2-0.3,0.4-0.4,0.8l-0.7,3.2h-1.3l1.2-5.5L123.7,30L123.7,30z M119.5,33.6h1.2c0,0.7-0.2,1.2-0.6,1.5
	c-0.3,0.3-0.8,0.5-1.4,0.5s-1-0.1-1.3-0.4c-0.3-0.3-0.4-0.7-0.4-1.2c0-0.1,0-0.3,0-0.4c0-0.1,0-0.3,0-0.5c0.1-0.4,0.1-0.8,0.2-1.2
	c0.1-0.4,0.2-0.6,0.2-0.8c0.2-0.5,0.4-0.8,0.8-1c0.3-0.2,0.7-0.3,1.2-0.3c0.6,0,1,0.1,1.3,0.4c0.3,0.2,0.4,0.6,0.4,1.2
	c0,0.2,0,0.4-0.1,0.7c0,0.3-0.1,0.5-0.2,0.8h-2.6c0,0.3-0.1,0.5-0.1,0.7s0,0.4,0,0.5c0,0.2,0,0.4,0.1,0.5s0.3,0.2,0.5,0.2
	s0.4-0.1,0.5-0.3C119.4,34.3,119.5,34,119.5,33.6z M119.8,32c0-0.1,0-0.3,0.1-0.4c0-0.1,0-0.2,0-0.3c0-0.2,0-0.3-0.1-0.4
	s-0.2-0.1-0.4-0.1c-0.2,0-0.4,0.1-0.6,0.3c-0.1,0.2-0.2,0.5-0.3,1L119.8,32L119.8,32z M114.1,30l-0.1,0.6c0.2-0.3,0.3-0.4,0.5-0.6
	c0.2-0.1,0.4-0.2,0.7-0.2c0.4,0,0.7,0.1,0.9,0.4c0.2,0.3,0.3,0.7,0.3,1.2c0,0.1,0,0.3,0,0.5c0,0.2-0.1,0.4-0.1,0.7
	c-0.1,0.4-0.1,0.7-0.2,1s-0.2,0.6-0.3,0.8c-0.2,0.4-0.4,0.7-0.6,0.9s-0.5,0.3-0.9,0.3c-0.3,0-0.5-0.1-0.6-0.2
	c-0.2-0.1-0.3-0.3-0.4-0.6l-0.5,2.5h-1.3L113,30H114.1z M113.9,34.6c0.2,0,0.3,0,0.4-0.1s0.2-0.3,0.3-0.4c0.2-0.4,0.3-0.9,0.4-1.3
	c0.1-0.5,0.1-0.9,0.1-1.2c0-0.2,0-0.4-0.1-0.5s-0.2-0.1-0.4-0.1c-0.2,0-0.3,0.1-0.5,0.2c-0.1,0.1-0.2,0.4-0.4,0.8
	c-0.1,0.4-0.2,0.8-0.3,1.2c-0.1,0.4-0.1,0.7-0.1,1c0,0.2,0,0.3,0.1,0.4C113.7,34.5,113.8,34.6,113.9,34.6z M108.7,35.4h-1.4l1.9-2.9
	l-0.7-2.6h1.2l0.3,1.5l0.9-1.5h1.4l-1.8,2.8l0.9,2.7H110l-0.4-1.6L108.7,35.4z M103.1,35.4l1.5-7.3h3.6l-0.2,1.2h-2.3l-0.4,1.8h2.2
	l-0.2,1.1h-2.2l-0.4,2.1h2.4l-0.2,1.2L103.1,35.4L103.1,35.4z M98,35.4l1-4.6h-0.5l0.2-0.8h0.5l0.2-0.9c0.1-0.4,0.2-0.6,0.4-0.8
	c0.2-0.1,0.5-0.2,0.9-0.2c0.1,0,0.1,0,0.3,0c0.1,0,0.3,0,0.4,0.1l-0.2,0.9c0,0,0,0-0.1,0H101c-0.1,0-0.2,0-0.3,0.1
	c-0.1,0.1-0.1,0.2-0.1,0.3l-0.1,0.5h0.6l-0.2,0.8h-0.5l-1,4.6H98z M95.8,30.7c-0.2,0-0.4,0.1-0.5,0.2s-0.2,0.4-0.3,0.8
	c-0.1,0.5-0.2,1-0.3,1.4c-0.1,0.4-0.1,0.7-0.1,0.9s0,0.4,0.1,0.5s0.3,0.2,0.5,0.2s0.4-0.1,0.5-0.2c0.1-0.1,0.2-0.4,0.3-0.8
	c0.1-0.5,0.2-0.9,0.3-1.4c0.1-0.4,0.1-0.7,0.1-0.9c0-0.2,0-0.4-0.1-0.5C96.2,30.8,96,30.7,95.8,30.7z M93.4,33.9c0-0.2,0-0.4,0-0.6
	c0-0.2,0.1-0.5,0.1-0.8c0.1-0.5,0.2-0.9,0.3-1.2c0.1-0.3,0.2-0.5,0.4-0.7c0.2-0.3,0.4-0.5,0.7-0.6c0.3-0.1,0.6-0.2,1-0.2
	c0.6,0,1.1,0.1,1.4,0.4s0.4,0.7,0.4,1.3c0,0.2,0,0.4,0,0.6c0,0.2-0.1,0.5-0.1,0.8c-0.1,0.4-0.2,0.8-0.3,1.1
	c-0.1,0.3-0.2,0.6-0.4,0.8c-0.2,0.3-0.4,0.5-0.7,0.6c-0.3,0.1-0.6,0.2-1,0.2c-0.6,0-1-0.1-1.3-0.4C93.5,34.9,93.4,34.5,93.4,33.9z
	 M88.4,35.4l0.1-0.6c-0.2,0.3-0.3,0.4-0.5,0.6c-0.2,0.1-0.4,0.2-0.7,0.2c-0.4,0-0.7-0.1-0.9-0.4c-0.2-0.3-0.3-0.7-0.3-1.2
	c0-0.2,0-0.3,0-0.5s0.1-0.4,0.1-0.7c0.1-0.4,0.1-0.7,0.2-1s0.2-0.6,0.3-0.8c0.2-0.4,0.4-0.7,0.6-0.9c0.3-0.2,0.5-0.3,0.9-0.3
	c0.3,0,0.5,0.1,0.6,0.2c0.2,0.1,0.3,0.3,0.4,0.6l0.5-2.5H91l-1.6,7.3H88.4z M88.6,30.9c-0.2,0-0.3,0-0.4,0.2
	c-0.1,0.1-0.2,0.2-0.3,0.4c-0.2,0.4-0.3,0.9-0.4,1.3c-0.1,0.5-0.1,0.9-0.1,1.2c0,0.2,0,0.4,0.1,0.5s0.2,0.1,0.4,0.1
	c0.2,0,0.3,0,0.4-0.2c0.1-0.1,0.2-0.3,0.3-0.5c0-0.1,0.1-0.3,0.2-0.5c0-0.2,0.1-0.4,0.2-0.7s0.1-0.6,0.2-0.8c0-0.2,0-0.4,0-0.6
	s0-0.4-0.1-0.5C88.8,30.9,88.7,30.9,88.6,30.9z M83.4,35.4l1.6-7.3h1.3l-1.6,7.3H83.4z M82.3,30l-0.2,0.9l0,0
	c0.2-0.4,0.3-0.6,0.6-0.8c0.2-0.2,0.5-0.3,0.8-0.3c0.1,0,0.1,0,0.1,0h0.1l-0.3,1.4c-0.1,0-0.1,0-0.2,0s-0.1,0-0.2,0
	c-0.3,0-0.6,0.1-0.8,0.2c-0.2,0.2-0.3,0.4-0.4,0.8l-0.7,3.2h-1.3l1.2-5.5L82.3,30L82.3,30z M77.8,30.7c-0.2,0-0.4,0.1-0.5,0.2
	s-0.2,0.4-0.3,0.8c-0.1,0.5-0.2,1-0.3,1.4c-0.1,0.4-0.1,0.7-0.1,0.9s0,0.4,0.1,0.5s0.3,0.2,0.5,0.2s0.4-0.1,0.5-0.2
	c0.1-0.1,0.2-0.4,0.3-0.8c0.1-0.5,0.2-0.9,0.3-1.4c0.1-0.4,0.1-0.7,0.1-0.9c0-0.2,0-0.4-0.1-0.5C78.2,30.8,78,30.7,77.8,30.7z
	 M75.4,33.9c0-0.2,0-0.4,0-0.6c0-0.2,0.1-0.5,0.1-0.8c0.1-0.5,0.2-0.9,0.3-1.2c0.1-0.3,0.2-0.5,0.4-0.7c0.2-0.3,0.4-0.5,0.7-0.6
	c0.3-0.1,0.6-0.2,1-0.2c0.6,0,1.1,0.1,1.4,0.4s0.4,0.7,0.4,1.3c0,0.2,0,0.4,0,0.6c0,0.2-0.1,0.5-0.1,0.8c-0.1,0.4-0.2,0.8-0.3,1.1
	c-0.1,0.3-0.2,0.6-0.4,0.8c-0.2,0.3-0.4,0.5-0.7,0.6c-0.3,0.1-0.6,0.2-1,0.2c-0.6,0-1-0.1-1.3-0.4C75.5,34.9,75.4,34.5,75.4,33.9z
	 M69.9,35.4h-1.6l-0.1-7.3h1.3l-0.1,4.6c0,0.2,0,0.4,0,0.7s0,0.6-0.1,1c0.1-0.4,0.2-0.7,0.2-0.9c0.1-0.3,0.2-0.5,0.2-0.8l1.6-4.6
	h1.1v4.6c0,0.3,0,0.5,0,0.8s0,0.6,0,0.9c0.1-0.5,0.2-0.9,0.3-1.2c0.1-0.2,0.1-0.4,0.1-0.5l1.5-4.7h1.4L73,35.3h-1.6v-3.5
	c0-0.1,0-0.4,0-0.7c0-0.3,0-0.6,0.1-1c-0.1,0.3-0.2,0.6-0.3,0.9c-0.1,0.3-0.2,0.5-0.2,0.8L69.9,35.4z"/>
<path class="st0" d="M143,5.3h-1.9v7.2h4.5v-1.7H143V5.3z M139.8,5.3h-4.5v7.2h4.6v-1.7h-2.7V9.6h2.4V8h-2.4V7h2.6L139.8,5.3
	L139.8,5.3z M131,9.3l-0.6-1.9l-0.9-2.1h-2v0.3l3.1,7h0.8l3.1-7V5.3h-2l-0.9,2.1L131,9.3L131,9.3z M123.9,8.3l0.8,1.7h-1.5
	L123.9,8.3z M125.3,11.6l0.4,0.9h1.9v-0.3l-3.3-7h-0.9l-3.3,7v0.3h2l0.4-0.9H125.3z M115.8,8.7V6.9h1.3c0.5,0,0.8,0.4,0.8,0.9
	s-0.3,0.9-0.8,0.9H115.8z M118.6,9.9c0.7-0.5,1.1-1.3,1.1-2.1c0-1.3-0.9-2.5-2.6-2.5c-1.1,0-2.1,0-3.2,0v7.2h1.9v-2.3h1l1.2,2.3h2
	v-0.3L118.6,9.9z M109.4,6.9v5.6h1.8V6.9h1.8V5.3h-5.4v1.6H109.4z"/>
<path class="st0" d="M140.4,21.2v-1.8h1.3c0.5,0,0.8,0.4,0.8,0.9s-0.3,0.9-0.8,0.9H140.4z M143.2,22.4c0.7-0.5,1.1-1.3,1.1-2.1
	c0-1.3-0.9-2.5-2.6-2.5c-1.1,0-2.1,0-3.2,0V25h1.9v-2.3h1l1.2,2.3h2v-0.3L143.2,22.4z M134.1,25.1c1.5,0,2.9-0.9,2.9-2.5v-4.8h-1.9
	v4.8c0,0.6-0.5,0.9-1,0.9s-1.1-0.3-1.1-0.9v-4.8h-1.9v4.8C131.2,24.2,132.6,25.1,134.1,25.1z M124.6,21.4c0-1.3,0.9-2,1.8-2
	s1.8,0.7,1.8,2s-0.9,2-1.8,2C125.5,23.3,124.6,22.7,124.6,21.4z M130.1,21.4c0-2.5-1.8-3.7-3.7-3.7c-1.9,0-3.7,1.3-3.7,3.7
	c0,2.5,1.8,3.7,3.7,3.7C128.6,25.1,130.1,23.6,130.1,21.4z M118.5,19.4V25h1.8v-5.6h1.8v-1.6h-5.4v1.6H118.5z M112.9,19.6
	c0.1-1.3-1-1.9-2.2-1.9c-1.5,0-2.3,1-2.3,1.9c0,0.3,0.1,0.7,0.3,1c0.1,0.1,0.2,0.2,0.3,0.3c-0.6,0.4-1,1.1-1,1.8
	c0,1.1,0.8,2.4,2.8,2.4c1.5,0,2.5-0.9,2.5-2.4v-0.9h0.6v-1.5h-2.2v2.4c0,0.5-0.4,0.9-0.9,0.9c-0.6,0-0.9-0.4-0.9-0.9
	c0-0.4,0.3-0.9,0.9-0.9h0.3v-1.5h-0.3c-0.3,0-0.5-0.1-0.6-0.3c-0.1-0.1-0.1-0.2-0.1-0.3c0-0.4,0.3-0.6,0.6-0.6
	c0.3,0,0.6,0.2,0.6,0.4h1.6V19.6z"/>
<path class="st1" d="M2.8,22.7c4,3.3,9.1,2.2,14.5,0c2.1-1,4.2-1.9,6.3-2.9c3.4-1.5,2.9,1,0.8,3.7c-3.6,3.7-7.3,6.3-11.2,7.7
	C9.8,32.4,4.5,32.8,2.6,28C2,25.9,2,24.1,2.8,22.7"/>
<path class="st1" d="M13.5,39c4.4,1.7,9.3,0.3,14.7-3.8c2-1.5,3.5-3.1,4.7-4.7c1.1-1.4,0.5-1.9-0.7-1.2c-7.9,4.4-15.2,7.4-21,6.7
	C11.4,37.4,12.2,38.4,13.5,39"/>
<path class="st1" d="M13.2,11.1c3-0.9,4-0.2,2.8,2.3c-4,5.9-17.6,9-12.4-1.9C6.3,5.7,16-0.2,18.3,2.6c-3.9,0.8-7.7,1.6-10.6,5.5
	C7.4,10.6,8.1,12.5,13.2,11.1"/>
<g>
	<g>
		<defs>
			<path id="SVGID_1_" d="M29.2,3.3c-4.7-1.1-12.4,2.6-19.1,8.5c-4.9,4.9-8.7,10.5-7.6,16.1C1,24.3,0.7,18.5,2.3,15.1
				C5.4,9.2,10,5.7,15.2,3.2C20.5,1.3,24.6,1,29.2,3.3z"/>
		</defs>
		<clipPath id="SVGID_00000119105889448127824380000018099828607589650561_">
			<use xlink:href="#SVGID_1_"  style="overflow:visible;"/>
		</clipPath>
		
			<linearGradient id="SVGID_00000142878906535265617520000010845626782148930460_" gradientUnits="userSpaceOnUse" x1="144.0377" y1="15.8842" x2="116.6014" y2="15.8842" gradientTransform="matrix(-1 0 0 1 145.8312 -1.4342)">
			<stop  offset="0" style="stop-color:#121B21"/>
			<stop  offset="1" style="stop-color:#647882"/>
		</linearGradient>
		
			<rect x="0.7" y="1" style="clip-path:url(#SVGID_00000119105889448127824380000018099828607589650561_);fill:url(#SVGID_00000142878906535265617520000010845626782148930460_);" width="28.5" height="26.9"/>
	</g>
</g>
<g>
	<g>
		<defs>
			<path id="SVGID_00000007418334209013083380000013740897123104486060_" d="M11.9,30c1.8-4,4.8-7.9,9.6-11.7
				c4.3-3.4,9.1-5.3,14.3-5.9c1.2,0,1.3-0.6,0.5-1.6c-2.2-2.6-7.9-2.6-12.6-1.4c-7.2,2-13.2,6.6-17.3,13.5c-1.9,2.7-2.6,7.5-1,9.8
				c2.2,2.9,5,4.9,8.1,6.2C10.3,36.5,10.6,33.6,11.9,30z"/>
		</defs>
		<clipPath id="SVGID_00000115487223518588176040000015750465234708710048_">
			<use xlink:href="#SVGID_00000007418334209013083380000013740897123104486060_"  style="overflow:visible;"/>
		</clipPath>
		
			<linearGradient id="SVGID_00000028291425108174915640000017678923748082607763_" gradientUnits="userSpaceOnUse" x1="140.6477" y1="24.9842" x2="109.2732" y2="24.9842" gradientTransform="matrix(-1 0 0 1 145.8312 -1.4342)">
			<stop  offset="0" style="stop-color:#005495"/>
			<stop  offset="1" style="stop-color:#00AFE5"/>
		</linearGradient>
		
			<rect x="3.8" y="8.2" style="clip-path:url(#SVGID_00000115487223518588176040000015750465234708710048_);fill:url(#SVGID_00000028291425108174915640000017678923748082607763_);" width="33.2" height="30.7"/>
	</g>
</g>
<g>
	<g>
		<defs>
			<path id="SVGID_00000140006871879889927830000001370505048864990109_" d="M34.4,34.7c-3.6,3.1-6.8,4.7-9.1,3.7
				c-2.3-0.9-1.8-4.2,1.5-7.9c2.1-2,4.7-3.8,8.3-5c2.8-0.9,2-2.9-0.2-4C31.9,20,23.5,22,18,29c-2.9,3.3-3.7,8.1-1.1,10
				C20,41.8,29.3,40,34.4,34.7z"/>
		</defs>
		<clipPath id="SVGID_00000102504410857736670920000010774918295115875477_">
			<use xlink:href="#SVGID_00000140006871879889927830000001370505048864990109_"  style="overflow:visible;"/>
		</clipPath>
		
			<linearGradient id="SVGID_00000113339914628623186430000009773490429333987229_" gradientUnits="userSpaceOnUse" x1="129.5589" y1="32.3342" x2="109.8678" y2="32.3342" gradientTransform="matrix(-1 0 0 1 145.8312 -1.4342)">
			<stop  offset="0" style="stop-color:#FFCA05"/>
			<stop  offset="1" style="stop-color:#E6DB89"/>
		</linearGradient>
		
			<rect x="14.3" y="20" style="clip-path:url(#SVGID_00000102504410857736670920000010774918295115875477_);fill:url(#SVGID_00000113339914628623186430000009773490429333987229_);" width="23.7" height="21.8"/>
	</g>
</g>
<path class="st0" d="M63.6,36c0.1-0.3,0.4-1,0.4-1v-0.1c0.1,0,0.1,0,0.2,0c0.2-0.1,0.4-0.2,0.3-0.3c0-0.1-0.2-0.1-0.4-0.1l0.3-0.9
	c0.1,0,0.1,0,0.2,0c0.2-0.1,0.4-0.2,0.3-0.3c0-0.1-0.2-0.1-0.4-0.1l0.4-1c0,0,1.6-0.4,1.6-0.8c-0.2-0.4-1.8,0-1.8,0L64,30.9
	c0.2-0.1,0.3-0.2,0.3-0.3c0-0.1-0.2-0.1-0.4-0.1c-0.1,0-0.1,0-0.2,0.1L63,30.1c0.2-0.1,0.3-0.2,0.3-0.2c0-0.1-0.2-0.1-0.4-0.1
	c-0.1,0-0.1,0-0.2,0.1l0,0c0,0-0.5-0.5-0.8-0.7c-0.2-0.2-0.5-0.1-0.5-0.1l1.8,3c-1.1,0.3-1.8,0.6-1.8,0.6l-0.8-0.8L60.2,32l0.6,0.9
	c-0.3,0.2-0.3,0.3-0.3,0.3s0,0.1,0.4,0.1v1.1l0.4-0.1l0.4-1.1c0,0,0.7,0,1.8-0.3l-0.1,3.5C63.2,36.3,63.5,36.3,63.6,36"/>
<path class="st5" d="M62.4,32.7C47.9,35.5,42,27.9,33.9,35"/>
<path class="st0" d="M63.6,36c0.1-0.3,0.4-1,0.4-1v-0.1c0.1,0,0.1,0,0.2,0c0.2-0.1,0.4-0.2,0.3-0.3c0-0.1-0.2-0.1-0.4-0.1l0.3-0.9
	c0.1,0,0.1,0,0.2,0c0.2-0.1,0.4-0.2,0.3-0.3c0-0.1-0.2-0.1-0.4-0.1l0.4-1c0,0,1.6-0.4,1.6-0.8c-0.2-0.4-1.8,0-1.8,0L64,30.9
	c0.2-0.1,0.3-0.2,0.3-0.3c0-0.1-0.2-0.1-0.4-0.1c-0.1,0-0.1,0-0.2,0.1L63,30.1c0.2-0.1,0.3-0.2,0.3-0.2c0-0.1-0.2-0.1-0.4-0.1
	c-0.1,0-0.1,0-0.2,0.1l0,0c0,0-0.5-0.5-0.8-0.7c-0.2-0.2-0.5-0.1-0.5-0.1l1.8,3c-1.1,0.3-1.8,0.6-1.8,0.6l-0.8-0.8L60.2,32l0.6,0.9
	c-0.3,0.2-0.3,0.3-0.3,0.3s0,0.1,0.4,0.1v1.1l0.4-0.1l0.4-1.1c0,0,0.7,0,1.8-0.3l-0.1,3.5C63.2,36.3,63.5,36.3,63.6,36"/>
</svg>
