<?xml version="1.0" encoding="utf-8"?>
<!-- Generator: Adobe Illustrator 26.2.1, SVG Export Plug-In . SVG Version: 6.00 Build 0)  -->
<svg version="1.1" id="Layer_1" xmlns="http://www.w3.org/2000/svg" xmlns:xlink="http://www.w3.org/1999/xlink" x="0px" y="0px"
	 width="17.55px" height="8.57px" viewBox="0 0 17.55 8.57" style="enable-background:new 0 0 17.55 8.57;" xml:space="preserve">
<path d="M17.13,4.38c-0.08,0.1-0.16,0.22-0.26,0.31c-1.21,1.21-2.41,2.42-3.62,3.63c-0.18,0.18-0.38,0.21-0.55,0.08
	c-0.16-0.13-0.19-0.34-0.07-0.51c0.05-0.07,0.11-0.12,0.16-0.18c0.96-0.96,1.91-1.92,2.87-2.88c0.04-0.04,0.09-0.07,0.14-0.11
	c-0.01-0.02-0.02-0.04-0.02-0.05c-0.07,0-0.13,0-0.2,0c-4.87,0-9.73,0-14.6,0c-0.09,0-0.19,0-0.27-0.02
	c-0.17-0.04-0.29-0.2-0.29-0.37c0.01-0.17,0.12-0.32,0.29-0.35C0.8,3.91,0.89,3.9,0.99,3.9c4.86,0,9.72,0,14.58,0
	c0.07,0,0.14,0,0.25,0c-0.07-0.08-0.11-0.12-0.16-0.17c-0.98-0.98-1.96-1.97-2.94-2.95c-0.13-0.13-0.21-0.28-0.14-0.47
	c0.09-0.22,0.36-0.31,0.55-0.17c0.07,0.05,0.12,0.11,0.18,0.16c1.18,1.19,2.37,2.37,3.55,3.56c0.09,0.09,0.17,0.21,0.25,0.31
	C17.13,4.25,17.13,4.32,17.13,4.38z"/>
</svg>
