<?xml version="1.0" encoding="utf-8"?>
<!-- Generator: Adobe Illustrator 26.0.1, SVG Export Plug-In . SVG Version: 6.00 Build 0)  -->
<svg version="1.1" id="Layer_1" xmlns="http://www.w3.org/2000/svg" xmlns:xlink="http://www.w3.org/1999/xlink" x="0px" y="0px"
	 width="28.5px" height="28.3px" viewBox="0 0 28.5 28.3" style="enable-background:new 0 0 28.5 28.3;" xml:space="preserve">
<style type="text/css">
	.st0{fill:#4C4C4C;}
</style>
<g>
	<path class="st0" d="M25.3,4.7c-1.3-1.2-3-1.7-5-1.7h-12c-1.9,0-3.7,0.5-5,1.7c-1.3,1.2-2,3-2,5.3v8.4c0,2.3,0.7,4.1,2,5.3
		c1.3,1.2,3,1.7,5,1.7h12c2,0,3.7-0.5,5-1.7c1.3-1.2,2-3,2-5.3V9.9C27.2,7.6,26.6,5.9,25.3,4.7z M24,22.3c-0.8,0.8-2.1,1.2-3.8,1.2
		h-12c-1.7,0-2.9-0.4-3.8-1.2c-0.8-0.8-1.4-2-1.4-3.9V9.9C3.1,8,3.7,6.7,4.5,6c0.8-0.8,2.1-1.2,3.8-1.2h12C22,4.8,23.2,5.2,24,6
		c0.8,0.8,1.4,2,1.4,3.9v8.4C25.4,20.3,24.9,21.5,24,22.3z"/>
	<path class="st0" d="M19.7,9.8l-3.8,3l0,0c-0.9,0.7-2.5,0.7-3.4,0l-3.7-3c-0.4-0.3-1-0.2-1.3,0.1c-0.3,0.4-0.2,1,0.1,1.3l3.8,3
		l0.6-0.7l0,0l-0.6,0.7l0,0c1.6,1.2,4.1,1.2,5.6,0l-0.6-0.7l0,0l0.5,0.7l0,0l3.8-3c0.4-0.3,0.5-0.9,0.1-1.3
		C20.7,9.6,20.1,9.5,19.7,9.8z"/>
</g>
</svg>
