<?xml version="1.0" encoding="utf-8"?>
<!-- Generator: Adobe Illustrator 26.0.1, SVG Export Plug-In . SVG Version: 6.00 Build 0)  -->
<svg version="1.1" id="Layer_1" xmlns="http://www.w3.org/2000/svg" xmlns:xlink="http://www.w3.org/1999/xlink" x="0px" y="0px"
	 width="15.8px" height="19.09px" viewBox="0 0 15.8 19.09" style="enable-background:new 0 0 15.8 19.09;" xml:space="preserve">
<style type="text/css">
	.st0{fill:#ED2224;}
</style>
<g>
	<path class="st0" d="M8.37,18.59L7.9,17.87l-0.48,0.72C7.71,18.79,8.08,18.79,8.37,18.59z"/>
	<path class="st0" d="M13.33,2.6C11.88,1.17,9.93,0.34,7.9,0.34s-4,0.83-5.43,2.26C1.02,4.05,0.21,5.99,0.21,8.03
		c0,2.99,1.91,5.67,3.65,7.5c0.88,0.95,1.76,1.71,2.44,2.24c0.33,0.26,0.61,0.48,0.81,0.61c0.09,0.07,0.17,0.13,0.22,0.17
		c0.02,0.02,0.06,0.04,0.06,0.04s0.02,0,0.02,0.02l0,0l0,0l0,0c0,0,0,0,0.48-0.72c0.48,0.72,0.48,0.72,0.48,0.72l0,0l0,0l0,0
		c0,0,0.02,0,0.02-0.02c0.04,0,0.06-0.02,0.09-0.04c0.06-0.04,0.13-0.09,0.22-0.17c0.2-0.15,0.48-0.35,0.81-0.61
		c0.66-0.53,1.54-1.28,2.44-2.22c1.74-1.83,3.65-4.51,3.65-7.5C15.58,5.99,14.77,4.05,13.33,2.6z M10.69,14.35
		c-0.83,0.86-1.65,1.58-2.26,2.05c-0.22,0.17-0.39,0.31-0.53,0.42c-0.15-0.11-0.33-0.26-0.53-0.42c-0.62-0.48-1.43-1.19-2.26-2.05
		c-1.67-1.76-3.17-4.02-3.17-6.33c0-1.58,0.62-3.1,1.74-4.22S6.32,2.07,7.9,2.07s3.1,0.62,4.22,1.74s1.74,2.64,1.74,4.22
		C13.86,10.34,12.35,12.59,10.69,14.35z"/>
	<path class="st0" d="M7.9,4.89c-1.72,0-3.14,1.39-3.14,3.14c0,1.72,1.39,3.14,3.14,3.14s3.14-1.39,3.14-3.14
		C11.03,6.3,9.62,4.89,7.9,4.89z M7.9,9.44c-0.79,0-1.41-0.62-1.41-1.41S7.11,6.61,7.9,6.61s1.41,0.62,1.41,1.41S8.67,9.44,7.9,9.44
		z"/>
</g>
</svg>
