<?xml version="1.0" encoding="utf-8"?>
<!-- Generator: Adobe Illustrator 26.0.1, SVG Export Plug-In . SVG Version: 6.00 Build 0)  -->
<svg version="1.1" id="Layer_1" xmlns="http://www.w3.org/2000/svg" xmlns:xlink="http://www.w3.org/1999/xlink" x="0px" y="0px"
	 width="123.81px" height="123.81px" viewBox="0 0 123.81 123.81" style="enable-background:new 0 0 123.81 123.81;"
	 xml:space="preserve">
<style type="text/css">
	.st0{fill:#0D78AE;}
</style>
<g>
	<path class="st0" d="M7.6,82.89c0.73-1.95,1.88-3.46,4.05-3.9c0.48-0.1,0.98-0.12,1.47-0.12c2.86-0.01,5.73,0.06,8.58-0.02
		c2.31-0.07,4.27,0.48,5.52,2.48c3.03-1.38,5.96-2.74,8.92-4.04c1-0.44,2.06-0.73,3.09-1.1c2.79-0.99,5.52-0.77,8.27,0.25
		c7.2,2.68,13.97,6.25,20.74,9.82c0.31,0.16,0.62,0.34,0.94,0.49c2.14,1,3.79,2.45,4.42,4.93c0.47-0.15,0.87-0.26,1.25-0.4
		c7.36-2.55,14.73-5.1,22.09-7.66c1.53-0.53,3.09-0.79,4.68-0.43c2.28,0.52,3.95,2.32,4.27,4.73c0.32,2.45-0.53,4.5-2.67,5.81
		c-2.89,1.77-5.84,3.43-8.79,5.1c-9.46,5.35-18.92,10.71-28.87,15.12c-1.96,0.87-4.02,1.5-6.03,2.24c-0.85,0-1.7,0-2.54,0
		c-3.5-0.82-6.46-2.7-9.36-4.73c-2.05-1.44-4.1-2.89-6.24-4.18c-1-0.6-2.23-1.25-3.32-1.18c-3.36,0.21-6.71,0.76-10.05,1.17
		c-0.05,0.49-0.07,0.77-0.1,1.04c-0.33,2.52-2.35,4.44-4.86,4.47c-3.53,0.05-7.06,0.02-10.59,0.01c-0.31,0-0.63-0.07-0.94-0.13
		c-2.12-0.48-3.22-1.99-3.94-3.89C7.6,100.13,7.6,91.51,7.6,82.89z M28.02,103.9c2.13-0.33,4.22-0.59,6.29-1
		c3.67-0.73,7-0.05,10.05,2.12c1.75,1.25,3.49,2.54,5.32,3.66c2.1,1.29,4.26,2.48,6.46,3.59c1.22,0.62,2.58,0.68,3.91,0.14
		c1.93-0.78,3.9-1.46,5.78-2.33c10.43-4.81,20.37-10.53,30.34-16.2c1.72-0.98,3.44-1.94,5.14-2.96c1.09-0.65,1.51-1.8,1.15-2.91
		c-0.35-1.09-1.26-1.71-2.56-1.6c-0.69,0.06-1.39,0.25-2.05,0.48c-7.8,2.69-15.6,5.4-23.4,8.08c-0.64,0.22-1.04,0.55-1.34,1.19
		c-1.6,3.37-5.57,4.92-8.85,3.23c-3.79-1.96-7.45-4.18-11.11-6.37c-0.42-0.25-0.81-1.13-0.69-1.57c0.16-0.57,0.77-1.14,1.33-1.41
		c0.35-0.17,1.02,0.13,1.45,0.38c3.35,1.9,6.66,3.85,10.01,5.75c1.72,0.97,3.79,0.4,4.7-1.22c0.96-1.72,0.37-3.68-1.43-4.7
		c-0.71-0.4-1.42-0.78-2.14-1.16c-6.52-3.44-13.06-6.84-19.98-9.46c-2.32-0.88-4.63-1.02-6.9-0.01c-3.67,1.63-7.32,3.32-10.94,5.04
		c-0.3,0.14-0.58,0.7-0.58,1.06c-0.04,5.83-0.03,11.66-0.02,17.49C27.96,103.42,28,103.62,28.02,103.9z M24.56,95.82
		c0-3.81,0-7.62,0-11.44c0-1.53-0.59-2.12-2.1-2.13c-3.11-0.01-6.21-0.01-9.32,0c-1.57,0-2.14,0.59-2.14,2.19
		c0,7.59,0,15.18,0,22.76c0,1.6,0.58,2.18,2.16,2.18c3.07,0.01,6.14,0.01,9.21,0c1.64,0,2.19-0.57,2.19-2.25
		C24.57,103.37,24.57,99.59,24.56,95.82z"/>
	<path class="st0" d="M80.51,19.49c13.11-0.01,23.77,10.67,23.76,23.82c0,13.13-10.71,23.86-23.77,23.83
		c-13.09-0.03-23.73-10.75-23.71-23.9C56.81,30.16,67.45,19.5,80.51,19.49z M100.88,43.38c0.03-11.32-9.04-20.48-20.3-20.49
		c-11.23-0.02-20.35,9.06-20.39,20.3c-0.04,11.37,9.08,20.58,20.36,20.57C91.75,63.74,100.85,54.62,100.88,43.38z"/>
	<path class="st0" d="M75.57,78.72c0.58,0.82,1.1,1.52,1.57,2.25c0.63,0.96,0.5,1.81-0.33,2.42c-0.82,0.6-1.74,0.47-2.4-0.43
		c-1.38-1.88-2.74-3.77-4.07-5.68c-0.7-1-0.56-1.85,0.42-2.57c1.88-1.38,3.77-2.74,5.68-4.07c0.92-0.64,1.85-0.47,2.42,0.33
		c0.59,0.81,0.43,1.7-0.46,2.4c-0.39,0.31-0.8,0.58-1.2,0.87c-0.39,0.29-0.78,0.58-1.15,1.11c1.42,0.09,2.84,0.25,4.26,0.26
		C96.28,75.69,109.93,64,112.34,48.2c2.73-17.93-9.73-34.52-27.74-36.9c-1.29-0.17-2.6-0.2-3.91-0.26
		c-1.29-0.06-1.96-0.64-1.95-1.72s0.7-1.71,1.99-1.66c14.23,0.55,24.98,6.98,31.5,19.63c11.02,21.39-2.13,47.15-25.9,51.22
		c-3.4,0.58-6.81,0.67-10.23,0.24C75.99,78.71,75.86,78.72,75.57,78.72z"/>
	<path class="st0" d="M24.21,55.28c-0.07-0.03-0.14-0.06-0.21-0.09c-0.77-0.32-1.01-1.28-0.48-1.92c0.07-0.09,0.16-0.17,0.24-0.25
		c3.15-3.16,6.31-6.31,9.46-9.46c0.07-0.07,0.16-0.12,0.25-0.17c0-0.04,0-0.08,0-0.11c-0.08-0.06-0.18-0.1-0.25-0.17
		c-3.18-3.18-6.36-6.36-9.55-9.54c-0.34-0.34-0.52-0.72-0.42-1.2c0.2-0.94,1.3-1.31,2.02-0.68c0.07,0.06,0.13,0.13,0.2,0.2
		c3.17,3.17,6.33,6.33,9.49,9.5c0.06,0.06,0.1,0.15,0.16,0.23c0.04,0,0.07,0,0.11,0c0.05-0.08,0.09-0.17,0.16-0.23
		c3.18-3.18,6.36-6.37,9.54-9.55c0.39-0.39,0.83-0.57,1.37-0.39c0.45,0.14,0.68,0.49,0.83,0.91c0,0.17,0,0.34,0,0.51
		c-0.12,0.36-0.37,0.63-0.64,0.9c-3.12,3.12-6.24,6.24-9.36,9.36c-0.06,0.06-0.15,0.11-0.23,0.16c0,0.04,0,0.07,0,0.11
		c0.08,0.05,0.17,0.09,0.23,0.16c3.13,3.12,6.25,6.25,9.38,9.38c0.26,0.26,0.5,0.52,0.62,0.88c0,0.17,0,0.34,0,0.51
		c-0.15,0.5-0.49,0.82-0.98,0.98c-0.16,0-0.31,0-0.47,0c-0.35-0.1-0.62-0.33-0.88-0.59c-3.14-3.15-6.28-6.29-9.42-9.43
		c-0.06-0.06-0.1-0.16-0.18-0.29c-0.13,0.16-0.18,0.23-0.24,0.3c-3.13,3.14-6.27,6.27-9.4,9.41c-0.26,0.26-0.53,0.5-0.9,0.6
		C24.52,55.28,24.37,55.28,24.21,55.28z"/>
	<path class="st0" d="M81.69,54.64c-0.05-0.06-0.1-0.13-0.15-0.18c-2.67-2.67-5.34-5.34-8.01-8.01c-0.12-0.12-0.18-0.25-0.18-0.42
		c0.01-0.78,0-1.56,0-2.34c0-0.08,0-0.16,0-0.27c0.11,0,0.19,0,0.28,0c1.61,0,3.21,0.02,4.82-0.01c1.79-0.04,3.07-0.9,3.86-2.49
		c0.04-0.09,0.08-0.18,0.11-0.26c0.01-0.02,0-0.04,0.01-0.08c-0.09,0-0.18,0-0.27,0c-2.85,0-5.69,0-8.54,0.01
		c-0.23,0-0.28-0.06-0.28-0.28c0.01-0.77,0.01-1.55,0.01-2.32c0-0.08,0-0.16,0-0.25c3.04,0,6.05,0,9.14,0
		c-0.18-0.34-0.31-0.65-0.49-0.92c-0.83-1.22-1.98-1.9-3.47-1.93c-1.62-0.03-3.24-0.01-4.87-0.01c-0.09,0-0.19,0-0.3,0
		c0-0.96,0-1.89,0-2.84c4.78,0,9.56,0,14.35,0c0,0.94,0,1.87,0,2.84c-1.18,0-2.36,0-3.58,0c0.64,0.89,1.07,1.82,1.28,2.85
		c0.76,0,1.52,0,2.29,0c0,0.96,0,1.9,0,2.86c-0.76,0-1.52,0-2.24,0c-1.21,4-3.9,5.85-7.99,5.73c2.09,2.09,4.19,4.19,6.33,6.33
		c-0.73,0.71-1.4,1.36-2.08,2.02C81.72,54.64,81.71,54.64,81.69,54.64z"/>
</g>
</svg>
