<?xml version="1.0" encoding="utf-8"?>
<!-- Generator: Adobe Illustrator 26.0.1, SVG Export Plug-In . SVG Version: 6.00 Build 0)  -->
<svg version="1.1" id="Layer_1" xmlns="http://www.w3.org/2000/svg" xmlns:xlink="http://www.w3.org/1999/xlink" x="0px" y="0px"
	 width="123.81px" height="123.81px" viewBox="0 0 123.81 123.81" style="enable-background:new 0 0 123.81 123.81;"
	 xml:space="preserve">
<style type="text/css">
	.st0{fill:#0D78AE;}
</style>
<g>
	<path class="st0" d="M58.92,116.3c-2.06-0.27-4.14-0.47-6.19-0.82c-9.6-1.62-18.13-5.58-25.64-11.77
		c-0.18-0.15-0.37-0.28-0.75-0.57c0,0.79,0.02,1.37,0,1.95c-0.04,1.24-0.73,2-1.75,1.98c-0.99-0.03-1.61-0.75-1.64-1.96
		c-0.04-1.95-0.07-3.89-0.1-5.84c-0.01-1.06,0.79-1.88,1.88-1.88c1.91,0,3.83,0.01,5.74,0.05c1.31,0.03,2.11,0.74,2.07,1.77
		c-0.04,1.04-0.82,1.62-2.19,1.62c-0.34,0-0.67,0-1.01,0c-0.03,0.08-0.06,0.15-0.08,0.23c0.65,0.52,1.28,1.06,1.95,1.55
		c7.98,5.93,16.91,9.4,26.84,10.08c21.66,1.49,41.24-9.88,50.17-29.65c7.43-16.45,6.17-32.62-3.05-48.15
		c-0.29-0.49-0.63-0.94-0.9-1.44c-0.51-0.91-0.31-1.82,0.47-2.34c0.81-0.54,1.82-0.35,2.4,0.56c0.99,1.55,1.97,3.11,2.83,4.74
		c16.89,31.83-1.38,71.08-36.61,78.6c-2.52,0.54-5.11,0.74-7.66,1.1c-0.35,0.05-0.69,0.12-1.04,0.18
		C62.74,116.3,60.83,116.3,58.92,116.3z"/>
	<path class="st0" d="M7.48,58.5c0.27-1.96,0.49-3.92,0.82-5.87c1.96-11.33,7.01-21.08,15.13-29.2c7.96-7.95,17.5-13.08,28.59-15
		c16.59-2.88,31.51,1.06,44.65,11.64c0.19,0.15,0.37,0.3,0.77,0.62c0-0.82-0.02-1.43,0-2.04c0.05-1.18,0.71-1.91,1.7-1.92
		c1-0.01,1.67,0.72,1.69,1.9c0.05,1.98,0.08,3.96,0.09,5.94c0.01,0.98-0.74,1.81-1.71,1.82c-2.09,0.02-4.18-0.01-6.27-0.07
		c-0.92-0.02-1.54-0.55-1.68-1.48c-0.12-0.83,0.29-1.45,1.05-1.77c0.28-0.12,0.62-0.11,0.94-0.12c0.38-0.02,0.77,0,1.15,0
		c0.1-0.12,0.21-0.24,0.31-0.36c-0.27-0.13-0.58-0.21-0.81-0.4c-8.27-6.57-17.64-10.37-28.19-11.11
		c-24.27-1.71-45.9,13.16-52.74,36.48c-4.27,14.56-2.22,28.42,5.68,41.4c0.26,0.42,0.54,0.83,0.79,1.26
		c0.56,0.97,0.39,1.9-0.42,2.43c-0.85,0.56-1.88,0.36-2.44-0.65c-1.72-3.12-3.56-6.2-5-9.45c-2.3-5.18-3.51-10.67-3.93-16.32
		c-0.02-0.31-0.11-0.61-0.17-0.92C7.48,63.03,7.48,60.76,7.48,58.5z"/>
	<path class="st0" d="M61.84,85.7c-10.59,0-21.18,0-31.77,0c-1.65,0-2.18-0.51-2.18-2.13c0-14.38,0-28.76,0-43.14
		c0-1.81,0.53-2.34,2.34-2.34c21.11,0,42.22,0,63.34,0c1.81,0,2.34,0.53,2.34,2.34c0,14.38,0,28.76,0,43.14
		c0,1.61-0.53,2.12-2.18,2.12C83.09,85.7,72.47,85.7,61.84,85.7z M82.22,72.05c0-10.22,0-20.36,0-30.47c-17.01,0-33.95,0-50.88,0
		c0,10.2,0,20.31,0,30.47C48.31,72.05,65.23,72.05,82.22,72.05z M92.43,72.05c0-10.22,0-20.35,0-30.47c-2.28,0-4.49,0-6.67,0
		c0,10.2,0,20.31,0,30.47C87.99,72.05,90.17,72.05,92.43,72.05z M82.25,75.57c-17.03,0-33.97,0-50.92,0c0,0.56,0,1.04,0,1.57
		c16.99,0,33.93,0,50.92,0C82.25,76.6,82.25,76.12,82.25,75.57z M31.34,82.23c17.02,0,33.96,0,50.92,0c0-0.55,0-1.04,0-1.57
		c-16.99,0-33.93,0-50.92,0C31.34,81.18,31.34,81.67,31.34,82.23z M85.74,77.11c2.32,0,4.53,0,6.71,0c0-0.57,0-1.05,0-1.55
		c-2.26,0-4.47,0-6.71,0C85.74,76.11,85.74,76.59,85.74,77.11z M85.75,82.24c2.26,0,4.46,0,6.68,0c0-0.57,0-1.07,0-1.57
		c-2.28,0-4.48,0-6.68,0C85.75,81.23,85.75,81.72,85.75,82.24z"/>
	<path class="st0" d="M49.49,56.29c-1.84,1.84-3.61,3.6-5.36,5.4c-0.16,0.16-0.18,0.57-0.12,0.83c0.17,0.68,0.46,1.34,0.63,2.02
		c0.27,1.05-0.21,1.95-1.12,2.21c-0.89,0.26-1.86-0.16-2.06-1.17c-0.41-2.13-1.57-3.27-3.69-3.68c-1-0.19-1.41-1.18-1.15-2.07
		c0.25-0.87,1.11-1.33,2.12-1.12c0.1,0.02,0.22,0.03,0.3,0.09c1.81,1.13,3.05,0.39,4.26-1.08c1.12-1.35,2.46-2.51,3.82-3.86
		c-2.7-0.9-5.24-1.76-7.79-2.59c-0.88-0.29-1.54-0.73-1.56-1.75c-0.02-1.27,1.11-1.96,2.5-1.51c2.76,0.9,5.52,1.77,8.24,2.76
		c0.99,0.36,1.61,0.22,2.28-0.57c0.88-1.02,1.88-1.93,2.84-2.87c0.9-0.88,1.88-0.95,2.62-0.21c0.74,0.74,0.67,1.71-0.22,2.62
		c-1.04,1.06-2.07,2.13-3.16,3.15c-0.51,0.48-0.63,0.89-0.39,1.57c1,2.87,1.95,5.76,2.89,8.65c0.42,1.28-0.09,2.27-1.21,2.47
		c-0.96,0.17-1.64-0.29-2.03-1.43c-0.79-2.34-1.57-4.69-2.35-7.04C49.73,56.87,49.63,56.64,49.49,56.29z"/>
	<path class="st0" d="M70.35,50c-1.59,0-3.19,0.01-4.78,0c-1.23-0.01-2-0.71-1.97-1.74c0.02-1,0.76-1.65,1.94-1.65
		c3.22-0.01,6.45-0.01,9.67,0c1.23,0,2,0.7,1.97,1.73c-0.02,0.99-0.77,1.64-1.95,1.66C73.61,50.01,71.98,50,70.35,50z"/>
	<path class="st0" d="M70.36,55.1c-1.59,0-3.19,0.01-4.78,0c-1.23-0.01-2-0.7-1.98-1.73c0.02-1,0.76-1.66,1.94-1.66
		c3.22-0.01,6.45-0.01,9.67,0c1.23,0,2,0.7,1.98,1.73c-0.02,1-0.76,1.65-1.94,1.66C73.62,55.11,71.99,55.1,70.36,55.1z"/>
	<path class="st0" d="M70.4,56.8c1.59,0,3.19-0.01,4.78,0c1.25,0.01,2.01,0.67,2,1.7c-0.01,1.03-0.77,1.68-2.02,1.69
		c-3.19,0.01-6.37,0.01-9.56,0c-1.25,0-2.01-0.67-2-1.71c0.01-1.04,0.76-1.68,2.02-1.69C67.22,56.79,68.81,56.8,70.4,56.8z"/>
	<path class="st0" d="M70.3,67c-1.59,0-3.19,0.01-4.78,0c-1.17-0.01-1.91-0.69-1.92-1.68c-0.01-1,0.73-1.7,1.89-1.71
		c3.26-0.02,6.52-0.02,9.77,0c1.17,0.01,1.91,0.68,1.92,1.68c0.01,1-0.73,1.69-1.89,1.71C73.63,67.01,71.97,67,70.3,67z"/>
</g>
</svg>
