<?xml version="1.0" encoding="utf-8"?>
<!-- Generator: Adobe Illustrator 26.5.0, SVG Export Plug-In . SVG Version: 6.00 Build 0)  -->
<svg version="1.1" id="Layer_1" xmlns="http://www.w3.org/2000/svg" xmlns:xlink="http://www.w3.org/1999/xlink" x="0px" y="0px"
	 width="50px" height="50px" viewBox="0 0 50 50" style="enable-background:new 0 0 50 50;" xml:space="preserve">
<style type="text/css">
	.st0{fill:#FFFFFF;}
</style>
<g>
	<path class="st0" d="M27.6,3.6c1,0.3,1.9,0.5,2.9,0.8c3.1,0.9,5.9,2.5,8.3,4.7c2.6,2.3,4.6,5,6,8.1c0.7,1.6,1.2,3.4,1.6,5.1
		c0,0.1,0.1,0.2,0.1,0.3c0,0.1,0,0.2,0,0.3l0,0c-0.3,0.7-0.7,1.1-1.2,1c-0.7,0-1.1-0.4-1.2-1.2c-0.6-3-1.7-5.8-3.5-8.2
		c-2.3-3.2-5.3-5.7-9-7.1c-1.3-0.5-2.7-0.8-4-1.2c-0.8-0.2-1.2-0.5-1.2-1.1C26,4.4,26.3,4,27,3.6C27.2,3.6,27.4,3.6,27.6,3.6z"/>
	<path class="st0" d="M17,21.5c1.6,3.7,7,9.4,11.6,11.5c0.1-0.1,0.2-0.4,0.4-0.5c1-0.9,1.9-1.9,2.9-2.8c1.5-1.3,3.7-1.3,5.1,0.1
		c2,1.9,3.9,3.8,5.8,5.8c1.4,1.4,1.4,3.6,0.1,5.1c-1.3,1.5-2.6,2.9-4,4.2c-1.5,1.3-3.3,1.7-5.3,1.5c-3.6-0.3-6.8-1.8-9.9-3.5
		c-3.8-2.1-7.3-4.8-10.2-8C9.9,31,6.9,26.7,5,21.6c-0.7-1.8-1.2-3.7-1.2-5.7c-0.1-2,0.4-3.8,1.9-5.2c1.1-1.2,2.2-2.4,3.4-3.4
		C11,5.7,13,5.7,14.8,7.4c1.9,1.8,3.8,3.7,5.6,5.6c1.4,1.5,1.4,3.7,0,5.2c-0.9,1.1-2,2.1-3,3.1C17.2,21.3,17.1,21.4,17,21.5z
		 M6.1,15.8c0,0.5,0.1,1,0.1,1.5c0,0.2,0.1,0.4,0.1,0.6c0.7,2.9,1.9,5.7,3.5,8.2c4.2,6.8,9.8,12.1,17,15.7c2.2,1.1,4.5,2,7,2.2
		c1.6,0.1,2.9-0.2,4-1.4c0.9-0.9,1.8-1.9,2.7-2.8c0.1-0.1,0.2-0.2,0.3-0.4c0.6-0.8,0.7-1.6,0-2.4c-0.8-0.8-1.6-1.6-2.3-2.4
		c-1-1-1.9-2-2.9-2.9C34.8,31,34,31,33.2,31.6c-0.1,0.1-0.3,0.3-0.4,0.4c-1,1-1.9,1.9-2.9,2.9c-0.7,0.7-1.5,0.8-2.3,0.4
		c-0.6-0.3-1.2-0.6-1.7-0.9c-2.5-1.5-4.7-3.4-6.7-5.6c-1.7-1.9-3.3-3.9-4.4-6.3c-0.6-1.3-0.4-1.9,0.5-2.8c1-1,2-1.9,3-2.9
		c0.8-0.8,0.7-1.6,0-2.4c-0.1-0.1-0.2-0.2-0.3-0.3c-1.6-1.6-3.1-3.2-4.7-4.7c-1-1-1.9-1-3,0c-0.9,0.9-1.8,1.8-2.7,2.7
		C6.5,13,6,14.3,6.1,15.8z"/>
	<path class="st0" d="M27.2,11.4c0.5,0.1,1.3,0.3,2,0.5c4.8,1.7,7.9,5.1,9.2,10c0.1,0.3,0.1,0.6,0.2,0.9c0.1,0.7-0.2,1.3-0.9,1.5
		c-0.6,0.2-1.3-0.2-1.5-0.9c-0.2-0.7-0.3-1.4-0.6-2c-1.6-4.1-4.5-6.6-8.8-7.5c-0.8-0.2-1.2-0.8-1.1-1.5
		C25.9,11.8,26.4,11.4,27.2,11.4z"/>
</g>
</svg>
