<?xml version="1.0" encoding="utf-8"?>
<!-- Generator: Adobe Illustrator 26.0.1, SVG Export Plug-In . SVG Version: 6.00 Build 0)  -->
<svg version="1.1" id="Layer_1" xmlns="http://www.w3.org/2000/svg" xmlns:xlink="http://www.w3.org/1999/xlink" x="0px" y="0px"
	 width="500px" height="500px" viewBox="0 0 500 500" style="enable-background:new 0 0 500 500;" xml:space="preserve">
<style type="text/css">
	.st0{display:none;}
	.st1{display:inline;fill:#EBEBEB;}
	.st2{fill:#ECECEC;}
	.st3{fill:#E7E7E7;}
	.st4{fill:#F0F0F0;}
	.st5{fill:#FFFFFF;}
	.st6{fill:#FAFAFA;}
	.st7{opacity:0.6;fill:#ECECEC;}
	.st8{fill:#E1E1E1;}
	.st9{fill:#F5F5F5;}
	.st10{fill:#007CFF;}
	.st11{opacity:0.7;fill:#FFFFFF;}
	.st12{fill:#0A6C93;}
	.st13{opacity:0.3;fill:#007CFF;}
	.st14{fill:#FFB570;}
	.st15{fill:#0D78AE;}
	.st16{fill:#1A2E35;}
	.st17{opacity:0.3;fill:#FFFFFF;}
	.st18{fill:#FF8935;}
	.st19{opacity:0.2;}
	.st20{opacity:0.5;}
</style>
<g id="Background_Complete">
</g>
<g id="Background_Simple" class="st0">
	<path class="st1" d="M446.1,221.1c-15.2-29.1-47.1-49.6-79.9-48.3c-18.9,0.7-38.5,8-56,0.8c-21.7-9-28.9-35.3-41.1-55.4
		c-23.1-38.3-71.9-57.9-115.9-49.6c-43.9,8.3-81.2,42.3-97,84.1c-15.8,41.8-11.1,90.1,9.2,130s55.1,71.5,95.1,91.4
		c6.2,3.1,12.6,6,19.1,8.5c47.8,19.1,100.3,23,150.6,12.6l23.4-4.9c33.8-7,63.9-26.6,83.2-55.3c4-5.9,7.5-12.2,10.4-18.8
		C460.7,286.4,461.4,250.2,446.1,221.1z"/>
</g>
<g id="Floor">
</g>
<g id="Character_2">
</g>
<g>
	<g>
		<rect y="391.1" class="st2" width="500" height="0.2"/>
		<path class="st2" d="M237,346.5H43.9c-3.1,0-5.7-2.6-5.7-5.7V69.4c0-3.1,2.6-5.7,5.7-5.7H237c3.1,0,5.7,2.6,5.7,5.7v271.4
			C242.7,344,240.2,346.5,237,346.5z M43.9,63.9c-3,0-5.5,2.4-5.5,5.5v271.4c0,3,2.4,5.5,5.5,5.5H237c3,0,5.5-2.4,5.5-5.5V69.4
			c0-3-2.4-5.5-5.5-5.5H43.9z"/>
		<path class="st2" d="M453.3,346.5H260.2c-3.1,0-5.7-2.6-5.7-5.7V69.4c0-3.1,2.6-5.7,5.7-5.7h193.1c3.1,0,5.7,2.6,5.7,5.7v271.4
			C459,344,456.5,346.5,453.3,346.5z M260.2,63.9c-3,0-5.5,2.4-5.5,5.5v271.4c0,3,2.4,5.5,5.5,5.5h193.1c3,0,5.5-2.4,5.5-5.5V69.4
			c0-3-2.4-5.5-5.5-5.5H260.2z"/>
	</g>
	<g>
		<rect x="51.3" y="400.7" class="st2" width="26" height="0.2"/>
		<rect x="145.2" y="398" class="st2" width="45" height="0.2"/>
		<rect x="78.3" y="410" class="st2" width="60.8" height="0.2"/>
		<rect x="429.5" y="408.3" class="st2" width="19.2" height="0.2"/>
		<rect x="365.3" y="408.3" class="st2" width="55.3" height="0.2"/>
		<rect x="257" y="404" class="st2" width="74.5" height="0.2"/>
	</g>
</g>
<g>
	<g>
		<g>
			<polygon class="st3" points="169.6,304.4 115.1,304.4 111.7,266.2 166.3,266.2 			"/>
			<polygon class="st4" points="172.5,304.4 117.9,304.4 114.6,266.2 169.2,266.2 			"/>
			<polygon class="st5" points="125.3,296.2 123.5,274.4 161.7,274.4 163.5,296.2 			"/>
		</g>
		<g>
			<rect x="196.8" y="304.4" class="st3" width="7.8" height="86.7"/>
			<rect x="201.7" y="304.4" class="st4" width="5.4" height="86.7"/>
			
				<rect x="131.7" y="304.4" transform="matrix(-1 -1.224647e-16 1.224647e-16 -1 338.7201 618.392)" class="st4" width="75.4" height="9.6"/>
			<rect x="126.5" y="314" class="st3" width="7.8" height="77.2"/>
			<rect x="131.4" y="314" class="st4" width="5.4" height="77.2"/>
			<rect x="71.1" y="314" class="st3" width="7.8" height="77.2"/>
			<rect x="75.9" y="314" class="st4" width="5.4" height="77.2"/>
			<rect x="147.5" y="314" class="st3" width="7.8" height="77.2"/>
			<rect x="152.4" y="314" class="st4" width="5.4" height="77.2"/>
			<rect x="71.1" y="304.4" class="st3" width="60.6" height="9.6"/>
		</g>
	</g>
	<g>
		<rect x="69" y="91.2" class="st3" width="226.2" height="129.8"/>
		<rect x="71.8" y="91.2" class="st4" width="229.4" height="129.8"/>
		<rect x="69" y="220.9" class="st3" width="226.2" height="11.2"/>
		<rect x="81.9" y="220.9" class="st4" width="229.4" height="11.2"/>
		
			<rect x="130.1" y="49.8" transform="matrix(-1.836970e-16 1 -1 -1.836970e-16 342.6057 -30.5061)" class="st6" width="112.8" height="212.5"/>
		<polygon class="st5" points="95.9,212.5 145.6,99.6 169,99.6 119.4,212.5 		"/>
		<path class="st4" d="M84.2,204c-0.3,0-0.6-0.3-0.6-0.6v-98.3c0-0.3,0.3-0.6,0.6-0.6s0.6,0.3,0.6,0.6v98.3
			C84.8,203.8,84.5,204,84.2,204z"/>
		<polygon class="st5" points="124.4,212.5 174.1,99.6 183.2,99.6 133.5,212.5 		"/>
		
			<rect x="235.9" y="155.5" transform="matrix(-1.836970e-16 1 -1 -1.836970e-16 448.3276 -136.228)" class="st3" width="112.8" height="1.1"/>
		<polygon class="st7" points="303.3,112.4 77.1,112.4 76.3,102.9 302.5,102.9 		"/>
		<polygon class="st7" points="303.3,127.9 77.1,127.9 76.3,118.5 302.5,118.5 		"/>
		<polygon class="st7" points="303.3,143.5 77.1,143.5 76.3,134 302.5,134 		"/>
		<polygon class="st7" points="303.3,159 77.1,159 76.3,149.5 302.5,149.5 		"/>
		<polygon class="st7" points="303.3,174.5 77.1,174.5 76.3,165.1 302.5,165.1 		"/>
		<polygon class="st7" points="303.3,190.1 77.1,190.1 76.3,180.6 302.5,180.6 		"/>
	</g>
	<g>
		<g>
			
				<rect x="365.4" y="91.2" transform="matrix(-1 -1.224647e-16 1.224647e-16 -1 791.7611 243.2373)" class="st2" width="60.9" height="60.9"/>
			<rect x="362.7" y="91.2" class="st8" width="2.7" height="60.9"/>
			
				<rect x="373.7" y="99.4" transform="matrix(-1 -1.224647e-16 1.224647e-16 -1 791.761 243.2373)" class="st5" width="44.4" height="44.4"/>
			
				<rect x="385.4" y="111.1" transform="matrix(-0.7071 0.7071 -0.7071 -0.7071 761.8076 -72.3138)" class="st9" width="21" height="21"/>
		</g>
		<g>
			
				<rect x="344.4" y="171.3" transform="matrix(-1 -1.224647e-16 1.224647e-16 -1 749.7795 403.4355)" class="st2" width="60.9" height="60.9"/>
			<rect x="341.7" y="171.3" class="st8" width="2.7" height="60.9"/>
			
				<rect x="352.7" y="179.5" transform="matrix(-1 -1.224647e-16 1.224647e-16 -1 749.7795 403.4355)" class="st5" width="44.4" height="44.4"/>
			<path class="st9" d="M371.7,211.2h6.3c3.5,0,6.3-2.8,6.3-6.3v-6.3c0-3.5-2.8-6.3-6.3-6.3h-6.3c-3.5,0-6.3,2.8-6.3,6.3v6.3
				C365.4,208.4,368.2,211.2,371.7,211.2z"/>
		</g>
	</g>
	<g>
		<g>
			<rect x="292.5" y="261.8" class="st4" width="15.2" height="125.3"/>
			<rect x="294.6" y="387.1" class="st4" width="145.9" height="4.1"/>
			
				<rect x="307.7" y="261.8" transform="matrix(-1 -1.224647e-16 1.224647e-16 -1 750.3285 648.8304)" class="st6" width="134.9" height="125.3"/>
			<path class="st4" d="M416.2,335h-82.1c-8.1,0-14.6-6.6-14.6-14.6c0-8.1,6.6-14.6,14.6-14.6h82.1c8.1,0,14.6,6.6,14.6,14.6
				C430.8,328.4,424.3,335,416.2,335z M334.1,306.7c-7.5,0-13.6,6.1-13.6,13.6c0,7.5,6.1,13.6,13.6,13.6h82.1
				c7.5,0,13.6-6.1,13.6-13.6c0-7.5-6.1-13.6-13.6-13.6H334.1z"/>
			<path class="st4" d="M416.2,371.3h-82.1c-8.1,0-14.6-6.6-14.6-14.6s6.6-14.6,14.6-14.6h82.1c8.1,0,14.6,6.6,14.6,14.6
				S424.3,371.3,416.2,371.3z M334.1,343.1c-7.5,0-13.6,6.1-13.6,13.6c0,7.5,6.1,13.6,13.6,13.6h82.1c7.5,0,13.6-6.1,13.6-13.6
				c0-7.5-6.1-13.6-13.6-13.6H334.1z"/>
			<path class="st2" d="M387.5,317.2h-24.8c-1.7,0-3-1.4-3-3l0,0c0-1.7,1.4-3,3-3h24.8c1.7,0,3,1.4,3,3l0,0
				C390.6,315.8,389.2,317.2,387.5,317.2z"/>
			<path class="st4" d="M416.2,298.6h-82.1c-8.1,0-14.6-6.6-14.6-14.6c0-8.1,6.6-14.6,14.6-14.6h82.1c8.1,0,14.6,6.6,14.6,14.6
				C430.8,292.1,424.3,298.6,416.2,298.6z M334.1,270.4c-7.5,0-13.6,6.1-13.6,13.6c0,7.5,6.1,13.6,13.6,13.6h82.1
				c7.5,0,13.6-6.1,13.6-13.6c0-7.5-6.1-13.6-13.6-13.6H334.1z"/>
			<path class="st2" d="M387.5,280.9h-24.8c-1.7,0-3-1.4-3-3l0,0c0-1.7,1.4-3,3-3h24.8c1.7,0,3,1.4,3,3l0,0
				C390.6,279.5,389.2,280.9,387.5,280.9z"/>
			<path class="st2" d="M387.5,353.6h-24.8c-1.7,0-3-1.4-3-3l0,0c0-1.7,1.4-3,3-3h24.8c1.7,0,3,1.4,3,3l0,0
				C390.6,352.2,389.2,353.6,387.5,353.6z"/>
		</g>
		<rect x="307.7" y="255.4" class="st4" width="137.7" height="6.4"/>
		
			<rect x="289.6" y="255.4" transform="matrix(-1 -1.224647e-16 1.224647e-16 -1 597.2828 517.1873)" class="st3" width="18.2" height="6.4"/>
	</g>
</g>
<ellipse id="_x3C_Path_x3E__212_" class="st9" cx="250" cy="425" rx="193.9" ry="11.3"/>
<g>
	<path class="st10" d="M413.6,157H262.9c0,0-27.2,25-27.2,85.8c0,52.3,20.6,123.1,12.9,152.2c-5.8,21.9-34.1,25.6-47.6,26.2h143.5
		c0,0,47.2,2.8,54.9-26.2c7.7-29-12.9-99.9-12.9-152.2C386.5,181.9,413.6,157,413.6,157z"/>
	<path class="st11" d="M413.6,157H262.9c0,0-27.2,25-27.2,85.8c0,52.3,20.6,123.1,12.9,152.2c-5.8,21.9-34.1,25.6-47.6,26.2h143.5
		c0,0,47.2,2.8,54.9-26.2c7.7-29-12.9-99.9-12.9-152.2C386.5,181.9,413.6,157,413.6,157z"/>
</g>
<path class="st12" d="M372.6,221.1H252.1c3.4-26.7,12.6-42.3,17.7-49.1H386C380.3,183.9,374.9,200.1,372.6,221.1z"/>
<path class="st13" d="M371.6,235.3H250.9c0.1-2.4,0.2-4.8,0.4-7.1H372C371.8,230.5,371.7,232.8,371.6,235.3z"/>
<path class="st13" d="M288.8,249.4h-37.9c-0.1-2.3-0.1-4.5-0.1-6.7v-0.4h37.9v0.4C288.7,245,288.7,247.2,288.8,249.4z"/>
<path class="st13" d="M372.4,263.6H251.7c-0.2-2.4-0.4-4.7-0.5-7.1h120.7C372,258.9,372.2,261.2,372.4,263.6z"/>
<path class="st13" d="M373.7,277.8H253.2c-0.3-2.4-0.5-4.7-0.8-7.1H373C373.2,273.1,373.4,275.4,373.7,277.8z"/>
<path class="st13" d="M375.4,291.9H255c-0.3-2.4-0.6-4.7-0.9-7.1h120.5C374.8,287.2,375.1,289.6,375.4,291.9z"/>
<path class="st13" d="M377.4,306.1H257c-0.4-2.4-0.7-4.7-1-7.1h120.4C376.7,301.4,377.1,303.8,377.4,306.1z"/>
<path class="st13" d="M379.5,320.3H259.2c-0.2-1.3-0.4-2.6-0.6-3.9c-0.2-1-0.3-2.1-0.5-3.2h120.4
	C378.8,315.6,379.2,317.9,379.5,320.3z"/>
<path class="st13" d="M261.3,334.5c-0.3-2.3-0.7-4.7-1-7.1h120.4c0.4,2.4,0.7,4.7,1.1,7.1H261.3z"/>
<path class="st13" d="M263.2,348.6c-0.3-2.3-0.6-4.7-0.9-7.1h100.4c0.3,2.4,0.7,4.7,1,7.1H263.2z"/>
<path class="st13" d="M264.7,362.8c-0.2-2.3-0.4-4.7-0.7-7.1h120.5c0.3,2.4,0.5,4.8,0.7,7.1H264.7z"/>
<path class="st13" d="M265.4,377c0-2.3-0.1-4.6-0.2-7.1h63.6c0.2,2.5,0.2,4.8,0.3,7.1H265.4z"/>
<path class="st10" d="M356,413.4c-7.7,1.4-15.4,0.3-23.1,0c-3.7-0.2-7.4-0.2-11.1,0.3c-3.6,0.5-7.2,1.4-10.8,1.1
	c1.2-0.6,2.3-1.4,3.4-2.3c0.2-0.2,0.1-0.5-0.2-0.6c-11.3-4-21.6,6.8-32.8,4.3c3.2-2.4,7.7-2.4,10.4-5.5c0.2-0.2,0.1-0.6-0.3-0.6
	c-10.1-0.2-19.6,3.7-29.5,4.6c-0.5,0-0.5,0.8,0,0.8c9.7-0.8,18.9-4.5,28.6-4.6c-2.9,2.6-7.3,2.7-10.3,5.3c-0.2,0.2-0.1,0.6,0.2,0.6
	c11.3,3.1,21.7-7.7,32.9-4.3c-1.2,0.9-2.4,1.7-3.8,2.3c-0.3,0.1-0.2,0.6,0.1,0.7c3.7,0.6,7.3-0.2,10.9-0.7c4.1-0.6,8.2-0.7,12.3-0.5
	c7.8,0.4,15.6,1.4,23.3,0C356.7,414.1,356.5,413.3,356,413.4z"/>
<path class="st14" d="M151.9,193.9c0.6,0.8,1.4,1.8,2.2,2.6c0.8,0.9,1.5,1.8,2.4,2.6c1.6,1.7,3.2,3.4,5,5c3.4,3.1,7.1,5.9,11,7.7
	c0.5,0.2,1,0.4,1.4,0.6c0.3,0.1,0.5,0.2,0.7,0.2c0.2,0.1,0.4,0.1,0.7,0.2c0.9,0.2,1.9,0.4,2.9,0.5c2.1,0.1,4.3,0,6.6-0.4
	c2.3-0.3,4.6-0.9,6.9-1.5c2.3-0.6,4.6-1.3,6.8-2.1l2,4c-4.5,2.8-9.1,4.9-14.3,6.4c-2.6,0.7-5.3,1.2-8.2,1.3c-1.4,0-2.9,0-4.5-0.3
	c-0.4-0.1-0.8-0.1-1.2-0.2c-0.4-0.1-0.8-0.2-1.1-0.3c-0.7-0.2-1.4-0.4-2-0.7c-5.3-2.1-9.8-5.2-13.8-8.7c-2-1.7-3.9-3.5-5.7-5.5
	c-0.9-1-1.8-1.9-2.6-2.9c-0.9-1-1.6-2-2.5-3.1L151.9,193.9z"/>
<path class="st15" d="M141.7,191c-0.2,5.6,2,15.7,2,15.7l13.9-1.7c0,0,0.5-14.8-2.2-18.3C150.8,180.7,141.9,185.8,141.7,191z"/>
<path class="st14" d="M196.6,210.8l6.5-5.9l0.8,6.4c0,0-2.7,3.6-5.7,2.1L196.6,210.8z"/>
<polygon class="st14" points="206.4,205.2 209.1,208.8 203.9,211.3 203.1,204.9 "/>
<g>
	<path class="st16" d="M204.7,189c0.7,0,1.1,0,1.6,0c0.3,0,0.5,0,0.6,0l0.5,0.1c0.6,0.1,1,0.3,1.2,0.5c0.2,0.2,0.3,0.5,0.3,0.7
		l0.2,0.8l0.9,3l1.9,6.1l3.7,12.1c2.5,8.1,5,16.2,7.4,24.3c4.9,16.2,9.4,32.5,14,48.8c4.5,16.3,8.7,32.7,13.1,49
		c4.4,16.3,8.3,32.8,9.7,49.9c0.2,2.7-1.8,5.1-4.5,5.3c-2.1,0.2-4.1-1-4.9-2.9c-7.1-15.6-11.7-31.9-15.8-48.3
		c-4.1-16.4-8.4-32.8-12.4-49.2c-4-16.4-7.9-32.9-11.5-49.4c-1.9-8.3-3.6-16.5-5.4-24.8l-2.7-12.4l-1.3-6.2l-0.7-3.1l-0.2-0.8
		c0-0.3-0.2-0.5-0.1-0.8c0.1-0.3,0.4-0.6,0.8-1l0.4-0.3c0.1-0.1,0.3-0.2,0.5-0.3c0.4-0.2,0.7-0.5,1.4-0.8
		C204,189.1,204.4,189,204.7,189z"/>
	<g>
		<path class="st10" d="M258.9,386.9c-0.2-0.6-0.7-0.9-1.3-0.8l-2.2,0.6l-2.2,0.6c-0.6,0.1-0.9,0.7-0.8,1.3c1.4,6.3,0,10.8,1.5,16.3
			c1.5,5.8,8.1,8.8,8.1,8.8l-0.2-2.5l1,2.3c0,0,4.3-5.8,2.8-11.6C264.1,396.4,260.7,393.1,258.9,386.9z"/>
		<path class="st17" d="M258.9,386.9c-0.2-0.6-0.7-0.9-1.3-0.8l-2.2,0.6l-2.2,0.6c-0.6,0.1-0.9,0.7-0.8,1.3c1.4,6.3,0,10.8,1.5,16.3
			c1.5,5.8,8.1,8.8,8.1,8.8l-0.2-2.5l1,2.3c0,0,4.3-5.8,2.8-11.6C264.1,396.4,260.7,393.1,258.9,386.9z"/>
	</g>
	<path class="st16" d="M260.6,401.4c0.2,0.7-0.3,1.5-1,1.7c-0.7,0.2-1.5-0.3-1.7-1s0.3-1.5,1-1.7
		C259.6,400.2,260.4,400.6,260.6,401.4z"/>
	<path class="st16" d="M261.8,411.6c-0.2,0-0.3-0.1-0.4-0.2l-2.5-9.6c0-0.2,0.1-0.3,0.2-0.4c0.2,0,0.3,0.1,0.4,0.2l2.5,9.6
		C262.1,411.4,262,411.5,261.8,411.6z"/>
	<path class="st10" d="M253.7,352.6l-13.5,3.5c-0.8,0.2-1.6-0.3-1.8-1l0,0c-0.2-0.8,0.3-1.6,1-1.8l13.5-3.5c0.8-0.2,1.6,0.3,1.8,1
		l0,0C254.9,351.6,254.5,352.4,253.7,352.6z"/>
</g>
<path class="st16" d="M185.3,169.5c-0.2,0.6-0.1,1.2,0.3,1.4c0.4,0.2,0.9-0.2,1.1-0.8c0.2-0.6,0.1-1.2-0.3-1.4
	C186,168.6,185.5,168.9,185.3,169.5z"/>
<path class="st16" d="M186.2,168.7l1.6,0.2C187.8,168.9,186.7,169.7,186.2,168.7z"/>
<path class="st18" d="M185.5,170.3c0,0,0,3,0.6,4.8c-1.1,0.4-2.3-0.5-2.3-0.5L185.5,170.3z"/>
<path class="st16" d="M187.7,165.9c-0.1,0-0.1,0-0.2-0.1c-1.3-1.1-2.7-0.8-2.7-0.8c-0.2,0.1-0.4-0.1-0.5-0.3
	c-0.1-0.2,0.1-0.4,0.3-0.5c0.1,0,1.8-0.5,3.4,0.9c0.2,0.1,0.2,0.4,0,0.5C188,165.9,187.8,165.9,187.7,165.9z"/>
<path class="st14" d="M164.1,169.2c0.4,4.9-1.2,12.8-4.9,15.6c0,0,2.8,5.1,11.6,6.3c9.8,1.3,5.2-4.2,5.2-4.2c-5.2-2-4.6-5.9-3.3-9.4
	L164.1,169.2z"/>
<path class="st14" d="M190.6,195.2c0.8,4.5,1.7,9.3,2.7,13.8c0.5,2.3,1.1,4.6,1.7,6.8c0.6,2.3,1.2,4.5,1.9,6.7
	c0.4,1.1,0.7,2.2,1.1,3.3l0.6,1.6l0.1,0.4l0,0.1c0,0.1,0,0.1,0.1,0.2c0.1,0.2,0.3,0.5,0.9,0.7c0.6,0.2,1.5,0.4,2.5,0.5
	c1.9,0.1,4.2-0.1,6.4-0.5c2.2-0.4,4.5-0.9,6.7-1.5l1.8,4.1c-1.1,0.7-2.2,1.2-3.4,1.8c-1.1,0.6-2.3,1.1-3.5,1.5
	c-2.4,0.9-5,1.6-7.9,1.9c-1.4,0.1-3,0.1-4.7-0.3c-1.7-0.4-3.7-1.3-5.1-3.1c-0.4-0.4-0.7-0.9-0.9-1.3c-0.1-0.2-0.2-0.5-0.4-0.7
	l-0.2-0.4l-0.8-1.8c-0.5-1.2-1-2.3-1.4-3.5c-0.9-2.4-1.7-4.7-2.4-7.1c-0.7-2.4-1.3-4.8-2-7.2c-1.2-4.8-2.2-9.6-2.9-14.6L190.6,195.2
	z"/>
<path class="st14" d="M214.4,227.6l3.9-3.1l1.7,5.9c0,0-5.3,3.8-6.7-0.7L214.4,227.6z"/>
<polygon class="st14" points="221.8,225.6 223.2,229.9 220,230.5 218.3,224.5 "/>
<polygon class="st14" points="149.7,416.2 157.7,416.7 160.1,398.2 152.1,397.6 "/>
<polygon class="st14" points="98,392.6 105,396.9 116.6,382.3 109.6,378.1 "/>
<path class="st10" d="M109.9,399c-0.1,0-0.2,0-0.3,0c-1,0-2.2-1.6-2.8-2.5c0-0.1,0-0.1,0-0.2c0-0.1,0.1-0.1,0.2-0.1
	c0.3,0.1,3.2,0.7,3.6,1.6c0.1,0.2,0.1,0.4-0.1,0.6C110.3,398.8,110.1,398.9,109.9,399z M107.4,396.7c0.8,1.2,1.7,1.9,2.2,1.9
	c0.2,0,0.4-0.1,0.6-0.3c0.1-0.1,0.1-0.2,0.1-0.3C110,397.5,108.5,397,107.4,396.7z"/>
<path class="st10" d="M109.4,396.5c-0.9,0.2-2,0.3-2.5,0.1c-0.1,0-0.1-0.1-0.1-0.1c0-0.1,0-0.1,0-0.2c0.1-0.1,1.7-1.7,2.8-1.6
	c0.3,0,0.6,0.1,0.8,0.4c0.3,0.4,0.2,0.7,0.1,0.8C110.3,396.2,109.9,396.4,109.4,396.5z M107.3,396.3c1,0.1,2.5-0.2,2.8-0.6
	c0.1-0.1,0.1-0.2-0.1-0.4c-0.1-0.2-0.3-0.2-0.5-0.2C108.9,395,107.9,395.8,107.3,396.3z"/>
<path class="st16" d="M107.1,395.3l-6.6-6.4c-0.2-0.2-0.6-0.3-0.8-0.1l-5.7,4.4c-0.6,0.5-0.6,1.4,0,1.9c2.3,2.2,3.6,3.1,6.5,5.9
	c1.8,1.7,4.2,4.4,6.7,6.8c2.4,2.3,4.9,0.1,4.1-1.1c-3.7-5.4-3.1-7.5-3.5-10.2C107.7,396.1,107.4,395.6,107.1,395.3z"/>
<path class="st10" d="M161.2,417c-0.9,0-1.9-0.2-2.5-0.3c-0.1,0-0.1-0.1-0.2-0.2c0-0.1,0-0.2,0.1-0.2c0.4-0.2,3.6-1.8,4.6-1.3
	c0.2,0.1,0.3,0.3,0.3,0.5c0,0.4-0.1,0.7-0.4,0.9C162.8,416.9,162,417,161.2,417z M159.3,416.5c1.8,0.3,3.1,0.2,3.6-0.2
	c0.2-0.2,0.3-0.4,0.2-0.6c0-0.1,0-0.2-0.1-0.2C162.5,415.1,160.7,415.8,159.3,416.5z"/>
<path class="st10" d="M158.7,416.7c0,0-0.1,0-0.1,0c-0.1,0-0.1-0.1-0.1-0.2c0-0.1,0.4-3.4,2.2-3.4c0.1,0,0.1,0,0.2,0
	c0.5,0.1,0.7,0.3,0.7,0.5C161.8,414.5,159.8,416.3,158.7,416.7C158.8,416.7,158.8,416.7,158.7,416.7z M160.8,413.5
	c-1.2,0-1.6,1.9-1.8,2.7c1-0.6,2.3-2,2.2-2.5c0,0,0-0.2-0.4-0.2C160.8,413.5,160.8,413.5,160.8,413.5z"/>
<path class="st16" d="M158.2,415.6h-9.1c-0.3,0-0.6,0.2-0.7,0.6l-1.2,7.2c-0.1,0.7,0.5,1.4,1.3,1.4c3.2-0.1,4.7-0.2,8.7-0.2
	c2.5,0,7.5,0.3,10.9,0.3c3.3,0,3.7-3.4,2.3-3.7c-6.3-1.4-8.7-3.2-10.8-5C159.2,415.8,158.7,415.6,158.2,415.6z"/>
<g>
	<polygon class="st19" points="160.1,398.2 158.8,408.5 150.8,407.2 152.1,397.6 	"/>
	<polygon class="st19" points="109.6,378.1 116.6,382.3 111.8,388.4 104.7,384.3 	"/>
</g>
<path class="st15" d="M145.6,233.4c6.3,0.8,19.7,2.6,32.7,4.4c12.7-45.8,8.9-47.1,8.9-47.1c-1-0.6-3-1.2-4.4-1.7
	c-1.5-0.6-3.1-1.1-4.7-1.5c-3.1-0.9-6.3-1.7-9.6-2.2c-6.3-1.1-12.7-1.4-19-1.1c-1.2,0.1-2.5,0.8-3.2,1.8c-0.1,0.2-0.2,0.4-0.3,0.6
	c-0.4,0.8-0.5,1.6-0.4,2.4C148.3,213.1,147.4,221.1,145.6,233.4z"/>
<path class="st19" d="M181.5,204.8c-0.9,6.4,0.7,11.6,1.8,14c2.2-8.9,3.3-15,3.9-19.2C184.7,199.4,182.1,200.4,181.5,204.8z"/>
<path class="st15" d="M186.9,190.6c5.6,3.2,9.5,10.8,10.7,15.3l-11.9,10.9c0,0-6.2-14.4-5.7-18.8
	C180.5,193.4,184.8,189.4,186.9,190.6z"/>
<path class="st14" d="M165.8,159.2c-2.5,7.6-3.7,10.7-1.5,16.1c3.3,8.1,13.2,9.8,17.9,3.2c4.2-5.9,7.6-17.3,1.6-23.4
	C177.8,149.2,168.3,151.6,165.8,159.2z"/>
<path class="st14" d="M178.3,165.9c-0.6,1.3-0.6,3-0.2,4.3c0.5,2,2,2.2,2.9,0.9c0.8-1.2,1.6-3.6,0.6-5.3
	C180.5,164.2,178.9,164.4,178.3,165.9z"/>
<path class="st16" d="M168.6,149.7c-5.4-3-15.1,5.8-17.6,20.1c-1.8,10.3,20.2,15.2,34,15.1c-0.9-2.4-6.7-9.7-3-16.7
	c2.7-5.1,5.7-3.9,5.9-9.8C188.2,150.9,178.3,145.9,168.6,149.7z"/>
<path class="st16" d="M180.9,153c6.3-0.6,12.6,5.6,7.9,11.7c0,0-3.4-3-8.2-2C177.7,163.3,180.9,153,180.9,153z"/>
<path class="st16" d="M169.6,236.6c0,0-12.7,53.6-18.6,84.4c-6.3,32.5-36.3,66.4-36.3,66.4l-10.2-5.7c0,0,18.9-30.9,25-61.3
	c12.4-61.6,4-74,16-87.1L169.6,236.6z"/>
<polygon class="st15" points="115.8,388.4 103,381.3 104.9,377.5 119.2,384.1 "/>
<path class="st19" d="M162.9,248.3c-9.9,8.6-8.8,39-7.8,52.7c4.1-19.5,9.1-41.2,12-53.7C166.1,246.5,164.7,246.7,162.9,248.3z"/>
<path class="st16" d="M177.8,237.8c0,0,5.7,63.7,2.6,87.9c-3.2,25.3-19.7,80.2-19.7,80.2l-11.6-1.5c0,0,9.5-54.5,11.1-79.5
	c1.8-27.3-6.3-90.4-6.3-90.4L177.8,237.8z"/>
<polygon class="st15" points="163.1,406.6 146.5,404.5 146.8,399.6 164.8,401.3 "/>
<g>
	<path class="st10" d="M145.3,231.4l-1.8,2.7c-0.1,0.2,0.1,0.5,0.5,0.5l34.3,4.6c0.3,0,0.6-0.1,0.6-0.3l0.6-2.9
		c0-0.2-0.2-0.4-0.5-0.4l-33.1-4.4C145.6,231.2,145.4,231.3,145.3,231.4z"/>
	<path class="st20" d="M145.3,231.4l-1.8,2.7c-0.1,0.2,0.1,0.5,0.5,0.5l34.3,4.6c0.3,0,0.6-0.1,0.6-0.3l0.6-2.9
		c0-0.2-0.2-0.4-0.5-0.4l-33.1-4.4C145.6,231.2,145.4,231.3,145.3,231.4z"/>
</g>
<path class="st16" d="M149.4,235.7l-0.9-0.1c-0.2,0-0.3-0.1-0.3-0.2l0.8-3.7c0-0.1,0.2-0.2,0.4-0.2l0.9,0.1c0.2,0,0.3,0.1,0.3,0.2
	l-0.8,3.7C149.7,235.7,149.5,235.7,149.4,235.7z"/>
<path class="st16" d="M171.7,238.8l-0.9-0.1c-0.2,0-0.3-0.1-0.3-0.2l0.8-3.7c0-0.1,0.2-0.2,0.4-0.2l0.9,0.1c0.2,0,0.3,0.1,0.3,0.2
	l-0.8,3.7C172.1,238.7,171.9,238.8,171.7,238.8z"/>
</svg>
