<?xml version="1.0" encoding="utf-8"?>
<!-- Generator: Adobe Illustrator 26.3.1, SVG Export Plug-In . SVG Version: 6.00 Build 0)  -->
<svg version="1.1" id="Layer_1" xmlns="http://www.w3.org/2000/svg" xmlns:xlink="http://www.w3.org/1999/xlink" x="0px" y="0px"
	 width="50px" height="50px" viewBox="0 0 50 50" style="enable-background:new 0 0 50 50;" xml:space="preserve">
<g>
	<path d="M24.57,47.02c-0.23,0-0.46,0-0.69,0c-0.74-0.34-1.03-0.93-0.95-1.73c0.02-0.18-0.01-0.37,0.01-0.56
		c0.01-0.21-0.04-0.32-0.28-0.38c-1.44-0.39-2.3-1.51-2.3-2.99c0-8.24,0-16.48,0-24.72c0-0.32,0.05-0.66,0.14-0.97
		c0.4-1.34,1.54-2.12,3.08-2.12c4.8,0,9.6,0,14.41,0c1.98,0,3.96-0.01,5.93,0c1.8,0.02,3.09,1.29,3.09,3.05
		c0.01,8.27,0.01,16.54,0,24.81c0,1.42-0.89,2.58-2.26,2.93c-0.28,0.07-0.34,0.19-0.32,0.44c0.01,0.17-0.01,0.35,0.01,0.52
		c0.08,0.8-0.21,1.39-0.95,1.73c-0.23,0-0.46,0-0.69,0c-1.22-0.51-0.9-1.62-0.96-2.56c-5.47,0-10.88,0-16.32,0
		C25.48,45.43,25.77,46.51,24.57,47.02z M28.1,29.05c0-1.62,0-3.24,0-4.86c0-1.95,0-3.9,0-5.85c0-0.84-0.59-1.41-1.38-1.36
		c-0.73,0.04-1.2,0.61-1.2,1.45c0,5.87,0,11.75,0,17.62c0,1.19,0,2.38,0,3.57c0,0.59,0.25,1.03,0.79,1.26
		c0.89,0.39,1.79-0.27,1.79-1.31C28.1,36.07,28.1,32.56,28.1,29.05z M39.28,29c0,1.15,0,2.29,0,3.44c0,2.41,0,4.81,0,7.22
		c0,0.71,0.49,1.25,1.15,1.33c0.64,0.07,1.25-0.37,1.39-1.02c0.04-0.18,0.03-0.37,0.03-0.56c0-6.95,0-13.9,0-20.85
		c0-0.13,0.01-0.26,0-0.39c-0.06-0.7-0.62-1.22-1.32-1.2c-0.74,0.02-1.25,0.59-1.25,1.4C39.28,21.93,39.28,25.46,39.28,29z"/>
	<path d="M2.98,24.57c0.05-0.14,0.11-0.29,0.16-0.43c0.4-1.18,1.47-2.03,2.71-2.04c3.93-0.02,7.86-0.01,11.78-0.01
		c0.03,0,0.05,0.01,0.14,0.04c0,0.15,0,0.31,0,0.48c0,5.93,0.01,11.87-0.01,17.8c0,1.39,0.07,2.75,0.9,4.02c-3.55,0-7.02,0-10.52,0
		c-0.04,0.99,0.25,2.08-0.95,2.59c-0.23,0-0.46,0-0.69,0c-0.74-0.34-1.03-0.93-0.95-1.73c0.02-0.2,0.04-0.41-0.01-0.6
		c-0.03-0.13-0.15-0.3-0.27-0.33c-0.71-0.21-1.33-0.57-1.73-1.19c-0.24-0.38-0.39-0.82-0.58-1.23C2.98,36.15,2.98,30.36,2.98,24.57z
		 M10.72,33.29c0-2.09,0-4.18,0-6.28c0-0.9-0.53-1.5-1.31-1.49c-0.76,0.01-1.27,0.6-1.27,1.48c0,4.17,0,8.34,0,12.51
		c0,0.9,0.53,1.5,1.31,1.48c0.76-0.01,1.27-0.6,1.27-1.48C10.72,37.44,10.72,35.37,10.72,33.29z"/>
	<path d="M39.28,10.93c-0.88,0-1.71,0-2.58,0c0-0.18,0-0.33,0-0.48c0-1.32,0-2.64,0-3.95c0-0.64-0.28-0.93-0.91-0.93
		c-1.4,0-2.81,0-4.21,0c-0.61,0-0.89,0.29-0.9,0.9c0,1.47,0,2.95,0,4.46c-0.86,0-1.7,0-2.56,0c-0.01-0.11-0.02-0.2-0.02-0.3
		c0-1.42-0.01-2.84,0-4.25c0.01-1.91,1.47-3.37,3.38-3.38c1.48-0.01,2.95-0.01,4.43,0c1.89,0.02,3.35,1.47,3.37,3.35
		C39.29,7.86,39.28,9.38,39.28,10.93z"/>
	<path d="M18.2,14.14c-0.18,0.87-0.35,1.68-0.53,2.57c-0.49,0-1.06,0-1.63,0c-0.76,0-1.01,0.25-1.01,1c0,0.56,0,1.12-0.01,1.67
		c0,0.03-0.02,0.05-0.04,0.1c-0.82,0-1.64,0-2.54,0c0.07-1.08-0.19-2.19,0.25-3.24c0.53-1.25,1.48-1.99,2.85-2.08
		C16.44,14.09,17.34,14.14,18.2,14.14z"/>
</g>
</svg>
