<?xml version="1.0" encoding="utf-8"?>
<!-- Generator: Adobe Illustrator 26.0.1, SVG Export Plug-In . SVG Version: 6.00 Build 0)  -->
<svg version="1.1" id="Layer_1" xmlns="http://www.w3.org/2000/svg" xmlns:xlink="http://www.w3.org/1999/xlink" x="0px" y="0px"
	 width="31.07px" height="31.07px" viewBox="0 0 31.07 31.07" style="enable-background:new 0 0 31.07 31.07;" xml:space="preserve"
	>
<style type="text/css">
	.st0{fill:#0478AF;}
</style>
<path class="st0" d="M8.71,16.08c-3.29-4.05-2.15-9.55,1.18-12.3c3.29-2.72,8.04-2.74,11.3,0.03c1.82,1.55,2.86,3.53,3.08,5.91
	c0.22,2.38-0.47,4.49-1.89,6.3c0.83,0.63,1.7,1.19,2.45,1.88c2.65,2.42,4.14,5.44,4.45,9.02c0.03,0.39,0.05,0.78,0.05,1.17
	c0,0.68-0.53,1.21-1.21,1.24c-0.64,0.03-1.21-0.47-1.28-1.13c-0.11-0.92-0.13-1.87-0.34-2.76c-0.83-3.42-2.87-5.9-6.01-7.49
	c-0.09-0.04-0.25-0.03-0.34,0.02c-3.08,1.77-6.15,1.77-9.23,0c-0.09-0.05-0.25-0.06-0.34-0.01c-3.43,1.75-5.52,4.51-6.19,8.31
	c-0.11,0.63-0.11,1.29-0.17,1.93c-0.05,0.49-0.32,0.84-0.77,1.02c-0.47,0.19-0.91,0.11-1.29-0.22c-0.29-0.25-0.43-0.57-0.43-0.96
	c0.01-3.01,0.9-5.74,2.68-8.17c1.11-1.51,2.49-2.74,4.1-3.69C8.58,16.16,8.64,16.12,8.71,16.08z M15.53,16.78
	c3.46,0,6.27-2.8,6.27-6.25c0.01-3.47-2.81-6.29-6.27-6.29c-3.46,0-6.26,2.8-6.27,6.26C9.26,13.97,12.06,16.78,15.53,16.78z"/>
</svg>
