<?xml version="1.0" encoding="utf-8"?>
<!-- Generator: Adobe Illustrator 26.5.0, SVG Export Plug-In . SVG Version: 6.00 Build 0)  -->
<svg version="1.1" id="Layer_1" xmlns="http://www.w3.org/2000/svg" xmlns:xlink="http://www.w3.org/1999/xlink" x="0px" y="0px"
	 width="50px" height="50px" viewBox="0 0 50 50" style="enable-background:new 0 0 50 50;" xml:space="preserve">
<style type="text/css">
	.st0{fill:#0C62C1;}
</style>
<g>
	<path class="st0" d="M48.5,12.8c-0.2,0.7-0.3,1.4-0.5,2c-0.4,1.1-1,2-1.8,2.9c-0.7,0.7-1.6,0.7-2.3,0.1c-0.1-0.1-0.2-0.2-0.3-0.3
		c-2.9-2.9-5.8-5.8-8.7-8.7c-1-1-1-1.9,0.1-2.9c2.5-2.1,5.4-2.6,8.4-1.5c2.9,1.1,4.6,3.4,5.2,6.5c0,0.1,0.1,0.2,0.1,0.2
		C48.5,11.6,48.5,12.2,48.5,12.8z M44.7,13.9c0.9-1.5,0.5-4-0.9-5.5c-1.5-1.5-4-2-5.6-1C40.4,9.6,42.6,11.8,44.7,13.9z"/>
	<path class="st0" d="M1.5,11C1.7,10.4,1.8,9.8,2,9.2C4,3.6,11.1,1.9,15.4,6c0.8,0.7,0.8,1.7,0,2.5c-1.9,1.9-3.8,3.8-5.7,5.7
		c-1.1,1.1-2.2,2.2-3.3,3.3c-0.9,0.9-1.8,0.9-2.7-0.1c-1.2-1.3-1.9-2.7-2.1-4.4c0-0.1-0.1-0.2-0.1-0.3C1.5,12.2,1.5,11.6,1.5,11z
		 M5.3,13.9c2.2-2.2,4.4-4.3,6.5-6.5c-1.5-0.9-4-0.5-5.5,0.9C4.8,9.8,4.3,12.2,5.3,13.9z"/>
	<path class="st0" d="M35,41.4c-6.7,4-13.3,4-19.9,0c-0.5,0.5-1,1.1-1.5,1.7c-0.8,0.9-1.6,1.8-2.5,2.7c-0.5,0.5-1.1,0.7-1.7,0.4
		c-0.6-0.2-1-0.7-1.1-1.3c-0.1-0.6,0.1-1,0.5-1.5c1.2-1.3,2.3-2.6,3.5-3.9c0.1-0.1,0.1-0.2,0.2-0.3c-4.1-4.2-5.9-9.2-5.3-15
		c0.6-4.7,2.7-8.6,6.4-11.6c7.2-5.9,17.4-5.3,24,1.2c6.3,6.3,7.7,17.6-0.2,25.5c1.2,1.4,2.5,2.7,3.7,4.1c0.4,0.4,0.6,0.9,0.5,1.5
		c-0.1,0.6-0.5,1.1-1.1,1.3c-0.7,0.2-1.3,0-1.7-0.5c-1.1-1.2-2.1-2.4-3.2-3.5C35.5,41.9,35.2,41.7,35,41.4z M39.7,26.5
		c0-8-6.6-14.6-14.6-14.6c-8,0-14.7,6.6-14.7,14.6c0,8.1,6.6,14.6,14.7,14.6C33.1,41.1,39.7,34.5,39.7,26.5z"/>
	<path class="st0" d="M25.6,26c0.2,0,0.4,0,0.5,0c1.2,0,2.4,0,3.7,0c1,0,1.7,0.7,1.7,1.6c0,0.9-0.7,1.6-1.8,1.6c-1.9,0-3.8,0-5.6,0
		c-1.1,0-1.8-0.7-1.8-1.8c0-2.5,0-5.1,0-7.6c0-1,0.7-1.8,1.6-1.8c0.9,0,1.6,0.7,1.6,1.8c0,1.8,0,3.7,0,5.5
		C25.6,25.6,25.6,25.7,25.6,26z"/>
</g>
</svg>
