<?xml version="1.0" encoding="utf-8"?>
<!-- Generator: Adobe Illustrator 26.5.0, SVG Export Plug-In . SVG Version: 6.00 Build 0)  -->
<svg version="1.1" id="Layer_1" xmlns="http://www.w3.org/2000/svg" xmlns:xlink="http://www.w3.org/1999/xlink" x="0px" y="0px"
	 width="50px" height="50px" viewBox="0 0 50 50" style="enable-background:new 0 0 50 50;" xml:space="preserve">
<style type="text/css">
	.st0{fill:#FFFFFF;}
</style>
<g>
	<path class="st0" d="M1,17.8c0.3-1.1,1.2-1.8,2-2.5c4.6-4.1,9.9-6.8,15.9-7.8c9.6-1.7,18.3,0.4,26.1,6.2c1.1,0.8,2.1,1.7,3.1,2.7
		c1.1,1.1,1.2,2.6,0.2,3.7s-2.6,1.1-3.7,0c-1.9-1.8-4-3.4-6.3-4.7c-4.6-2.5-9.5-3.6-14.6-3.3c-6,0.3-11.4,2.3-16,6.1
		c-0.7,0.6-1.3,1.2-2,1.8C4,21.6,2,21.1,1.2,18.9c0,0,0-0.1-0.1-0.1C1,18.4,1,18.1,1,17.8z"/>
	<path class="st0" d="M26.1,16.8c5.1,0.1,10.5,2.2,14.9,6.6c0.9,0.9,1.1,2,0.7,3c-0.5,1-1.5,1.6-2.6,1.5c-0.5-0.1-1-0.3-1.4-0.6
		c-0.8-0.6-1.4-1.3-2.2-1.8c-3.7-2.7-7.9-3.9-12.4-3.4c-3.8,0.4-7.1,1.8-9.9,4.4c-0.3,0.3-0.7,0.6-1,0.9c-1,0.8-2.5,0.7-3.4-0.2
		c-0.9-0.9-1-2.4-0.2-3.4c1.1-1.3,2.4-2.3,3.8-3.2C16.2,18.1,20.5,16.8,26.1,16.8z"/>
	<path class="st0" d="M25,26.7c3.5,0.1,6.6,1.3,9.1,3.8c1,1,1.1,2.5,0.2,3.6c-0.9,1-2.5,1.2-3.6,0.2c-1.2-1-2.4-1.9-3.9-2.2
		c-2.7-0.6-5.1,0-7.2,1.9c-0.5,0.5-1.1,0.9-1.8,0.9c-1.2,0.1-2.2-0.5-2.6-1.5c-0.5-1-0.2-2.1,0.6-2.9C18.4,28,21.4,26.7,25,26.7z"/>
	<path class="st0" d="M28.4,39.7c0,1.9-1.5,3.4-3.4,3.4s-3.4-1.5-3.4-3.4s1.5-3.4,3.4-3.4S28.4,37.8,28.4,39.7z"/>
</g>
</svg>
